<svg id="コンポーネント_17_4" data-name="コンポーネント 17 – 4" xmlns="http://www.w3.org/2000/svg" width="238" height="61.005" viewBox="0 0 238 61.005">
  <path id="パス_224" data-name="パス 224" d="M1988.728,716.427c.094.217-.357.495.138.735a6.341,6.341,0,0,0,3.451.943,1.9,1.9,0,0,1,1.57.7c.2.2.474.32.338.746a.445.445,0,0,1-.533.31,3.535,3.535,0,0,1-.726-.191c-.24-.084-.512-.358-.7-.275a4.071,4.071,0,0,1-3.047-.258c-1.6.874-3.32,1.079-4.99,1.656.709.445,1.373.863,2.151.233a1.764,1.764,0,0,1,1.084-.257c.475-.012.905-.014,1.094-.768a.431.431,0,0,1,.5-.368,2.1,2.1,0,0,1,1.564.809c-.513.74-1.3.519-1.963,1.425.763-.317,1.362-.3,1.85-.567,1.288-.706,2.43.017,3.614.417.344.116.535.467.725.853.229.461.516,1,.958.943.521-.068.17,1.305.868.826a7.509,7.509,0,0,1,1.286-.6c.11-.049.234-.169.38.152-.481,1.132-1.592,1.325-2.245,2.385.623.82,1.56.688,2.282,1.594a3.759,3.759,0,0,1-2.462-.38l-.693,1.469a2.2,2.2,0,0,0,2.275.5,1.511,1.511,0,0,1,2.111,1.033,1.665,1.665,0,0,0,1.135.863,27.76,27.76,0,0,1-2.852,2.384c-.334-.272.06-.817-.29-1.027-.222-.134-.509.039-.714-.3a1.662,1.662,0,0,1,.29-.25c.271-.137.632-.226.5-.75-.1-.409-.315-.8-.708-.828a1.619,1.619,0,0,0-.956.316c-.551.342-1.021.844-1.732.588-.47-.169-.669.587-.39,1.26a8.877,8.877,0,0,1,.395,1.219.914.914,0,0,1-.309.99c-.148.12-.312.171-.453,0-.1-.126-.046-.282-.02-.452.214-1.422-.045-1.746-1.07-1.6a48.028,48.028,0,0,0-4.812,1.458,1.015,1.015,0,0,0-.849.6c-.161.4-.359.825.12,1.095.151.085.366.137.331.4-.052.4-.114.721.314.464a.6.6,0,0,0,.279-.786,1.908,1.908,0,0,0-.336-.484.7.7,0,0,1-.028-.878c.213-.321.565-.253.65,0,.458,1.346,1.086.71,1.772.456a1.231,1.231,0,0,1,1.6.517c.569.936,1.42.259,2.074.72.159.112.2-.287.315-.419.732-.867,1.45-1.477,2.56-1.04a3.458,3.458,0,0,0,2.76-.416,9.788,9.788,0,0,1,4.2-1.33,17.733,17.733,0,0,1-1.766,2.989c-.161.237-.444.43-.3.822.259.715-.163,1.081-.337,1.623-.417,1.307-1.3,1.25-2.048,1.395-1.243.241-2.316,1.116-3.516,1.509a5.62,5.62,0,0,1-1.426.465c.106.586.4.544.682.591.7.12,1.453-.078,2.032.78.307.454.685-.117,1.038-.154a.438.438,0,0,1,.536.277.722.722,0,0,1-.15.746c-.218.254-.459.471-.694.7a4.51,4.51,0,0,0-.989.992c-.548,1.021-1.131,1.467-2.1,1.047-.577-.251-.994.642-1.526.918a6.8,6.8,0,0,0-1.327,1.193c-.124.119-.316.243-.23.507.1.312.3.295.523.214a3.365,3.365,0,0,1,.849-.183.442.442,0,0,1,.5.365.863.863,0,0,1-.194.888,1.4,1.4,0,0,1-.8.427,7.255,7.255,0,0,0-1.845.267.641.641,0,0,1-.594-.165c-.376-.273-.423-.831-.483-1.282-.035-.262.3-.487.564-.534a.71.71,0,0,0,.619-.428c-.311-.5-.738.227-1.083-.279.478-1.09,1.716-.014,2.148-1.272-.312-.431-.66-.277-.954-.211a139.554,139.554,0,0,1-14.616,2.443,90.565,90.565,0,0,1-9.416.6c-1.61.018-3.214.238-4.82.4-2.346.243-4.7.354-7.052.459-2.019.089-4.04.086-6.06.137-.227.006-.5-.124-.672.229.069.367.316.32.494.354a16.67,16.67,0,0,0,7.856.011,3.375,3.375,0,0,1,3.026.381c.311.221.66.312.937-.011.493-.575,1.068-.492,1.645-.521,1.612-.082,3.222-.193,4.834-.29a2.578,2.578,0,0,1,1.412.16c-.052.838-.7.308-.839.894a48.882,48.882,0,0,0,6.785-.467c2.195-.162,4.313-.916,6.483-1.223a16.08,16.08,0,0,1,3.164-.4,3.716,3.716,0,0,0,2.56-1.07,3.607,3.607,0,0,1,1.261-.663.629.629,0,0,1,.71.895c-.527,1.077-.395,2.5-1.135,3.462-.3.393-.511.707-.981.815a4.616,4.616,0,0,0-2.8,1.612,3.854,3.854,0,0,1-1.657,1.094c-.945.366-1.923.57-3.16.919a8.065,8.065,0,0,0,2.8-.423,8.613,8.613,0,0,1,1.958-.356,2.919,2.919,0,0,0,2.377-1.231c.563-.888,1.151-.187,1.693-.422.065.284.243.61.406.335.4-.67,1.221.065,1.481-.9.108-.4.329-.541.575-.331.3.259.206.689.108,1.062-.133.5-.679.412-.8,1.07a.933.933,0,0,0,1.447-.168c.453-1.093,1.232-.8,1.843-1.154a3.337,3.337,0,0,1,2.052-.451c.221.022.508.282.55-.3.062-.85.543-.682.936-.692.582-.015.737.627.917,1.179a1.3,1.3,0,0,1-.268,1.348,6.385,6.385,0,0,1-2.06,1.512c-.709.3-1.446.475-2.161.747-.513.195-1.12.067-1.435.954-.144.408-.6.264-.928.291-1.814.154-3.628.282-5.442.434-3.959.332-7.905.91-11.876,1.018-4.63.126-9.267.183-13.885-.128-5.022-.338-10.052-.471-15.069-1.128-2.949-.386-5.932-.526-8.9-.721a38.684,38.684,0,0,1-5.8-.661,19.776,19.776,0,0,0-2.845-.186c-1.935-.137-3.869-.382-5.8-.407-1.609-.02-3.216-.09-4.823-.108q-7.374-.085-14.748.059c-4.546.084-9.091.293-13.635.45-3.3.114-6.6.222-9.9.354-4.375.176-8.753.29-13.123.588-4.289.292-8.581.245-12.868.462-2.963.151-5.929.144-8.891.224-1.25.034-2.565-.106-3.8-.012-1.935.148-3.869.007-5.8.2-2.594.254-5.2.206-7.792.4-2.885.216-5.776.3-8.663.469-2.639.151-5.27.484-7.912.6a44.567,44.567,0,0,0-8.367.826,28.188,28.188,0,0,1-5.434.4,4.365,4.365,0,0,1-1.327-.376c-.571-.176-1.035-.4-.744-1.452.181-.651-.143-.884-.6-.87a5.955,5.955,0,0,1-1.994-.206c.683-.854,1.656-.441,2.377-1.07-.047-.563-.382-.329-.574-.321a23.088,23.088,0,0,1-6.17-.486c-.405-.094-.869-.067-.98-.778s-.473-.683-.854-.575c-.524.15-1.043.34-1.565.505a.293.293,0,0,1-.409-.23.472.472,0,0,1,.188-.541,3.765,3.765,0,0,1,2.434-.962,5.021,5.021,0,0,0,1.983-.7,5.183,5.183,0,0,0-2.986.108,20.628,20.628,0,0,0-3.673.643c-.509.191-1.041-.228-1.509-.542a.547.547,0,0,1,.016-.916c.448-.392.139-.658-.105-.836a2.622,2.622,0,0,0-.712-.25,3.933,3.933,0,0,1-1.267-.643c-1.325-1.1-1.354-1.972.057-3.271-.889-.1-1.313-1.025-1.973-1.487a1.764,1.764,0,0,1-.841-1.791.52.52,0,0,0-.066-.287c-.784.033-.655-1.074-1.026-1.479a2.587,2.587,0,0,1-1.019-2.062c.009-.261-.224-.248-.39-.258-.234-.014-.508.085-.627-.315a.511.511,0,0,1,.151-.44c.38-.413,1.028-.455,1.153-1.173.1-.565-.573-1.088-.186-1.82.033-.063-.2-.6-.5-.624a1.754,1.754,0,0,1-1.07-.688c.716-.5.819-1.645,1.484-2.222-.285-.5-.712-.614-1.029-.939-.279-.287-.751-.415-.325-1.091a.616.616,0,0,0-.089-.442,2.91,2.91,0,0,1-.666-2.482,1.544,1.544,0,0,0-.777-1.373,1.51,1.51,0,0,1-.809-1.555,2.234,2.234,0,0,0-1.3-1.772c-.309-.131-.659-.162-.859-.76,1.05-.806.914-2.27.968-3.61.015-.385.019-.62.291-.776.254-.146.185-.375.12-.678-.071-.323.445-.119.343-.444-.049-.158-.383-.123-.569-.235a3.889,3.889,0,0,1-1.125-1.743c-.247-.516.293-.979.664-1.135.454-.192.9-.2.724-1.139a.418.418,0,0,1,.512-.506,6.6,6.6,0,0,1,.848.247.871.871,0,0,0,1.117-.466,3.1,3.1,0,0,1,2.426-1.738c1.037-.139,1.019-.283.728-1.688-.409-1.976-.023-3.058,1.337-3.286a3.741,3.741,0,0,0,1.03-.536,3.249,3.249,0,0,1,2.736-.152,6.829,6.829,0,0,0,3.577.127c1.509-.323,3.028-.51,4.538-.823,4.729-.98,9.437-2.186,14.207-2.788,3.661-.462,7.33-.61,11-.726,4.7-.148,9.4-.094,14.094.107,2.968.127,5.94.32,8.91.458,4.9.228,9.8.546,14.712.525a8.459,8.459,0,0,0,1.355-.18,5.892,5.892,0,0,1,2.217.043,13.374,13.374,0,0,0,5.172.094,18.7,18.7,0,0,1,3.222-.136c2.636-.017,5.274.092,7.909-.148.983-.09,1.973.134,2.969.106,2.833-.081,5.669-.156,8.5-.057,2.511.088,5.015-.109,7.531.054,3.9.254,7.8.094,11.706.182,3.5.08,7,.243,10.5.4,6.345.277,12.691.5,19.041.494,1.943,0,3.885.077,5.828.126a1.5,1.5,0,0,0,.91-.116c-.071-.4-.548-.268-.548-.745.36-.3.715-.026,1.037.119a5.381,5.381,0,0,0,2.419.422,19.672,19.672,0,0,1,4.906.64,27.423,27.423,0,0,0,5.182.486c1.238.041,2.458.293,3.69.377.932.063,1.873.438,2.756-.366.258-.235.544.065.8.317l-.662.371c2.037.176,3.914.519,5.8.709,2.085.211,4.149.59,6.222.912.329.051.751.37.8-.513.026-.445.347-.373.593-.339,1.229.171,2.462.3,3.684.537a6.665,6.665,0,0,0,1.6.12c1.881-.089,3.76-.207,5.64-.326.373-.024.766-.134,1.079.2,1.033,1.1,2.122.957,3.365.749.836-.14,1.838-.6,2.718.2a1.549,1.549,0,0,0,1.21.268c1.235-.072,2.448.436,3.688.233.226-.037.571-.106.625.307.084.624-.342.46-.59.543a.848.848,0,0,0-.59.419c1,.892,2.076.5,3.116.567.057-.59-.175-.693-.42-.782-.155-.056-.342-.082-.276-.407.044-.214.087-.439.259-.538.074-.043.169-.113.233-.084.307.144.838.257.87.49.182,1.272,2.121.687,1.485,2.724a1.17,1.17,0,0,0-1.776-.105,1.134,1.134,0,0,1-1.186.243c-.463-.157-.874.065-1.363.527l1.824,1.008c-1.326,2.1-3.242,2.411-4.968,3.268-.059-.47.024-1.032-.6-.888s-1.317.317-1.659-.8c-.11-.36-.4-.2-.507-.007-.415.736-.945.536-1.467.392a1.261,1.261,0,0,0-1.354.195c-.193-.336.568-.952-.245-.928-.2.006-.443-.23-.592-.007-.466.7-1.194.563-1.79,1.156.808-.616.87.85,1.4.751a3.964,3.964,0,0,1,1.708-.126,3.837,3.837,0,0,1,.84.277A3.927,3.927,0,0,0,1988.728,716.427Zm.454,14.422c-.342.126-.758-.087-1.144.4.691.038.691.038,1.131-.421.5.286.9.029,1.269-.42C1990.041,730.666,1989.579,730.587,1989.182,730.849Zm-93.353,23.844a6.422,6.422,0,0,0-3.235-.012l-4.717.154a37.259,37.259,0,0,0,4.032.131c.239,0,.5.018.672-.3a4.314,4.314,0,0,0,3.233.008c.355.032.723.464,1.159-.015C1896.514,754.361,1896.176,754.61,1895.829,754.692Zm-68.2-2.588a5.863,5.863,0,0,0,3.442-.191c-.281-.213-.4-.379-.483-.354a3.259,3.259,0,0,1-2.064.1c-.3-.107-.647.11-.883.472a3.009,3.009,0,0,0-.281-.3c-.154-.122-.332-.119-.365.148-.035.285.156.346.321.315A1.044,1.044,0,0,0,1827.627,752.1Zm55.594,3.338a2.315,2.315,0,0,0-2-.567c-1.051.008-2.086.274-3.144.3-.982.024-2.085-.38-3.175.525.7-.2,1.174.272,1.713.292,2.1.075,4.19-.4,6.293-.314.1,0,.2-.173.3-.266l3.643-.129a5.155,5.155,0,0,0-3.363-.352C1883.31,754.966,1883.249,755.215,1883.222,755.442Zm39.466-5.254a.5.5,0,0,0-.532-.358c-4.866-.027-9.7-.914-14.574-.858a26.732,26.732,0,0,0-2.831-.277c-1.893.232-3.78-.027-5.667.1a3.284,3.284,0,0,1-1.233-.108,6.78,6.78,0,0,0-2.452-.141c-2.514.106-5.026.3-7.541.417-.612.028-1.28-.36-1.834-.144-1.349.528-2.7.127-4.042.2-2.538.136-5.079.641-7.623.3-.9-.12-1.678.489-2.543.484-3.836-.019-7.663.348-11.494.542-2.6.131-5.193.345-7.791.436-2.47.087-4.932.507-7.416.179a2.148,2.148,0,0,0-2.167.608c.094.279.182.393.318.386a42.836,42.836,0,0,1,4.295-.171c1.275.069,2.53-.434,3.79-.173.744.154,1.484.072,2.22.159.787.093,1.533-.279,2.325-.217a57.27,57.27,0,0,0,6.017-.048c.473-.012.745-.49,1.252-.412,1.431.221,2.9.653,4.307-.265.154-.1.412,0,.6.089a2.792,2.792,0,0,0,1.349.182c1.609-.022,3.219-.035,4.826-.1,4.647-.175,9.293-.484,13.94-.524,3.324-.029,6.639-.365,9.965-.346,1.187.007,2.386-.076,3.579-.089,3.913-.042,7.828-.042,11.742-.028.988,0,1.977.207,2.961.159a33.293,33.293,0,0,1,4.418.013C1921.453,750.231,1922.06,750.189,1922.687,750.189Zm59.884-26.309c.32.579.825.357,1.006.635.489.748.989.463,1.519.256a1,1,0,0,1,1.175.2c.185.178.466.258.725-.312-.652.277-.564-.87-1.194-.806C1984.78,723.957,1983.749,723.88,1982.571,723.88Zm-181.21,29.405c2.647.316,5.268-.26,7.9-.463A36.319,36.319,0,0,0,1801.361,753.285Zm100.7-46.359a10.029,10.029,0,0,0,4.917.092C1905.351,706.475,1903.7,706.886,1902.062,706.926Zm-85.013,45.447a5.879,5.879,0,0,0,3.834-.067A7.766,7.766,0,0,0,1817.049,752.373Zm15.937-.531c2.834.436,4.152.33,5.034-.437A38.719,38.719,0,0,1,1832.985,751.842Zm122.928,5.372a2.359,2.359,0,0,0,2.167.241c.744-.209,1.47.268,2.214.014A12.579,12.579,0,0,0,1955.913,757.215Zm-116.956-5.391a5.859,5.859,0,0,0,2.928-.163C1840.882,750.763,1839.937,751.867,1838.958,751.824Zm126.141,5.6c1.085.82,2.193.36,3.3,0Zm-94.353-1.872c-.873-.043-1.752-.4-2.7.208C1869.105,756.952,1869.9,755.547,1870.745,755.556Zm117.981-17.415c.55.212.911-.167,1.317-.178.376-.01.323-.54.378-.9.028-.181-.011-.331-.147-.385-.223-.088-.39.085-.545.267C1989.426,737.3,1989.126,737.664,1988.727,738.141Zm-81.7,16.048a11.066,11.066,0,0,0,4.03,0Zm-82.787,2.651a9.565,9.565,0,0,0-3.021.12A9.16,9.16,0,0,0,1824.235,756.84Zm137.515.626a2.362,2.362,0,0,0,2.523.109C1963.5,757.123,1962.716,757.447,1961.75,757.466Zm11.136.934c.918.869,1.568-.342,2.295-.16A3.857,3.857,0,0,0,1972.887,758.4ZM1824.2,751.9q.005.2.011.406c.511,0,1.022.019,1.533-.01.181-.01.28-.232.228-.472-.036-.162-.2-.272-.295-.187C1825.227,752.037,1824.706,751.9,1824.2,751.9Zm171.062-21.208c.2-.072.361-.279.3-.319-.433-.293-.565-1.065-1.059-1.214-.126-.039-.405.164-.3.35A2.991,2.991,0,0,0,1995.264,730.691Zm-25.394,26.941c.53-.153,1.141.243,1.819-.291A1.951,1.951,0,0,0,1969.87,757.632Zm-123.15-1.447a5.886,5.886,0,0,0,2.468,0Zm34.777-49.541a1.993,1.993,0,0,0-1.586-.091A1.408,1.408,0,0,0,1881.5,706.643Zm13.85.245a4.913,4.913,0,0,0-2.389-.091A4.01,4.01,0,0,0,1895.347,706.888Zm36.093,48.363c0-.036.009-.071.014-.106l-1.686-.155c0,.087,0,.174-.005.261Zm-92.421.963h-1.8A2.392,2.392,0,0,0,1839.019,756.214Zm34.683-49.448c.01.087.021.174.032.26l1.77-.131c0-.043,0-.086-.007-.129Zm27.337.071h-1.2C1900.241,707.093,1900.635,707.371,1901.039,706.837Zm77.323,1.377c-.392-.272-.689-.1-1.058.223C1977.768,708.779,1978.079,708.706,1978.362,708.213Zm-32.554,48.07a6.626,6.626,0,0,0-.869-.16c-.227-.009-.482-.119-.669.183C1944.746,756.565,1945.217,756.334,1945.808,756.283Zm-67.364-49.77c-.294.089-.635-.249-.986.257A1.126,1.126,0,0,0,1878.444,706.513Zm61.453,49.342-.043.11h1.233c0-.037,0-.074,0-.11Zm32.249,1.542a1.393,1.393,0,0,0,1.34-.1C1973.071,757.028,1972.744,757.171,1972.146,757.4ZM1812.8,752.534a1.359,1.359,0,0,0,1.259-.013A1.583,1.583,0,0,0,1812.8,752.534Zm113.589,2.242a1.223,1.223,0,0,0-1.245.108A1.07,1.07,0,0,0,1926.386,754.776Zm.764.176a1.338,1.338,0,0,0,1.371-.034C1927.961,754.815,1927.624,754.585,1927.15,754.952Zm-21.092-.54a.534.534,0,0,0-.808-.093C1905.5,754.359,1905.7,754.822,1906.058,754.412Zm-114.65-46.184a2.005,2.005,0,0,0,1.349-.42A1.1,1.1,0,0,0,1791.409,708.228Zm162.135,49.1c.515-.033.889.217,1.4-.151A1.818,1.818,0,0,0,1953.544,757.329Zm-124.453-.779c-.374-.054-.595-.179-.793.072C1828.528,756.786,1828.746,756.715,1829.091,756.55Zm-6.507-4.287a.334.334,0,0,0,.423-.261c.06-.221-.124-.224-.224-.229-.165-.01-.346.011-.355.312C1822.427,752.144,1822.536,752.21,1822.585,752.263Zm169.3-9.306c.4-.087.728.108,1-.524C1992.509,742.451,1992.205,742.4,1991.886,742.957ZM1844.308,756.22c.065.066.132.186.188.179.17-.021.484.115.451-.19C1844.929,756.036,1844.531,755.894,1844.308,756.22Zm69.667-1.818c-.126-.167-.3-.285-.462-.109Zm-81.8,2.094c.029.079.037.145.062.162a.776.776,0,0,0,.71.054.126.126,0,0,0,.033-.229,1.152,1.152,0,0,0-.465-.118A.983.983,0,0,0,1832.177,756.5Zm59.988-49.713c-.042-.251-.183-.314-.342-.3-.066,0-.178.071-.187.13-.039.278.116.342.273.363A.2.2,0,0,0,1892.164,706.782Zm31.386,47.807a.621.621,0,0,0,.622.008C1923.968,754.552,1923.765,754.418,1923.551,754.589Zm23-3.027a.983.983,0,0,0-.244-.037.5.5,0,0,0-.164.087.955.955,0,0,0,.219.028A.716.716,0,0,0,1946.553,751.563Zm-119.738,4.991a1.866,1.866,0,0,0-.354-.023c-.043.005-.082.088-.121.135a1.538,1.538,0,0,0,.322.061C1826.7,756.727,1826.743,756.638,1826.815,756.554Zm46.257-1a.408.408,0,0,0,.6.2.14.14,0,0,0,.032-.235A.412.412,0,0,0,1873.072,755.558Zm115.51-11.914a1.159,1.159,0,0,0,.256-.286c.054-.115-.02-.212-.117-.156a2.565,2.565,0,0,0-.3.246Zm-63.98,6.614c-.1-.07-.165-.147-.222-.143a1.392,1.392,0,0,0-.32.1c.058.046.116.129.175.129A1.663,1.663,0,0,0,1924.6,750.257Zm3.2.359.162-.09a.842.842,0,0,0-.226-.052c-.055,0-.109.054-.163.084C1927.649,750.578,1927.726,750.6,1927.8,750.616Zm47.56,6.422.227-.047c-.055-.032-.107-.085-.163-.092a.819.819,0,0,0-.223.03Z" transform="translate(-1765.385 -701.885)" fill="#750000" fill-rule="evenodd"/>
  <text id="症状例へ" transform="translate(119 31)" fill="#fff" font-size="14" font-family="HiraginoSans-W3, Hiragino Sans" letter-spacing="0.05em"><tspan x="-29.05" y="0">症状例へ</tspan></text>
  <path id="多角形_5" data-name="多角形 5" d="M5,0l5,5.833H0Z" transform="translate(196.002 22) rotate(90)" fill="#fff"/>
</svg>
