<svg xmlns="http://www.w3.org/2000/svg" width="358" height="61.005" viewBox="0 0 358 61.005">
  <path id="パス_224" data-name="パス 224" d="M2101.337,716.427c.141.217-.536.495.207.735a13.383,13.383,0,0,0,5.191.943,3.624,3.624,0,0,1,2.361.7c.3.2.714.32.508.746a.759.759,0,0,1-.8.31,7.559,7.559,0,0,1-1.093-.191c-.361-.084-.77-.358-1.059-.275a8.97,8.97,0,0,1-4.583-.258c-2.4.874-4.995,1.079-7.507,1.656,1.066.445,2.066.863,3.236.233a3.761,3.761,0,0,1,1.631-.257c.715-.012,1.362-.014,1.646-.768a.669.669,0,0,1,.755-.368,3.858,3.858,0,0,1,2.352.809c-.772.74-1.951.519-2.953,1.425,1.148-.317,2.049-.3,2.784-.567,1.937-.706,3.655.017,5.437.417a1.865,1.865,0,0,1,1.092.853c.344.461.776,1,1.441.943.784-.068.255,1.305,1.305.826a14.492,14.492,0,0,1,1.934-.6c.166-.049.351-.169.571.152-.723,1.132-2.4,1.325-3.377,2.385.936.82,2.346.688,3.433,1.594a8.2,8.2,0,0,1-3.7-.38l-1.042,1.469a4.6,4.6,0,0,0,3.422.5c1.335-.257,2.429-.172,3.176,1.033a2.61,2.61,0,0,0,1.707.863,42.477,42.477,0,0,1-4.29,2.384c-.5-.272.091-.817-.436-1.027-.334-.134-.765.039-1.074-.3a2.493,2.493,0,0,1,.436-.25c.408-.137.95-.226.755-.75a1.17,1.17,0,0,0-1.065-.828,3.324,3.324,0,0,0-1.438.316,3.847,3.847,0,0,1-2.605.588c-.707-.169-1.006.587-.587,1.26a6.993,6.993,0,0,1,.594,1.219.765.765,0,0,1-.465.99.585.585,0,0,1-.681,0c-.156-.126-.07-.282-.03-.452.323-1.422-.068-1.746-1.61-1.6-2.479.243-4.81,1.042-7.239,1.458a1.657,1.657,0,0,0-1.277.6c-.243.4-.54.825.18,1.095.228.085.551.137.5.4-.079.4-.172.721.472.464.367-.147.636-.4.419-.786a2.124,2.124,0,0,0-.505-.484.529.529,0,0,1-.043-.878.658.658,0,0,1,.978,0c.689,1.346,1.633.71,2.666.456a2.4,2.4,0,0,1,2.414.517c.855.936,2.136.259,3.12.72.239.112.3-.287.473-.419a4.027,4.027,0,0,1,3.851-1.04,7.509,7.509,0,0,0,4.153-.416,20.327,20.327,0,0,1,6.314-1.33,18.077,18.077,0,0,1-2.657,2.989c-.242.237-.667.43-.455.822.389.715-.246,1.081-.507,1.623-.628,1.307-1.952,1.25-3.08,1.395-1.87.241-3.483,1.116-5.289,1.509a11.683,11.683,0,0,1-2.145.465c.159.586.6.544,1.026.591,1.057.12,2.185-.078,3.056.78.461.454,1.031-.117,1.562-.154.325-.022.64-.006.805.277a.557.557,0,0,1-.225.746c-.328.254-.691.471-1.044.7a6.223,6.223,0,0,0-1.487.992,2.649,2.649,0,0,1-3.16,1.047c-.868-.251-1.5.642-2.3.918a10.008,10.008,0,0,0-2,1.193c-.187.119-.476.243-.346.507.152.312.449.295.786.214a7.312,7.312,0,0,1,1.278-.183.7.7,0,0,1,.759.365.673.673,0,0,1-.292.888,2.57,2.57,0,0,1-1.2.427,16.1,16.1,0,0,0-2.776.267,1.325,1.325,0,0,1-.894-.165,1.536,1.536,0,0,1-.727-1.282c-.052-.262.458-.487.848-.534a1.164,1.164,0,0,0,.931-.428c-.468-.5-1.109.227-1.63-.279.719-1.09,2.582-.014,3.231-1.272a1.526,1.526,0,0,0-1.434-.211c-7.291,1.091-14.629,1.877-21.986,2.443-4.7.362-9.433.561-14.163.6-2.422.018-4.835.238-7.25.4-3.53.243-7.07.354-10.608.459-3.036.089-6.077.086-9.115.137-.341.006-.749-.124-1.012.229.1.367.475.32.744.354a37.419,37.419,0,0,0,11.816.011,7.315,7.315,0,0,1,4.552.381,1.319,1.319,0,0,0,1.41-.011,3.914,3.914,0,0,1,2.474-.521c2.424-.082,4.847-.193,7.271-.29a5.709,5.709,0,0,1,2.125.16c-.078.838-1.045.308-1.262.894,3.437.148,6.813-.3,10.205-.467,3.3-.162,6.488-.916,9.751-1.223a35.853,35.853,0,0,1,4.76-.4,7.263,7.263,0,0,0,3.85-1.07,6.705,6.705,0,0,1,1.9-.663c.734-.159,1.428.406,1.067.895-.793,1.077-.594,2.5-1.707,3.462a2.625,2.625,0,0,1-1.475.815,8.262,8.262,0,0,0-4.216,1.612,6.557,6.557,0,0,1-2.492,1.094c-1.421.366-2.893.57-4.754.919a17.815,17.815,0,0,0,4.215-.423,18.931,18.931,0,0,1,2.944-.356,5.336,5.336,0,0,0,3.576-1.231c.846-.888,1.731-.187,2.546-.422.1.284.366.61.61.335.6-.67,1.836.065,2.229-.9a.565.565,0,0,1,.865-.331c.456.259.311.689.163,1.062-.2.5-1.021.412-1.206,1.07.788.4,1.872.322,2.177-.168.682-1.093,1.853-.8,2.772-1.154a7.165,7.165,0,0,1,3.087-.451c.333.022.765.282.827-.3.093-.85.817-.682,1.408-.692.875-.015,1.109.627,1.379,1.179a1,1,0,0,1-.4,1.348,10.4,10.4,0,0,1-3.1,1.512c-1.067.3-2.175.475-3.251.747-.772.195-1.686.067-2.159.954-.217.408-.908.264-1.4.291-2.728.154-5.458.282-8.186.434-5.956.332-11.891.91-17.865,1.018-6.965.126-13.939.183-20.886-.128-7.554-.338-15.12-.471-22.666-1.128-4.435-.386-8.923-.526-13.39-.721a86.521,86.521,0,0,1-8.718-.661c-1.4-.2-2.852-.118-4.279-.186-2.91-.137-5.819-.382-8.73-.407-2.421-.02-4.838-.09-7.255-.108q-11.092-.085-22.183.059c-6.838.084-13.674.293-20.51.45-4.962.114-9.925.222-14.885.354-6.581.176-13.166.29-19.74.588-6.451.292-12.907.245-19.356.462-4.457.151-8.918.144-13.374.224-1.88.034-3.858-.106-5.715-.012-2.911.148-5.819.007-8.717.2-3.9.254-7.817.206-11.72.4-4.34.216-8.688.3-13.031.469-3.97.151-7.927.484-11.9.6a99.909,99.909,0,0,0-12.586.826,63.4,63.4,0,0,1-8.174.4,9.246,9.246,0,0,1-2-.376c-.859-.176-1.557-.4-1.12-1.452.272-.651-.215-.884-.907-.87a13.3,13.3,0,0,1-3-.206c1.027-.854,2.49-.441,3.575-1.07-.071-.563-.575-.329-.863-.321a51.839,51.839,0,0,1-9.281-.486c-.61-.094-1.307-.067-1.474-.778s-.711-.683-1.285-.575c-.789.15-1.569.34-2.354.505a.494.494,0,0,1-.615-.23c-.124-.263.067-.412.282-.541a7.467,7.467,0,0,1,3.661-.962,10.277,10.277,0,0,0,2.982-.7,11.574,11.574,0,0,0-4.492.108,45.472,45.472,0,0,0-5.526.643,3.679,3.679,0,0,1-2.27-.542c-.495-.221-.475-.626.024-.916.673-.392.208-.658-.159-.836a5.383,5.383,0,0,0-1.07-.25,7.394,7.394,0,0,1-1.906-.643c-1.993-1.1-2.037-1.972.085-3.271-1.337-.1-1.976-1.025-2.967-1.487-.68-.317-1.463-.84-1.265-1.791a.393.393,0,0,0-.1-.287c-1.179.033-.986-1.074-1.543-1.479-.788-.572-1.587-1.006-1.533-2.062.013-.261-.337-.248-.587-.258-.352-.014-.764.085-.942-.315a.429.429,0,0,1,.227-.44c.572-.413,1.547-.455,1.735-1.173.149-.565-.862-1.088-.28-1.82.05-.063-.3-.6-.749-.624a3.025,3.025,0,0,1-1.61-.688c1.077-.5,1.231-1.645,2.231-2.222-.428-.5-1.07-.614-1.548-.939-.42-.287-1.13-.415-.488-1.091.065-.069-.022-.364-.134-.442a2.3,2.3,0,0,1-1-2.482c.1-.67-.555-1.037-1.168-1.373s-1.285-.517-1.217-1.555c.042-.628-.938-1.486-1.951-1.772-.465-.131-.991-.162-1.292-.76,1.58-.806,1.375-2.27,1.456-3.61.022-.385.028-.62.438-.776.382-.146.278-.375.18-.678-.106-.323.669-.119.516-.444-.074-.158-.577-.123-.855-.235a4.168,4.168,0,0,1-1.692-1.743c-.372-.516.44-.979,1-1.135.682-.192,1.349-.2,1.089-1.139-.106-.384.363-.551.769-.506.43.048.852.159,1.276.247a1.62,1.62,0,0,0,1.68-.466,5.027,5.027,0,0,1,3.648-1.738c1.56-.139,1.532-.283,1.095-1.688-.615-1.976-.034-3.058,2.011-3.286a6.985,6.985,0,0,0,1.549-.536,7.142,7.142,0,0,1,4.115-.152,15.284,15.284,0,0,0,5.381.127c2.27-.323,4.556-.51,6.827-.823,7.114-.98,14.195-2.186,21.37-2.788,5.506-.462,11.026-.61,16.553-.726,7.07-.148,14.141-.094,21.2.107,4.464.127,8.935.32,13.4.458,7.374.228,14.748.546,22.13.525a18.855,18.855,0,0,0,2.039-.18,13.26,13.26,0,0,1,3.334.043,30.092,30.092,0,0,0,7.779.094,42.2,42.2,0,0,1,4.847-.136c3.965-.017,7.933.092,11.9-.148,1.478-.09,2.968.134,4.466.106,4.261-.081,8.528-.156,12.787-.057,3.777.088,7.544-.109,11.328.054,5.859.254,11.739.094,17.608.182,5.267.08,10.532.243,15.8.4,9.544.277,19.09.5,28.641.494,2.922,0,5.844.077,8.766.126a3.309,3.309,0,0,0,1.369-.116c-.107-.4-.824-.268-.825-.745a1.92,1.92,0,0,1,1.56.119,11.79,11.79,0,0,0,3.638.422,43.792,43.792,0,0,1,7.379.64,61.517,61.517,0,0,0,7.795.486c1.862.041,3.7.293,5.55.377,1.4.063,2.818.438,4.146-.366.388-.235.818.065,1.2.317l-1,.371c3.064.176,5.887.519,8.719.709,3.135.211,6.242.59,9.36.912.5.051,1.129.37,1.21-.513.039-.445.522-.373.892-.339,1.848.171,3.7.3,5.541.537a14.984,14.984,0,0,0,2.413.12c2.829-.089,5.656-.207,8.484-.326a2.508,2.508,0,0,1,1.623.2c1.553,1.1,3.191.957,5.062.749,1.257-.14,2.765-.6,4.088.2a3.293,3.293,0,0,0,1.82.268c1.858-.072,3.683.436,5.548.233.339-.037.858-.106.941.307.127.624-.514.46-.888.543a1.4,1.4,0,0,0-.887.419c1.5.892,3.123.5,4.688.567.085-.59-.264-.693-.632-.782-.234-.056-.515-.082-.415-.407.067-.214.132-.439.39-.538a.655.655,0,0,1,.351-.084c.462.144,1.26.257,1.309.49.274,1.272,3.19.687,2.233,2.724a2.383,2.383,0,0,0-2.672-.105,2.377,2.377,0,0,1-1.784.243,2.636,2.636,0,0,0-2.05.527l2.744,1.008c-1.994,2.1-4.876,2.411-7.472,3.268-.088-.47.036-1.032-.908-.888s-1.981.317-2.5-.8c-.165-.36-.595-.2-.762-.007-.624.736-1.422.536-2.206.392a2.681,2.681,0,0,0-2.037.195c-.29-.336.854-.952-.369-.928-.3.006-.666-.23-.89-.007-.7.7-1.8.563-2.692,1.156,1.215-.616,1.308.85,2.112.751a8.871,8.871,0,0,1,2.57-.126,7.959,7.959,0,0,1,1.263.277A8.482,8.482,0,0,0,2101.337,716.427Zm.683,14.422c-.515.126-1.14-.087-1.72.4,1.039.038,1.039.038,1.7-.421a1.817,1.817,0,0,0,1.908-.42C2103.312,730.666,2102.618,730.587,2102.02,730.849ZM1961.6,754.692a14.4,14.4,0,0,0-4.866-.012l-7.1.154c2.031.135,4.048.141,6.064.131a1.18,1.18,0,0,0,1.011-.3,9.563,9.563,0,0,0,4.863.008c.535.032,1.088.464,1.743-.015A2.654,2.654,0,0,0,1961.6,754.692ZM1859.01,752.1a13.074,13.074,0,0,0,5.177-.191c-.422-.213-.6-.379-.727-.354a7.253,7.253,0,0,1-3.1.1,1.486,1.486,0,0,0-1.328.472,4.023,4.023,0,0,0-.423-.3c-.232-.122-.5-.119-.548.148-.053.285.236.346.482.315A1.827,1.827,0,0,0,1859.01,752.1Zm83.625,3.338a4.783,4.783,0,0,0-3.015-.567c-1.58.008-3.137.274-4.729.3-1.477.024-3.136-.38-4.776.525,1.051-.2,1.766.272,2.576.292,3.163.075,6.3-.4,9.466-.314.147,0,.3-.173.449-.266l5.479-.129a11.384,11.384,0,0,0-5.058-.352C1942.769,754.966,1942.676,755.215,1942.635,755.442ZM2002,750.189a.831.831,0,0,0-.8-.358c-7.319-.027-14.6-.914-21.923-.858-1.421.011-2.862-.391-4.259-.277-2.847.232-5.685-.027-8.524.1a7.348,7.348,0,0,1-1.854-.108,15.227,15.227,0,0,0-3.688-.141c-3.782.106-7.56.3-11.343.417-.921.028-1.926-.36-2.759-.144-2.029.528-4.068.127-6.08.2-3.817.136-7.64.641-11.467.3-1.347-.12-2.524.489-3.825.484-5.77-.019-11.527.348-17.289.542-3.907.131-7.811.345-11.72.436-3.715.087-7.418.507-11.155.179a4.4,4.4,0,0,0-3.26.608c.142.279.274.393.478.386,2.154-.066,4.312-.249,6.46-.171,1.918.069,3.8-.434,5.7-.173,1.119.154,2.232.072,3.34.159,1.184.093,2.306-.279,3.5-.217,3.015.158,6.033.006,9.051-.048.712-.012,1.121-.49,1.883-.412,2.152.221,4.356.653,6.479-.265a1.485,1.485,0,0,1,.9.089,6.172,6.172,0,0,0,2.03.182c2.42-.022,4.841-.035,7.26-.1,6.99-.175,13.979-.484,20.969-.524,5-.029,9.987-.365,14.989-.346,1.785.007,3.588-.076,5.383-.089q8.829-.063,17.662-.028c1.485,0,2.973.207,4.454.159,2.219-.073,4.429-.11,6.646.013C2000.142,750.231,2001.056,750.189,2002,750.189Zm90.077-26.309c.481.579,1.241.357,1.513.635.736.748,1.488.463,2.285.256a2.1,2.1,0,0,1,1.768.2c.278.178.7.258,1.091-.312-.981.277-.849-.87-1.8-.806C2095.4,723.957,2093.848,723.88,2092.076,723.88ZM1819.5,753.285c3.981.316,7.925-.26,11.884-.463A81.808,81.808,0,0,0,1819.5,753.285Zm151.474-46.359a22.492,22.492,0,0,0,7.4.092C1975.923,706.475,1973.446,706.886,1970.974,706.926ZM1843.1,752.373a13.091,13.091,0,0,0,5.767-.067A17.414,17.414,0,0,0,1843.1,752.373Zm23.971-.531c4.263.436,6.246.33,7.572-.437C1872,751.7,1869.534,751.782,1867.069,751.842Zm184.909,5.372a5.12,5.12,0,0,0,3.26.241c1.119-.209,2.212.268,3.33.014A28.259,28.259,0,0,0,2051.978,757.215Zm-175.925-5.391a13.106,13.106,0,0,0,4.4-.163C1878.948,750.763,1877.526,751.867,1876.053,751.824Zm189.742,5.6c1.632.82,3.3.36,4.971,0Zm-141.927-1.872c-1.313-.043-2.635-.4-4.066.208C1921.4,756.952,1922.6,755.547,1923.868,755.556Zm177.468-17.415c.827.212,1.37-.167,1.982-.178.565-.01.486-.54.569-.9a.289.289,0,0,0-.22-.385.914.914,0,0,0-.819.267C2102.387,737.3,2101.937,737.664,2101.336,738.141Zm-122.9,16.048a24.922,24.922,0,0,0,6.062,0Zm-124.528,2.651a21.536,21.536,0,0,0-4.544.12A20.617,20.617,0,0,0,1853.907,756.84Zm206.851.626a5.107,5.107,0,0,0,3.8.109C2063.383,757.123,2062.211,757.447,2060.758,757.466Zm16.751.934c1.381.869,2.359-.342,3.452-.16A8.589,8.589,0,0,0,2077.509,758.4Zm-223.652-6.5c.005.135.011.271.017.406.768,0,1.537.019,2.306-.01a.349.349,0,0,0,.343-.472.342.342,0,0,0-.444-.187A4.13,4.13,0,0,1,1853.857,751.9Zm257.312-21.208c.3-.072.543-.279.453-.319-.651-.293-.85-1.065-1.593-1.214-.19-.039-.61.164-.448.35A3.885,3.885,0,0,0,2111.169,730.691Zm-38.2,26.941c.8-.153,1.717.243,2.736-.291A4.174,4.174,0,0,0,2072.971,757.632Zm-185.243-1.447a13.236,13.236,0,0,0,3.713,0Zm52.312-49.541a4.389,4.389,0,0,0-2.385-.091A3.026,3.026,0,0,0,1940.041,706.643Zm20.833.245a11,11,0,0,0-3.594-.091A8.95,8.95,0,0,0,1960.873,706.888Zm54.291,48.363c.008-.036.014-.071.021-.106l-2.536-.155c0,.087,0,.174-.008.261Zm-139.019.963h-2.709A5.3,5.3,0,0,0,1876.145,756.214Zm52.171-49.448c.015.087.031.174.047.26l2.662-.131c0-.043-.007-.086-.01-.129Zm41.119.071h-1.806C1968.235,707.093,1968.828,707.371,1969.436,706.837Zm116.31,1.377a1.566,1.566,0,0,0-1.592.223A1.154,1.154,0,0,0,2085.746,708.213Zm-48.968,48.07c-.554-.071-.929-.15-1.307-.16-.341-.009-.726-.119-1.006.183A5.831,5.831,0,0,0,2036.778,756.283Zm-101.329-49.77c-.443.089-.955-.249-1.482.257A2.333,2.333,0,0,0,1935.449,706.513Zm92.438,49.342-.065.11h1.855c0-.037,0-.074,0-.11ZM2076.4,757.4a3.019,3.019,0,0,0,2.015-.1A2.912,2.912,0,0,0,2076.4,757.4ZM1836.7,752.534a2.976,2.976,0,0,0,1.894-.013A3.5,3.5,0,0,0,1836.7,752.534Zm170.86,2.242a2.633,2.633,0,0,0-1.873.108A2.287,2.287,0,0,0,2007.563,754.776Zm1.149.176a2.908,2.908,0,0,0,2.063-.034C2009.932,754.815,2009.425,754.585,2008.712,754.952Zm-31.726-.54a1.08,1.08,0,0,0-1.216-.093C1976.147,754.359,1976.448,754.822,1976.986,754.412ZM1804.53,708.228a4.119,4.119,0,0,0,2.03-.42A2.2,2.2,0,0,0,1804.53,708.228Zm243.884,49.1c.774-.033,1.337.217,2.106-.151A3.988,3.988,0,0,0,2048.414,757.329Zm-187.2-.779c-.562-.054-.894-.179-1.193.072A1.534,1.534,0,0,0,1861.212,756.55Zm-9.787-4.287a.548.548,0,0,0,.637-.261c.091-.221-.186-.224-.337-.229-.248-.01-.52.011-.534.312C1851.188,752.144,1851.352,752.21,1851.425,752.263Zm254.664-9.306c.6-.087,1.1.108,1.5-.524A1.659,1.659,0,0,0,2106.089,742.957ZM1884.1,756.22c.1.066.2.186.282.179.255-.021.728.115.679-.19C1885.035,756.036,1884.436,755.894,1884.1,756.22Zm104.793-1.818a.539.539,0,0,0-.695-.109ZM1865.853,756.5c.043.079.055.145.093.162a1.692,1.692,0,0,0,1.068.054c.167-.035.188-.184.049-.229a2.461,2.461,0,0,0-.7-.118A1.982,1.982,0,0,0,1865.853,756.5Zm90.234-49.713c-.062-.251-.275-.314-.515-.3-.1,0-.269.071-.281.13-.058.278.174.342.41.363C1955.866,706.987,1956.031,706.964,1956.087,706.782Zm47.211,47.807a1.351,1.351,0,0,0,.935.008A1.381,1.381,0,0,0,2003.3,754.589Zm34.6-3.027a2.18,2.18,0,0,0-.366-.037.925.925,0,0,0-.247.087,2.124,2.124,0,0,0,.329.028A1.432,1.432,0,0,0,2037.9,751.563Zm-180.109,4.991a4.205,4.205,0,0,0-.533-.023c-.064.005-.123.088-.182.135a3.372,3.372,0,0,0,.484.061C1857.618,756.727,1857.68,756.638,1857.789,756.554Zm69.579-1a.772.772,0,0,0,.91.2c.146-.041.165-.178.048-.235A.836.836,0,0,0,1927.368,755.558Zm173.751-11.914a1.512,1.512,0,0,0,.385-.286c.081-.115-.031-.212-.176-.156a3.982,3.982,0,0,0-.458.246Zm-96.239,6.614c-.155-.07-.248-.147-.333-.143a2.913,2.913,0,0,0-.481.1c.087.046.175.129.263.129A3.6,3.6,0,0,0,2004.88,750.257Zm4.813.359.243-.09a1.823,1.823,0,0,0-.34-.052.84.84,0,0,0-.246.084C2009.463,750.578,2009.578,750.6,2009.693,750.616Zm71.539,6.422.341-.047a.908.908,0,0,0-.245-.092,1.824,1.824,0,0,0-.336.03Z" transform="translate(-1765.385 -701.885)" fill="#750000" fill-rule="evenodd"/>
</svg>
