<svg xmlns="http://www.w3.org/2000/svg" width="171.6" height="5.3" viewBox="0 0 171.6 5.3">
  <g id="グループ_1526" data-name="グループ 1526" transform="translate(-3327.101 -775.139)">
    <path id="パス_826" data-name="パス 826" d="M3493.273,775.209c-.436.367-.341.657.235.722a17.773,17.773,0,0,0,1.827.094,3.068,3.068,0,0,1,2.2.979.422.422,0,0,1,.023.614c-.189.2-.022.245.146.277a1.744,1.744,0,0,0,.625.054c.165-.026.371.043.376.208s-.205.108-.333.139c-.286.07-.647.039-.771.341-.031.075-.141.1-.231.106-.431.021-.816.207-1.265.192a.925.925,0,0,0-.831.319,1.468,1.468,0,0,1-.91.341,15.955,15.955,0,0,1-2.434.157c-.6.008-1.209.055-1.814.059-.99.007-1.968.139-2.966.127-1.439-.018-2.879.076-4.32.091-1.044.011-2.091-.065-3.133-.036-.78.021-1.561-.037-2.341.023-.6.046-1.214-.01-1.822-.006-1.058.007-2.117-.008-3.173.023-2.386.069-4.77.135-7.158.135-1.063,0-2.123-.05-3.184-.054-1.273,0-2.545.039-3.816.042-1.857,0-3.713.089-5.572.032-1.029-.031-2.062.03-3.094.038-.583,0-1.165-.015-1.748-.022l-2.979-.037c-1.047-.013-2.093.015-3.142-.005-.572-.011-1.166.029-1.741.03-.864,0-1.731.032-2.6.01-.747-.019-1.5.025-2.257.041s-1.531.021-2.3.029c-.276,0-.554,0-.831,0-1.524,0-3.049,0-4.574.017-1.087.015-2.174.091-3.261.1-1.58.019-3.159.026-4.742-.022-2.163-.065-4.33-.02-6.494.051-1.194.039-2.391,0-3.587.016-1.882.031-3.761-.055-5.642-.065-1.535-.008-3.071-.062-4.608-.092-.911-.018-1.825,0-2.734-.05-1.256-.064-2.514-.03-3.768-.035-.985,0-1.964-.1-2.953-.079-.441.01-.911-.1-1.37-.128-1.811-.109-3.622-.247-5.437-.224-1.221.015-2.441-.009-3.647-.108-1.7-.14-3.421-.089-5.118-.291-.651-.077-1.3-.163-1.949-.251-.626-.085-1.263-.13-1.892-.206-.772-.093-1.552-.144-2.327-.237-1.269-.153-2.557-.2-3.823-.378-.85-.118-1.713-.182-2.557-.321-1-.165-2.016-.27-3.029-.387-.173-.02-.37,0-.44-.2-.043-.118-.223-.086-.351-.1a3.03,3.03,0,0,1-.729-.036c.165-.127.361-.079.526-.152-.56-.026-1.118-.059-1.677-.075-1.207-.035-2.415-.078-3.621-.085-.728,0-1.456.073-2.184.076-.7,0-1.4-.026-2.1-.072a40.279,40.279,0,0,0-5.042-.032,10.516,10.516,0,0,1-1.528.07c-.716-.07-1.453-.122-2.159-.261-.811-.159-1.639-.237-2.457-.356-2.016-.292-4.057-.374-6.1-.468a4.069,4.069,0,0,1-.78-.125,16.347,16.347,0,0,0-2.5-.384,1.326,1.326,0,0,1-.187-.05.844.844,0,0,1,.475-.093c.891.074,1.787-.054,2.678.1a22.191,22.191,0,0,0,2.7.121c.945.042,1.879.132,2.809.26a37.994,37.994,0,0,0,5.921.559c.89-.016,1.778-.062,2.666-.051s1.778.09,2.667.109c1.608.035,3.214-.062,4.82-.089.8-.014,1.595.011,2.394.017,1.378.011,2.756.074,4.133.112.512.014,1.037-.095,1.568-.108a24.621,24.621,0,0,1,2.969.1c.771.074,1.542.021,2.313.044,1.7.051,3.4.148,5.092.227,1.456.068,2.912.142,4.378.121,1.2-.016,2.417,0,3.626.015,1.258.013,2.513-.061,3.775-.033.979.022,1.964.005,2.938.066.722.045,1.456.114,2.17.125.89.013,1.788.011,2.683-.014,1.584-.045,3.173-.015,4.756-.078.9-.036,1.8-.032,2.694-.106.336-.028.673.043,1.022.029,1.347-.055,2.694-.118,4.049-.084,1.563.041,3.128-.008,4.693-.017,1.193-.008,2.385-.069,3.576-.083a18.894,18.894,0,0,1,2.539.028,2.914,2.914,0,0,0,.63-.024c.981-.1,1.957.062,2.936.031.9-.029,1.8-.045,2.7-.068,1.276-.032,2.552-.012,3.828-.07,1.713-.078,3.43-.081,5.147-.088,1.612-.007,3.225-.07,4.838-.092,1.442-.02,2.885-.024,4.328-.025,2.3,0,4.6-.025,6.894.014,1.922.032,3.845.04,5.768.034,2.37-.006,4.741-.06,7.113-.082.873-.008,1.747.025,2.62.022.55,0,1.1-.083,1.646-.049,1.3.079,2.581-.1,3.873-.07.607.012,1.209-.048,1.813-.09a22.714,22.714,0,0,1,2.429-.015,5.525,5.525,0,0,1,1.571.042,17.176,17.176,0,0,1,2.737-.179c.736-.087,1.51.027,2.256-.035.905-.075,1.822-.025,2.724-.167.3-.047.622-.018.935-.042,1.2-.09,2.393-.2,3.592-.227,1.283-.024,2.558-.122,3.838-.166q2.145-.073,4.289-.125A8.679,8.679,0,0,0,3493.273,775.209Zm-131.455,2.124a2.536,2.536,0,0,0,1.327.338,5.385,5.385,0,0,1,.793.019,19.881,19.881,0,0,0,2.125.218c1.239.071,2.473.182,3.711.257a28.667,28.667,0,0,0,3.018.108c.307-.014.622-.066.962-.075-.044-.065-.051-.086-.069-.1-.158-.1-.335-.018-.5-.021-1.235-.021-2.443-.242-3.671-.31-1.521-.084-3.025-.29-4.552-.332C3363.917,777.409,3362.868,777.406,3361.818,777.333Zm14.13,1.021a.882.882,0,0,0,.533.164,6.065,6.065,0,0,1,1.942.01.265.265,0,0,0,.078,0,20.388,20.388,0,0,1,2.792-.064c.09.01.212.012.228-.079.017-.108-.117-.093-.2-.1-.54-.019-1.081-.046-1.622-.043-.612,0-1.226-.046-1.83-.084A4.778,4.778,0,0,0,3375.948,778.354Zm-17.166-1.142a1.934,1.934,0,0,0,1.064.045A2.838,2.838,0,0,0,3358.783,777.213Z" fill="#750000" fill-rule="evenodd"/>
    <path id="パス_827" data-name="パス 827" d="M3557.45,793.769c3.975.184,7.936.19,11.887.261,5.774.106,11.467.623,17.217.835,4.646.172,9.213.728,13.887.78a4.8,4.8,0,0,1,1.893.052c.068.03.092.083.262.246-1.288.023-2.476.153-3.641.188-3.816.114-7.609-.118-11.412-.271-4.687-.188-9.353-.467-14.038-.645-2.7-.1-5.383-.253-8.038-.548-.962-.106-2-.04-3-.049A13.561,13.561,0,0,1,3557.45,793.769Z" transform="translate(-218.118 -17.163)" fill="#750000" fill-rule="evenodd"/>
    <path id="パス_828" data-name="パス 828" d="M3651.2,801.156a26.792,26.792,0,0,1,7.258-.5c2.286.1,4.6.222,6.92.212,2.045-.008,4.092.061,6.135.108.317.007.823-.029.757.242-.054.228-.519.224-.86.2-3.537-.259-7.039.1-10.555.16a1.527,1.527,0,0,1-.3.011c-2.438-.55-4.9,0-7.343-.024A4.6,4.6,0,0,1,3651.2,801.156Z" transform="translate(-279.818 -22.837)" fill="#750000" fill-rule="evenodd"/>
    <path id="パス_829" data-name="パス 829" d="M3537.314,792.569a16.021,16.021,0,0,1,4.021.112A10.841,10.841,0,0,1,3537.314,792.569Z" transform="translate(-42.634 -15.389)" fill="#750000" fill-rule="evenodd"/>
  </g>
</svg>
