<svg xmlns="http://www.w3.org/2000/svg" width="83" height="6" viewBox="0 0 83 6">
  <g id="グループ_1588" data-name="グループ 1588" transform="translate(-3327.101 -775.139)">
    <path id="パス_826" data-name="パス 826" d="M3407.476,775.218c-.211.415-.165.743.114.817a3.752,3.752,0,0,0,.884.107c.471.01.789.5,1.062,1.108a.974.974,0,0,1,.011.695c-.092.225-.011.277.07.313a.392.392,0,0,0,.3.062c.08-.03.179.049.182.236s-.1.122-.161.157c-.138.079-.313.044-.373.386a.131.131,0,0,1-.112.12c-.208.024-.395.235-.611.217-.155-.012-.3.052-.4.361a.605.605,0,0,1-.44.386,3.408,3.408,0,0,1-1.177.177c-.291.009-.585.062-.878.067-.479.008-.952.157-1.435.144-.7-.021-1.393.086-2.09.1-.5.012-1.011-.073-1.515-.041a9.759,9.759,0,0,0-1.133.026,5.42,5.42,0,0,1-.881-.007c-.511.008-1.024-.009-1.535.026-1.154.078-2.307.153-3.462.153-.514,0-1.027-.057-1.54-.061-.616-.005-1.231.044-1.846.047-.9.005-1.8.1-2.695.036-.5-.035-1,.034-1.5.043-.282.005-.563-.017-.845-.025l-1.441-.041c-.507-.015-1.013.017-1.52-.006-.277-.013-.564.033-.842.034-.418,0-.837.036-1.257.011a10.2,10.2,0,0,0-1.092.046c-.37.018-.74.024-1.111.033-.134,0-.268,0-.4,0-.737,0-1.475-.005-2.212.019-.526.017-1.052.1-1.577.117-.764.021-1.528.029-2.294-.025a21.369,21.369,0,0,0-3.141.058c-.578.044-1.157-.005-1.735.018-.91.036-1.819-.062-2.729-.073-.742-.009-1.485-.07-2.229-.1-.441-.021-.883,0-1.322-.057a16.391,16.391,0,0,0-1.823-.039c-.476,0-.95-.116-1.428-.089a3.855,3.855,0,0,1-.663-.145,15.7,15.7,0,0,0-2.63-.253,8.116,8.116,0,0,1-1.764-.122c-.823-.158-1.655-.1-2.476-.329-.315-.088-.629-.184-.942-.284s-.611-.147-.915-.233c-.374-.106-.75-.163-1.125-.269-.614-.174-1.237-.229-1.849-.428-.411-.133-.829-.206-1.237-.363a14.81,14.81,0,0,0-1.465-.439c-.083-.023-.179,0-.213-.221-.021-.134-.108-.1-.169-.112-.112-.027-.229.054-.353-.041.08-.144.175-.089.254-.173-.271-.029-.541-.067-.811-.085-.584-.039-1.168-.088-1.751-.1-.352,0-.7.083-1.056.086a6.162,6.162,0,0,1-1.015-.082,8.364,8.364,0,0,0-2.439-.036,2.216,2.216,0,0,1-.739.08,5.105,5.105,0,0,1-1.044-.3,11.7,11.7,0,0,0-1.188-.4,13.441,13.441,0,0,0-2.949-.529.992.992,0,0,1-.377-.141,3.936,3.936,0,0,0-1.209-.435c-.023,0-.046-.029-.09-.057a.229.229,0,0,1,.229-.106c.431.084.864-.061,1.3.11a4.664,4.664,0,0,0,1.307.137,6.626,6.626,0,0,1,1.359.295,8.373,8.373,0,0,0,2.864.633c.43-.018.86-.07,1.289-.058s.86.1,1.29.123c.778.04,1.554-.07,2.332-.1.385-.016.771.012,1.158.019.667.013,1.333.084,2,.127a6.808,6.808,0,0,0,.759-.123,5.15,5.15,0,0,1,1.436.116,7.225,7.225,0,0,0,1.119.05c.822.058,1.642.168,2.463.257a15.1,15.1,0,0,0,2.118.137c.583-.018,1.169,0,1.754.017.608.015,1.216-.069,1.826-.037.473.025.95.006,1.421.075a9.828,9.828,0,0,0,1.05.142,12.936,12.936,0,0,0,1.3-.016c.767-.051,1.535-.017,2.3-.089.435-.041.87-.036,1.3-.12.163-.031.326.049.494.033a12.623,12.623,0,0,1,1.958-.095c.756.046,1.513-.009,2.27-.02.577-.009,1.154-.078,1.73-.094a3.928,3.928,0,0,1,1.228.032.616.616,0,0,0,.3-.027,9.212,9.212,0,0,1,1.42.035c.435-.033.87-.051,1.3-.076.617-.036,1.234-.013,1.852-.08.829-.089,1.659-.092,2.49-.1.78-.008,1.56-.079,2.34-.1.7-.023,1.4-.027,2.093-.029,1.111,0,2.223-.028,3.334.016.93.036,1.86.045,2.79.039,1.146-.007,2.293-.068,3.44-.093.422-.009.845.029,1.268.025a5.341,5.341,0,0,1,.8-.056c.627.089,1.248-.11,1.873-.08a4.285,4.285,0,0,0,.877-.1,4.71,4.71,0,0,1,1.175-.018c.254.023.511-.144.76.048.43-.287.883-.08,1.324-.2.356-.1.73.031,1.091-.039a7.9,7.9,0,0,0,1.317-.189,2.614,2.614,0,0,1,.452-.047,13.653,13.653,0,0,1,1.737-.257c.621-.028,1.238-.138,1.857-.188q1.037-.083,2.074-.141C3406.972,775.125,3407.207,775.338,3407.476,775.218Zm-63.583,2.4a.78.78,0,0,0,.642.382,1.122,1.122,0,0,1,.384.022,4.416,4.416,0,0,0,1.028.247c.6.08,1.2.206,1.8.29a5.993,5.993,0,0,0,1.459.122c.148-.016.3-.075.466-.085a.709.709,0,0,0-.034-.111c-.076-.117-.162-.02-.242-.024-.6-.023-1.182-.273-1.776-.351-.735-.1-1.463-.328-2.2-.376C3344.908,777.708,3344.4,777.706,3343.893,777.623Zm6.834,1.156c.079.128.154.182.258.185.313.011.627-.237.939.011.01.008.025,0,.038,0a4.249,4.249,0,0,1,1.35-.072c.043.011.1.013.11-.089.008-.122-.056-.106-.1-.109-.261-.021-.523-.052-.784-.049a5.554,5.554,0,0,1-.885-.1A1.1,1.1,0,0,0,3350.728,778.779Zm-8.3-1.292a.438.438,0,0,0,.515.051C3342.771,777.38,3342.6,777.492,3342.425,777.487Z" fill="#750000" fill-rule="evenodd"/>
    <path id="パス_827" data-name="パス 827" d="M3557.45,793.769c1.923.208,3.838.215,5.75.3,2.793.12,5.546.705,8.327.945,2.247.2,4.456.824,6.717.883.3.009.626-.234.916.059a1.532,1.532,0,0,1,.126.278c-.623.026-1.2.173-1.761.213a33.817,33.817,0,0,1-5.52-.307c-2.267-.213-4.523-.529-6.79-.731a23.913,23.913,0,0,1-3.888-.62,6.329,6.329,0,0,0-1.45-.055A3.444,3.444,0,0,1,3557.45,793.769Z" transform="translate(-224.433 -16.97)" fill="#750000" fill-rule="evenodd"/>
    <path id="パス_828" data-name="パス 828" d="M3651.2,801.227a5.821,5.821,0,0,1,3.511-.561,31.27,31.27,0,0,0,3.347.24c.989-.009,1.979.069,2.967.122.153.008.4-.033.366.274-.026.258-.25.254-.416.225a24,24,0,0,0-5.105.181c-.048,0-.1.032-.144.012-1.18-.622-2.369,0-3.552-.027A1.263,1.263,0,0,1,3651.2,801.227Z" transform="translate(-302.683 -22.489)" fill="#750000" fill-rule="evenodd"/>
    <path id="パス_829" data-name="パス 829" d="M3537.314,792.579c.646.013,1.309-.268,1.945.127A2.339,2.339,0,0,1,3537.314,792.579Z" transform="translate(-129.157 -15.129)" fill="#750000" fill-rule="evenodd"/>
  </g>
</svg>
