<svg id="グループ_1441" data-name="グループ 1441" xmlns="http://www.w3.org/2000/svg" width="40" height="38.524" viewBox="0 0 40 38.524">
  <path id="パス_666" data-name="パス 666" d="M159.795,226.316h0C159.79,226.314,159.791,226.314,159.795,226.316Z" transform="translate(-129.598 -222.187)" fill="#b2896a"/>
  <path id="パス_667" data-name="パス 667" d="M75.06,225.434l.187.276.05-.16-.057-.1-.024-.187a.449.449,0,0,0-.181-.2l-.013-.08c-.056-.087-.114-.164-.145-.209-.067-.045-.1.028-.152-.049l.028-.111a1.653,1.653,0,0,1-.039-.347c.036,0,.087-.033.114,0,.05.07.1.041.149.107s.1.037.137-.008c0-.033,0-.064-.007-.106-.064-.089-.123-.219-.207-.233-.051-.008-.061-.071-.077-.15a2.027,2.027,0,0,0,.067-.256,2.528,2.528,0,0,0,.013-.279c-.028-.112-.044-.209-.079-.321l-.175.029c-.125-.173-.275-.163-.4-.388l-.072-.254c-.024-.025-.042-.044-.075-.076-.106-.3-.205-.629-.322-.929l-.074-.065a18.652,18.652,0,0,0-1.4-2.854c-.271-.434-.52-.831-.74-1.134s-.38-.533-.46-.642l-.015-.077a18.228,18.228,0,0,0-2.665-2.742c-.016-.038-.033-.073-.051-.109l-.461-.362-.043-.092c-.392-.291-.8-.588-1.217-.845l-.06-.1c-.106-.067-.226-.149-.337-.209l-.057-.088c-.478-.284-.975-.546-1.494-.794H64.6l-.192-.08-.1.006a18.059,18.059,0,0,0-3.083-1.049l-.111.025-.285-.066-.084-.062c-.066.006-.12.008-.174.015L60.429,210l-.575-.1-.1-.072-.4-.052-.074-.055c-.265-.035-.528-.069-.79-.084l-.107-.061L58,209.54l-.089-.054-.6-.016-.193-.1a.426.426,0,0,0-.046-.006c-.352,0-.7.014-1.054.021a.135.135,0,0,1-.04-.009l-.077-.032c-.363.033-.733.043-1.1.1a.11.11,0,0,1-.039-.01l-.077-.026-.5.064-.5.087c-.165.031-.331.057-.5.092l-.49.113-.124-.025c-.1.024-.2.043-.288.069l-.094-.018-.419.106c-.1-.057-.3.077-.4.014l-.4.134-.1-.014c-.127.044-.258.085-.384.133l-.125-.007-.375.148-.129-.005-.178.071c-.051,0-.092,0-.137,0l-.552.249-.1,0c-.1.041-.2.091-.3.136H48.49l-.5.257c-.167.088-.33.186-.5.279a.133.133,0,0,1-.041.008l-.084.006c-.333.183-.647.4-.97.6-.01.007-.015.023-.038.059.119-.047.25-.118.32-.069-.169.107-.324.208-.473.317-.009.006-.024,0-.035,0l.048-.1a.46.46,0,0,0-.086.035.533.533,0,0,0-.071.068c.02.063.038.13.132.138.28-.207.573-.385.839-.557.131-.039.239-.074.37-.1l.506-.291.227-.011.362-.186h.1l.2-.093h.1c.336-.157.672-.314,1.016-.454.01,0,.029.012.043.019-.013.012-.021.025-.033.03-.494.211-.983.432-1.452.681h-.107c-.115.058-.245.126-.319.171l-.411.108c-.153.088-.328.186-.488.293l-.206.018c-.231.147-.462.294-.678.453s-.438.3-.635.464c-.08.035-.134.062-.187.082a.741.741,0,0,1-.158.05.39.39,0,0,1-.125-.023c-.112.088-.23.181-.291.237l-.209.1-.063.133-.3.266c-.011.01-.007.034-.01.052.115-.024.2-.217.318-.2a.139.139,0,0,1-.022.036c-.235.2-.453.414-.67.619l-.035.1c-.2.186-.39.4-.568.582l-.17.1c-.02.054-.036.091-.053.145l-.29.334a.66.66,0,0,1-.07.061l-.076.032c-.136.152-.262.313-.389.476l-.028.115c-.205.253-.395.516-.581.781s-.363.535-.537.806l-.1.066-.021.122c-.081.11-.119.246-.232.313-.038.023-.084.129-.115.178,0,.053,0,.08-.007.111l-.1.071c-.068.114-.13.236-.194.361,0,.113,0,.229,0,.343l-.081.06c-.107.2-.2.408-.292.614s-.192.408-.268.616l.009.1c-.114.294-.239.591-.337.9a.591.591,0,0,1-.042.081l-.058.057c-.077.225-.155.451-.215.68l-.081.094-.055.194c-.084.052-.09.217-.141.282a2.585,2.585,0,0,0-.228.5l-.1-.388c0-.059.006-.105.009-.157l-.081.009-.058.25.077.092-.04.146-.152.016-.052.228.024.119-.075.408.031.125-.054.3.03.1a19.525,19.525,0,0,0-.155,4.578l.062.105c.015.271.064.558.094.827l.056.085c0,.016.009.031.011.047.025.232.075.461.114.692s.079.461.136.688a.145.145,0,0,0,.021.037l.054.067c.069.3.135.6.227.9,0,.012.017.022.026.032l.053.061a18.481,18.481,0,0,0,1.654,4l.012.117c.126.216.241.428.356.609l.14.116.047.167a.6.6,0,0,1,.194.221l.019.124c.131.2.274.39.414.587.007.01.023.014.043.026l.051-.037-.124-.3-.124-.1-.032-.127c-.164-.238-.315-.486-.473-.728s-.291-.5-.435-.744c0-.058,0-.105,0-.152.02.014.036.018.042.029.2.338.383.684.6,1.01.106.164.21.331.32.493l.341.479.022.117c.04.072.114.13.128.214-.069-.03-.137-.063-.2-.1.014.1.034.188.053.281l.235.3c.11.225.032.331.083.508l.11.056.129.149c.116.055.116.055.126.094,0,.066-.109.032-.054.141l.138.159a1.1,1.1,0,0,1,.221.107l-.02.108.239.265-.019.111.143.183a1.481,1.481,0,0,0-.286-.178l-.287-.3-.043-.114c-.066-.108-.131-.086-.137-.091l-.22-.254-.1-.2-.133-.065c-.044-.049-.087-.1-.132-.162l-.032-.122c-.194-.251-.4-.495-.577-.755L41.212,239l-.09-.094c-.053,0-.053.042-.047.1a.308.308,0,0,1-.025.117l.238.333.25.319c.166.209.322.417.487.6l.186.132.044.141c.114.131.23.267.358.4v.295l.186.075c0-.05-.007-.1-.011-.16l.12.1c.016.064.057.15.04.181-.032.054.022.14.052.22l.111.078c.034-.022.035-.021.11,0a.3.3,0,0,0,.04.233c.1.058.172.034.29.137l.08.153.556.485c.037.085.071.164.174.185l.067-.029.275.132.379.3a.132.132,0,0,1,.023.037c.022.058.092.132.042.16-.115-.006-.114-.008-.14.059.1.073.2.142.3.214.168.021.368.091.487.04.261.19.54.354.778.511.116.039.2.071.29.1.02-.035.072-.053.032-.136-.108-.038-.2-.161-.332-.178l-.03.048-.153-.062-.08-.18a4.757,4.757,0,0,1-.423-.3l.1-.148.172.08.082-.042.364.235.245.028c.313.21.665.392,1,.588.1-.019.19.047.283.093l.078.1c.214.106.427.226.649.323l.084.1.278.126.085.093c.242.115.49.2.734.3a.321.321,0,0,0,.082.01l.057-.059c.31.13.624.221.926.327l.07.069.125-.008c.063.028.154.027.219.077l.035.1.517.146.119-.018c.114.008.135.068.192.094l.3.07.121-.018.074.059c.181.045.366.079.538.109l.1-.027.1.068c.274.052.549.1.827.128s.554.078.832.093l.1.058.521.039L56,246.88l.087.046.439.011.09-.041.361.008.376-.009.11.044.207-.005.106-.051.117.048c.314-.017.628-.045.933-.068l.12.039a.789.789,0,0,0,.34-.1l.386-.049.083-.054c.236-.029.475-.08.727-.123l.117.027c.1-.019.2-.033.3-.058.054-.026.064-.073.162-.088l.307,0-.092.08.167-.007.252-.246a1.338,1.338,0,0,0,.51.045l.373-.106.111.018a2.158,2.158,0,0,0,.32-.123l.06-.058a1.47,1.47,0,0,1,.338-.1c.073.02,0,.111.116.1s.127-.075.195-.114l.095.007.408-.16.109-.1a20.3,20.3,0,0,0,2.737-1.381c.028-.062.008-.083-.051-.076-.085.021-.167.135-.247.1.009-.013.014-.028.025-.035.184-.1.359-.221.541-.336l.16-.017-.042.117c.19-.124.353-.222.454-.3a2.068,2.068,0,0,1,.409-.41l.122-.025c.115-.079.225-.168.315-.238l.335-.141c.15-.118.289-.225.419-.343.01-.009.012-.025.018-.038-.022-.055-.1-.07-.08-.175.1-.053.172-.193.3-.22l.035.04-.124.171.166-.043.084-.073.014-.151.011-.136.369-.351.177-.072-.033.107.182-.053-.069-.155c.112-.1.214-.219.309-.315l.036-.111c.2-.2.4-.416.585-.639l.1-.043L71.9,240l.181-.14c.042-.091.025-.154.107-.228l.112-.06c.2-.245.379-.508.563-.765l.147-.082c.034,0,.039.061.1-.021l-.035-.129.083-.012a.182.182,0,0,0,.059-.015c.035-.018.071-.042.1-.06l.108-.338.179-.112c.085-.128.163-.263.234-.387l.009-.112a2.585,2.585,0,0,1,.187-.291l.108-.012c.041-.073.079-.134.111-.2l0-.075c.04-.165.141-.262.149-.38l-.044-.054.068-.265.067-.052c.068-.139.129-.281.192-.417l-.06-.107c.084-.095.1.012.159-.018.057-.07.1-.171.17-.211a2.323,2.323,0,0,0,.1-.247.87.87,0,0,0,.093-.29c-.051-.028-.1-.074-.166-.046-.093.137-.11.331-.225.458l-.05-.047c.019-.139.133-.264.113-.387a.586.586,0,0,0-.091.085c-.077.108-.153.221-.236.328-.039-.021-.118.029-.1-.093.057-.058.12-.077.168-.167-.005-.07-.01-.139-.016-.21l.209-.529c.067-.177.124-.359.186-.538l-.009-.089c.015-.149.1-.256.088-.375-.084.036-.067.217-.143.263,0-.009-.006-.019-.01-.027-.036-.071.019-.2,0-.285,0,0-.016.018-.034.035-.108.313-.21.638-.33.957a.146.146,0,0,1-.027.033l-.062.056-.187.475.006.119c-.05.129-.111.251-.165.374a.327.327,0,0,0-.143.248l.032.137c-.058.132-.1.221-.126.266-.029.083.007.1-.041.152l-.068.051c-.03.074-.092.142-.1.221.019.072.076.013.127-.013.036-.018.071-.006.053.052-.066.092-.129.086-.189.186l.1.105c-.023.05-.038.081-.056.114l-.1.073c-.032.072-.1.138-.106.218l.045.1-.091.159c-.042.142-.069.255-.108.363-.087.036-.179.124-.266.131a.97.97,0,0,0-.255.131c-.037.2.129-.015.174.077-.007.057-.02.161-.033.268l-.106.068-.539.758-.119.067-.181.231-.089.053-.088.2-.2.072c-.3.337-.558.66-.848.952l-.04.112-.213.223-.116.05-.625.6c-.213.192-.431.376-.647.563a.249.249,0,0,1-.07.032l-.069-.036c-.087.076-.015.076-.025.112a1.183,1.183,0,0,1-.069.149l-.283.222a.542.542,0,0,1-.08.043l-.079.019c-.056.043-.109.088-.161.124l-.062.105a.688.688,0,0,1-.287.147l-.339.24-.317.2-.138.155-.143.025c-.155.09-.31.2-.461.267l-.1.007-.07.1-.228.131-.183-.031-.025.134a.26.26,0,0,1-.218.069l-.271.139-.126.005-.12.061c-.029.05-.07.111-.1.157l-.487.22-.12.006c-.05.059-.086.119-.192.122l-.091-.057-.108.039-.084.088-.382.151-.118-.007c-.364.126-.72.253-1.075.359l-.088.072c-.154.086-.26.029-.4.064l-.095.074c-.141.043-.288.075-.422.106l-.1-.022c-.146.032-.294.062-.417.1l-.078.067c-.071.018-.139.028-.2.04l-.116-.029c-.116,0-.137.063-.19.081l-.511.089-.145-.036-.2.084-.161.02-.107.064c-.269.039-.544.057-.818.078l-.108.059c-.141.009-.279.025-.417.027-.012,0-.025-.01-.043-.019-.013-.026.005-.064-.124-.085-.058-.009-.087.051-.165.064-.114-.007-.241.033-.332-.012l-.032-.076c-.1,0-.177.007-.265,0l-.049.153-.129-.059-.25.107-.165-.134-.248.059c-.055,0-.107,0-.164-.009l-.109-.059c-.272-.022-.548-.039-.824-.066l-.136.043-.4-.162c-.188,0-.306-.133-.505-.113l-.081.024-.3-.054-.131-.078c-.245.02-.246.021-.4-.077-.325-.079-.663-.142-.988-.24a.428.428,0,0,0-.289-.124l-.109.009-.088-.079c-.194-.051-.4-.128-.59-.19l-.07-.071a18.826,18.826,0,0,1-2-.813c-.011-.005-.017-.02-.025-.03-.027-.068.049-.062.122-.063-.046-.059-.091-.12-.127-.173,0-.034,0-.059,0-.083-.187-.105-.214-.125-.221-.152l.155,0,.171.087c.043.048.081.084.122.125a1.08,1.08,0,0,1,.181.016c.072.019.146.082.221.07l.042-.094.16-.006.2.079.094-.008c.315.122.315.122.416.125-.009-.009-.017-.024-.028-.028l-.412-.163-.4-.18-.075-.088-.176-.08-.113,0c-.1-.047-.188-.095-.261-.131l-.091-.105-.3-.152c-.076-.069-.118-.1-.155-.142l-.136-.011-.168-.1-.065-.094-.244-.14-.152.049-.016-.142-.435-.3c-.006,0-.006-.017-.008-.026l.157.015c.23.151.464.3.707.432a.45.45,0,0,0,.081.027l.1-.051.036.15c.078.034.142.1.216.1l-.064-.112c.064.03.113.055.161.074l.015.128.454.232.057.08c.173.093.355.165.531.247l.073.088.164.074.172.013.125.109c.249.1.493.2.74.286l.736.249.209-.042c.37.106.744.216,1.127.3a.189.189,0,0,0,.053-.008c0-.026.106,0,.1-.045l-.133-.087c.222,0,.326.142.5.191l.075-.023a1.928,1.928,0,0,0,.323.041l.071-.077c.2.038.393.071.584.091.037-.014.076-.026.108-.042.014-.007.017-.021.029-.038l-.3-.038c-.076.015-.128.02-.18.027l-.124-.083c-.282-.054-.583-.095-.877-.169a.6.6,0,0,0-.086-.007l-.076.02-.468-.109-.085-.076-.181-.052-.109.019L52,244.6l-.084-.071c-.139-.037-.258-.078-.368-.115-.085,0-.132.041-.228.017l-.028-.107-.281-.1c-.028-.029-.056-.054-.082-.084a1.059,1.059,0,0,0-.316-.1.429.429,0,0,1-.037.089c-.006.009-.04,0-.062.007l-.057-.067c-.121-.048-.252-.1-.376-.15l-.11.007-.1-.126c.083-.019.179,0,.215-.04a.989.989,0,0,0-.34-.141c.032.058.132.133.009.14l-.191-.151,0-.086c-.037-.029-.107-.053-.139-.093a17.443,17.443,0,0,0,14.585.224l-.035.036c-.128.067-.251.1-.368.172l-.094.19-.174.069-.076.082c-.1.036-.185.078-.353.132.029-.014,0-.075-.061,0l.051.144-.113.119c-.3.1-.607.206-.921.291-.016,0-.027.028-.039.041.033.042.164-.062.176.008-.011.009-.019.022-.031.025-.188.054-.377.11-.559.157l-.09.071c-.331.071-.646.161-.965.21l-.08-.025-.558.087-.4.051a1.358,1.358,0,0,0-.366.076l.154.057a18.421,18.421,0,0,0,2.418-.45.119.119,0,0,1,.04,0l.076.016.079-.067c.152,0,.233.073.41.041l.1-.084.114.018.563-.188.082-.079.111.01c.355-.127.693-.265,1.024-.4l.067-.083.634-.287.062-.085.119-.007.432-.222c.011-.006.018-.02.026-.03l.01-.1c.076-.05.165-.069.209-.138l-.062-.112c-.159.1-.319.168-.465.245-.091-.008-.169-.011-.229.077l.011.122-.2-.048-.706.321c-.228.1-.459.184-.685.275-.013.005-.033-.009-.06-.018l.242-.118c.011-.045-.027-.072.041-.115.07-.019.141-.076.218-.061l-.077.1a.64.64,0,0,0,.259-.1l.122-.155.173-.078.074-.088.109,0c.216-.092.413-.2.61-.3l.058-.083a18.308,18.308,0,0,0,1.677-.992l-.017-.013c.082-.073.159-.155.267-.259-.1.052-.149.012-.24.079-.033.045-.076.1-.117.143l-.294.093.062-.093a17.5,17.5,0,0,0,3.427-2.915c.163-.105.3-.205.456-.306l.095.013.1-.116a.612.612,0,0,0-.056-.051c.041-.084.075-.174.12-.281l.133-.083.2-.239.074.038-.066.115-.111.053-.176.224-.024.112c-.028.038-.06.074-.093.112.029.018.059.033.094.051.089-.153.207-.187.3-.285l.027-.124.176-.224.024-.109.451-.633a1.376,1.376,0,0,0,.339-.268c0-.026,0-.052.007-.079l.052-.081.1-.062.154-.244.133-.084c-.007.073.028.134-.051.24l-.1.064c-.1.137-.183.3-.279.419l-.086.049a2.878,2.878,0,0,1-.165.24,1.187,1.187,0,0,1-.221.273c.009-.064.013-.122.026-.182.008-.039.006-.051-.039-.017l-.177.249-.018.15c.066-.023.137-.088.191-.076a1.039,1.039,0,0,1-.187.274c-.067.039-.131.043-.185.094l-.1.238c.126-.075.175-.043.169.073l-.093.1L70.955,239c-.058.045-.115.031-.172.116l-.073.168c-.078.071-.142.052-.206.161l-.05.167.1.006.071-.082a.4.4,0,0,1,.073-.028c.026,0,.079-.06.074,0l-.166.233c.028-.01.044-.011.051-.02l.282-.324c.048-.195.043-.2.086-.22l.089.073c-.031.06-.058.112-.086.16l.031.043a.335.335,0,0,0,.228-.147c-.022-.035.053-.135.009-.181s.1-.184.075-.252c.211-.257.395-.533.588-.8l.021-.118c.045-.095.106-.1.15-.137l.106-.164.022-.132c.124-.194.251-.385.36-.584l-.044-.109.111-.194.093-.06c.063-.11.136-.234.191-.348l.081-.058.225-.441a.127.127,0,0,0,0-.046c-.066.05-.122.149-.193.191l-.2.394c-.128.14-.241.246-.345.353l-.047-.038.054-.137c0-.06.008-.137.012-.215.033-.055.059-.114.083-.158,0-.1,0-.192,0-.267l-.053-.067.107-.21.117-.015.052-.123-.059-.095.044-.1.086-.07.239-.529a.41.41,0,0,1,.07-.292c.061-.07.142-.074.193-.234-.053-.091.01-.266,0-.4l.07-.074c.085-.256.172-.5.241-.726l-.014-.12a.275.275,0,0,0,.194-.131l.05-.18c0-.012,0-.026-.009-.058l-.094.1c-.046.052-.088.09-.119,0,.04-.146.085-.291.122-.438l.1-.445c.075-.3.125-.6.177-.891l-.014-.043c.023-.134.046-.267.065-.4l.036-.066-.016-.1a17.56,17.56,0,0,0,.164-2.367c0-.1-.006-.189-.007-.284h.05l.088.158.082-.1c.009-.12-.02-.209.028-.262l.05,0c.02.066.037.135.06.2s.025.188.077.235l.06.052.086-.135a.9.9,0,0,1,.044-.411l.079.259a1.1,1.1,0,0,0,.02-.363c-.064-.069-.052-.233-.112-.309,0-.161-.1-.179-.127-.316l-.008-.172.093-.076-.018-.13c-.074-.086-.087.055-.128.079-.055-.016-.111.064-.17-.046l.09-.073c0-.073,0-.15-.009-.227a.815.815,0,0,0,.232-.355ZM47.35,211.482c-.118.067-.234.137-.346.211l-.063.1-.108.07-.065-.057a.886.886,0,0,1,.086-.075c.157-.1.313-.2.477-.294.01-.006.026,0,.06,0C47.367,211.461,47.361,211.476,47.35,211.482ZM68.963,242.86c.118-.042.2-.176.324-.214.009.035.009.034-.395.353l-.031-.117Zm-6.739,3.307.418-.12.416-.139c.006.059-.069.1-.1.143-.2.07-.4.127-.581.179h-.33C62.134,246.2,62.178,246.18,62.224,246.167Zm-13.7-2.472-.031.059c-.051,0-.053.006-.247-.1l-.049-.13A1.68,1.68,0,0,1,48.526,243.7Zm20.052-29.4.049.109c.116.1.24.2.354.317l.042.112.418.4.022.075a.12.12,0,0,0,.015.036l.459.482.027.1.47.543c.157.181.3.373.441.552l.042.179a.143.143,0,0,1-.041-.019.648.648,0,0,1-.061-.067c-.223-.287-.447-.572-.675-.825l-.024-.1c-.1-.118-.2-.24-.314-.35l-.025-.077c0-.012,0-.028-.011-.036-.2-.208-.393-.421-.606-.616l-.029-.09-.21-.2-.035-.1c-.105-.1-.228-.2-.335-.3a1,1,0,0,0-.278-.326C68.42,214.129,68.488,214.234,68.579,214.3ZM44.984,240.677c.05.046.094.092.147.137l.134.357-.063.073a.523.523,0,0,0-.11-.02c-.028,0-.045.021-.067.034l-.165-.143a.474.474,0,0,1-.039-.1c-.006-.032.006-.055,0-.086a.746.746,0,0,0-.032-.1l-.161-.064c-.311-.285-.6-.595-.89-.9l-.116-.047c-.178-.225,0-.258-.088-.435l.282.19c.018.021.06.069.107.118l.033.107.133.14.2.068c.086.088.179.193.27.276l.1.03.045.1.134.128v.149Zm.289,1.336.242.19c.014.045.015.046-.261-.012-.135-.1-.26-.216-.388-.326-.015-.07-.125-.191.007-.19l.25.2.107.035Zm-1.79-2.643-.023.019-.181-.035-.074-.133.023-.019.181.036Zm-.652-1.464c-.011,0-.023-.007-.029-.015-.167-.232-.334-.464-.485-.709s-.312-.485-.454-.742l0-.036A17.406,17.406,0,0,0,42.831,237.9ZM63.482,211.56l.037,0c.17.055.352.145.53.221l.028.037Q63.783,211.682,63.482,211.56Zm-1.381-.888.1-.02c.027.024.056.046.086.075l.18.061.113-.014.068.071.29.107.063.066c.032,0,.066-.005.126,0l.444.175.1-.011.263.1h.125l.348.157.122,0,.042.058a1.857,1.857,0,0,0,.294.156h.078a.124.124,0,0,1,.033.009c.018.021.032.042.053.072l.191.1h.09c.224.109.437.239.654.362l.323.187.313.2.053.093c.16.1.337.212.489.326l.046.089.311.221c.024.072.1.13.152.2,0,0-.009.014-.013.012-.046-.023-.095-.043-.107-.048a.982.982,0,0,1-.124-.038c-.027-.017-.053-.037-.079-.055l-.431-.307-.44-.284-.048-.085c-.11-.069-.226-.149-.348-.216l-.088,0-.435-.25-.048-.075c-.294-.157-.592-.309-.889-.456l-.1.058c-.074-.048-.025-.07-.036-.1-.008-.01-.013-.025-.024-.03l-.53-.24-.544-.217-.112.009c-.207-.087-.423-.153-.635-.226l-.084-.084c-.183-.064-.367-.124-.552-.172l-.058-.055c-.095-.069-.252-.05-.338-.133A.9.9,0,0,1,62.1,210.672Zm-3.951-.4a.778.778,0,0,0,.1.058.5.5,0,0,0,.1.012.191.191,0,0,1,.008.018q-.508-.04-1.023-.051l.077-.069C57.708,210.242,57.931,210.248,58.151,210.269Zm-.941.02.024.013c-.089,0-.177-.007-.266-.007l-.09,0A.833.833,0,0,1,57.21,210.29Zm-3.091.222c.21-.043.424-.062.636-.091s.423-.059.635-.07l.019.019q-.7.062-1.384.179l.012-.009A.6.6,0,0,1,54.119,210.512Zm-6.911,1.534.123-.019c.134-.088.282-.166.426-.251l.123-.01a1.163,1.163,0,0,1,.379-.167c-.193.121-.321.192-.447.262l-.095,0c-.131.076-.275.155-.392.234l-.3.094C47.052,212.125,47.143,212.1,47.208,212.046Zm-2,1.51c.231-.191.469-.373.705-.558a.1.1,0,0,1,.038-.011c-.051.1-.224.23-.77.636C45.195,213.58,45.2,213.564,45.2,213.556Zm-6.977,14.275c-.01-.02-.029-.04-.03-.06,0-.307.012-.614.019-.919s.043-.609.064-.909l-.039-.1c.011-.125.031-.258.049-.4l.108-.251.054.154a19.332,19.332,0,0,0-.155,2.343C38.272,227.734,38.252,227.782,38.228,227.831Zm2.728,9.077-.14-.244.052-.064c-.017-.056-.039-.122-.056-.2.185.147.119.315.223.458Zm-.4-1.65-.08-.063c0-.032,0-.066-.005-.106a.4.4,0,0,0-.161-.256c-.136-.332-.272-.668-.391-1-.044-.07-.106-.085-.121-.19l.014-.116-.062-.185-.086-.09c-.056-.155-.095-.315-.141-.469l-.053-.057-.038-.32c-.044-.049-.088-.092-.149-.165.025.141.045.231.064.328-.022-.015-.049-.031-.049-.033,0-.136-.139-.14-.127-.3l.073-.085-.041-.206.052-.252-.117-.211c.008-.051.015-.1.029-.168l-.044-.112-.166-.46c-.042-.212-.067-.428-.095-.643l-.08-.169.035-.172c-.009-.074-.024-.172-.03-.279l-.056-.1-.022-.294-.061-.107c-.024-.249-.03-.5-.035-.75s-.019-.5-.007-.748l-.045-.107c-.018-.114.043-.142.058-.237a1.012,1.012,0,0,0-.026-.111c-.043-.12-.138-.109-.17-.261l.053-.71L38.448,226a.6.6,0,0,1-.009-.1c.01-.152.036-.3.055-.453,0-.012.014-.022.022-.034.076.06.03.26.092.347-.021.176-.029.356-.044.528.043.05.049-.011.052-.052l.03-.377.046-.378-.036-.115c.022-.164.04-.331.066-.5l-.063-.2.057-.381-.071-.13c.021-.19.069-.161.109-.168a1.23,1.23,0,0,0,.1-.334l-.093-.14.161-.141-.027-.166c.029-.048.054-.1.1-.167l.207-.73c.067-.112.136-.206.212-.317l.12-.356.081-.085-.013-.1c.054-.159.125-.325.192-.5l.106-.029c.053-.127-.068-.039-.034-.163L40,220.7c.059-.157.106-.246.145-.338a2.712,2.712,0,0,1-.01-.281,2.466,2.466,0,0,1,.044-.268l.076-.069c.024-.056.057-.115.088-.177l0-.117a18.134,18.134,0,0,1,2.721-4.029l.1-.039c.132-.14.277-.3.431-.451l.094-.033c.147-.159.3-.314.465-.464s.316-.308.479-.45l.1-.025c.132-.078.233-.226.38-.285-.048.11-.16.166-.241.242s-.151.132-.227.2l-.258.244c.07.07.206-.221.219-.067.168-.161.325-.286.474-.418l.081-.02c.061-.023.035-.059.1-.128.043-.038.128-.111.228-.187l.075.039.128-.064.053-.184a1.164,1.164,0,0,1,.239-.169l-.039.112c.111-.035.2-.142.3-.192l.1-.015.258-.183a1.439,1.439,0,0,1,.322-.2c-.078.07-.116.114-.167.164l.022.064c.085-.031.163-.062.273-.1.218-.138.462-.3.712-.451l.122-.009.506-.291c.169-.1.345-.179.516-.269l.115,0,.049-.069a.662.662,0,0,1,.233-.014l.458-.207.075.063c.162-.04.311-.143.5-.187l.072.052a.443.443,0,0,0,.083-.016l.469-.183.475-.161.092.015c.11-.015.223-.079.346-.1.084,0,.172,0,.253,0A17.459,17.459,0,0,0,40.371,222.4a.126.126,0,0,0-.034.042c-.035.089-.05.188-.085.273a.864.864,0,0,0-.055.276q-.123.438-.224.885a1.694,1.694,0,0,0-.166.189l.022.106a.341.341,0,0,0-.083.319l.052.01c.024-.051.046-.107.073-.155a17.413,17.413,0,0,0-.309,2.582.969.969,0,0,0-.09-.265,1.438,1.438,0,0,0-.159-.481c-.1.133.039.213,0,.339l-.055.1c-.011.124-.018.252-.018.351l.188.769c.007.254.014.539.021.817.017.028.027.05.051.087l.036.48.081.121c.034.4.078.788.138,1.175a.061.061,0,0,0-.013.036c.065.343.109.69.194,1.022l.028.032A17.3,17.3,0,0,0,41.8,236.3l-.039-.027c-.1-.162-.187-.33-.276-.511l-.1-.01c-.071-.06-.089-.214-.189-.239-.119-.219-.212-.457-.32-.687l-.1-.093c-.048-.1-.1-.218-.155-.373l.04-.164-.185-.473-.15-.444-.192-.272c0-.037.009-.076.017-.132l-.1-.159-.092-.323a.427.427,0,0,1-.13-.289c0-.063.039-.11-.008-.218l-.093-.033c-.047-.059-.04-.149-.067-.215l-.07-.089c-.045-.1.008-.143,0-.245l-.069-.132c.006-.053.013-.117.019-.177l-.081-.112q-.025-.139-.051-.287l-.043-.052c-.06-.1-.038-.226-.075-.339l-.048-.068.028-.111c-.016-.123-.034-.264-.05-.4l-.06-.088c-.009-.125-.02-.267-.03-.391l-.053-.086c-.012-.192-.035-.387-.036-.582l-.055-.107q-.008-.341-.016-.689l-.043-.082c0-.129.007-.272.009-.349a2.945,2.945,0,0,0-.075-.306.8.8,0,0,1-.022-.179.861.861,0,0,0-.1-.422c-.043.07-.022.16-.037.235l.044.113c-.013.165-.011.331-.017.494l.1.2a1.672,1.672,0,0,0,0,.271,2.342,2.342,0,0,0,.1.348c0,.167.009.363.014.56.019.036.035.071.056.106l.022.291-.041.106c.005.072.01.136.015.194l.057.105c.013.253.057.5.086.756l.067.12c.039.34.119.7.177,1.054.027.036.045.056.074.091l.088.382.065.076c.066.316.161.627.248.937l.065.074s.011,0,.014.015c.042.157.1.309.15.463l.057.054c.009.01.021.019.025.03.077.23.155.46.247.683s.17.452.272.669l.077.06.231.512c.032.031.061.057.1.093.173.324.332.661.528.98l.285.484.308.472c.005.008.019.01.029.014,0-.12-.166-.224-.158-.345.013.008.029.011.035.021l.313.481c.026.036.047.075.075.12l-.119-.015.138.21-.038.1c.065.075.126.074.187.115.082.116.163.231.249.336l-.036.107.13.166c.027.165-.157,0-.194.06l-.24-.194c-.01-.036-.022-.074-.033-.12-.051-.089-.1-.19-.2-.216l-.023-.115-.168-.236-.1-.057c-.177-.275-.358-.549-.528-.829l-.066-.043c-.01-.009-.024-.015-.031-.026A17.439,17.439,0,0,1,40.558,235.258Zm-1.005-6.831.007-.014c0,.121.01.241.017.361l-.02-.032A.987.987,0,0,1,39.553,228.427ZM43.08,240.2l-.135-.08-.21-.415-.127-.057-.019-.077a.123.123,0,0,0-.012-.039l-.37-.472-.03-.121-.1-.125-.166-.134-.038-.154-.291-.409-.288-.446.05-.063c.2.26.463.661.983,1.377l.017.084.306.389c.01.042.022.08.035.119.1.073.073-.057.218.007.009.005-.036.047,0,.091l.09.125-.114-.038c0,.009,0,.022,0,.029l.339.416.15.006.471.494c.015.094.15.2.155.292,0,.068,0,.132.006.209l-.265-.253-.027-.086C43.51,240.66,43.3,240.445,43.08,240.2Zm2.416,3.3-.029.041a.492.492,0,0,1-.243-.157v-.109l-.093-.08-.142.016-.088-.066-.111-.216-.168-.133c-.072-.015-.137-.034-.215-.055l-.256-.221a.262.262,0,0,1-.02-.045.856.856,0,0,1,.3.126l-.063-.157-.2-.056a.644.644,0,0,1-.262-.289L43.7,242l-.219-.366c.063-.051.147.118.222.1.051-.011.151.043.236.07.056.051.113.111.184.17l-.028.082.109.13a.525.525,0,0,1,.215.045.765.765,0,0,0,.194.094c.083.07.159.141.237.2l.056.106c.08.088.141.062.209.1l.23.181a1.952,1.952,0,0,1,.113.235c.027.076.149.134.168.206s.118.161.186.242C45.73,243.623,45.6,243.527,45.5,243.5Zm3.957.04c0,.006,0,.017,0,.017a3.766,3.766,0,0,1-.543-.249l-.074-.1c-.048-.047-.177-.047-.185-.13.016,0,.031,0,.041,0l.586.3A.584.584,0,0,0,49.454,243.543Zm16.784-1.012-.085.144c-.079.053-.176.107-.272.162a.668.668,0,0,1-.081.032l-.082,0c-.177.1-.352.21-.538.3a.472.472,0,0,0-.067.051l-.069.095-.185-.043a.628.628,0,0,1-.209.087,17.414,17.414,0,0,0,1.562-.873Z" transform="translate(-37.335 -209.34)" fill="#b2896a"/>
  <path id="パス_668" data-name="パス 668" d="M185.915,292.938l-.035-.169c0-.073.047-.157.018-.238h-.069l-.056.195-.117.1-.111.611-.11.125-.052-.052.018-.154-.108.066c.058-.287.1-.557.149-.815l-.029-.111.036-.269.079-.169-.042-.149c.022-.171.049-.363.058-.556a.173.173,0,0,0-.023-.063l-.082.131c-.017.04.011.133-.045.127l-.019-.168-.054-.017-.1.117c.022.065.03.1.038.128l-.05.071c-.049.363-.083.725-.153,1.073l.063.19c-.034.193-.065.383-.121.607l-.132.112.039.181c.044-.062.084-.116.124-.067,0,.082.006.165.01.276l-.036.156.021.115-.2.689c.019.051.038.117.055.171l-.194.575.015.1c-.07.2-.16.409-.239.622a.229.229,0,0,0,0,.078c.03.031.091,0,.1.08-.062.168-.139.328-.206.478l-.072.057c0,.059-.012.129.029.168l.1-.213.1-.087c.068-.144.129-.3.189-.451,0-.011.019-.018.024-.022h.08a.735.735,0,0,1,.087-.324l.078-.087-.01-.1.083-.086.063-.186.117-.114.02.114a.25.25,0,0,0,.053-.256c.132-.363.222-.744.333-1.118.09-.38.187-.76.257-1.143l-.081-.083.015-.106Z" transform="translate(-148.135 -271.369)" fill="#b2896a"/>
  <path id="パス_669" data-name="パス 669" d="M193.491,295.653l.1-.129-.024-.111c.059-.239.11-.5.143-.7-.01-.115-.015-.175-.02-.233l.08-.129-.027-.119c.019-.1.035-.208.047-.314-.023-.053-.027-.143-.07-.155a2.29,2.29,0,0,0-.064.412s.066.024,0,.1l-.1-.017-.045-.16c.016-.118.025-.238.038-.349l-.087-.082.019-.148-.081-.179c.01-.081.02-.134.022-.186a.51.51,0,0,0-.012-.1l-.075.014-.1.765.031.135-.158.025-.056.319c.011.12.023.237.036.372-.017.08-.029.185-.068.351l.043.088c.02.2-.068.325-.034.436l.05.012c.045.148-.066.192-.095.294,0,.1-.01.209-.017.335l.153.042c-.009.19-.016.358-.025.55-.017.058-.04.145-.08.26l.027.227-.171.2c-.048.136-.014.145.018.157l.118-.093a.862.862,0,0,0,.031.1,1.1,1.1,0,0,0,.057.1l-.036.2c.058-.081.114-.092.156-.209,0-.062.009-.138.014-.223l.1-.141c-.057-.1.1-.313.042-.419l.084-.339c0-.181-.112-.191-.1-.383.034-.061.028-.166.083-.224.033-.02.063.03.1-.065-.019-.073-.072-.043-.108-.066l-.084.1a1.327,1.327,0,0,0,.011-.193.353.353,0,0,1,0-.188C193.427,295.545,193.436,295.548,193.491,295.653Z" transform="translate(-154.618 -272.704)" fill="#b2896a"/>
  <path id="パス_670" data-name="パス 670" d="M127.627,355.3l-.178.149c.32-.051.607-.126.9-.191l.015-.183.142.094c.319-.075.628-.173.938-.259a.5.5,0,0,0,.08-.039l.031-.1c.363-.128.721-.232,1.053-.369l.127-.115.173-.011.075-.072c.112-.045.2-.078.277-.113l.128-.006.24-.109.211-.184a.188.188,0,0,0-.045,0,.248.248,0,0,0-.045.019l-.046.021a18.239,18.239,0,0,1-2.353.9c-.032.009-.065.02-.1.027a.158.158,0,0,1-.042,0l-.079-.015a1.3,1.3,0,0,0-.33.112l-.046.046c-.329.092-.659.157-.984.235-.032.026-.064.051-.1.074l-.391.07-.11.075c-.227.044-.46.08-.693.107-.012,0-.022.014-.04.026l.026.062a.49.49,0,0,0,.283-.05.531.531,0,0,1,.268-.061.712.712,0,0,0,.223.048l.047-.106.111-.02.093-.066c.174-.028.339-.064.5-.1.012,0,.026.006.046.011l0,.073-.229.052C127.75,355.317,127.694,355.309,127.627,355.3Z" transform="translate(-104.354 -318.671)" fill="#b2896a"/>
  <path id="パス_671" data-name="パス 671" d="M197,305.873c-.111.427-.229.843-.353,1.238l-.082.09c-.036.148-.113.3-.147.475l.074.229-.145.073.072.121c-.051.13-.109.268-.159.408a1.814,1.814,0,0,0-.147.432l.155-.176.2-.518.118-.041c.042-.091.078-.175.115-.269a.6.6,0,0,1,.08.15,1.958,1.958,0,0,1,.014.218c0,.022.025.022.044.036l.093-.129c-.009-.115-.014-.238-.029-.346l-.075.082-.036-.308.076-.225a.923.923,0,0,1-.008-.092c0-.109.108-.257.058-.352l.122-.487c-.036-.082.022-.2.036-.3a1.833,1.833,0,0,0,0-.337Z" transform="translate(-157.089 -282.382)" fill="#b2896a"/>
  <path id="パス_672" data-name="パス 672" d="M154.425,343.729l.341-.243.11-.141c.089-.05.147-.022.2-.081l.134-.219-.178.112c-.083.015-.117-.064-.238.007-.023.05-.049.094-.069.133,0,.034.07.039-.018.1l-.1-.036c-.435.321-.883.605-1.254.839a2.56,2.56,0,0,0-.2.167c-.042.047-.07.1-.14.2.212-.124.368-.206.515-.3.027-.017.055-.037.083-.052a.106.106,0,0,1,.038-.005l.094.042.256-.164.139-.019C154.232,343.966,154.32,343.856,154.425,343.729Z" transform="translate(-124.468 -310.54)" fill="#b2896a"/>
  <path id="パス_673" data-name="パス 673" d="M172.921,329.673l.015-.093c.026-.078.14-.145.119-.229-.105.062-.146.219-.247.286l-.072.037-.436.555c-.008.01-.023.013-.035.02l-.1-.01c-.046.079-.127.127-.145.2l.029.1-.391.451c-.13.146-.267.283-.4.425a.571.571,0,0,0-.055.088c.021.021.054.036.065.068a.507.507,0,0,1-.014.147c.15-.166.282-.292.4-.431a.1.1,0,0,0,.012-.037c0-.033-.064-.029-.005-.1.071-.036.131-.031.2-.1.025-.117-.087-.027-.131-.04.034-.129.118-.125.187-.165.131-.154.269-.3.421-.494l.194-.055-.036-.137.326-.416Z" transform="translate(-138.232 -300.174)" fill="#b2896a"/>
  <path id="パス_674" data-name="パス 674" d="M47.193,325.408l-.35-.542c-.119-.181-.232-.365-.337-.554l-.014-.133-.083-.107-.113.04-.12-.083.2.378a.763.763,0,0,0,.187.385l.076.048.244.38.007.053c.093.078.183.157.263.216Z" transform="translate(-43.603 -296.146)" fill="#b2896a"/>
  <path id="パス_675" data-name="パス 675" d="M49.1,329.146h0C49.106,329.151,49.106,329.15,49.1,329.146Z" transform="translate(-45.821 -300.019)" fill="#b2896a"/>
  <path id="パス_676" data-name="パス 676" d="M135.4,365.361l-.35.029-.283.081-.1-.073-.147.052-.026.1c-.495.15-.973.243-1.447.354-.013,0-.023.016-.041.028.1.01.2.012.283.016a20.4,20.4,0,0,0,2.079-.563C135.376,365.386,135.385,365.371,135.4,365.361Z" transform="translate(-109.32 -327.429)" fill="#b2896a"/>
  <path id="パス_677" data-name="パス 677" d="M41.7,313.761c0,.041,0,.084,0,.127l.143.284c.062.036.134.134.181.089-.017-.124-.026-.143-.081-.185l-.081,0a.844.844,0,0,1-.028-.275c-.139-.313-.3-.643-.428-.965l.007-.1-.17-.165v-.108l-.115-.148v-.089c-.044-.069-.084-.136-.121-.2,0,.044-.011.059-.007.071.105.282.218.561.328.842S41.576,313.485,41.7,313.761Z" transform="translate(-39.687 -287.057)" fill="#b2896a"/>
  <path id="パス_678" data-name="パス 678" d="M37.867,301.682l-.138-.172-.048-.209.022-.119L37.66,301c-.048-.09-.1-.172-.136-.261-.018.072-.031.127-.039.17l.145.63.066.082c.054.238.138.486.21.737,0,.012.018.021.027.031l.038-.006.048-.151C37.957,302.008,37.907,301.842,37.867,301.682Z" transform="translate(-37.026 -278.515)" fill="#b2896a"/>
  <path id="パス_679" data-name="パス 679" d="M36.556,294.731c-.069-.382-.14-.762-.182-1.149l-.065-.106c-.009-.068-.018-.138-.026-.208l.035-.117c-.036-.038-.06-.13-.109-.122l.108.869c.037.29.1.578.148.872C36.5,294.814,36.54,294.824,36.556,294.731Z" transform="translate(-36.06 -272.682)" fill="#b2896a"/>
  <path id="パス_680" data-name="パス 680" d="M169.083,338.631c-.052.074-.139.116-.16.21l.076.078c-.139.119-.182.051-.284.062l-.049.154.075.08.159-.046.369-.354a.119.119,0,0,0,.015-.038c0-.01,0-.024,0-.028a.32.32,0,0,0-.055-.028c-.065.05-.111.127-.151.083.064-.068.123-.14.218-.256Z" transform="translate(-136.314 -307.135)" fill="#b2896a"/>
  <path id="パス_681" data-name="パス 681" d="M157.977,342.081l.045-.08c.09-.045.143-.011.228-.059.028-.058.057-.112.079-.162l.213-.038a1.26,1.26,0,0,0,.067-.155c.01-.036.073-.093.012-.112l-.346.272-.36.257c-.009.007-.012.022-.017.033C157.9,342.075,157.914,342.1,157.977,342.081Z" transform="translate(-128.166 -309.35)" fill="#b2896a"/>
  <path id="パス_682" data-name="パス 682" d="M39.9,308.969l-.135-.4c-.072-.113-.12-.188-.166-.27l-.052.051a.275.275,0,0,0,.11.215l-.011.122.056.166.176.273Z" transform="translate(-38.59 -284.242)" fill="#b2896a"/>
  <path id="パス_683" data-name="パス 683" d="M166.09,338.841a2.308,2.308,0,0,0,.383-.327l.06-.16-.036-.037a1.866,1.866,0,0,0-.429.4.3.3,0,0,0,.068-.025c.035-.022.07-.049.114-.08a.7.7,0,0,1-.041.082A1.571,1.571,0,0,1,166.09,338.841Z" transform="translate(-134.348 -306.96)" fill="#b2896a"/>
  <path id="パス_684" data-name="パス 684" d="M162.515,341.567l.075.038.145-.114c.127-.055.222-.1.3-.141l.084-.153c-.087.019-.138.091-.224.154l-.185.025C162.639,341.447,162.554,341.48,162.515,341.567Z" transform="translate(-131.659 -309.14)" fill="#b2896a"/>
  <path id="パス_685" data-name="パス 685" d="M120.943,358.284c.041.037.042.087.059.13l.119-.009c.06-.162.055-.223-.026-.257-.065.022-.152,0-.215.033C120.828,358.235,120.907,358.252,120.943,358.284Z" transform="translate(-100.133 -321.97)" fill="#b2896a"/>
  <path id="パス_686" data-name="パス 686" d="M168.457,336.251a.18.18,0,0,0,.03-.062l-.182,0-.13.137c-.027.077-.048.122-.069.174a2.062,2.062,0,0,1,.183-.1A.519.519,0,0,0,168.457,336.251Z" transform="translate(-135.891 -305.35)" fill="#b2896a"/>
  <path id="パス_687" data-name="パス 687" d="M169.675,336.157l0,.008h.011Z" transform="translate(-137.076 -305.325)" fill="#b2896a"/>
  <path id="パス_688" data-name="パス 688" d="M180.88,338.174c-.239.314-.477.575-.707.844-.034.039-.064.082-.1.124.271-.268.46-.468.588-.62A1.221,1.221,0,0,0,180.88,338.174Z" transform="translate(-144.952 -306.852)" fill="#b2896a"/>
  <path id="パス_689" data-name="パス 689" d="M65.164,223.958l.042.049c.457-.362.516-.389.652-.578-.165.128-.284.218-.4.317l-.116.033C65.286,223.836,65.2,223.876,65.164,223.958Z" transform="translate(-57.976 -220.004)" fill="#b2896a"/>
  <path id="パス_690" data-name="パス 690" d="M186.336,331.875l-.143.121-.046.124-.037.089-.048.108.026.011c.074-.1.151-.208.222-.315a1.276,1.276,0,0,0,.21-.368l-.166.117Z" transform="translate(-149.48 -301.911)" fill="#b2896a"/>
  <path id="パス_691" data-name="パス 691" d="M45.338,248.357l.057.028c.019-.016.033-.023.039-.034l.2-.391-.061-.068a2.288,2.288,0,0,0-.209.372A.447.447,0,0,0,45.338,248.357Z" transform="translate(-42.97 -238.519)" fill="#b2896a"/>
  <path id="パス_692" data-name="パス 692" d="M35.7,277.793l-.058-.3a1.685,1.685,0,0,0-.05.377l.042.116a1.232,1.232,0,0,0,0,.38.3.3,0,0,0,.028-.065Z" transform="translate(-35.597 -260.921)" fill="#b2896a"/>
  <path id="パス_693" data-name="パス 693" d="M192.312,307.97a.7.7,0,0,0,.009-.093c-.015.012-.04.023-.043.036a.387.387,0,0,1-.088.164.783.783,0,0,0-.069.127c-.053.052-.076-.029-.113.082l.024.164.079-.02.071-.211.088-.1C192.284,308.073,192.3,308.021,192.312,307.97Z" transform="translate(-153.982 -283.921)" fill="#b2896a"/>
  <path id="パス_694" data-name="パス 694" d="M53.693,237.814l.031-.151c-.157.157-.162.155-.388.61.012-.006.027-.009.034-.019C53.479,238.109,53.576,237.957,53.693,237.814Z" transform="translate(-49.024 -230.777)" fill="#b2896a"/>
  <path id="パス_695" data-name="パス 695" d="M132.27,357.307c-.012,0-.021.016-.062.047.627-.11.764-.147.867-.226a.1.1,0,0,0-.039-.006C132.784,357.2,132.525,357.244,132.27,357.307Z" transform="translate(-108.72 -321.193)" fill="#b2896a"/>
  <path id="パス_696" data-name="パス 696" d="M191.344,314.575a.879.879,0,0,0-.077.247c.018.008.039.038.059.02a.374.374,0,0,0,.162-.217c-.005-.043-.011-.094-.019-.162Z" transform="translate(-153.421 -288.906)" fill="#b2896a"/>
  <path id="パス_697" data-name="パス 697" d="M194.078,313.147l-.044.3.088-.014.088-.225c-.012-.053,0-.143-.034-.168Z" transform="translate(-155.515 -287.829)" fill="#b2896a"/>
  <path id="パス_698" data-name="パス 698" d="M119.99,357.336c-.123.034-.238.011-.346.05l0,.1a2.065,2.065,0,0,0,.378-.06Z" transform="translate(-99.211 -321.355)" fill="#b2896a"/>
  <path id="パス_699" data-name="パス 699" d="M155.36,349.777a.907.907,0,0,1,.371-.089c.04-.051.083-.1.079-.147l-.156.019C155.56,349.633,155.439,349.67,155.36,349.777Z" transform="translate(-126.243 -315.455)" fill="#b2896a"/>
  <path id="パス_700" data-name="パス 700" d="M35.909,287.513a1.2,1.2,0,0,0-.042-.386c-.009.078-.016.109-.015.14,0,.157,0,.313.019.469,0,.012.013.024.036.066l.05-.187Z" transform="translate(-35.789 -268.216)" fill="#b2896a"/>
  <path id="パス_701" data-name="パス 701" d="M168.864,336.909l-.144.05c-.045.061-.121.1-.158.192l.072.037C168.878,336.947,168.873,336.942,168.864,336.909Z" transform="translate(-136.236 -305.895)" fill="#b2896a"/>
  <path id="パス_702" data-name="パス 702" d="M90.51,354.693a.357.357,0,0,0-.08,0c.507.213.514.209.663.215-.009-.009-.017-.024-.027-.027Z" transform="translate(-77.099 -319.354)" fill="#b2896a"/>
  <path id="パス_703" data-name="パス 703" d="M35.926,282.87a1.487,1.487,0,0,0-.095-.347c0,.154-.007.306-.01.458a.055.055,0,0,0,.011.027Z" transform="translate(-35.767 -264.731)" fill="#b2896a"/>
  <path id="パス_704" data-name="パス 704" d="M69.949,221.321a.992.992,0,0,0-.309.22h.236Z" transform="translate(-61.363 -218.408)" fill="#b2896a"/>
  <path id="パス_705" data-name="パス 705" d="M43.471,256.123a.768.768,0,0,0-.072.228c.044,0,.088-.067.132-.1a.762.762,0,0,0,.072-.227C43.559,256.023,43.515,256.089,43.471,256.123Z" transform="translate(-41.502 -244.674)" fill="#b2896a"/>
  <path id="パス_706" data-name="パス 706" d="M70.28,222.116l-.08-.052c-.094.058-.188.1-.23.187l.063.04Z" transform="translate(-61.614 -218.971)" fill="#b2896a"/>
  <path id="パス_707" data-name="パス 707" d="M56.342,231.509l.243-.308c.088-.118.187-.227.283-.338l.257-.3c.095-.113.2-.219.3-.325l.271-.284a4.19,4.19,0,0,1,.313-.311,2.026,2.026,0,0,1,.265-.243l.091-.03.041-.1c.065-.092.129-.065.194-.107a1.923,1.923,0,0,0,.307-.3l-.167.041c-.155.127-.31.269-.45.4l-.1.029c-.218.209-.441.414-.646.637s-.42.438-.615.672a.543.543,0,0,0-.046.075l-.018.077c-.164.183-.318.374-.468.569s-.307.384-.445.588l-.114.161a.331.331,0,0,0-.015.074,1.811,1.811,0,0,0,.254-.324C56.16,231.74,56.253,231.626,56.342,231.509Z" transform="translate(-50.903 -224.118)" fill="#b2896a"/>
  <path id="パス_708" data-name="パス 708" d="M43.914,266.914l.115-.5.077-.095c0-.04.009-.084.017-.127l-.118-.031c-.015.019-.027.028-.031.04l-.143.618a.658.658,0,0,0,0,.105Z" transform="translate(-41.827 -252.35)" fill="#b2896a"/>
  <path id="パス_709" data-name="パス 709" d="M48.895,253.091c-.007.015,0,.037.009.062a.831.831,0,0,0,.114-.209l.087-.071c.067-.144.128-.293.2-.435a.156.156,0,0,0,0-.049l-.073-.036C49.1,252.617,49,252.857,48.895,253.091Z" transform="translate(-45.66 -241.896)" fill="#b2896a"/>
  <path id="パス_710" data-name="パス 710" d="M43.942,274.035l-.038.313c0,.016.015.033.024.05l.088-.125.036-.283.066-.1-.07-.076Z" transform="translate(-41.884 -258.14)" fill="#b2896a"/>
  <path id="パス_711" data-name="パス 711" d="M54.463,242.9a.337.337,0,0,0,.016-.076c-.359.457-.387.536-.423.663.011-.007.027-.011.033-.021C54.214,243.278,54.328,243.082,54.463,242.9Z" transform="translate(-49.568 -234.683)" fill="#b2896a"/>
  <path id="パス_712" data-name="パス 712" d="M51.1,249.2l0,.089c-.035.128-.12.214-.136.341a.322.322,0,0,0,.114-.164,2.925,2.925,0,0,0,.175-.353l-.088-.017Z" transform="translate(-47.225 -239.431)" fill="#b2896a"/>
  <path id="パス_713" data-name="パス 713" d="M44.575,272.227a.082.082,0,0,0,.135.02.429.429,0,0,0,.028-.255l-.052-.009Z" transform="translate(-42.392 -256.753)" fill="#b2896a"/>
  <path id="パス_714" data-name="パス 714" d="M48.815,249.857l.055-.107v-.159l-.062.045-.084.07-.051.131C48.731,249.84,48.747,249.9,48.815,249.857Z" transform="translate(-45.495 -239.805)" fill="#b2896a"/>
  <path id="パス_715" data-name="パス 715" d="M52.327,246.777a1.946,1.946,0,0,0,.3-.507A1.5,1.5,0,0,0,52.327,246.777Z" transform="translate(-48.26 -237.292)" fill="#b2896a"/>
  <path id="パス_716" data-name="パス 716" d="M50,246.222l-.044-.13.077-.135c.044.025.1-.055.167-.079a1.55,1.55,0,0,0,.165-.355c.017-.057.039-.111.059-.168-.04.025-.055.029-.062.039-.109.175-.209.355-.312.534-.105.042-.144.146-.188.243,0,.047,0,.1,0,.146C49.911,246.284,49.953,246.254,50,246.222Z" transform="translate(-46.395 -236.599)" fill="#b2896a"/>
</svg>
