<svg xmlns="http://www.w3.org/2000/svg" width="271.934" height="61.005" viewBox="0 0 271.934 61.005">
  <g id="グループ_2355" data-name="グループ 2355" transform="translate(0)">
    <path id="パス_224" data-name="パス 224" d="M2020.572,716.427c.107.217-.407.495.157.735a8.046,8.046,0,0,0,3.943.943,2.315,2.315,0,0,1,1.794.7c.226.2.542.32.386.746a.522.522,0,0,1-.608.31,4.51,4.51,0,0,1-.83-.191c-.274-.084-.584-.358-.8-.275a5.256,5.256,0,0,1-3.481-.258c-1.826.874-3.794,1.079-5.7,1.656.81.445,1.569.863,2.458.233a2.248,2.248,0,0,1,1.239-.257c.543-.012,1.034-.014,1.25-.768a.489.489,0,0,1,.574-.368,2.521,2.521,0,0,1,1.787.809c-.586.74-1.482.519-2.243,1.425.872-.317,1.556-.3,2.114-.567,1.471-.706,2.776.017,4.13.417.393.116.612.467.829.853.261.461.589,1,1.095.943.6-.068.194,1.305.991.826a9.185,9.185,0,0,1,1.469-.6c.126-.049.267-.169.434.152-.549,1.132-1.819,1.325-2.565,2.385.711.82,1.782.688,2.608,1.594a4.834,4.834,0,0,1-2.813-.38c-.262.486-.507.941-.791,1.469a2.782,2.782,0,0,0,2.6.5A1.792,1.792,0,0,1,2033,730.49a1.889,1.889,0,0,0,1.3.863,31.141,31.141,0,0,1-3.259,2.384c-.382-.272.069-.817-.331-1.027-.254-.134-.581.039-.816-.3a1.863,1.863,0,0,1,.331-.25c.31-.137.722-.226.573-.75-.117-.409-.36-.8-.809-.828a2.031,2.031,0,0,0-1.092.316c-.629.342-1.167.844-1.979.588-.537-.169-.764.587-.446,1.26a8.134,8.134,0,0,1,.451,1.219.851.851,0,0,1-.353.99c-.169.12-.356.171-.517,0-.118-.126-.053-.282-.023-.452.245-1.422-.051-1.746-1.223-1.6-1.883.243-3.654,1.042-5.5,1.458a1.169,1.169,0,0,0-.97.6c-.184.4-.41.825.137,1.095.173.085.418.137.378.4-.06.4-.13.721.358.464a.571.571,0,0,0,.319-.786,1.921,1.921,0,0,0-.384-.484.63.63,0,0,1-.032-.878.426.426,0,0,1,.743,0c.523,1.346,1.24.71,2.025.456a1.516,1.516,0,0,1,1.834.517c.65.936,1.622.259,2.37.72.181.112.231-.287.359-.419.836-.867,1.657-1.477,2.925-1.04a4.438,4.438,0,0,0,3.154-.416,12.338,12.338,0,0,1,4.8-1.33,17.421,17.421,0,0,1-2.018,2.989c-.184.237-.507.43-.345.822.3.715-.187,1.081-.385,1.623-.477,1.307-1.483,1.25-2.34,1.395-1.42.241-2.646,1.116-4.018,1.509a7.082,7.082,0,0,1-1.629.465c.121.586.459.544.78.591.8.12,1.66-.078,2.322.78.35.454.782-.117,1.186-.154.247-.022.486-.006.612.277a.657.657,0,0,1-.171.746c-.249.254-.525.471-.793.7a4.879,4.879,0,0,0-1.13.992c-.627,1.021-1.293,1.467-2.4,1.047-.66-.251-1.136.642-1.744.918a7.53,7.53,0,0,0-1.516,1.193c-.142.119-.361.243-.263.507.116.312.341.295.6.214a4.319,4.319,0,0,1,.97-.183.5.5,0,0,1,.577.365.788.788,0,0,1-.222.888,1.68,1.68,0,0,1-.912.427,9.394,9.394,0,0,0-2.108.267.807.807,0,0,1-.679-.165c-.43-.273-.484-.831-.552-1.282-.04-.262.347-.487.644-.534a.819.819,0,0,0,.707-.428c-.356-.5-.843.227-1.238-.279.546-1.09,1.961-.014,2.454-1.272-.357-.431-.755-.277-1.09-.211-5.538,1.091-11.112,1.877-16.7,2.443-3.572.362-7.165.561-10.758.6-1.84.018-3.672.238-5.507.4-2.681.243-5.37.354-8.058.459-2.307.089-4.616.086-6.924.137-.259.006-.569-.124-.768.229.078.367.361.32.565.354a21.69,21.69,0,0,0,8.976.011,4.328,4.328,0,0,1,3.458.381.8.8,0,0,0,1.071-.011,2.4,2.4,0,0,1,1.88-.521c1.841-.082,3.682-.193,5.523-.29a3.335,3.335,0,0,1,1.614.16c-.059.838-.794.308-.958.894a63.69,63.69,0,0,0,7.752-.467c2.508-.162,4.928-.916,7.407-1.223a20.862,20.862,0,0,1,3.615-.4,4.574,4.574,0,0,0,2.925-1.07,4.354,4.354,0,0,1,1.441-.663.659.659,0,0,1,.811.895c-.6,1.077-.451,2.5-1.3,3.462a1.935,1.935,0,0,1-1.121.815,5.493,5.493,0,0,0-3.2,1.612,4.5,4.5,0,0,1-1.893,1.094c-1.079.366-2.2.57-3.611.919a10.423,10.423,0,0,0,3.2-.423,11.108,11.108,0,0,1,2.237-.356,3.5,3.5,0,0,0,2.716-1.231c.643-.888,1.315-.187,1.934-.422.074.284.278.61.464.335.454-.67,1.395.065,1.693-.9.123-.4.375-.541.657-.331.346.259.236.689.124,1.062-.152.5-.776.412-.916,1.07.6.4,1.421.322,1.654-.168.518-1.093,1.408-.8,2.106-1.154a4.263,4.263,0,0,1,2.345-.451c.253.022.581.282.628-.3.071-.85.621-.682,1.07-.692.664-.015.843.627,1.048,1.179a1.18,1.18,0,0,1-.307,1.348,7.329,7.329,0,0,1-2.353,1.512c-.81.3-1.652.475-2.47.747-.587.195-1.28.067-1.64.954-.165.408-.69.264-1.06.291-2.072.154-4.146.282-6.218.434-4.524.332-9.032.91-13.57,1.018-5.29.126-10.588.183-15.865-.128-5.738-.338-11.485-.471-17.217-1.128-3.369-.386-6.778-.526-10.171-.721a50.258,50.258,0,0,1-6.622-.661,25.773,25.773,0,0,0-3.25-.186c-2.21-.137-4.42-.382-6.631-.407-1.839-.02-3.675-.09-5.511-.108q-8.426-.085-16.85.059c-5.194.084-10.387.293-15.579.45-3.769.114-7.539.222-11.306.354-5,.176-10,.29-14.994.588-4.9.292-9.8.245-14.7.462-3.385.151-6.775.144-10.159.224-1.428.034-2.931-.106-4.341-.012-2.211.148-4.42.007-6.621.2-2.964.254-5.937.206-8.9.4-3.3.216-6.6.3-9.9.469-3.015.151-6.021.484-9.04.6a57.958,57.958,0,0,0-9.561.826,36.708,36.708,0,0,1-6.209.4,5.547,5.547,0,0,1-1.516-.376c-.653-.176-1.183-.4-.85-1.452.207-.651-.163-.884-.689-.87a7.733,7.733,0,0,1-2.278-.206c.78-.854,1.892-.441,2.716-1.07-.054-.563-.437-.329-.656-.321a30.044,30.044,0,0,1-7.049-.486c-.463-.094-.993-.067-1.12-.778s-.54-.683-.976-.575c-.6.15-1.192.34-1.788.505a.342.342,0,0,1-.467-.23.445.445,0,0,1,.214-.541,4.661,4.661,0,0,1,2.781-.962,6.292,6.292,0,0,0,2.265-.7,6.729,6.729,0,0,0-3.412.108,26.636,26.636,0,0,0-4.2.643c-.582.191-1.189-.228-1.724-.542-.376-.221-.361-.626.018-.916.512-.392.158-.658-.12-.836a3.289,3.289,0,0,0-.813-.25,4.766,4.766,0,0,1-1.447-.643c-1.514-1.1-1.548-1.972.065-3.271-1.016-.1-1.5-1.025-2.254-1.487a1.708,1.708,0,0,1-.961-1.791.47.47,0,0,0-.076-.287c-.9.033-.749-1.074-1.172-1.479-.6-.572-1.206-1.006-1.164-2.062.01-.261-.256-.248-.446-.258-.267-.014-.581.085-.716-.315a.476.476,0,0,1,.173-.44c.434-.413,1.175-.455,1.318-1.173.113-.565-.655-1.088-.213-1.82.038-.063-.224-.6-.569-.624a2.059,2.059,0,0,1-1.223-.688c.818-.5.935-1.645,1.7-2.222-.325-.5-.813-.614-1.176-.939-.319-.287-.859-.415-.371-1.091a.553.553,0,0,0-.1-.442,2.663,2.663,0,0,1-.761-2.482c.076-.67-.421-1.037-.888-1.373s-.976-.517-.924-1.555a2.277,2.277,0,0,0-1.482-1.772c-.354-.131-.753-.162-.982-.76,1.2-.806,1.044-2.27,1.106-3.61.017-.385.021-.62.332-.776.29-.146.212-.375.137-.678-.081-.323.508-.119.392-.444-.056-.158-.438-.123-.65-.235a3.883,3.883,0,0,1-1.285-1.743c-.282-.516.334-.979.759-1.135.518-.192,1.024-.2.827-1.139-.08-.384.276-.551.584-.506a8.381,8.381,0,0,1,.969.247,1.054,1.054,0,0,0,1.276-.466,3.561,3.561,0,0,1,2.771-1.738c1.185-.139,1.164-.283.832-1.688-.467-1.976-.026-3.058,1.527-3.286a4.522,4.522,0,0,0,1.177-.536,4.191,4.191,0,0,1,3.126-.152,8.875,8.875,0,0,0,4.088.127c1.724-.323,3.46-.51,5.186-.823,5.4-.98,10.782-2.186,16.232-2.788,4.182-.462,8.375-.61,12.573-.726,5.371-.148,10.741-.094,16.1.107,3.391.127,6.787.32,10.181.458,5.6.228,11.2.546,16.81.525a10.973,10.973,0,0,0,1.548-.18,7.674,7.674,0,0,1,2.532.043,17.419,17.419,0,0,0,5.909.094,24.386,24.386,0,0,1,3.682-.136c3.012-.017,6.026.092,9.037-.148,1.123-.09,2.255.134,3.393.106,3.237-.081,6.478-.156,9.713-.057,2.869.088,5.73-.109,8.6.054,4.45.254,8.917.094,13.375.182,4,.08,8,.243,12,.4,7.25.277,14.5.5,21.755.494,2.22,0,4.439.077,6.659.126a1.938,1.938,0,0,0,1.04-.116c-.081-.4-.626-.268-.627-.745.412-.3.817-.026,1.185.119a6.932,6.932,0,0,0,2.764.422,25.51,25.51,0,0,1,5.605.64,35.67,35.67,0,0,0,5.921.486c1.414.041,2.808.293,4.216.377,1.065.063,2.14.438,3.149-.366.295-.235.622.065.912.317l-.756.371c2.328.176,4.472.519,6.623.709,2.382.211,4.741.59,7.11.912.376.051.857.37.919-.513.03-.445.4-.373.677-.339,1.4.171,2.813.3,4.209.537a8.677,8.677,0,0,0,1.833.12c2.149-.089,4.3-.207,6.444-.326.426-.024.876-.134,1.233.2,1.18,1.1,2.424.957,3.845.749.955-.14,2.1-.6,3.1.2a1.972,1.972,0,0,0,1.383.268c1.412-.072,2.8.436,4.214.233.258-.037.652-.106.715.307.1.624-.39.46-.674.543a.979.979,0,0,0-.674.419c1.142.892,2.372.5,3.561.567.064-.59-.2-.693-.48-.782-.177-.056-.391-.082-.316-.407.051-.214.1-.439.3-.538.085-.043.194-.113.267-.084.351.144.957.257.994.49.208,1.272,2.424.687,1.7,2.724a1.464,1.464,0,0,0-2.03-.105,1.435,1.435,0,0,1-1.355.243,1.657,1.657,0,0,0-1.557.527l2.084,1.008c-1.515,2.1-3.7,2.411-5.676,3.268-.067-.47.027-1.032-.69-.888s-1.505.317-1.9-.8c-.126-.36-.452-.2-.579-.007-.474.736-1.08.536-1.676.392a1.6,1.6,0,0,0-1.548.195c-.22-.336.648-.952-.28-.928-.227.006-.506-.23-.676-.007-.533.7-1.364.563-2.045,1.156.923-.616.993.85,1.6.751a5.151,5.151,0,0,1,1.952-.126,4.834,4.834,0,0,1,.96.277A5.029,5.029,0,0,0,2020.572,716.427Zm.519,14.422c-.391.126-.866-.087-1.307.4.789.038.789.038,1.292-.421a1.155,1.155,0,0,0,1.449-.42C2022.072,730.666,2021.545,730.587,2021.09,730.849Zm-106.663,23.844a8.353,8.353,0,0,0-3.7-.012l-5.389.154c1.543.135,3.075.141,4.606.131.273,0,.573.018.768-.3a5.584,5.584,0,0,0,3.694.008c.406.032.826.464,1.324-.015C1915.21,754.361,1914.823,754.61,1914.428,754.692ZM1836.5,752.1a7.609,7.609,0,0,0,3.932-.191c-.321-.213-.453-.379-.552-.354a4.226,4.226,0,0,1-2.359.1.988.988,0,0,0-1.009.472,3.241,3.241,0,0,0-.321-.3c-.177-.122-.379-.119-.417.148-.04.285.179.346.366.315A1.229,1.229,0,0,0,1836.5,752.1Zm63.521,3.338a2.912,2.912,0,0,0-2.29-.567c-1.2.008-2.383.274-3.593.3-1.122.024-2.383-.38-3.628.525.8-.2,1.341.272,1.957.292,2.4.075,4.788-.4,7.19-.314.112,0,.228-.173.341-.266l4.162-.129a6.662,6.662,0,0,0-3.842-.352C1900.124,754.966,1900.054,755.215,1900.023,755.442Zm45.093-5.254a.582.582,0,0,0-.608-.358c-5.56-.027-11.088-.914-16.652-.858-1.079.011-2.174-.391-3.235-.277-2.163.232-4.319-.027-6.475.1a4.267,4.267,0,0,1-1.408-.108,8.825,8.825,0,0,0-2.8-.141c-2.873.106-5.743.3-8.616.417-.7.028-1.463-.36-2.1-.144-1.541.528-3.09.127-4.618.2-2.9.136-5.8.641-8.71.3-1.023-.12-1.917.489-2.906.484-4.383-.019-8.756.348-13.132.542-2.968.131-5.933.345-8.9.436-2.822.087-5.635.507-8.473.179a2.694,2.694,0,0,0-2.476.608c.108.279.208.393.363.386,1.636-.066,3.275-.249,4.907-.171,1.457.069,2.89-.434,4.33-.173.85.154,1.7.072,2.537.159.9.093,1.752-.279,2.656-.217,2.29.158,4.583.006,6.875-.048.541-.012.851-.49,1.43-.412,1.635.221,3.309.653,4.921-.265a.88.88,0,0,1,.682.089,3.609,3.609,0,0,0,1.542.182c1.838-.022,3.677-.035,5.515-.1,5.31-.175,10.618-.484,15.928-.524,3.8-.029,7.586-.365,11.385-.346,1.356.007,2.726-.076,4.089-.089,4.471-.042,8.944-.042,13.416-.028,1.128,0,2.258.207,3.383.159a43.455,43.455,0,0,1,5.049.013C1943.7,750.231,1944.4,750.189,1945.115,750.189Zm68.422-26.309c.366.579.943.357,1.149.635.559.748,1.13.463,1.736.256a1.267,1.267,0,0,1,1.343.2c.211.178.532.258.829-.312-.745.277-.645-.87-1.365-.806C2016.061,723.957,2014.883,723.88,2013.537,723.88Zm-207.046,29.405c3.024.316,6.019-.26,9.027-.463A47.325,47.325,0,0,0,1806.491,753.285Zm115.058-46.359a13.044,13.044,0,0,0,5.618.092C1925.308,706.475,1923.426,706.886,1921.549,706.926Zm-97.134,45.447a7.623,7.623,0,0,0,4.381-.067A10.1,10.1,0,0,0,1824.415,752.373Zm18.209-.531c3.238.436,4.744.33,5.751-.437A50.4,50.4,0,0,1,1842.624,751.842Zm140.455,5.372a3.028,3.028,0,0,0,2.477.241c.85-.209,1.68.268,2.529.014A16.373,16.373,0,0,0,1983.078,757.215Zm-133.631-5.391a7.612,7.612,0,0,0,3.346-.163C1851.647,750.763,1850.566,751.867,1849.448,751.824Zm144.126,5.6c1.24.82,2.506.36,3.776,0Zm-107.806-1.872c-1-.043-2-.4-3.088.208C1883.893,756.952,1884.8,755.547,1885.768,755.556Zm134.8-17.415c.628.212,1.041-.167,1.505-.178.429-.01.369-.54.432-.9.032-.181-.012-.331-.167-.385-.254-.088-.445.085-.622.267C2021.369,737.3,2021.027,737.664,2020.57,738.141Zm-93.354,16.048a14.417,14.417,0,0,0,4.6,0Zm-94.59,2.651a12.461,12.461,0,0,0-3.452.12A11.932,11.932,0,0,0,1832.626,756.84Zm157.122.626a3.026,3.026,0,0,0,2.883.109C1991.742,757.123,1990.852,757.447,1989.748,757.466Zm12.724.934c1.049.869,1.792-.342,2.622-.16A5,5,0,0,0,2002.472,758.4Zm-169.884-6.5q.006.2.013.406c.583,0,1.167.019,1.751-.01.207-.01.32-.232.26-.472-.041-.162-.226-.272-.337-.187A2.451,2.451,0,0,1,1832.588,751.9Zm195.452-21.208c.224-.072.412-.279.344-.319-.495-.293-.646-1.065-1.21-1.214-.144-.039-.463.164-.34.35A3.173,3.173,0,0,0,2028.04,730.691Zm-29.015,26.941c.605-.153,1.3.243,2.079-.291A2.49,2.49,0,0,0,1999.025,757.632Zm-140.708-1.447a7.665,7.665,0,0,0,2.82,0Zm39.736-49.541a2.573,2.573,0,0,0-1.812-.091A1.8,1.8,0,0,0,1898.052,706.643Zm15.824.245a6.386,6.386,0,0,0-2.729-.091A5.2,5.2,0,0,0,1913.876,706.888Zm41.239,48.363.016-.106-1.927-.155c0,.087,0,.174-.006.261Zm-105.6.963h-2.058A3.1,3.1,0,0,0,1849.517,756.214Zm39.629-49.448c.011.087.023.174.036.26l2.022-.131c0-.043-.005-.086-.008-.129Zm31.234.071h-1.372C1919.468,707.093,1919.919,707.371,1920.38,706.837Zm88.348,1.377c-.448-.272-.787-.1-1.209.223C2008.049,708.779,2008.4,708.706,2008.728,708.213Zm-37.2,48.07a8.546,8.546,0,0,0-.993-.16c-.259-.009-.551-.119-.764.183C1970.318,756.565,1970.857,756.334,1971.533,756.283Zm-76.968-49.77c-.336.089-.726-.249-1.126.257A1.418,1.418,0,0,0,1894.564,706.513Zm70.214,49.342-.049.11h1.409c0-.037,0-.074,0-.11Zm36.847,1.542a1.786,1.786,0,0,0,1.531-.1C2002.682,757.028,2002.309,757.171,2001.626,757.4Zm-182.068-4.863a1.75,1.75,0,0,0,1.439-.013A2.046,2.046,0,0,0,1819.557,752.534Zm129.784,2.242a1.564,1.564,0,0,0-1.422.108A1.364,1.364,0,0,0,1949.341,754.776Zm.873.176a1.718,1.718,0,0,0,1.567-.034C1951.141,754.815,1950.756,754.585,1950.214,754.952Zm-24.1-.54a.667.667,0,0,0-.924-.093C1925.479,754.359,1925.706,754.822,1926.116,754.412Zm-131-46.184a2.517,2.517,0,0,0,1.542-.42A1.37,1.37,0,0,0,1795.119,708.228Zm185.252,49.1c.588-.033,1.015.217,1.6-.151A2.342,2.342,0,0,0,1980.372,757.329Zm-142.2-.779c-.427-.054-.679-.179-.906.072C1837.531,756.786,1837.78,756.715,1838.174,756.55Zm-7.434-4.287a.386.386,0,0,0,.483-.261c.069-.221-.141-.224-.256-.229-.188-.01-.395.011-.405.312C1830.56,752.144,1830.685,752.21,1830.74,752.263Zm193.44-9.306c.457-.087.832.108,1.14-.524C2024.892,742.451,2024.545,742.4,2024.181,742.957ZM1855.561,756.22c.075.066.15.186.215.179.194-.021.553.115.515-.19C1856.27,756.036,1855.815,755.894,1855.561,756.22Zm79.6-1.818c-.144-.167-.342-.285-.528-.109ZM1841.7,756.5c.033.079.042.145.071.162a1,1,0,0,0,.811.054.121.121,0,0,0,.038-.229,1.468,1.468,0,0,0-.532-.118A1.222,1.222,0,0,0,1841.7,756.5Zm68.541-49.713a.335.335,0,0,0-.391-.3c-.076,0-.2.071-.214.13-.044.278.132.342.312.363A.232.232,0,0,0,1910.24,706.782Zm35.861,47.807a.8.8,0,0,0,.711.008C1946.578,754.552,1946.347,754.418,1946.1,754.589Zm26.282-3.027a1.27,1.27,0,0,0-.278-.037.6.6,0,0,0-.188.087,1.237,1.237,0,0,0,.25.028A.884.884,0,0,0,1972.383,751.563Zm-136.809,4.991a2.433,2.433,0,0,0-.405-.023c-.049.005-.094.088-.138.135a1.98,1.98,0,0,0,.367.061C1835.444,756.727,1835.492,756.638,1835.574,756.554Zm52.852-1a.5.5,0,0,0,.691.2.132.132,0,0,0,.036-.235A.515.515,0,0,0,1888.426,755.558Zm131.979-11.914a1.232,1.232,0,0,0,.292-.286c.061-.115-.023-.212-.134-.156a2.916,2.916,0,0,0-.348.246Zm-73.1,6.614c-.118-.07-.188-.147-.253-.143a1.757,1.757,0,0,0-.365.1c.066.046.133.129.2.129A2.132,2.132,0,0,0,1947.3,750.257Zm3.656.359.185-.09a1.08,1.08,0,0,0-.259-.052.543.543,0,0,0-.187.084C1950.785,750.578,1950.872,750.6,1950.959,750.616Zm54.341,6.422.259-.047a.6.6,0,0,0-.186-.092,1.06,1.06,0,0,0-.255.03Z" transform="translate(-1765.385 -701.885)" fill="#750000" fill-rule="evenodd"/>
    <path id="パス_7355" data-name="パス 7355" d="M-82.95-1.106c0,.266-.1.378-.392.252-.434-.2-1.064-.518-1.582-.784a16.786,16.786,0,0,1,1.974-1.61Zm.63-3.794c0-.644.014-1.316.056-1.946a15.337,15.337,0,0,0,2.072-.77c.294-.14.448-.308.448-.546-.014-.308-.378-.364-.63-.364-.294.014-.756.476-1.848.882a9.792,9.792,0,0,1,.168-1.372c.1-.448.308-.658.308-.994s-.9-.784-1.428-.784a2.135,2.135,0,0,0-.98.266l.042.266a2.688,2.688,0,0,1,.882.1c.224.07.28.126.28.434.014.336,0,1.274,0,2.31a6.832,6.832,0,0,1-1.484.252c-.742.028-.952-.112-1.666-.812l-.238.182c.574,1.274,1.162,1.4,1.848,1.4a7.476,7.476,0,0,0,1.54-.252v2.7c-.938.532-2.03,1.386-2.548,1.694a1.039,1.039,0,0,1-.8.154c-.308-.028-.392.084-.392.406a.768.768,0,0,0,.252.574.679.679,0,0,0,.448.238c.2,0,.378-.112.8-.5a16.783,16.783,0,0,1,1.5,1.106c.448.406.476.84.8.84.42,0,.8-.644.8-1.274,0-.5-.154-1.022-.21-2.926a7.829,7.829,0,0,1,3.57-1.218c1.5,0,2.17.812,2.17,1.862a1.959,1.959,0,0,1-2.156,1.988,3.436,3.436,0,0,1-2.212-.84l-.224.224a3.205,3.205,0,0,0,2.632,1.4,2.611,2.611,0,0,0,2.842-2.59,2.532,2.532,0,0,0-2.758-2.562A8.508,8.508,0,0,0-82.32-4.3Zm3.612-3.78a2.836,2.836,0,0,1,2.618.812c.154.224.14.336-.014.5a10.414,10.414,0,0,1-1.12.77l.154.252a5.306,5.306,0,0,1,1.078-.42c.448-.084.574.28.9.21.266-.028.364-.266.35-.546a2.6,2.6,0,0,0-2.128-2.016,4.694,4.694,0,0,0-1.862.07Zm10.766-1.764v1.358H-70.91v-1.358Zm-2.968,3.15v-1.4h2.968v1.4Zm2.968.406v.728h.126a1.289,1.289,0,0,0,.742-.28V-10.3a.943.943,0,0,0,.532-.266l-1.064-.8-.462.518H-70.84l-.952-.462V1.078h.168c.406,0,.714-.224.714-.364v-7.6Zm.028,4.956V-4.564h3.36v2.632Zm3.71-3.556-.476.518h-3.192l-.938-.42V-.5h.14c.364,0,.756-.2.756-.28V-1.54h3.36V-.7h.14a1.187,1.187,0,0,0,.742-.308V-4.424a.893.893,0,0,0,.518-.252ZM-64.5-7.294v-1.4h3.08v1.4Zm3.08-3.15v1.358H-64.5v-1.358Zm.336-.994-.476.588h-2.87l-.952-.42v5.04h.126c.378,0,.756-.2.756-.294v-.364h3.08V-.35c0,.238-.07.322-.35.322s-1.694-.1-1.694-.1v.21a2.9,2.9,0,0,1,1.19.336.83.83,0,0,1,.294.6c1.3-.126,1.456-.56,1.456-1.274v-10.01a1.1,1.1,0,0,0,.616-.28Zm4.858,6.524a4.485,4.485,0,0,0,2.59,4.368c.574.238.952.014.952-.364,0-.294-.224-.364-.1-.994.084-.434.532-1.61.854-2.534l-.364-.168a22.856,22.856,0,0,1-1.316,2.562.33.33,0,0,1-.49.1,3.208,3.208,0,0,1-1.4-3,21.48,21.48,0,0,1,.476-2.94c0-.574-.728-1.2-1.232-1.442a3.866,3.866,0,0,0-.882-.224l-.126.224c.994.7,1.092,1.05,1.092,1.806C-56.168-6.888-56.252-5.922-56.224-4.914Zm8.75-1.26a7.631,7.631,0,0,1,.8,2.8c.056.322.224.49.448.49.378,0,.56-.238.56-.784a4.985,4.985,0,0,0-1.218-3.15A4.353,4.353,0,0,0-49.518-8.2l-.126.336A4.053,4.053,0,0,1-47.474-6.174Zm7.672,5.8V-3.7h6.118V-.378ZM-33.824-4.1h-5.908l-1.022-.462V1.064h.154c.392,0,.8-.21.8-.308V.042h6.118v.91h.14c.308,0,.8-.2.812-.294V-3.514a1.151,1.151,0,0,0,.588-.28l-1.162-.9Zm-1.372-2.6h-4.858l.112.406h6.23c.2,0,.336-.07.378-.21-.476-.434-1.218-1.008-1.218-1.008ZM-37.31-11.83c-.742,2.016-3.57,4.83-5.964,6.16l.112.21A17.056,17.056,0,0,0-36.484-11a12.043,12.043,0,0,0,5.432,5.026,1.053,1.053,0,0,1,.826-.728l.028-.21a13.62,13.62,0,0,1-6.02-4.256c.336-.028.518-.084.56-.252ZM-24.654-1.372c-.2-.252-.7-.868-1.106-1.4.448-.644.91-1.316,1.288-1.9-.028,1.26.014,2.52.014,3.206C-24.472-1.246-24.542-1.246-24.654-1.372Zm.882-4.886a6.6,6.6,0,0,1,.5-.63c.182-.21.336-.336.322-.5s-.294-.448-.532-.6c.1-.476.21-.882.266-1.092.14-.56.308-.7.308-.98,0-.392-.7-1.008-1.288-1.008a2.815,2.815,0,0,0-.868.154l.014.28a4.663,4.663,0,0,1,.77.2c.238.084.322.154.322.476,0,.42-.112,1.19-.224,2.142a11.846,11.846,0,0,1-2.366.966c-.252,0-.448-.224-.658-.644l-.252.1a2.148,2.148,0,0,0,.056.574,1.577,1.577,0,0,0,1.134.98c.224,0,.35-.28.658-.476.364-.21.854-.49,1.33-.742-.042.364-.084.728-.112,1.106a37.176,37.176,0,0,1-3.052,3.99.934.934,0,0,0-.322.714c0,.28.168.49.378.49s.336-.182.5-.42c.266-.364.574-.8.9-1.26A11.155,11.155,0,0,1-24.934-.7a5.016,5.016,0,0,1,.252.9c.056.322.2.476.462.476.392,0,.574-.672.574-1.148,0-.308-.042-.56-.07-.924a31.513,31.513,0,0,1-.126-4,6.525,6.525,0,0,1,4-1.624,2.451,2.451,0,0,1,2.59,2.394c0,1.638-.784,3.332-4.284,4.648l.14.322c3.654-.9,5.152-2.6,5.152-4.69A3.3,3.3,0,0,0-19.684-7.5,7.642,7.642,0,0,0-23.8-6.1Zm17.416-3.92a5.582,5.582,0,0,1,.84.112c.238.056.35.168.364.392.042.56.042,1.666.028,2.52-1.274.266-3.038.686-3.962.91.028-.644.042-1.2.084-1.54.042-.546.266-.6.266-.854,0-.364-.9-.826-1.414-.826a3.016,3.016,0,0,0-.938.182l.014.294a3.527,3.527,0,0,1,.812.126c.224.084.308.168.336.574s.042,1.274.028,2.24a25.372,25.372,0,0,1-2.716.616c-.336,0-.686-.406-.91-.784l-.21.084a1.769,1.769,0,0,0,.07.7c.21.518.742,1.008,1.134,1.008s.952-.378,2.632-.9c.014,1.33,0,2.7.042,3.472C-9.786-.266-8.694.168-6.678.168A18.113,18.113,0,0,0-3.43-.056c.42-.1.588-.21.588-.49,0-.336-.378-.5-.84-.5A23.247,23.247,0,0,1-6.9-.7c-1.89,0-2.184-.182-2.24-1.68-.014-.644.014-1.96.028-3.178.994-.266,2.6-.644,3.976-.9A14.492,14.492,0,0,1-5.362-4.2a.411.411,0,0,1-.448.336,8.926,8.926,0,0,1-1.54-.364l-.1.308c.56.238,1.176.476,1.386.9.154.266.266.308.462.308.5,0,.812-.392.952-1.036a18.144,18.144,0,0,0,.28-2.828c.266-.042.5-.07.728-.1a15.949,15.949,0,0,1,2.03,0c.392,0,.6-.07.6-.35,0-.434-.5-.644-1.078-.644a19.172,19.172,0,0,0-2.254.364c.028-.658.042-1.218.07-1.652.014-.49.28-.574.28-.812,0-.378-.826-.91-1.5-.91a2.82,2.82,0,0,0-.882.224Zm18.69.392-.49.588H7.77c.056-.63.084-1.288.112-1.988a.506.506,0,0,0,.49-.392l-1.428-.14c-.014.9-.042,1.736-.1,2.52H2.954L1.946-9.674V1.05h.168c.392,0,.742-.224.742-.35V-8.778H6.8A7.462,7.462,0,0,1,3.36-2.772l.182.252A7.06,7.06,0,0,0,7.294-6.636a9.689,9.689,0,0,1,2.8,3.7c1.134.77,1.666-1.89-2.716-3.962a11.135,11.135,0,0,0,.35-1.876h4.256V-.434c0,.238-.084.322-.378.322-.35,0-2.03-.126-2.03-.126v.224a3.286,3.286,0,0,1,1.372.392.963.963,0,0,1,.378.686C12.726.91,12.894.42,12.894-.322v-8.3a1.213,1.213,0,0,0,.616-.252Zm14.546.154a13.067,13.067,0,0,1-.742,1.47l.2.112A9.22,9.22,0,0,0,28-9.478c.266-.014.42-.028.532-.14l-1.064-1.036-.588.616H22.512v-1.176c.336-.056.476-.2.5-.392l-1.442-.14v1.708H17.6a3.614,3.614,0,0,0-.126-.728h-.238a2.99,2.99,0,0,1-1.078,2.352.616.616,0,0,0-.294.784c.182.294.714.238,1.022-.042a2.586,2.586,0,0,0,.742-1.96ZM23.03-8.61a8.236,8.236,0,0,1,2.9,2.562c1.134.49,1.344-1.876-2.758-2.7ZM17.122-5.656a9.84,9.84,0,0,0,3.514-2.576c.322.056.434-.014.518-.154l-1.26-.574a10.192,10.192,0,0,1-2.926,3.122ZM24.514-3.4H19.488l-.546-.238A13.1,13.1,0,0,0,22.3-6.678,9.044,9.044,0,0,0,24.92-3.85Zm-5.1,3.136V-2.982H24.64V-.266ZM21.476-7.49C20.734-5.67,18-3.3,15.554-2.212l.1.224a16.4,16.4,0,0,0,2.87-1.386V1.092h.14c.378,0,.756-.21.756-.308V.154H24.64v.854h.14c.28,0,.742-.21.756-.308V-2.884a.94.94,0,0,0,.5-.224L26-3.136a11.285,11.285,0,0,0,1.708.826,1.094,1.094,0,0,1,.826-.742l.028-.21a12.8,12.8,0,0,1-5.992-3.584c.336-.028.5-.112.56-.266Zm15.036-.364a6.59,6.59,0,0,1-.5,2.156c-.574,1.33-1.862,3.542-2.786,3.542-.574,0-1.19-1.022-1.19-2.366a4.5,4.5,0,0,1,1.442-3.234A5.326,5.326,0,0,1,36.12-9.142,2.443,2.443,0,0,1,36.512-7.854ZM36.274.056c4.578-.294,6.034-2.674,6.034-5,0-2.9-2.226-4.788-5.11-4.788a6.053,6.053,0,0,0-4.088,1.5A5.378,5.378,0,0,0,31.248-4.3c0,1.722.98,3.206,1.918,3.206,1.428,0,3.052-2.716,3.64-4.4a7.018,7.018,0,0,0,.434-2.254,2.613,2.613,0,0,0-.6-1.484c.168-.014.336-.028.5-.028A3.973,3.973,0,0,1,41.3-5.166c0,2.534-1.652,4.3-5.082,4.9ZM47-1.456V-6.09h1.61v4.634Zm1.96-5.558-.462.532h-1.33l-.308-.14a16.947,16.947,0,0,0,.924-3.388h2.24c.2,0,.322-.07.364-.224-.462-.42-1.176-.98-1.176-.98l-.644.784H45.08l.1.42H46.83A18.221,18.221,0,0,1,44.9-3.7l.21.182a12.07,12.07,0,0,0,1.05-1.6V.6h.126A.835.835,0,0,0,47,.322V-1.036h1.61V-.07h.126a1.257,1.257,0,0,0,.742-.266V-5.95a1.045,1.045,0,0,0,.546-.252Zm2.94,4.83h1.834v1.89H51.9Zm1.834-4.368v1.736H51.9V-6.552Zm0,3.962H51.9V-4.4h1.834Zm2.478,2.3H54.586v-1.89h2.576c.182,0,.322-.07.35-.224-.406-.392-1.05-.91-1.05-.91l-.574.728h-1.3V-4.4H57.05c.2,0,.322-.07.364-.224-.406-.406-1.05-.91-1.05-.91l-.574.714h-1.2V-6.552h2.7c.2,0,.322-.07.364-.224-.42-.392-1.092-.9-1.092-.9l-.6.714H54.026a11.671,11.671,0,0,0,.966-1.428.47.47,0,0,0,.5-.294l-1.358-.308a15.424,15.424,0,0,1-.518,2.03H52.066L52-6.986a14.15,14.15,0,0,0,1.372-2.436h3.024c-.14.42-.336.924-.462,1.246l.2.084a11.613,11.613,0,0,0,1.3-1.176c.28-.014.406-.028.518-.14L56.924-10.4l-.56.574H53.536c.168-.434.322-.854.448-1.26.364,0,.49-.084.546-.252l-1.414-.406a14.351,14.351,0,0,1-.546,1.918H51.128a3.366,3.366,0,0,0-.126-.7h-.238a2.306,2.306,0,0,1-.7,1.722.585.585,0,0,0-.294.742c.168.294.63.238.91.014a2.013,2.013,0,0,0,.476-1.372H52.43A12.8,12.8,0,0,1,49.56-4.8l.168.154a9.74,9.74,0,0,0,1.33-1.176v6.9h.14c.434,0,.7-.224.7-.294V.126h5.7c.182,0,.308-.07.336-.224-.42-.42-1.106-.966-1.106-.966ZM64.064-10.36c.2,0,.322-.07.364-.224-.42-.406-1.106-.924-1.106-.924l-.588.742H60.242l.112.406ZM63.49-9H59.626l.112.392h5.11c.182,0,.322-.07.35-.21-.42-.406-1.106-.952-1.106-.952ZM60.27-7.238l.112.42h3.78c.2,0,.308-.07.336-.224C64.12-7.42,63.5-7.91,63.5-7.91l-.546.672Zm3.892,2.2c.2,0,.308-.07.336-.224-.378-.364-.994-.868-.994-.868l-.546.7H60.27l.112.392ZM61.152-.588V-3.22h2.142V-.588Zm2.506-3.584-.49.532H61.222l-.91-.42V1.092h.126c.364,0,.714-.21.714-.294v-.98h2.142V.56h.14c.28,0,.714-.2.728-.294V-3.066a1.28,1.28,0,0,0,.588-.266Zm2.03.686a2.945,2.945,0,0,1-.868,2.268c-.252.21-.392.5-.238.742.182.294.672.2.952-.1a3.113,3.113,0,0,0,.406-2.912Zm5.474-7c-.07,2.52-.238,3.892-.532,4.144a.512.512,0,0,1-.434.14c-.252,0-1.022-.056-1.456-.1l-.014.238a3.022,3.022,0,0,1,1.022.322.789.789,0,0,1,.21.63,1.876,1.876,0,0,0,1.274-.434c.5-.476.714-1.932.8-4.83.28-.056.448-.112.532-.224l-1.036-.84-.49.532h-5.67l.126.42h2.2c-.07.49-.154.966-.266,1.428a9.635,9.635,0,0,0-1.848-.322l-.1.182a10.66,10.66,0,0,1,1.764.8,6.136,6.136,0,0,1-2.394,3.248l.14.224a5.819,5.819,0,0,0,3-3.024A4.809,4.809,0,0,1,69.09-7c.854.2.924-.966-.812-1.75a12.6,12.6,0,0,0,.42-1.736ZM66.92-5.026a4.807,4.807,0,0,1,2.17,1.792c1.05.42,1.232-1.722-2.044-1.946Zm3.948,3.6h-.182a7.515,7.515,0,0,1-.35,1.33.216.216,0,0,1-.224.126c-.14.014-.518.028-.98.028H68.1c-.392,0-.434-.056-.434-.238V-3.458c.238-.042.378-.168.392-.336l-1.246-.14V.014c0,.616.182.826,1.106.826H69.09c1.778,0,2.17-.168,2.17-.532,0-.182-.07-.28-.35-.378Zm-.378-2.24A5.674,5.674,0,0,1,71.708-.49c.938.91,1.932-1.456-1.05-3.276Zm4.34-.868a2.032,2.032,0,0,0,1.218.7c.392,0,.6-.294.952-.756.532-.686,1.526-2.016,2.03-2.6.21-.252.378-.364.546-.364a.976.976,0,0,1,.7.35c1.106,1.176,2.226,2.674,3.416,3.864S86.086-1.3,86.6-1.3a.41.41,0,0,0,.448-.462.951.951,0,0,0-.56-.84c-2.8-1.512-4.228-3.7-5.74-5.138a1.6,1.6,0,0,0-1.176-.56,1.248,1.248,0,0,0-.938.5c-.532.588-1.68,1.89-2.324,2.492a1.19,1.19,0,0,1-.672.364,1.619,1.619,0,0,1-.91-.518l-.224.2A1.831,1.831,0,0,0,74.83-4.536Z" transform="translate(126 31)" fill="#fff"/>
    <path id="多角形_5" data-name="多角形 5" d="M5,0l5,5.833H0Z" transform="translate(231.002 22) rotate(90)" fill="#fff"/>
  </g>
</svg>
