<svg id="グループ_2361" data-name="グループ 2361" xmlns="http://www.w3.org/2000/svg" width="55.37" height="53.327" viewBox="0 0 55.37 53.327">
  <g id="グループ_1475" data-name="グループ 1475">
    <path id="パス_666" data-name="パス 666" d="M159.8,226.316h0C159.79,226.313,159.79,226.313,159.8,226.316Z" transform="translate(-117.995 -220.602)" fill="#750000"/>
    <path id="パス_667" data-name="パス 667" d="M89.342,231.618,89.6,232l.069-.222-.079-.134c-.01-.082-.022-.173-.033-.259a.622.622,0,0,0-.25-.275L89.289,231c-.078-.12-.157-.227-.2-.29-.093-.063-.14.039-.21-.068l.038-.153a2.287,2.287,0,0,1-.054-.481c.049,0,.12-.046.158.006.07.1.14.057.206.148s.135.051.19-.011c0-.045-.005-.088-.009-.147-.089-.123-.171-.3-.287-.322-.07-.011-.084-.1-.107-.208a2.806,2.806,0,0,0,.092-.355,3.5,3.5,0,0,0,.018-.386c-.038-.155-.061-.289-.109-.445l-.243.04c-.173-.24-.381-.226-.557-.536l-.1-.351c-.033-.035-.058-.061-.1-.105-.147-.421-.284-.871-.446-1.286l-.1-.09a25.822,25.822,0,0,0-1.936-3.951c-.375-.6-.719-1.151-1.024-1.57s-.527-.737-.637-.888l-.02-.107a25.233,25.233,0,0,0-3.688-3.8c-.022-.052-.045-.1-.07-.151l-.638-.5-.059-.128c-.543-.4-1.11-.813-1.685-1.169l-.082-.142c-.147-.093-.312-.206-.466-.29l-.078-.122c-.661-.393-1.35-.755-2.068-1.1h-.153l-.266-.111-.142.008a24.994,24.994,0,0,0-4.267-1.452l-.154.034-.394-.091-.117-.086c-.091.008-.166.011-.241.021l-.186-.123-.8-.142-.132-.1-.551-.072-.1-.076c-.368-.049-.731-.1-1.093-.116l-.148-.084-.541-.041-.123-.074-.83-.022-.268-.144a.592.592,0,0,0-.064-.008c-.487,0-.973.019-1.46.029a.187.187,0,0,1-.056-.013l-.107-.045c-.5.045-1.015.06-1.52.135a.151.151,0,0,1-.054-.014l-.107-.036-.693.088-.688.12c-.229.043-.459.078-.686.127l-.679.156-.172-.035c-.135.033-.271.059-.4.1l-.13-.026-.581.146c-.137-.078-.412.106-.559.02L56,210.3l-.141-.019c-.176.061-.357.118-.531.184l-.173-.01-.52.2-.179-.007-.247.1c-.071,0-.127,0-.189,0l-.765.345-.138,0c-.139.056-.283.126-.41.188l-.147,0-.693.355c-.232.122-.456.258-.686.387a.184.184,0,0,1-.057.011l-.116.008c-.461.253-.9.556-1.342.837-.014.01-.021.031-.053.082.164-.066.346-.164.443-.1-.235.148-.448.288-.655.438-.012.009-.033,0-.048.006l.067-.139a.637.637,0,0,0-.119.048.734.734,0,0,0-.1.094c.028.087.052.18.182.19.388-.287.794-.532,1.161-.771.181-.054.331-.1.512-.145l.7-.4.314-.015.5-.257h.139l.271-.129h.144c.466-.217.931-.435,1.406-.628.014-.006.04.017.059.026-.018.016-.029.035-.046.041-.684.291-1.361.6-2.01.942h-.149c-.16.08-.339.174-.442.237l-.568.149c-.212.122-.454.258-.676.406l-.286.025c-.32.2-.639.407-.938.627s-.606.419-.878.642c-.111.049-.186.085-.259.113a1.029,1.029,0,0,1-.219.069.54.54,0,0,1-.173-.031c-.155.121-.318.25-.4.328l-.289.143-.087.184-.421.368c-.016.013-.01.047-.013.071.16-.033.274-.3.44-.282a.192.192,0,0,1-.03.05c-.326.273-.627.573-.927.857l-.048.133c-.28.257-.54.555-.786.805l-.236.138c-.028.075-.049.127-.073.2l-.4.462a.916.916,0,0,1-.1.084l-.106.044c-.188.21-.363.434-.539.659l-.039.16c-.284.35-.547.714-.8,1.082s-.5.741-.743,1.115l-.134.091-.029.169c-.112.152-.165.341-.322.434-.052.032-.116.178-.159.247,0,.073-.006.111-.009.153l-.134.1c-.095.158-.18.326-.268.5,0,.156,0,.316-.006.475l-.113.083c-.148.277-.275.565-.4.85s-.265.565-.372.853l.012.14c-.158.407-.331.818-.467,1.243a.822.822,0,0,1-.058.112l-.08.079c-.107.312-.214.624-.3.941l-.112.13-.077.269c-.116.072-.124.3-.195.391a3.58,3.58,0,0,0-.316.7l-.135-.537c0-.081.008-.146.013-.217l-.112.012-.08.347.107.127-.056.2-.21.023c-.028.122-.05.216-.072.316l.034.164-.1.565c.014.059.028.115.043.173-.025.141-.05.283-.074.418l.041.142a27.029,27.029,0,0,0-.214,6.337l.086.146c.02.375.089.772.131,1.145l.078.118c.005.022.012.043.015.065.034.322.1.639.157.958s.11.638.189.952a.2.2,0,0,0,.03.051l.075.093c.095.414.187.834.314,1.245.005.017.023.03.035.045l.073.084a25.583,25.583,0,0,0,2.289,5.536c.006.061.012.117.016.162.175.3.334.592.492.843l.194.161c.028.1.047.168.065.231a.833.833,0,0,1,.269.307c.008.052.017.109.027.172.181.271.379.54.573.813.01.014.032.02.059.036l.07-.051-.171-.409-.171-.14-.044-.175c-.227-.33-.436-.673-.654-1.008s-.4-.689-.6-1.03c0-.08,0-.145,0-.211.028.019.049.026.058.04.274.468.53.947.832,1.4.147.228.29.458.443.683l.471.664.031.162c.055.1.158.18.178.3-.1-.042-.19-.088-.282-.135.02.132.046.26.074.388l.325.414c.152.311.044.458.115.7l.152.077.178.206c.161.076.161.076.175.13,0,.091-.15.044-.075.195l.191.22a1.519,1.519,0,0,1,.306.147c-.009.051-.018.1-.027.15l.331.367-.027.153.2.253a2.049,2.049,0,0,0-.4-.247l-.4-.418-.06-.157c-.092-.149-.182-.118-.189-.126l-.3-.351-.14-.276-.185-.091c-.061-.067-.12-.145-.182-.224l-.044-.169c-.268-.348-.553-.685-.8-1.045l-.039-.184-.125-.131c-.074,0-.074.058-.066.136a.427.427,0,0,1-.034.162l.33.461.346.441c.229.29.446.577.674.83l.257.183.062.2c.158.182.318.37.5.55v.408l.258.1c0-.069-.009-.14-.015-.222l.166.132c.022.088.079.208.055.25-.044.075.03.194.072.3l.154.108c.047-.03.048-.03.152,0a.418.418,0,0,0,.055.323c.133.08.238.047.4.19l.11.211.77.671c.051.117.1.227.241.256l.093-.041.381.182.524.413a.182.182,0,0,1,.032.051c.03.081.128.183.058.222-.16-.008-.158-.011-.194.082.133.1.272.2.412.3.232.029.51.126.674.055.361.262.747.49,1.078.707.161.053.278.1.4.132.028-.048.1-.074.044-.188-.149-.052-.272-.223-.46-.246l-.042.066-.212-.086-.111-.249a6.573,6.573,0,0,1-.586-.411l.142-.2.238.111.113-.059.5.326.339.039c.433.291.921.543,1.379.814.136-.027.263.065.392.128l.108.134c.3.147.591.313.9.447l.116.133.385.174.117.129c.336.16.679.282,1.016.417a.446.446,0,0,0,.113.014l.079-.081c.43.18.864.305,1.281.452l.1.095.173-.011c.087.039.213.038.3.106l.049.141.715.2.164-.025c.157.01.187.094.265.13l.42.1.167-.025.1.082c.251.062.506.11.745.15l.132-.037.14.094c.379.071.761.135,1.145.178s.767.107,1.152.129l.145.08.721.054.16-.053.12.063.608.016.125-.057.5.011.52-.012.153.061.286-.007.146-.071.162.067c.435-.024.869-.062,1.292-.094l.166.054a1.091,1.091,0,0,0,.47-.136l.534-.068.115-.075c.327-.04.657-.111,1.007-.17l.162.038c.134-.026.278-.046.421-.08.074-.035.089-.1.224-.121l.425.006-.128.111.232-.01.348-.341a1.853,1.853,0,0,0,.706.062l.517-.147.153.026a2.981,2.981,0,0,0,.443-.17l.082-.081a2.033,2.033,0,0,1,.468-.138c.1.028,0,.153.161.14s.176-.1.27-.157l.131.01.564-.222.151-.137a28.087,28.087,0,0,0,3.789-1.912c.038-.085.011-.115-.07-.105-.117.029-.231.187-.343.14.012-.018.019-.039.034-.048.255-.142.5-.306.749-.465l.222-.024-.058.162c.263-.172.489-.308.629-.412a2.862,2.862,0,0,1,.567-.567l.169-.034c.159-.109.312-.232.435-.329l.463-.2c.207-.163.4-.311.581-.475.013-.012.016-.035.024-.052-.031-.077-.136-.1-.11-.242.144-.073.238-.267.416-.3l.049.055-.172.237.23-.06.116-.1.019-.209c.005-.067.011-.134.015-.188l.511-.486.245-.1-.045.148.252-.073-.1-.215c.155-.143.3-.3.427-.436l.049-.154c.272-.281.551-.577.809-.885l.137-.059.431-.5.25-.193c.059-.126.034-.213.149-.316l.155-.082c.277-.339.525-.7.779-1.059l.2-.113c.046,0,.055.084.144-.029l-.048-.179.115-.017a.251.251,0,0,0,.082-.021c.048-.024.1-.059.138-.083l.149-.468.248-.155c.117-.177.225-.364.323-.536l.012-.155a3.578,3.578,0,0,1,.259-.4l.149-.017c.057-.1.11-.186.153-.274l.006-.1c.055-.229.2-.362.207-.526l-.061-.075.094-.366.093-.071c.094-.192.179-.389.266-.578l-.082-.148c.117-.131.14.016.22-.026.078-.1.144-.236.236-.291a3.216,3.216,0,0,0,.143-.343,1.2,1.2,0,0,0,.129-.4c-.071-.039-.132-.1-.23-.064-.128.189-.152.458-.311.634l-.069-.065c.027-.192.184-.365.156-.536a.811.811,0,0,0-.126.118c-.107.149-.211.306-.327.454-.055-.029-.164.04-.141-.129.079-.08.167-.106.233-.232-.007-.1-.014-.192-.022-.29l.289-.733c.093-.245.172-.5.257-.744l-.012-.123c.021-.207.134-.354.121-.519-.116.049-.093.3-.2.364,0-.013-.008-.027-.014-.038-.049-.1.027-.281,0-.4,0,0-.023.026-.046.049-.149.433-.291.883-.456,1.325a.2.2,0,0,1-.037.045l-.085.077-.259.657.008.165c-.07.178-.153.347-.228.518a.453.453,0,0,0-.2.344c.005.023.027.117.044.189-.08.182-.141.306-.175.368-.041.114.01.145-.057.211l-.094.07c-.042.1-.128.2-.133.306.026.1.105.019.176-.018.05-.026.1-.008.074.072-.091.128-.178.119-.261.257l.141.146c-.032.07-.052.112-.077.157l-.138.1c-.045.1-.138.191-.147.3l.062.132-.126.219c-.058.2-.1.354-.149.5-.12.05-.248.172-.369.181a1.342,1.342,0,0,0-.353.181c-.051.274.178-.021.24.107-.01.079-.027.222-.046.371l-.146.095-.746,1.049-.165.093-.251.319-.123.073-.121.275-.282.1c-.41.467-.772.914-1.173,1.318l-.055.154-.295.309-.16.07-.866.826c-.295.265-.6.52-.9.779a.345.345,0,0,1-.1.044l-.1-.05c-.12.106-.021.106-.035.155a1.639,1.639,0,0,1-.1.206l-.392.307a.747.747,0,0,1-.11.059l-.109.026c-.078.059-.15.121-.223.171l-.086.146a.952.952,0,0,1-.4.2l-.469.333-.439.284-.191.214-.2.034c-.215.124-.429.274-.638.37l-.141.009-.1.134-.315.181-.254-.043c-.018.094-.027.144-.034.185a.36.36,0,0,1-.3.1l-.376.192-.175.007-.166.084c-.04.07-.1.154-.139.217l-.674.305-.167.008c-.07.082-.119.165-.265.168l-.127-.079-.149.054-.116.122-.529.208-.163-.009c-.5.175-1,.351-1.488.5l-.122.1c-.213.12-.36.04-.549.088l-.131.1c-.195.059-.4.1-.584.147l-.132-.031c-.2.045-.407.087-.577.134l-.108.093c-.1.025-.193.038-.282.056l-.161-.04c-.161,0-.19.086-.263.112l-.707.124-.2-.05-.277.116-.222.028-.148.089c-.372.054-.754.079-1.132.108l-.15.082c-.195.013-.386.035-.577.037-.017,0-.035-.015-.06-.026-.018-.036.007-.089-.172-.118-.08-.012-.121.07-.228.089-.157-.01-.333.045-.46-.017l-.045-.1c-.132,0-.244.01-.367,0l-.068.212-.178-.082-.346.148-.229-.186-.343.082c-.077,0-.149-.005-.226-.012L62.672,261c-.377-.03-.759-.054-1.141-.091l-.188.059-.551-.224c-.26,0-.423-.185-.7-.156l-.113.033-.421-.075-.181-.108c-.339.028-.341.029-.549-.107-.45-.11-.918-.2-1.368-.332a.593.593,0,0,0-.4-.171l-.151.012-.121-.11c-.269-.07-.552-.177-.816-.263l-.1-.1a26.058,26.058,0,0,1-2.767-1.126c-.015-.007-.024-.028-.034-.041-.038-.094.068-.086.169-.087-.064-.082-.126-.166-.175-.239,0-.046,0-.082,0-.114-.259-.146-.3-.173-.306-.211l.214,0,.236.121c.059.066.113.116.169.173a1.5,1.5,0,0,1,.25.023c.1.026.2.113.306.1l.058-.13.221-.008.281.109.13-.011c.436.169.436.169.575.173-.013-.013-.023-.033-.038-.039l-.571-.226-.555-.249-.1-.121-.244-.11-.157,0c-.144-.066-.261-.131-.361-.181l-.126-.146-.412-.211c-.1-.1-.163-.145-.214-.2l-.189-.015L52,256.461l-.09-.131-.338-.194-.21.067-.022-.2-.6-.415c-.009-.006-.008-.024-.011-.036l.218.02c.319.208.643.414.979.6a.626.626,0,0,0,.112.038l.137-.07.05.208c.108.047.2.141.3.133l-.089-.155c.088.042.157.076.222.1.008.068.013.117.02.178l.628.322.079.111c.239.128.492.228.735.343l.1.121.228.1.238.017.173.15c.345.133.683.276,1.024.4l1.018.344.289-.058c.512.147,1.03.3,1.56.409a.26.26,0,0,0,.073-.011c0-.037.146,0,.135-.063l-.184-.12c.307,0,.452.2.7.264l.1-.032a2.653,2.653,0,0,0,.447.057l.1-.106c.281.052.544.1.809.127.051-.019.1-.036.15-.058.02-.009.023-.029.04-.052l-.417-.053c-.1.02-.178.028-.25.037l-.171-.115c-.39-.075-.807-.131-1.214-.234a.827.827,0,0,0-.119-.01l-.105.028-.648-.15-.117-.1-.251-.071-.151.027-.252-.072-.116-.1c-.192-.051-.357-.107-.509-.16-.117,0-.183.056-.316.023l-.038-.148-.389-.132c-.039-.04-.077-.075-.113-.116a1.465,1.465,0,0,0-.437-.138.591.591,0,0,1-.052.123c-.008.013-.056.007-.085.009l-.079-.093c-.168-.067-.349-.135-.52-.208l-.152.01-.135-.174c.115-.027.247.006.3-.056a1.369,1.369,0,0,0-.47-.2c.044.08.182.185.012.193l-.264-.21,0-.119c-.051-.04-.149-.074-.192-.129a24.147,24.147,0,0,0,20.19.311L74,256.9c-.177.093-.347.142-.509.238l-.13.262-.24.095-.106.113c-.136.05-.255.108-.488.183.041-.019-.006-.1-.084-.005l.071.2-.156.165c-.414.144-.841.285-1.275.4-.023.007-.037.039-.054.057.045.058.227-.086.244.01-.015.012-.027.03-.043.035-.261.074-.521.152-.774.218l-.125.1c-.458.1-.895.223-1.336.291l-.111-.034-.773.121-.56.071a1.877,1.877,0,0,0-.507.106l.213.079a25.5,25.5,0,0,0,3.347-.623.165.165,0,0,1,.055,0l.105.022.109-.093c.21,0,.322.1.568.057l.138-.116.157.025.779-.261.113-.109.154.014c.492-.176.959-.367,1.417-.554l.092-.115.878-.4.086-.117.165-.009.6-.307c.015-.008.024-.028.036-.042l.014-.139c.106-.069.229-.1.289-.191l-.085-.155c-.22.132-.442.232-.643.339-.127-.01-.234-.016-.317.106l.015.168-.275-.067-.977.444c-.316.142-.635.255-.948.381-.018.007-.045-.013-.082-.025l.336-.163c.016-.062-.037-.1.057-.159.1-.027.2-.1.3-.085l-.107.136a.886.886,0,0,0,.358-.14l.169-.215.239-.108.1-.122.15,0c.3-.128.571-.28.844-.416l.081-.115a25.35,25.35,0,0,0,2.321-1.373l-.024-.018c.114-.1.221-.214.37-.358-.145.072-.206.017-.333.109-.045.062-.1.132-.162.2l-.407.129.086-.129a24.224,24.224,0,0,0,4.745-4.035c.225-.146.422-.284.631-.423l.131.018.139-.161a.844.844,0,0,0-.077-.07c.057-.116.1-.24.167-.389l.184-.115.275-.331.1.053-.092.159-.153.074-.244.31-.033.155c-.039.052-.082.1-.129.155.04.025.081.046.13.07.123-.212.287-.258.409-.4l.038-.172.244-.31.033-.15.624-.876a1.9,1.9,0,0,0,.47-.371c0-.036.006-.072.01-.109l.072-.112.14-.086.213-.337.183-.116c-.01.1.039.185-.07.332l-.134.089c-.14.19-.254.41-.386.58l-.119.068a4,4,0,0,1-.229.333,1.644,1.644,0,0,1-.306.378c.012-.089.019-.168.036-.252.012-.055.008-.07-.054-.024l-.246.345-.024.208c.091-.032.189-.122.265-.105a1.438,1.438,0,0,1-.259.379c-.093.054-.181.059-.257.131l-.139.33c.174-.1.242-.059.235.1l-.129.132-.165-.081c-.081.062-.159.043-.238.161l-.1.233c-.108.1-.2.072-.285.223l-.069.231.136.008.1-.113a.563.563,0,0,1,.1-.039c.035-.005.109-.082.1,0l-.23.322c.039-.014.06-.016.071-.028l.39-.449c.066-.27.059-.274.118-.3l.123.1c-.042.083-.08.155-.119.221l.043.059a.463.463,0,0,0,.315-.2c-.031-.048.074-.186.012-.251s.141-.255.1-.349c.291-.355.546-.738.814-1.11l.029-.163c.062-.131.146-.132.208-.19l.146-.228.03-.182c.171-.269.348-.533.5-.808l-.061-.151.154-.268.129-.083c.088-.152.188-.324.265-.481l.112-.08.312-.61a.176.176,0,0,0,0-.063c-.092.069-.169.207-.267.265l-.279.545c-.178.194-.333.341-.478.489l-.065-.053.075-.19c0-.083.011-.189.017-.3.045-.076.082-.157.115-.219,0-.139,0-.266,0-.369l-.073-.093.149-.29.162-.021.072-.171-.081-.131.06-.134.119-.1.331-.732a.567.567,0,0,1,.1-.4c.085-.1.2-.1.267-.324-.074-.127.013-.368,0-.56l.1-.1c.117-.355.238-.686.334-1l-.019-.166a.381.381,0,0,0,.269-.181l.07-.249c0-.016,0-.035-.012-.08l-.13.137c-.063.072-.122.124-.165,0,.056-.2.118-.4.169-.607l.142-.616c.1-.409.173-.824.245-1.233l-.02-.06c.031-.185.063-.37.09-.556l.05-.091-.022-.133a24.307,24.307,0,0,0,.228-3.277c0-.132-.008-.262-.01-.393h.069l.122.218.114-.14c.012-.166-.028-.289.039-.362l.069.006c.027.092.051.187.082.275.038.106.035.26.107.326l.082.072.119-.187a1.245,1.245,0,0,1,.062-.568l.109.359a1.522,1.522,0,0,0,.028-.5c-.089-.1-.072-.323-.154-.428,0-.222-.141-.247-.176-.438l-.011-.238.129-.1-.026-.18c-.1-.118-.12.076-.178.11-.076-.022-.154.089-.235-.064l.125-.1c0-.1,0-.208-.012-.315a1.128,1.128,0,0,0,.321-.492ZM50.984,212.306c-.164.093-.324.19-.479.292l-.088.138-.15.1-.09-.079a1.229,1.229,0,0,1,.118-.1c.217-.141.433-.283.661-.407.014-.008.037,0,.082-.006C51.007,212.277,51,212.3,50.984,212.306ZM80.9,255.74c.163-.058.283-.244.448-.3.013.048.012.047-.547.489l-.043-.162Zm-9.329,4.578.578-.166.575-.192c.008.082-.1.139-.145.2-.271.1-.548.176-.8.247h-.457C71.448,260.362,71.51,260.336,71.573,260.318ZM52.612,256.9l-.043.081c-.07,0-.073.008-.342-.139l-.068-.18A2.323,2.323,0,0,1,52.612,256.9ZM80.37,216.205l.068.151c.16.14.332.281.49.438l.058.155.579.552.03.1a.166.166,0,0,0,.021.05l.636.668.037.136.651.752c.217.251.412.517.61.765l.058.248a.2.2,0,0,1-.057-.026.9.9,0,0,1-.084-.093c-.309-.4-.619-.792-.935-1.142l-.033-.142c-.142-.163-.282-.332-.434-.485l-.035-.106c0-.017,0-.039-.015-.05-.276-.288-.544-.583-.839-.853l-.041-.125-.29-.277-.049-.144c-.146-.14-.316-.278-.464-.409a1.378,1.378,0,0,0-.385-.451C80.151,215.969,80.244,216.115,80.37,216.205ZM47.709,252.718c.069.064.13.128.2.19l.186.494-.088.1a.723.723,0,0,0-.152-.028c-.039,0-.062.03-.093.046l-.228-.2a.657.657,0,0,1-.054-.137c-.009-.044.008-.076,0-.119a1.035,1.035,0,0,0-.045-.143l-.223-.089c-.43-.4-.832-.823-1.231-1.245l-.16-.065c-.246-.311-.006-.357-.121-.6l.39.262c.025.03.083.1.148.163l.046.148.184.193.278.094c.119.122.248.267.374.382l.143.041.063.143.185.177v.206Zm.4,1.85.335.264c.019.062.021.063-.361-.017-.187-.141-.36-.3-.537-.451-.021-.1-.173-.264.009-.262l.346.282.149.049Zm-2.477-3.659-.031.027-.25-.049-.1-.184.032-.027.251.049Zm-.9-2.027c-.015-.006-.032-.01-.04-.021-.231-.321-.462-.642-.671-.981s-.432-.671-.628-1.027l0-.049A24.1,24.1,0,0,0,44.729,248.881Zm28.587-36.468.051-.006c.235.076.487.2.734.307l.039.051Q73.731,212.581,73.315,212.413ZM71.4,211.184l.138-.028c.038.034.077.064.118.1l.249.084.156-.019.094.1.4.148.087.092c.044,0,.092-.007.175-.007l.615.242.142-.015.363.145h.174l.482.217.168,0,.058.08a2.569,2.569,0,0,0,.407.215h.108a.17.17,0,0,1,.046.012c.025.029.044.059.073.1l.265.136h.125c.31.15.605.331.905.5l.447.259.433.277.074.129c.221.143.467.293.677.451l.064.124.431.307c.033.1.14.179.211.273-.006.006-.012.02-.018.016-.064-.032-.131-.059-.148-.066a1.361,1.361,0,0,1-.172-.053c-.037-.023-.073-.051-.109-.077l-.6-.424-.608-.393-.067-.117c-.152-.1-.313-.207-.482-.3l-.123-.005-.6-.346-.066-.1c-.407-.217-.82-.428-1.23-.631l-.136.08c-.1-.067-.035-.1-.05-.143-.011-.014-.019-.035-.033-.041l-.733-.332-.753-.3-.155.013c-.287-.12-.586-.212-.879-.313l-.116-.116c-.253-.089-.508-.171-.764-.239l-.08-.076c-.131-.1-.348-.07-.468-.184A1.249,1.249,0,0,1,71.4,211.184Zm-5.469-.558a1.078,1.078,0,0,0,.143.08.692.692,0,0,0,.141.017c0,.008.007.016.011.025q-.7-.056-1.416-.071l.106-.1C65.321,210.589,65.63,210.6,65.935,210.627Zm-1.3.028.033.019c-.123,0-.245-.009-.368-.009-.042,0-.083,0-.124,0A1.154,1.154,0,0,1,64.632,210.654Zm-4.278.308c.291-.06.587-.086.88-.126s.586-.082.879-.1l.027.026q-.97.086-1.916.248L60.24,211A.831.831,0,0,1,60.354,210.962Zm-9.566,2.124.17-.026c.185-.122.39-.229.59-.347l.17-.014a1.61,1.61,0,0,1,.525-.231c-.268.167-.444.266-.619.363l-.131.007c-.181.106-.381.215-.543.324l-.42.131C50.571,213.2,50.7,213.158,50.788,213.086Zm-2.774,2.09c.32-.264.65-.516.976-.773a.145.145,0,0,1,.053-.015c-.071.139-.31.319-1.065.88C48,215.209,48,215.187,48.014,215.176Zm-9.657,19.761c-.014-.028-.04-.056-.041-.083,0-.425.017-.85.027-1.272s.06-.842.089-1.258l-.054-.136c.015-.173.043-.358.067-.56l.149-.348.075.213a26.76,26.76,0,0,0-.215,3.243C38.418,234.8,38.39,234.869,38.357,234.937ZM42.133,247.5l-.194-.338.072-.088c-.023-.077-.054-.169-.078-.27.255.2.165.436.309.634Zm-.551-2.284-.11-.087c0-.044,0-.092-.007-.147a.557.557,0,0,0-.222-.355c-.188-.46-.376-.924-.541-1.382-.06-.1-.146-.117-.167-.263l.019-.161-.086-.256-.119-.125c-.078-.214-.131-.437-.195-.65l-.074-.079-.052-.443c-.061-.067-.121-.128-.207-.228.034.195.063.319.089.454-.031-.02-.068-.042-.068-.045-.006-.188-.192-.193-.175-.411l.1-.117-.057-.285.072-.349L39.621,240c.011-.07.021-.141.04-.232l-.061-.155-.229-.637c-.059-.294-.093-.592-.131-.889l-.11-.234.048-.239c-.012-.1-.033-.238-.042-.387l-.078-.138-.031-.407-.084-.149c-.033-.345-.042-.692-.048-1.038s-.026-.691-.01-1.035l-.063-.148c-.025-.158.059-.2.08-.328a1.4,1.4,0,0,0-.036-.153c-.059-.166-.191-.15-.236-.361l.074-.983-.041-.091a.826.826,0,0,1-.012-.133c.014-.21.05-.418.077-.627,0-.017.02-.031.03-.046.1.082.041.36.128.481-.029.244-.041.493-.061.731.06.069.067-.015.072-.072l.041-.522.064-.524-.05-.159c.03-.227.056-.458.092-.692l-.088-.276.079-.527-.1-.18c.03-.263.095-.223.151-.233a1.7,1.7,0,0,0,.135-.462l-.129-.194.222-.195-.037-.23c.04-.067.075-.135.138-.232l.287-1.01c.093-.155.188-.285.293-.439l.167-.493.112-.117-.019-.133c.075-.221.174-.45.266-.691l.146-.04c.073-.176-.094-.055-.046-.226l.186-.1c.082-.217.146-.34.2-.467a3.756,3.756,0,0,1-.014-.389,3.417,3.417,0,0,1,.062-.371l.105-.095c.033-.077.078-.159.122-.246l.005-.162a25.1,25.1,0,0,1,3.766-5.578l.132-.054c.183-.193.383-.417.6-.624l.13-.046c.2-.219.419-.435.643-.642s.438-.426.663-.622l.135-.034c.183-.108.323-.312.526-.4-.066.152-.221.229-.333.336s-.209.183-.314.274l-.357.337c.1.1.286-.306.3-.093.233-.223.45-.4.656-.579l.112-.027c.084-.032.048-.081.135-.177.059-.053.177-.153.315-.259l.1.055.177-.089.074-.254a1.614,1.614,0,0,1,.331-.234l-.054.155c.153-.048.271-.2.414-.265l.142-.021.357-.254a1.991,1.991,0,0,1,.446-.272c-.107.1-.161.158-.231.226l.03.089c.118-.043.225-.086.378-.133.3-.19.639-.417.985-.625l.168-.013.7-.4c.235-.132.478-.248.714-.372l.159-.006.068-.1a.917.917,0,0,1,.323-.02l.634-.287.1.087c.225-.055.431-.2.694-.259l.1.072a.612.612,0,0,0,.115-.022l.649-.253.658-.222.127.021c.152-.021.309-.109.48-.143.116,0,.238,0,.351,0a24.168,24.168,0,0,0-16.271,15.81.174.174,0,0,0-.047.058c-.049.123-.069.26-.118.377a1.2,1.2,0,0,0-.077.382q-.171.606-.31,1.225a2.347,2.347,0,0,0-.23.261l.031.147a.472.472,0,0,0-.114.442l.072.014c.033-.07.064-.148.1-.214a24.1,24.1,0,0,0-.428,3.575,1.342,1.342,0,0,0-.125-.366,1.991,1.991,0,0,0-.22-.666c-.14.184.054.295-.005.469l-.077.134c-.016.172-.025.349-.026.485l.26,1.064c.009.352.019.746.029,1.131.023.038.038.069.07.12l.05.664.112.168c.047.547.108,1.09.191,1.626a.085.085,0,0,0-.018.049c.09.475.151.955.268,1.415l.039.044a23.953,23.953,0,0,0,2.549,6.63l-.055-.038c-.135-.225-.259-.457-.383-.707l-.144-.014c-.1-.083-.123-.3-.262-.331-.164-.3-.293-.632-.443-.951l-.138-.129c-.066-.139-.132-.3-.215-.516l.056-.227-.256-.655-.208-.615-.266-.376c0-.052.012-.106.023-.182l-.144-.22-.127-.447a.591.591,0,0,1-.179-.4c0-.088.055-.153-.011-.3l-.128-.045c-.066-.082-.056-.206-.093-.3l-.1-.124c-.062-.142.01-.2,0-.34l-.1-.182c.008-.073.018-.162.026-.245l-.112-.155q-.035-.193-.071-.4l-.059-.071c-.082-.144-.053-.313-.1-.469l-.066-.095.038-.153c-.022-.171-.046-.365-.07-.551l-.083-.122c-.013-.173-.028-.37-.041-.541l-.074-.119c-.016-.266-.049-.535-.049-.806l-.077-.149q-.011-.471-.022-.953l-.059-.113c0-.179.009-.377.012-.483a4.078,4.078,0,0,0-.1-.423,1.111,1.111,0,0,1-.03-.248,1.192,1.192,0,0,0-.139-.584c-.059.1-.031.221-.051.325l.061.156c-.017.229-.015.458-.024.684l.132.275a2.314,2.314,0,0,0-.005.376,3.241,3.241,0,0,0,.143.481c.006.23.013.5.02.775.027.05.049.1.078.146.01.134.02.27.03.4l-.057.146c.007.1.014.189.021.268l.079.146c.019.351.079.687.119,1.047l.093.167c.055.47.165.975.246,1.459.037.049.062.077.1.126l.122.529.09.106c.092.437.223.868.344,1.3l.09.1s.015.006.02.021c.058.217.138.428.207.641l.078.075c.012.014.03.026.035.042.106.319.214.636.343.946s.236.626.377.925l.106.083.32.708c.044.043.085.079.143.129.239.449.459.915.73,1.356l.394.671.426.654c.007.011.027.013.041.02,0-.166-.229-.31-.219-.478.019.011.04.015.049.029l.433.666c.036.05.066.1.1.166l-.164-.021.191.29-.052.138c.09.1.175.1.259.159.114.161.225.32.344.465l-.05.148.18.229c.038.229-.217,0-.269.084l-.332-.268c-.014-.05-.03-.1-.045-.166-.071-.123-.144-.263-.283-.3l-.032-.159-.233-.327-.142-.079c-.245-.381-.5-.76-.731-1.148l-.092-.059c-.014-.012-.034-.021-.042-.036A24.141,24.141,0,0,1,41.582,245.217Zm-1.392-9.456.009-.019c.007.167.014.333.024.5L40.2,236.2A1.366,1.366,0,0,1,40.191,235.762Zm4.883,16.3-.186-.111-.29-.574-.176-.079-.027-.106a.17.17,0,0,0-.017-.054l-.513-.653-.041-.167-.135-.174-.23-.185-.053-.213-.4-.566-.4-.618.07-.087c.283.36.64.914,1.36,1.907l.023.116.424.539c.014.058.031.111.048.165.141.1.1-.079.3.01.012.007-.05.065-.005.126l.125.174-.157-.053c0,.012,0,.03.005.04l.469.576.208.008.652.683c.021.131.208.275.215.4,0,.095.005.182.008.289l-.367-.35-.038-.118C45.669,252.7,45.373,252.4,45.074,252.065Zm3.345,4.566-.041.056a.681.681,0,0,1-.337-.217v-.151l-.129-.111-.2.022-.122-.091-.154-.3-.232-.183c-.1-.021-.19-.047-.3-.076l-.355-.307a.361.361,0,0,1-.028-.062,1.185,1.185,0,0,1,.417.174l-.088-.218-.282-.077a.891.891,0,0,1-.363-.4l-.28-.146-.3-.507c.088-.07.2.163.308.14.07-.016.209.06.326.1.077.071.156.153.255.236l-.039.114.15.18a.726.726,0,0,1,.3.063,1.06,1.06,0,0,0,.269.13c.115.1.22.195.328.278l.078.146c.11.122.195.086.289.141l.318.25a2.7,2.7,0,0,1,.156.325c.037.105.206.185.233.285s.164.223.257.335C48.741,256.8,48.561,256.664,48.418,256.63Zm5.478.055c0,.008,0,.024-.006.024a5.217,5.217,0,0,1-.751-.344l-.1-.138c-.067-.066-.245-.065-.256-.18.023,0,.043-.007.057,0l.811.414A.808.808,0,0,0,53.9,256.685Zm23.234-1.4-.118.2c-.109.074-.243.148-.377.224a.912.912,0,0,1-.112.045l-.113,0c-.245.136-.488.29-.744.418a.653.653,0,0,0-.093.071l-.1.131-.256-.059a.869.869,0,0,1-.289.121,24.124,24.124,0,0,0,2.162-1.209Z" transform="translate(-37.12 -209.34)" fill="#750000"/>
    <path id="パス_668" data-name="パス 668" d="M186.541,293.569l-.048-.234c.006-.1.065-.217.025-.329h-.095c-.021.072-.038.133-.077.269l-.162.145-.153.846-.152.173-.072-.072.025-.214-.15.092c.081-.4.141-.771.206-1.128l-.04-.154.049-.373.11-.234-.058-.206c.03-.237.068-.5.08-.769a.239.239,0,0,0-.032-.087l-.114.181c-.023.056.015.185-.063.176-.009-.08-.018-.159-.027-.232l-.075-.024-.132.162c.03.091.041.135.053.178l-.069.1c-.068.5-.115,1-.212,1.485l.088.264c-.047.267-.09.53-.168.841l-.183.155c.022.1.038.174.054.25.06-.085.116-.16.172-.093,0,.113.008.229.014.382l-.051.215.03.16-.271.954c.026.07.053.161.076.237l-.269.8.021.142c-.1.277-.221.567-.331.862a.318.318,0,0,0,0,.107c.042.043.126,0,.133.11-.086.232-.192.454-.285.662l-.1.079c0,.081-.017.178.04.232l.143-.295.136-.12c.095-.2.178-.412.262-.625.006-.016.027-.025.033-.031h.11a1.018,1.018,0,0,1,.12-.448l.108-.12-.013-.136.115-.119.088-.257.162-.159c.009.05.018.1.028.158a.346.346,0,0,0,.073-.355c.183-.5.308-1.029.461-1.548.124-.526.259-1.051.355-1.582l-.112-.115.021-.147Z" transform="translate(-134.245 -263.713)" fill="#750000"/>
    <path id="パス_669" data-name="パス 669" d="M193.738,296.651l.133-.179-.033-.153c.082-.331.152-.693.2-.973-.014-.159-.021-.242-.028-.322l.111-.179-.037-.164c.027-.14.048-.288.065-.434-.032-.073-.037-.2-.1-.214a3.169,3.169,0,0,0-.089.571s.091.033,0,.137l-.14-.023-.062-.222c.023-.164.035-.329.052-.483l-.12-.114.026-.2-.112-.248c.014-.112.027-.186.031-.257a.708.708,0,0,0-.016-.132l-.1.02-.134,1.059.043.187-.219.034-.078.442c.016.166.031.328.049.515-.023.111-.04.255-.094.486l.06.122c.027.283-.094.45-.046.6l.069.016c.063.2-.091.266-.131.407,0,.144-.014.289-.023.463l.211.058c-.012.264-.023.5-.034.762-.024.08-.055.2-.111.359.014.12.026.217.037.314l-.237.279c-.066.189-.019.2.025.217l.163-.129a1.2,1.2,0,0,0,.043.143,1.531,1.531,0,0,0,.079.141l-.05.272c.08-.112.157-.128.216-.289.006-.086.012-.191.02-.309l.144-.2c-.078-.144.14-.433.058-.58l.116-.469c0-.25-.154-.264-.139-.53.047-.085.039-.229.115-.31.046-.028.087.041.135-.09-.027-.1-.1-.059-.149-.092l-.116.138a1.841,1.841,0,0,0,.015-.267.488.488,0,0,1,.007-.26C193.65,296.5,193.662,296.506,193.738,296.651Z" transform="translate(-139.927 -264.883)" fill="#750000"/>
    <path id="パス_670" data-name="パス 670" d="M128.083,355.881l-.247.206c.443-.07.841-.174,1.245-.265l.02-.253.2.13c.442-.1.869-.239,1.3-.359a.689.689,0,0,0,.11-.055l.043-.138c.5-.177,1-.32,1.458-.511l.176-.16.239-.015.1-.1c.154-.063.284-.108.384-.156l.177-.009.333-.15.292-.255a.259.259,0,0,0-.062,0,.345.345,0,0,0-.063.026l-.064.029a25.248,25.248,0,0,1-3.257,1.24c-.045.012-.09.027-.134.037a.22.22,0,0,1-.058,0l-.109-.021a1.8,1.8,0,0,0-.457.154l-.063.064c-.455.128-.912.217-1.362.325-.045.036-.089.07-.135.1l-.541.1-.152.1c-.315.061-.636.111-.96.149-.016,0-.031.02-.055.036l.036.086a.678.678,0,0,0,.392-.069.735.735,0,0,1,.371-.085.985.985,0,0,0,.309.067l.065-.146.154-.028.129-.091c.241-.039.469-.089.7-.142.016,0,.035.008.064.015l0,.1-.316.073C128.254,355.9,128.177,355.893,128.083,355.881Z" transform="translate(-95.868 -305.176)" fill="#750000"/>
    <path id="パス_671" data-name="パス 671" d="M197.34,305.885c-.154.591-.316,1.167-.488,1.714l-.114.125c-.05.205-.156.415-.2.657l.1.316-.2.1.1.168c-.07.18-.151.371-.22.564a2.513,2.513,0,0,0-.2.6l.214-.244.283-.717.163-.056c.058-.126.108-.242.159-.372a.835.835,0,0,1,.11.208,2.715,2.715,0,0,1,.02.3c0,.031.035.03.061.049l.129-.178c-.012-.159-.019-.33-.041-.479l-.1.113-.05-.426.106-.312a1.264,1.264,0,0,1-.011-.128c0-.151.149-.355.08-.487l.169-.675c-.05-.114.031-.277.05-.418a2.537,2.537,0,0,0,0-.467Z" transform="translate(-142.093 -273.367)" fill="#750000"/>
    <path id="パス_672" data-name="パス 672" d="M154.967,343.991l.473-.336.152-.2c.122-.07.2-.03.275-.111l.185-.3-.247.155c-.115.021-.162-.088-.33.009-.032.069-.067.131-.1.185,0,.048.1.055-.025.138l-.139-.049c-.6.445-1.223.838-1.735,1.161a3.556,3.556,0,0,0-.271.231c-.058.065-.1.134-.194.272.293-.172.51-.285.713-.418.038-.024.076-.051.115-.072a.148.148,0,0,1,.053-.007l.13.058.355-.227.193-.026C154.7,344.32,154.822,344.168,154.967,343.991Z" transform="translate(-113.499 -298.049)" fill="#750000"/>
    <path id="パス_673" data-name="パス 673" d="M173.583,329.8l.021-.129c.035-.108.194-.2.165-.317-.146.085-.2.3-.342.4l-.1.051-.6.768c-.011.014-.032.019-.048.027l-.144-.013c-.064.11-.176.176-.2.281l.04.132-.541.624c-.18.2-.37.392-.552.588a.8.8,0,0,0-.077.121c.029.029.075.05.091.095a.7.7,0,0,1-.02.2c.208-.229.39-.4.555-.6a.135.135,0,0,0,.016-.051c-.007-.045-.089-.04-.007-.141.1-.05.181-.043.283-.141.035-.162-.121-.037-.181-.055.047-.178.164-.173.259-.229.181-.213.372-.419.583-.684l.268-.077-.05-.19.451-.575Z" transform="translate(-125.564 -288.962)" fill="#750000"/>
    <path id="パス_674" data-name="パス 674" d="M47.584,325.938l-.485-.75c-.165-.25-.322-.505-.466-.767l-.02-.185-.115-.148-.156.056-.167-.115.275.523a1.057,1.057,0,0,0,.259.533l.106.067.337.526.009.073c.129.108.253.217.363.3Z" transform="translate(-42.615 -285.432)" fill="#750000"/>
    <path id="パス_675" data-name="パス 675" d="M49.1,329.146h0C49.106,329.153,49.106,329.152,49.1,329.146Z" transform="translate(-44.559 -288.826)" fill="#750000"/>
    <path id="パス_676" data-name="パス 676" d="M136.316,365.361l-.484.04-.392.113-.139-.1-.2.072-.036.145c-.685.207-1.346.337-2,.49-.018,0-.032.022-.057.039.141.014.278.016.392.023a28.259,28.259,0,0,0,2.878-.779C136.288,365.4,136.3,365.375,136.316,365.361Z" transform="translate(-100.221 -312.854)" fill="#750000"/>
    <path id="パス_677" data-name="パス 677" d="M41.967,314.43c0,.057,0,.116,0,.175l.2.393c.085.049.185.186.25.122-.024-.172-.035-.2-.112-.256l-.112.007a1.169,1.169,0,0,1-.038-.381c-.192-.433-.413-.889-.593-1.336l.01-.144-.236-.229v-.15l-.159-.2V312.3c-.061-.095-.116-.188-.167-.282-.007.06-.016.082-.01.1.145.39.3.777.455,1.166S41.8,314.048,41.967,314.43Z" transform="translate(-39.182 -277.465)" fill="#750000"/>
    <path id="パス_678" data-name="パス 678" d="M38.014,302.046l-.191-.238-.067-.289.03-.165-.06-.259c-.067-.125-.132-.238-.188-.361-.026.1-.042.175-.054.236l.2.872.091.113c.075.33.191.673.291,1.021.005.017.024.029.037.043l.053-.009.066-.21C38.139,302.5,38.069,302.267,38.014,302.046Z" transform="translate(-36.85 -269.977)" fill="#750000"/>
    <path id="パス_679" data-name="パス 679" d="M36.69,295.385c-.1-.529-.194-1.055-.252-1.591l-.09-.146c-.012-.095-.024-.191-.036-.288l.049-.162c-.05-.052-.082-.18-.151-.169.05.4.1.8.15,1.2s.136.8.205,1.207C36.616,295.5,36.667,295.514,36.69,295.385Z" transform="translate(-36.003 -264.864)" fill="#750000"/>
    <path id="パス_680" data-name="パス 680" d="M169.243,338.663c-.071.1-.193.161-.221.291l.1.108c-.192.164-.252.07-.393.085l-.068.213.1.111.219-.064.511-.491a.165.165,0,0,0,.021-.053c0-.013,0-.033,0-.038a.436.436,0,0,0-.076-.038c-.09.07-.153.176-.21.115.089-.094.17-.194.3-.354Z" transform="translate(-123.883 -295.064)" fill="#750000"/>
    <path id="パス_681" data-name="パス 681" d="M158.007,342.313l.063-.11c.125-.062.2-.016.315-.081.039-.08.079-.155.109-.225l.3-.052a1.756,1.756,0,0,0,.093-.215c.013-.049.1-.128.017-.155l-.479.376-.5.356c-.012.009-.016.03-.024.046C157.9,342.306,157.92,342.343,158.007,342.313Z" transform="translate(-116.74 -297.006)" fill="#750000"/>
    <path id="パス_682" data-name="パス 682" d="M40.038,309.226l-.186-.551c-.1-.156-.166-.26-.23-.374l-.071.071a.38.38,0,0,0,.153.3c-.005.056-.01.111-.015.169l.077.23.243.379Z" transform="translate(-38.22 -274.997)" fill="#750000"/>
    <path id="パス_683" data-name="パス 683" d="M166.1,339.043a3.2,3.2,0,0,0,.53-.452l.083-.222-.05-.052a2.583,2.583,0,0,0-.594.557.411.411,0,0,0,.095-.034c.049-.03.1-.068.158-.111a.974.974,0,0,1-.057.113A2.169,2.169,0,0,1,166.1,339.043Z" transform="translate(-122.159 -294.911)" fill="#750000"/>
    <path id="パス_684" data-name="パス 684" d="M162.515,341.71l.1.053.2-.158c.175-.076.307-.145.416-.2l.116-.212c-.12.026-.191.126-.311.213l-.256.035C162.687,341.544,162.57,341.588,162.515,341.71Z" transform="translate(-119.802 -296.822)" fill="#750000"/>
    <path id="パス_685" data-name="パス 685" d="M120.974,358.336c.057.051.058.121.082.18l.165-.012c.083-.225.076-.308-.035-.356-.09.03-.211-.006-.3.046C120.815,358.268,120.924,358.292,120.974,358.336Z" transform="translate(-92.168 -308.068)" fill="#750000"/>
    <path id="パス_686" data-name="パス 686" d="M168.592,336.276a.249.249,0,0,0,.041-.086l-.251,0-.18.189c-.038.106-.067.169-.1.241a2.862,2.862,0,0,1,.253-.145A.719.719,0,0,0,168.592,336.276Z" transform="translate(-123.511 -293.499)" fill="#750000"/>
    <path id="パス_687" data-name="パス 687" d="M169.676,336.157a.1.1,0,0,0,0,.011h.015Z" transform="translate(-124.55 -293.478)" fill="#750000"/>
    <path id="パス_688" data-name="パス 688" d="M181.188,338.174c-.331.434-.66.8-.978,1.168-.047.055-.088.114-.132.171.375-.371.636-.648.814-.858A1.688,1.688,0,0,0,181.188,338.174Z" transform="translate(-131.454 -294.816)" fill="#750000"/>
    <path id="パス_689" data-name="パス 689" d="M65.164,224.161l.058.067c.633-.5.714-.538.9-.8-.228.177-.394.3-.555.439l-.16.046C65.333,223.993,65.218,224.048,65.164,224.161Z" transform="translate(-55.214 -218.687)" fill="#750000"/>
    <path id="パス_690" data-name="パス 690" d="M186.442,331.964l-.2.168-.064.172-.051.123-.067.149.037.016c.1-.145.209-.288.308-.436a1.767,1.767,0,0,0,.29-.509l-.23.163Z" transform="translate(-135.424 -290.485)" fill="#750000"/>
    <path id="パス_691" data-name="パス 691" d="M45.338,248.535l.078.039c.026-.022.046-.032.054-.047l.278-.541-.084-.094a3.166,3.166,0,0,0-.289.516A.619.619,0,0,0,45.338,248.535Z" transform="translate(-42.06 -234.918)" fill="#750000"/>
    <path id="パス_692" data-name="パス 692" d="M35.746,277.91l-.08-.421a2.334,2.334,0,0,0-.069.522l.059.16a1.706,1.706,0,0,0,0,.525.417.417,0,0,0,.038-.091C35.712,278.364,35.73,278.122,35.746,277.91Z" transform="translate(-35.597 -254.554)" fill="#750000"/>
    <path id="パス_693" data-name="パス 693" d="M192.429,308.006a.963.963,0,0,0,.012-.129c-.021.017-.055.032-.059.049a.536.536,0,0,1-.121.227,1.086,1.086,0,0,0-.1.175c-.074.072-.1-.04-.157.114l.033.227.109-.028.1-.292.121-.133C192.39,308.148,192.412,308.077,192.429,308.006Z" transform="translate(-139.369 -274.715)" fill="#750000"/>
    <path id="パス_694" data-name="パス 694" d="M53.83,237.872l.043-.209c-.217.217-.224.215-.536.844.016-.008.038-.013.047-.027C53.534,238.281,53.668,238.07,53.83,237.872Z" transform="translate(-47.367 -228.131)" fill="#750000"/>
    <path id="パス_695" data-name="パス 695" d="M132.294,357.379c-.016,0-.029.021-.086.065.867-.153,1.057-.2,1.2-.313a.145.145,0,0,0-.054-.008C133.005,357.223,132.647,357.291,132.294,357.379Z" transform="translate(-99.695 -307.387)" fill="#750000"/>
    <path id="パス_696" data-name="パス 696" d="M191.374,314.617a1.217,1.217,0,0,0-.107.343c.025.01.054.052.082.028a.517.517,0,0,0,.224-.3c-.007-.059-.015-.13-.027-.224Z" transform="translate(-138.878 -279.086)" fill="#750000"/>
    <path id="パス_697" data-name="パス 697" d="M194.1,313.188c-.021.14-.039.264-.061.415l.122-.019.122-.312c-.016-.073,0-.2-.046-.232Z" transform="translate(-140.714 -278.142)" fill="#750000"/>
    <path id="パス_698" data-name="パス 698" d="M120.123,357.336c-.17.046-.329.015-.479.069l.006.134a2.862,2.862,0,0,0,.524-.083Z" transform="translate(-91.359 -307.529)" fill="#750000"/>
    <path id="パス_699" data-name="パス 699" d="M155.36,349.868a1.257,1.257,0,0,1,.513-.124c.056-.07.115-.141.109-.2l-.216.027C155.636,349.668,155.469,349.72,155.36,349.868Z" transform="translate(-115.055 -302.358)" fill="#750000"/>
    <path id="パス_700" data-name="パス 700" d="M35.931,287.661a1.664,1.664,0,0,0-.059-.534c-.012.108-.022.151-.021.194.006.217,0,.434.026.65,0,.017.018.033.05.091L36,287.8Z" transform="translate(-35.765 -260.949)" fill="#750000"/>
    <path id="パス_701" data-name="パス 701" d="M168.981,336.909l-.2.069c-.063.085-.168.143-.219.266l.1.052C169,336.962,168.992,336.955,168.981,336.909Z" transform="translate(-123.814 -293.977)" fill="#750000"/>
    <path id="パス_702" data-name="パス 702" d="M90.541,354.694a.5.5,0,0,0-.111,0c.7.3.711.289.917.3-.012-.013-.023-.033-.038-.038Z" transform="translate(-71.977 -305.775)" fill="#750000"/>
    <path id="パス_703" data-name="パス 703" d="M35.967,283a2.059,2.059,0,0,0-.131-.48c0,.213-.009.423-.014.633a.076.076,0,0,0,.016.037Z" transform="translate(-35.746 -257.894)" fill="#750000"/>
    <path id="パス_704" data-name="パス 704" d="M70.068,221.321a1.373,1.373,0,0,0-.428.305h.326Z" transform="translate(-58.183 -217.289)" fill="#750000"/>
    <path id="パス_705" data-name="パス 705" d="M43.5,256.162a1.063,1.063,0,0,0-.1.316c.061,0,.121-.093.182-.14a1.055,1.055,0,0,0,.1-.314C43.62,256.022,43.56,256.115,43.5,256.162Z" transform="translate(-40.773 -240.312)" fill="#750000"/>
    <path id="パス_706" data-name="パス 706" d="M70.4,222.136l-.11-.071c-.13.08-.26.135-.318.259l.088.055Z" transform="translate(-58.403 -217.783)" fill="#750000"/>
    <path id="パス_707" data-name="パス 707" d="M56.543,232.525l.336-.427c.123-.163.259-.314.392-.468l.355-.411c.131-.156.272-.3.413-.45l.375-.393a5.8,5.8,0,0,1,.433-.43,2.806,2.806,0,0,1,.367-.337l.126-.041.056-.144c.09-.128.179-.09.268-.149a2.661,2.661,0,0,0,.425-.409l-.231.057c-.215.176-.429.373-.624.548l-.137.04c-.3.289-.61.573-.894.882s-.582.606-.851.93a.754.754,0,0,0-.064.1l-.026.107c-.227.253-.44.518-.647.788s-.424.532-.616.813l-.157.222a.456.456,0,0,0-.021.1,2.508,2.508,0,0,0,.351-.449C56.29,232.845,56.419,232.686,56.543,232.525Z" transform="translate(-49.014 -222.294)" fill="#750000"/>
    <path id="パス_708" data-name="パス 708" d="M43.948,267.2l.159-.687.107-.131c.005-.055.013-.116.023-.175l-.163-.042c-.021.027-.038.039-.043.056l-.2.856a.91.91,0,0,0,0,.146Z" transform="translate(-41.058 -247.042)" fill="#750000"/>
    <path id="パス_709" data-name="パス 709" d="M48.9,253.375c-.009.021.006.052.012.085a1.15,1.15,0,0,0,.157-.289l.12-.1c.093-.2.177-.406.281-.6a.216.216,0,0,0,0-.067l-.1-.05C49.177,252.718,49.045,253.051,48.9,253.375Z" transform="translate(-44.418 -237.877)" fill="#750000"/>
    <path id="パス_710" data-name="パス 710" d="M43.957,274.119l-.053.433c0,.023.021.046.033.069l.121-.173c.016-.129.033-.258.049-.391l.092-.137-.1-.105Z" transform="translate(-41.108 -252.117)" fill="#750000"/>
    <path id="パス_711" data-name="パス 711" d="M54.619,242.93a.465.465,0,0,0,.022-.106c-.5.632-.535.742-.585.918.015-.009.037-.015.045-.029C54.275,243.453,54.433,243.182,54.619,242.93Z" transform="translate(-47.844 -231.555)" fill="#750000"/>
    <path id="パス_712" data-name="パス 712" d="M51.154,249.241l-.006.123c-.049.177-.166.3-.188.472a.446.446,0,0,0,.157-.227,4.05,4.05,0,0,0,.242-.488l-.122-.024Z" transform="translate(-45.79 -235.717)" fill="#750000"/>
    <path id="パス_713" data-name="パス 713" d="M44.575,272.321a.113.113,0,0,0,.187.028A.594.594,0,0,0,44.8,272l-.071-.013Z" transform="translate(-41.554 -250.901)" fill="#750000"/>
    <path id="パス_714" data-name="パス 714" d="M48.87,249.96l.076-.148v-.221l-.086.063-.116.1-.07.181C48.753,249.936,48.775,250.022,48.87,249.96Z" transform="translate(-44.273 -236.045)" fill="#750000"/>
    <path id="パス_715" data-name="パス 715" d="M52.327,246.972a2.694,2.694,0,0,0,.414-.7A2.078,2.078,0,0,0,52.327,246.972Z" transform="translate(-46.697 -233.842)" fill="#750000"/>
    <path id="パス_716" data-name="パス 716" d="M50.056,246.555l-.061-.18.107-.186c.061.035.145-.077.231-.109a2.145,2.145,0,0,0,.229-.492c.024-.079.054-.154.081-.232-.055.034-.077.04-.086.055-.151.242-.289.492-.432.739-.145.058-.2.2-.26.337,0,.065,0,.134,0,.2C49.929,246.641,49.987,246.6,50.056,246.555Z" transform="translate(-45.062 -233.235)" fill="#750000"/>
  </g>
  <path id="パス_7356" data-name="パス 7356" d="M-.227-15.661l-.68,1.586Q-2.535-10.252-3.3-8.468H2.662Q1.94-10.408,1.218-12.2T-.227-15.661ZM3.427-6.528H-4.234A36.427,36.427,0,0,0-5.813-2.662,8.151,8.151,0,0,0-6.259-.255l-.014.227q-.326.042-.474.05t-.276.007a2.245,2.245,0,0,1-1.4-.375,1.307,1.307,0,0,1-.481-1.1q0-.722,2.747-6.245t4.8-10.266a7.759,7.759,0,0,0-.489-.63q-.262-.3-.559-.616a4.822,4.822,0,0,1,.956-.949,1.525,1.525,0,0,1,.871-.3A1.552,1.552,0,0,1,.6-19.661,13.489,13.489,0,0,1,1.94-16.992q.666,1.628,1.827,4.545Q7.7-2.549,9.247-1.076a4.179,4.179,0,0,1-.991.85,1.908,1.908,0,0,1-.949.255q-1.43,0-3.243-4.871Q3.653-5.919,3.427-6.528Z" transform="translate(26.888 34.762)" fill="#fff"/>
</svg>
