<svg id="グループ_2360" data-name="グループ 2360" xmlns="http://www.w3.org/2000/svg" width="68.148" height="65.634" viewBox="0 0 68.148 65.634">
  <g id="グループ_1441" data-name="グループ 1441">
    <path id="パス_666" data-name="パス 666" d="M159.8,226.317h0C159.789,226.313,159.79,226.313,159.8,226.317Z" transform="translate(-108.35 -219.283)" fill="#003b75"/>
    <path id="パス_667" data-name="パス 667" d="M101.214,236.759l.318.47.085-.273-.1-.165c-.013-.1-.027-.213-.041-.319a.765.765,0,0,0-.308-.338l-.023-.136c-.1-.148-.194-.279-.247-.357-.114-.077-.172.048-.258-.084l.047-.189a2.816,2.816,0,0,1-.066-.591c.061,0,.147-.057.194.007.086.12.172.07.254.182s.167.063.234-.013c0-.056-.007-.109-.011-.181-.11-.152-.21-.373-.353-.4-.086-.014-.1-.12-.132-.256a3.455,3.455,0,0,0,.113-.437,4.306,4.306,0,0,0,.022-.475c-.047-.191-.075-.356-.134-.547l-.3.049c-.213-.295-.469-.278-.685-.66l-.123-.432c-.041-.043-.071-.075-.128-.13-.181-.518-.35-1.072-.548-1.582l-.126-.11a31.778,31.778,0,0,0-2.383-4.863c-.461-.74-.885-1.417-1.261-1.932-.358-.529-.648-.908-.785-1.093l-.025-.131a31.056,31.056,0,0,0-4.54-4.671c-.027-.065-.056-.125-.086-.186l-.785-.618-.072-.157c-.668-.495-1.366-1-2.074-1.439l-.1-.174c-.181-.114-.384-.253-.574-.357l-.1-.15c-.814-.483-1.661-.929-2.546-1.352h-.189l-.327-.136-.175.01a30.764,30.764,0,0,0-5.252-1.786l-.19.042-.485-.112-.144-.106c-.112.01-.2.014-.3.026l-.229-.152-.98-.175-.162-.123-.678-.089-.127-.093c-.452-.06-.9-.117-1.346-.142l-.182-.1-.666-.05L72,209.589l-1.021-.027-.329-.177a.73.73,0,0,0-.078-.01c-.6,0-1.2.024-1.8.036a.23.23,0,0,1-.068-.016l-.131-.055c-.619.056-1.249.074-1.871.166a.187.187,0,0,1-.066-.018l-.131-.044-.852.109-.847.148c-.281.053-.565.1-.844.156l-.835.193-.211-.043c-.166.04-.334.073-.491.118l-.16-.031-.715.18c-.169-.1-.507.131-.688.024l-.679.229-.174-.024c-.217.075-.439.145-.654.226l-.213-.012-.64.252-.22-.009-.3.12c-.087,0-.156,0-.233,0l-.941.425-.17,0c-.171.069-.349.155-.5.231l-.181,0-.853.437c-.285.15-.562.317-.844.476a.227.227,0,0,1-.07.014l-.143.01c-.568.311-1.1.684-1.652,1.031-.018.012-.026.039-.065.1.2-.081.426-.2.545-.118-.289.182-.552.355-.806.539-.015.011-.041.006-.06.008l.082-.171a.786.786,0,0,0-.147.06.906.906,0,0,0-.121.115c.035.108.064.222.224.234.477-.353.977-.655,1.429-.949.222-.067.408-.126.63-.178l.862-.5.386-.019.616-.316h.171l.333-.159h.177c.573-.267,1.146-.535,1.731-.773.018-.007.049.021.073.032-.022.02-.036.043-.056.051-.841.359-1.675.736-2.474,1.159l-.183,0c-.2.1-.418.215-.544.292l-.7.184c-.261.15-.559.318-.832.5l-.352.031c-.394.251-.787.5-1.155.772s-.746.515-1.081.79c-.136.06-.229.105-.319.14a1.267,1.267,0,0,1-.269.084.664.664,0,0,1-.212-.038c-.191.149-.391.308-.5.4l-.355.176-.107.227-.518.453c-.019.017-.012.058-.017.088.2-.041.337-.369.541-.348a.237.237,0,0,1-.037.061c-.4.336-.772.706-1.141,1.055l-.059.164c-.345.316-.665.683-.967.991l-.29.17c-.034.093-.061.156-.089.247l-.494.568a1.127,1.127,0,0,1-.118.1l-.13.055c-.232.258-.447.534-.664.811-.016.065-.032.133-.048.2-.35.43-.673.879-.989,1.331s-.618.912-.914,1.373l-.165.112-.036.208c-.138.187-.2.419-.4.534-.064.039-.143.22-.2.3-.005.09-.008.136-.011.189l-.164.121c-.116.194-.222.4-.33.614,0,.193-.005.389-.008.584l-.139.1c-.182.341-.338.7-.5,1.046s-.326.7-.457,1.05l.014.172c-.195.5-.408,1.007-.575,1.529a1.008,1.008,0,0,1-.072.137l-.1.1c-.131.384-.263.768-.367,1.159l-.138.16-.094.331c-.142.089-.153.37-.24.481a4.4,4.4,0,0,0-.389.858l-.166-.661c.006-.1.01-.179.016-.268l-.138.015-.1.427.132.157-.068.249-.259.028c-.035.151-.061.266-.089.389l.041.2-.128.7c.018.072.035.141.053.213-.031.174-.062.348-.092.515l.051.174a33.266,33.266,0,0,0-.264,7.8l.106.18c.025.462.109.951.161,1.41l.1.145c.006.027.014.053.018.08.042.4.128.786.193,1.179s.135.785.232,1.172a.246.246,0,0,0,.036.063l.092.114c.117.509.231,1.026.386,1.532.006.021.029.037.043.055l.089.1a31.488,31.488,0,0,0,2.817,6.814c.007.075.014.144.02.2.215.368.411.729.606,1.037l.239.2c.034.122.058.207.08.284a1.026,1.026,0,0,1,.331.377c.01.065.021.134.033.212.223.334.467.665.7,1,.012.017.039.024.072.044l.087-.063-.211-.5-.211-.172-.054-.216c-.28-.406-.537-.828-.805-1.24s-.5-.848-.742-1.268c0-.1,0-.179,0-.259.034.023.061.032.071.049.337.576.652,1.165,1.024,1.72.181.28.357.564.545.84l.58.817.038.2c.068.122.194.222.219.364-.118-.052-.234-.108-.347-.166.024.162.057.32.091.478l.4.509c.187.383.054.564.142.866l.187.1.22.253c.2.094.2.094.215.16,0,.112-.185.054-.092.24l.235.271a1.87,1.87,0,0,1,.376.181c-.012.063-.022.124-.034.184l.408.452-.033.189.244.311a2.522,2.522,0,0,0-.487-.3l-.49-.514-.073-.194c-.113-.184-.224-.146-.233-.155l-.374-.432-.172-.34-.227-.111c-.075-.083-.148-.179-.224-.275l-.054-.208c-.33-.428-.681-.843-.983-1.286l-.048-.227-.154-.161c-.091,0-.091.072-.081.167a.525.525,0,0,1-.042.2l.406.567.425.543c.282.357.549.71.83,1.021l.316.226c.031.1.053.166.076.24.194.224.391.455.609.677v.5l.317.127c-.006-.085-.012-.172-.018-.273l.2.162c.027.109.1.256.068.308-.054.093.037.239.088.375l.19.133c.058-.037.059-.036.187,0a.515.515,0,0,0,.068.4c.164.1.292.058.493.233l.136.26.948.826c.063.144.12.28.3.316l.115-.05.468.225.645.508a.225.225,0,0,1,.039.063c.037.1.157.225.071.273-.2-.01-.195-.013-.239.1.163.124.335.241.507.365.286.036.627.155.829.068.445.323.92.6,1.326.87.2.066.343.121.495.162.034-.06.123-.091.054-.232-.183-.065-.335-.275-.566-.3l-.052.081-.261-.106-.137-.307a8.1,8.1,0,0,1-.721-.505l.175-.252.293.137.139-.072.621.4.418.048c.533.358,1.133.668,1.7,1,.167-.033.324.08.483.158l.133.165c.365.181.727.386,1.106.55l.143.164.474.214.145.159c.413.2.835.347,1.251.513a.546.546,0,0,0,.139.017l.1-.1c.529.221,1.064.376,1.577.557l.119.117.213-.013c.107.048.263.047.373.13l.06.174.88.249.2-.031c.194.013.23.115.326.16l.517.12.206-.03.126.1c.309.077.623.135.917.185l.163-.046.172.116c.467.088.936.166,1.409.219s.944.132,1.418.158l.179.1.887.067.2-.066.148.078.748.019.154-.07.615.014.64-.015.188.075.352-.009.18-.087.2.082c.535-.029,1.069-.077,1.59-.115l.2.066a1.344,1.344,0,0,0,.579-.167l.658-.084.141-.093c.4-.049.809-.137,1.239-.209l.2.046c.165-.032.342-.057.519-.1.092-.043.109-.125.276-.149l.523.008-.157.137.285-.012.429-.419a2.279,2.279,0,0,0,.869.076l.636-.181.188.032a3.676,3.676,0,0,0,.545-.209l.1-.1a2.506,2.506,0,0,1,.576-.169c.125.034,0,.188.2.172s.216-.128.332-.194l.161.012.695-.273.186-.169a34.569,34.569,0,0,0,4.663-2.353c.047-.1.013-.142-.086-.129-.144.036-.284.23-.422.173.015-.022.023-.048.042-.059.314-.175.612-.377.922-.573l.273-.029-.071.2c.324-.212.6-.379.774-.507a3.523,3.523,0,0,1,.7-.7l.208-.042c.2-.135.384-.286.536-.4l.57-.24c.255-.2.493-.383.715-.584.017-.014.02-.043.03-.065-.038-.094-.167-.118-.136-.3.177-.09.293-.328.512-.374l.06.068-.212.292.283-.074.143-.124.023-.258c.007-.082.014-.164.019-.231l.629-.6.3-.123-.056.182.311-.09-.117-.264c.191-.176.364-.374.526-.537l.061-.189c.334-.346.678-.71,1-1.089l.169-.073.531-.618.308-.238c.072-.155.042-.262.183-.389l.191-.1c.341-.418.646-.866.959-1.3l.25-.139c.057-.005.067.1.177-.036l-.059-.22.142-.021a.309.309,0,0,0,.1-.026c.059-.03.121-.072.169-.1l.183-.576.306-.191c.145-.218.277-.448.4-.66l.015-.191a4.406,4.406,0,0,1,.319-.5l.183-.021c.07-.125.135-.229.188-.337l.008-.128c.068-.281.24-.446.254-.647l-.075-.093.116-.451.114-.088c.116-.237.22-.479.327-.711l-.1-.183c.144-.161.172.02.271-.031.1-.12.178-.291.29-.359a3.957,3.957,0,0,0,.176-.422,1.483,1.483,0,0,0,.159-.494c-.087-.048-.162-.127-.282-.079-.158.233-.188.564-.383.78l-.085-.08c.033-.237.227-.449.192-.659a1,1,0,0,0-.155.145c-.131.183-.26.376-.4.559-.067-.036-.2.05-.173-.159.1-.1.205-.131.287-.285-.009-.12-.018-.237-.027-.357l.355-.9c.115-.3.211-.611.317-.916l-.015-.151c.025-.254.165-.436.149-.638-.142.061-.115.37-.244.448-.006-.016-.01-.033-.017-.046-.061-.121.033-.345,0-.486,0,0-.028.031-.057.06-.183.533-.358,1.087-.562,1.63a.249.249,0,0,1-.046.056l-.1.095-.319.809.01.2c-.086.219-.189.428-.281.638a.558.558,0,0,0-.244.423c.006.028.034.144.055.233-.1.224-.174.376-.215.453-.05.141.012.178-.07.26l-.116.086c-.052.127-.157.242-.164.377.032.123.129.023.217-.022.062-.031.122-.01.091.089-.112.157-.22.147-.322.317l.174.18c-.04.086-.064.138-.095.193l-.17.124c-.055.123-.17.235-.181.372l.076.162-.155.27c-.071.243-.118.435-.183.619-.148.061-.305.212-.454.223a1.652,1.652,0,0,0-.434.223c-.063.338.219-.025.3.132-.012.1-.034.274-.056.456l-.18.116-.919,1.291-.2.114-.309.393-.151.09-.149.338-.347.123c-.5.575-.95,1.125-1.444,1.622l-.068.19-.363.38-.2.086L92.2,264.523c-.363.326-.735.64-1.1.958a.424.424,0,0,1-.119.054l-.118-.062c-.147.13-.025.13-.043.191a2.014,2.014,0,0,1-.118.254l-.483.378a.918.918,0,0,1-.136.073l-.134.032c-.1.073-.185.15-.275.211l-.106.18a1.172,1.172,0,0,1-.488.25l-.577.41-.541.349-.235.264-.244.042c-.265.153-.529.337-.785.455l-.173.012-.12.165-.388.222-.312-.053c-.022.116-.033.178-.042.228a.444.444,0,0,1-.371.118l-.462.237-.215.009-.2.1c-.05.086-.12.189-.171.267l-.83.376-.205.01c-.086.1-.147.2-.326.207l-.156-.1-.183.067-.143.15-.651.256-.2-.012c-.62.215-1.227.432-1.832.612l-.15.123c-.263.147-.443.049-.676.108l-.162.125c-.24.073-.49.128-.718.181l-.162-.038c-.249.055-.5.106-.71.165l-.133.114c-.121.03-.237.047-.348.068l-.2-.05c-.2,0-.234.106-.324.138l-.87.152-.247-.062-.341.143-.274.035-.182.109c-.458.067-.927.1-1.394.133l-.184.1c-.24.016-.475.043-.71.046-.021,0-.043-.018-.074-.032-.022-.045.009-.11-.212-.145-.1-.015-.149.087-.28.109-.193-.013-.41.055-.566-.02l-.055-.129c-.163,0-.3.012-.452.006l-.083.261-.219-.1-.425.182-.281-.229-.423.1c-.094,0-.183-.006-.279-.014l-.186-.1c-.464-.037-.934-.066-1.4-.112l-.232.073-.678-.276c-.32,0-.521-.227-.861-.192l-.139.041-.519-.093-.223-.133c-.417.034-.419.036-.676-.132-.554-.135-1.13-.242-1.683-.409a.729.729,0,0,0-.493-.21l-.186.015-.149-.135c-.331-.086-.68-.218-1-.324l-.118-.121a32.072,32.072,0,0,1-3.406-1.386c-.019-.009-.029-.034-.042-.051-.046-.116.084-.106.208-.107-.078-.1-.154-.2-.216-.295,0-.057,0-.1,0-.141-.319-.179-.365-.212-.377-.26l.263,0,.291.149c.073.082.139.143.208.213a1.842,1.842,0,0,1,.308.028c.123.032.249.14.377.12l.072-.16.273-.01.345.135.159-.014c.537.208.537.208.708.213-.016-.016-.028-.04-.047-.048l-.7-.278-.683-.307-.128-.149-.3-.136-.193,0c-.177-.081-.321-.162-.445-.223l-.155-.179-.507-.26c-.129-.118-.2-.178-.263-.242l-.232-.018-.286-.164-.111-.161-.415-.239-.259.083-.027-.242-.741-.511c-.011-.008-.01-.029-.014-.044l.268.025c.393.256.791.509,1.2.735a.769.769,0,0,0,.138.047l.169-.086.062.256c.133.058.242.173.369.163l-.11-.191c.109.052.193.094.274.125.01.084.016.144.025.219l.773.4.1.136c.294.158.606.281.905.422l.125.15.28.126.293.022.213.185c.425.164.84.34,1.26.488l1.253.424.355-.071c.63.181,1.268.368,1.92.5a.323.323,0,0,0,.09-.014c.006-.045.18,0,.166-.077l-.227-.148c.378,0,.556.243.857.325l.128-.039a3.28,3.28,0,0,0,.55.07l.121-.131c.345.064.669.121,1,.156.063-.024.129-.044.185-.071.024-.012.029-.036.049-.064l-.514-.065c-.129.025-.219.034-.307.046l-.21-.141c-.48-.093-.993-.161-1.494-.288a1.019,1.019,0,0,0-.147-.012l-.13.035-.8-.185-.145-.129-.309-.088-.186.033-.31-.088-.142-.12c-.236-.062-.439-.132-.626-.2-.144,0-.226.069-.389.029l-.047-.182-.478-.162c-.048-.049-.095-.092-.139-.142a1.8,1.8,0,0,0-.538-.17.729.729,0,0,1-.064.152c-.01.015-.068.008-.1.011l-.1-.114c-.206-.082-.43-.166-.64-.256l-.187.012-.167-.215c.142-.033.3.008.367-.069a1.685,1.685,0,0,0-.579-.24c.054.1.224.227.015.238l-.325-.258,0-.147c-.063-.049-.183-.091-.237-.159a29.718,29.718,0,0,0,24.849.382l-.06.062c-.218.115-.427.175-.627.292l-.159.323-.3.117-.13.139c-.167.062-.314.133-.6.225.05-.024-.008-.128-.1-.007l.087.246-.193.2c-.51.177-1.035.351-1.569.5-.028.008-.046.048-.067.07.056.072.279-.106.3.013-.018.015-.033.037-.053.043-.321.092-.642.187-.953.268l-.154.121c-.563.121-1.1.274-1.644.359l-.137-.042-.951.149-.689.087a2.314,2.314,0,0,0-.623.13l.262.1a31.391,31.391,0,0,0,4.12-.767.2.2,0,0,1,.068,0l.13.027.134-.115c.259,0,.4.125.7.07l.17-.143.193.03.959-.321.14-.134.189.017c.606-.217,1.18-.452,1.744-.682l.114-.141,1.081-.488.106-.144.2-.012.735-.378c.019-.01.03-.034.045-.051l.017-.171c.13-.085.282-.118.355-.235l-.105-.191c-.27.162-.543.285-.792.418-.156-.013-.287-.019-.39.13l.018.207-.338-.082-1.2.546c-.389.175-.782.314-1.167.469-.022.009-.056-.016-.1-.03l.413-.2c.019-.077-.046-.123.07-.2.12-.033.24-.129.372-.1l-.131.167a1.09,1.09,0,0,0,.441-.172l.208-.265.294-.133.126-.15.185,0c.368-.157.7-.345,1.039-.512l.1-.142a31.2,31.2,0,0,0,2.857-1.69l-.029-.023c.14-.125.272-.263.455-.441-.178.088-.253.021-.41.134-.056.076-.129.162-.2.244l-.5.159.106-.159a29.814,29.814,0,0,0,5.839-4.967c.278-.179.519-.35.776-.521l.162.022.171-.2a1.039,1.039,0,0,0-.1-.087c.07-.142.128-.3.205-.479l.227-.142.339-.408.125.065-.113.2-.189.091-.3.382-.04.19c-.048.064-.1.126-.159.191.049.031.1.057.159.087.151-.26.353-.318.5-.486l.046-.212.3-.382.041-.185.768-1.078a2.345,2.345,0,0,0,.578-.456c0-.044.008-.088.012-.135l.089-.138.172-.106.263-.415.226-.143c-.012.125.048.228-.087.408l-.164.109c-.172.234-.312.5-.475.714l-.147.084a4.915,4.915,0,0,1-.282.41,2.023,2.023,0,0,1-.376.465c.015-.11.023-.207.044-.31.014-.067.01-.086-.066-.029l-.3.425c-.011.093-.02.175-.03.256.112-.039.233-.15.326-.13a1.77,1.77,0,0,1-.319.467c-.115.066-.222.072-.316.161l-.171.406c.214-.128.3-.073.289.125l-.158.162-.2-.1c-.1.076-.2.053-.292.2l-.125.286c-.133.121-.243.089-.351.275l-.085.284.167.01.121-.14a.69.69,0,0,1,.125-.048c.043-.006.135-.1.127,0l-.282.4c.048-.018.074-.019.087-.034l.48-.552c.082-.332.073-.337.146-.375l.152.124c-.052.1-.1.191-.147.272l.053.073a.57.57,0,0,0,.388-.251c-.038-.059.091-.229.015-.309s.174-.314.127-.43c.359-.437.672-.909,1-1.366l.035-.2c.076-.161.18-.163.256-.234l.18-.28.037-.224c.211-.331.428-.657.614-.994l-.075-.186.19-.33.159-.1c.108-.187.232-.4.326-.592l.138-.1.384-.751a.217.217,0,0,0,0-.077c-.113.085-.208.254-.328.326l-.344.671c-.219.239-.41.42-.588.6l-.08-.065.092-.234c.006-.1.013-.233.021-.367.056-.094.1-.193.142-.27,0-.172,0-.328.006-.454L97,254.3l.183-.357.2-.025.088-.21-.1-.162.074-.165.146-.12.407-.9a.7.7,0,0,1,.12-.5c.1-.119.242-.126.329-.4-.091-.156.017-.453,0-.689l.12-.127c.144-.437.293-.845.411-1.237l-.024-.2a.469.469,0,0,0,.331-.222l.086-.306c.005-.02-.006-.043-.015-.1l-.16.168c-.078.088-.15.153-.2,0,.069-.248.145-.5.208-.747l.175-.758c.127-.5.213-1.014.3-1.517l-.024-.073c.039-.228.078-.455.111-.684l.062-.112-.027-.164a29.917,29.917,0,0,0,.28-4.033c0-.162-.01-.322-.012-.484h.085l.151.269.14-.172c.015-.2-.035-.356.048-.446l.085.007c.034.113.063.23.1.338.046.131.043.32.132.4l.1.089.147-.23a1.532,1.532,0,0,1,.076-.7l.135.442a1.874,1.874,0,0,0,.035-.618c-.109-.117-.088-.4-.19-.527,0-.274-.173-.3-.217-.538l-.013-.292.159-.129c-.012-.089-.023-.164-.031-.222-.126-.146-.148.094-.219.135-.094-.027-.19.109-.29-.079l.154-.125c0-.125,0-.256-.015-.387a1.388,1.388,0,0,0,.4-.606ZM54.005,212.99c-.2.114-.4.234-.589.36l-.108.17-.185.118-.111-.1a1.512,1.512,0,0,1,.146-.128c.267-.173.533-.349.813-.5.018-.01.045,0,.1-.008C54.034,212.954,54.024,212.979,54.005,212.99Zm36.822,53.458c.2-.071.348-.3.551-.364.016.059.015.058-.673.6l-.053-.2Zm-11.482,5.635.712-.2.708-.236c.01.1-.118.171-.178.244-.334.119-.674.217-.989.3h-.562C79.192,272.136,79.267,272.1,79.346,272.083Zm-23.337-4.211-.053.1c-.086,0-.09.01-.421-.171l-.084-.221A2.862,2.862,0,0,1,56.009,267.871ZM90.172,217.79l.084.186c.2.173.409.346.6.539l.071.191.712.679.037.127a.2.2,0,0,0,.026.062l.782.822.046.167.8.925c.267.309.507.636.751.941l.071.305a.244.244,0,0,1-.07-.032,1.1,1.1,0,0,1-.1-.115c-.38-.488-.762-.974-1.15-1.405l-.04-.175c-.174-.2-.348-.408-.535-.6l-.043-.13c-.006-.021,0-.048-.018-.062-.339-.355-.67-.718-1.033-1.05l-.05-.154-.357-.34-.06-.177c-.179-.172-.389-.342-.572-.5a1.7,1.7,0,0,0-.474-.555C89.9,217.5,90.017,217.678,90.172,217.79Zm-40.2,44.939c.084.079.16.157.25.234l.229.608-.108.124a.89.89,0,0,0-.188-.034c-.048,0-.076.036-.115.057l-.281-.243a.809.809,0,0,1-.066-.169c-.011-.054.01-.094,0-.147a1.273,1.273,0,0,0-.055-.176l-.274-.11c-.529-.486-1.024-1.013-1.516-1.532l-.2-.079c-.3-.383-.007-.439-.15-.742l.48.323c.03.036.1.118.183.2l.057.182.227.238.343.115c.146.15.3.329.461.47l.176.051.077.176.228.218v.254ZM50.466,265l.412.324c.024.077.025.078-.445-.021-.23-.174-.443-.368-.661-.555-.026-.12-.213-.325.011-.323l.425.348.183.06Zm-3.049-4.5-.039.033-.308-.06-.127-.227.039-.033.309.061Zm-1.111-2.495c-.018-.007-.039-.012-.049-.026-.284-.4-.569-.79-.826-1.208s-.532-.826-.773-1.264l0-.061A29.654,29.654,0,0,0,46.306,258.006ZM81.49,213.122l.063-.007c.289.094.6.247.9.377l.048.063Q82,213.33,81.49,213.122Zm-2.353-1.512.17-.035c.047.041.095.079.146.128l.307.1.192-.023.116.121.493.182.107.113c.054,0,.113-.009.215-.008l.756.3.174-.018.447.179h.214l.593.268.207,0,.071.1a3.162,3.162,0,0,0,.5.265h.133a.21.21,0,0,1,.056.015c.03.036.054.072.09.123l.326.167H84.6c.381.185.745.408,1.114.617l.55.319.533.341.091.158c.273.176.575.361.834.555l.078.152.531.377c.04.122.173.221.26.336-.007.007-.014.024-.022.02-.079-.039-.162-.072-.183-.081a1.668,1.668,0,0,1-.212-.065c-.046-.029-.09-.063-.135-.094l-.735-.522-.749-.484-.082-.145c-.188-.118-.385-.254-.593-.368l-.151-.006-.741-.426-.082-.128c-.5-.268-1.009-.527-1.514-.776l-.167.1c-.126-.082-.043-.12-.061-.176-.013-.017-.023-.043-.041-.051l-.9-.409-.926-.369-.191.016c-.353-.148-.721-.261-1.081-.385l-.143-.142c-.311-.109-.625-.21-.94-.294l-.1-.094c-.161-.118-.429-.086-.576-.226A1.537,1.537,0,0,1,79.136,211.61Zm-6.731-.686a1.327,1.327,0,0,0,.176.1.853.853,0,0,0,.174.02c0,.01.009.02.013.03q-.865-.069-1.743-.087l.131-.118C71.651,210.878,72.031,210.887,72.406,210.923Zm-1.6.034.041.023c-.151,0-.3-.012-.453-.012-.051,0-.1,0-.153,0A1.42,1.42,0,0,1,70.8,210.958Zm-5.266.379c.358-.073.722-.106,1.083-.155s.721-.1,1.082-.12l.033.032q-1.194.106-2.358.305l.02-.016A1.026,1.026,0,0,1,65.537,211.337Zm-11.774,2.614.209-.032c.228-.15.48-.282.726-.427l.209-.017a1.982,1.982,0,0,1,.646-.284c-.329.206-.546.328-.762.447l-.162.008c-.223.13-.469.265-.669.4l-.517.161C53.5,214.085,53.652,214.039,53.763,213.951Zm-3.414,2.572c.393-.325.8-.635,1.2-.951a.179.179,0,0,1,.065-.019c-.087.171-.381.392-1.311,1.084C50.333,216.563,50.335,216.536,50.349,216.523ZM38.463,240.844c-.017-.034-.05-.068-.051-.1,0-.523.021-1.046.033-1.566s.073-1.037.109-1.548l-.066-.167c.019-.213.053-.44.083-.689l.183-.428.093.262a32.937,32.937,0,0,0-.264,3.992C38.539,240.678,38.5,240.76,38.463,240.844Zm4.648,15.464-.239-.416.089-.109c-.028-.095-.066-.208-.1-.332.314.25.2.537.38.78Zm-.678-2.811-.135-.107c0-.055-.005-.113-.009-.181a.686.686,0,0,0-.274-.437c-.231-.566-.463-1.138-.666-1.7-.074-.119-.18-.145-.205-.324l.023-.2-.106-.315-.146-.153c-.1-.264-.162-.537-.24-.8l-.091-.1-.064-.545c-.075-.083-.149-.157-.254-.281.042.24.077.393.11.559-.038-.025-.084-.052-.084-.056-.007-.231-.236-.238-.216-.505l.124-.144-.07-.35c.025-.123.057-.274.089-.43l-.2-.359c.014-.086.025-.174.049-.285l-.075-.191-.282-.784c-.072-.362-.115-.729-.161-1.095l-.136-.288.059-.294c-.015-.126-.041-.292-.051-.476l-.1-.169c-.012-.164-.025-.333-.038-.5l-.1-.183c-.04-.425-.052-.851-.06-1.277s-.032-.851-.012-1.274l-.077-.182c-.031-.194.072-.242.1-.4a1.724,1.724,0,0,0-.045-.188c-.072-.2-.235-.185-.29-.444l.091-1.209-.05-.111a1.016,1.016,0,0,1-.015-.164c.018-.258.061-.515.094-.772,0-.021.024-.038.037-.057.129.1.051.443.157.592-.036.3-.05.607-.075.9.073.085.083-.019.089-.088l.051-.642q.039-.321.079-.644l-.062-.2c.037-.279.068-.564.113-.852l-.108-.339.1-.649-.121-.221c.036-.324.117-.275.186-.287a2.1,2.1,0,0,0,.167-.569l-.159-.239.274-.24-.046-.283c.049-.082.093-.166.17-.285l.353-1.243c.114-.191.232-.35.361-.54l.205-.606.138-.145-.023-.163c.092-.272.214-.554.327-.851l.18-.049c.09-.216-.115-.067-.057-.278l.229-.118c.1-.267.18-.419.248-.575a4.622,4.622,0,0,1-.017-.478,4.206,4.206,0,0,1,.076-.456l.13-.117c.041-.1.1-.2.15-.3l.007-.2a30.894,30.894,0,0,1,4.635-6.865l.163-.067c.225-.238.472-.514.734-.768l.16-.057c.25-.27.516-.535.792-.791s.538-.524.816-.766l.166-.042c.225-.133.4-.384.647-.486-.081.187-.273.282-.41.413s-.257.225-.386.338l-.439.415c.118.119.352-.377.373-.115.287-.274.553-.487.807-.712l.138-.034c.1-.04.06-.1.166-.217.072-.065.217-.188.388-.319l.128.067.218-.109c.033-.111.066-.227.091-.313a1.987,1.987,0,0,1,.407-.287l-.066.191c.189-.06.334-.241.509-.326l.174-.026.44-.312a2.451,2.451,0,0,1,.548-.335c-.132.118-.2.194-.285.279.012.034.024.073.037.109.145-.053.277-.106.465-.163.371-.234.787-.513,1.212-.769l.207-.016.863-.5c.289-.163.588-.305.879-.458l.2-.007.084-.118a1.128,1.128,0,0,1,.4-.024l.781-.353.128.108c.277-.068.53-.244.854-.318l.123.089a.754.754,0,0,0,.142-.026l.8-.311.809-.274.157.026c.187-.026.38-.134.59-.176.143,0,.292,0,.432,0A29.745,29.745,0,0,0,42.115,231.6a.214.214,0,0,0-.058.071c-.06.151-.085.32-.145.464a1.471,1.471,0,0,0-.094.47q-.21.746-.382,1.507a2.889,2.889,0,0,0-.282.321l.038.181a.58.58,0,0,0-.141.544l.089.017c.041-.087.079-.183.124-.263a29.667,29.667,0,0,0-.527,4.4,1.651,1.651,0,0,0-.154-.451,2.451,2.451,0,0,0-.27-.819c-.172.227.066.363-.006.578l-.094.165c-.019.211-.031.43-.031.6l.321,1.31c.011.433.023.918.035,1.393.028.047.046.085.087.148l.062.818.138.206c.058.673.133,1.342.236,2a.1.1,0,0,0-.022.061c.111.584.186,1.176.33,1.741l.048.055a29.481,29.481,0,0,0,3.138,8.16l-.067-.046c-.166-.277-.319-.563-.471-.87l-.177-.018c-.122-.1-.151-.365-.322-.408-.2-.374-.361-.778-.546-1.17l-.17-.159c-.082-.172-.162-.372-.264-.635l.069-.279-.315-.806-.256-.757-.327-.463c0-.064.015-.13.028-.224l-.177-.271c-.043-.15-.1-.358-.157-.55a.727.727,0,0,1-.221-.492c0-.108.067-.188-.014-.371l-.158-.055c-.081-.1-.069-.254-.114-.366l-.119-.152c-.077-.175.013-.244,0-.418l-.118-.225c.01-.089.022-.2.032-.3l-.138-.191q-.043-.237-.087-.49l-.072-.088c-.1-.178-.065-.385-.128-.578l-.081-.116.047-.189c-.027-.21-.057-.45-.086-.678l-.1-.15c-.016-.213-.035-.455-.051-.666l-.091-.147c-.02-.327-.06-.659-.061-.992l-.094-.183q-.013-.58-.027-1.173l-.073-.139c.006-.22.012-.464.015-.595a5.02,5.02,0,0,0-.128-.521,1.368,1.368,0,0,1-.037-.3,1.468,1.468,0,0,0-.171-.719c-.072.118-.038.272-.063.4l.075.192c-.022.282-.019.564-.029.842l.163.338a2.848,2.848,0,0,0-.006.462,3.99,3.99,0,0,0,.176.592c.007.284.016.619.024.954.033.061.06.121.1.18.012.165.025.332.037.5l-.07.18c.009.122.018.232.025.33l.1.179c.023.432.1.846.147,1.289l.114.205c.067.579.2,1.2.3,1.8.046.061.076.095.127.155.048.208.1.445.15.651l.111.13c.113.538.275,1.068.423,1.6l.11.127s.019.007.024.026c.072.268.169.526.255.789l.1.092c.015.017.036.032.043.052.131.392.263.783.422,1.164s.29.77.463,1.139l.131.1.394.872c.054.053.1.1.176.158.294.553.565,1.126.9,1.669l.485.825.524.8c.009.014.033.017.05.024,0-.2-.282-.381-.27-.588.023.013.049.019.06.036l.533.82c.044.062.081.128.128.2l-.2-.026.236.357-.064.17c.11.128.215.126.319.2.14.2.278.394.424.573l-.061.183.222.282c.047.282-.267,0-.331.1l-.408-.33c-.018-.062-.037-.126-.056-.2-.087-.152-.178-.323-.349-.369l-.039-.2-.286-.4-.174-.1c-.3-.469-.61-.936-.9-1.413l-.113-.073c-.018-.014-.041-.026-.052-.044A29.715,29.715,0,0,1,42.434,253.5Zm-1.713-11.638.011-.023c.008.205.017.41.029.615l-.034-.055A1.682,1.682,0,0,1,40.721,241.859Zm6.01,20.065-.229-.137-.357-.707-.217-.1-.033-.13a.209.209,0,0,0-.021-.067l-.631-.8-.051-.205-.166-.214-.283-.228-.065-.263-.495-.7-.49-.76.086-.107c.348.444.788,1.125,1.674,2.346l.029.143.522.664c.018.072.038.137.059.2.174.125.124-.1.372.012.015.009-.062.08-.007.155l.154.214-.194-.065c0,.015,0,.037.006.049l.578.708.256.01.8.841c.026.161.256.339.264.5,0,.116.006.224.01.355l-.451-.431-.046-.146C47.463,262.7,47.1,262.334,46.731,261.924Zm4.116,5.619-.05.069a.838.838,0,0,1-.414-.267v-.186l-.158-.137-.242.027-.15-.112-.19-.368-.286-.226c-.123-.026-.234-.058-.367-.094l-.437-.377a.446.446,0,0,1-.034-.076,1.458,1.458,0,0,1,.513.214l-.108-.268-.347-.095a1.1,1.1,0,0,1-.447-.492l-.344-.18-.374-.624c.108-.086.251.2.379.172.086-.019.258.073.4.119.095.087.192.188.314.29l-.048.14.185.222a.893.893,0,0,1,.367.077,1.3,1.3,0,0,0,.331.16c.141.119.27.24.4.342l.1.18c.135.151.24.106.356.173l.392.308a3.327,3.327,0,0,1,.193.4c.046.13.254.228.287.351s.2.275.316.412C51.245,267.748,51.023,267.585,50.847,267.543Zm6.742.068c0,.01,0,.03-.007.029a6.416,6.416,0,0,1-.925-.424l-.125-.169c-.082-.081-.3-.08-.316-.221.028,0,.053-.008.07,0l1,.51A1,1,0,0,0,57.589,267.611Zm28.6-1.724-.145.245c-.135.091-.3.183-.464.275a1.134,1.134,0,0,1-.137.055l-.139,0c-.3.168-.6.357-.916.514a.8.8,0,0,0-.114.087l-.117.162-.315-.072a1.07,1.07,0,0,1-.356.149,29.678,29.678,0,0,0,2.661-1.487Z" transform="translate(-36.942 -209.34)" fill="#003b75"/>
    <path id="パス_668" data-name="パス 668" d="M187.063,294.094l-.059-.287c.007-.125.08-.267.031-.4h-.117c-.026.089-.047.164-.095.331l-.2.178-.189,1.041-.188.213-.089-.089.03-.263-.185.113c.1-.489.173-.949.254-1.388l-.049-.19.061-.459.135-.287-.071-.254c.037-.291.084-.618.1-.947a.294.294,0,0,0-.039-.108l-.14.222c-.029.068.019.227-.077.216l-.033-.286-.092-.029-.163.2c.037.111.051.167.065.219l-.085.121c-.084.619-.141,1.236-.261,1.827l.108.324c-.058.328-.111.652-.206,1.035l-.225.191c.027.127.046.214.066.308.074-.105.143-.2.212-.114.005.14.01.282.017.47l-.062.265.036.2-.333,1.175c.031.086.065.2.094.292l-.331.98.026.175c-.119.341-.272.7-.408,1.06a.391.391,0,0,0,0,.132c.051.053.155,0,.164.136-.106.286-.236.558-.351.815l-.123.1c0,.1-.021.22.049.286l.176-.363.167-.148c.116-.246.22-.507.323-.769.008-.019.033-.03.041-.038h.136a1.252,1.252,0,0,1,.148-.552l.133-.147-.017-.167.142-.146.108-.316.2-.2c.011.062.022.123.035.194a.426.426,0,0,0,.09-.437c.225-.619.379-1.267.568-1.9.153-.647.319-1.294.437-1.947l-.138-.142.025-.181Z" transform="translate(-122.697 -257.348)" fill="#003b75"/>
    <path id="パス_669" data-name="パス 669" d="M193.943,297.48l.164-.22-.041-.189c.1-.408.187-.852.244-1.2-.017-.2-.026-.3-.034-.4l.137-.22q-.021-.093-.046-.2c.033-.172.059-.354.08-.535-.04-.089-.045-.243-.12-.263a3.9,3.9,0,0,0-.11.7s.112.041,0,.169l-.172-.028-.077-.273c.028-.2.043-.405.064-.595l-.147-.14.032-.252-.138-.3c.018-.138.034-.229.038-.316a.871.871,0,0,0-.02-.162l-.127.024q-.086.682-.165,1.3l.053.23-.27.042-.1.544c.019.2.039.4.061.634-.028.137-.049.314-.116.6l.073.15c.034.349-.116.554-.057.743l.085.02c.077.252-.112.327-.162.5,0,.177-.018.356-.029.57l.26.071c-.015.324-.028.61-.042.937-.029.1-.068.247-.137.442.018.148.032.267.046.386l-.291.343c-.082.232-.023.247.031.268l.2-.159a1.472,1.472,0,0,0,.053.176,1.89,1.89,0,0,0,.1.173l-.061.335c.1-.138.194-.157.266-.356.007-.106.015-.235.024-.38l.177-.241c-.1-.177.172-.533.071-.715l.143-.577c-.005-.308-.19-.325-.171-.652.058-.1.048-.282.141-.381.056-.035.107.051.166-.11-.033-.125-.123-.072-.184-.113l-.143.169a2.261,2.261,0,0,0,.019-.328.6.6,0,0,1,.008-.32C193.834,297.3,193.85,297.3,193.943,297.48Z" transform="translate(-127.714 -258.381)" fill="#003b75"/>
    <path id="パス_670" data-name="パス 670" d="M128.462,356.363l-.3.254c.545-.087,1.035-.214,1.532-.326l.025-.311.241.16c.544-.128,1.069-.294,1.6-.442a.842.842,0,0,0,.136-.067l.053-.17c.619-.218,1.228-.394,1.794-.629l.217-.2.295-.018.127-.123c.19-.077.349-.133.472-.193l.218-.011.41-.185.36-.314a.321.321,0,0,0-.077,0,.424.424,0,0,0-.077.032l-.078.035a31.078,31.078,0,0,1-4.008,1.526c-.055.015-.11.034-.165.046a.268.268,0,0,1-.071,0l-.134-.026a2.216,2.216,0,0,0-.562.19l-.078.079c-.56.157-1.122.268-1.677.4-.055.044-.109.087-.166.126l-.666.119-.187.127c-.387.074-.783.137-1.181.183-.02,0-.038.024-.068.044l.044.106a.834.834,0,0,0,.483-.085.9.9,0,0,1,.456-.1,1.213,1.213,0,0,0,.38.082l.08-.18.189-.034.159-.112c.3-.048.577-.11.856-.175.02,0,.044.01.079.018l.005.124-.389.089C128.672,356.392,128.577,356.379,128.462,356.363Z" transform="translate(-88.813 -293.958)" fill="#003b75"/>
    <path id="パス_671" data-name="パス 671" d="M197.623,305.894c-.19.727-.389,1.436-.6,2.109l-.14.153c-.061.253-.192.511-.251.809l.126.389-.247.125.123.207c-.087.221-.186.456-.271.695a3.094,3.094,0,0,0-.25.737l.263-.3.348-.882.2-.069c.071-.155.133-.3.2-.458a1.027,1.027,0,0,1,.136.256,3.334,3.334,0,0,1,.024.372c0,.038.043.037.075.061l.158-.219c-.015-.2-.023-.406-.05-.589l-.128.14c-.022-.19-.042-.362-.061-.524l.13-.384a1.562,1.562,0,0,1-.013-.157c0-.186.183-.437.1-.6l.208-.831c-.062-.14.038-.341.062-.515a3.123,3.123,0,0,0,.006-.574Z" transform="translate(-129.627 -265.872)" fill="#003b75"/>
    <path id="パス_672" data-name="パス 672" d="M155.417,344.21,156,343.8l.187-.241c.151-.086.251-.037.339-.137l.228-.372-.3.191c-.141.025-.2-.109-.406.011-.04.085-.083.161-.118.227,0,.059.12.067-.031.17l-.172-.061c-.741.547-1.505,1.031-2.136,1.429a4.354,4.354,0,0,0-.333.285c-.072.08-.118.165-.238.335.361-.212.627-.35.877-.515.047-.03.093-.062.141-.089a.18.18,0,0,1,.065-.009l.16.071.437-.28.237-.032C155.088,344.614,155.238,344.426,155.417,344.21Z" transform="translate(-104.38 -287.665)" fill="#003b75"/>
    <path id="パス_673" data-name="パス 673" d="M174.133,329.9l.026-.159c.043-.133.239-.248.2-.39-.179.105-.249.373-.42.487l-.122.063-.743.945c-.013.017-.039.023-.06.034l-.177-.016c-.079.135-.217.216-.247.346l.049.163-.666.768c-.222.249-.455.483-.68.724a.975.975,0,0,0-.094.149c.036.035.092.061.111.117a.863.863,0,0,1-.024.25c.256-.282.48-.5.683-.735a.166.166,0,0,0,.02-.063c-.008-.056-.109-.05-.009-.174.122-.061.223-.053.348-.173.043-.2-.149-.046-.222-.068.058-.219.2-.212.318-.282.222-.263.458-.516.717-.842l.33-.094-.062-.234.555-.708Z" transform="translate(-115.033 -279.642)" fill="#003b75"/>
    <path id="パス_674" data-name="パス 674" d="M47.909,326.379l-.6-.923c-.2-.308-.4-.622-.574-.944l-.024-.227-.141-.182-.193.068-.205-.142.338.643a1.3,1.3,0,0,0,.319.657l.13.082.415.647.012.09c.159.133.311.267.447.368Z" transform="translate(-41.794 -276.524)" fill="#003b75"/>
    <path id="パス_675" data-name="パス 675" d="M49.1,329.146h0C49.106,329.155,49.106,329.153,49.1,329.146Z" transform="translate(-43.51 -279.522)" fill="#003b75"/>
    <path id="パス_676" data-name="パス 676" d="M137.081,365.361l-.6.049-.483.139-.171-.124-.251.089-.045.178c-.842.255-1.657.415-2.465.6-.022,0-.04.027-.07.048.173.018.342.02.483.028a34.752,34.752,0,0,0,3.542-.959C137.047,365.4,137.062,365.378,137.081,365.361Z" transform="translate(-92.656 -300.737)" fill="#003b75"/>
    <path id="パス_677" data-name="パス 677" d="M42.19,314.986c0,.07,0,.143,0,.216l.244.484c.1.061.228.229.308.151-.029-.212-.043-.243-.138-.315l-.138.008a1.438,1.438,0,0,1-.047-.469c-.237-.534-.509-1.095-.729-1.644l.012-.178-.29-.282,0-.184-.2-.252v-.152c-.075-.117-.143-.231-.206-.347-.008.074-.019.1-.012.121.179.481.372.956.56,1.435S41.98,314.516,42.19,314.986Z" transform="translate(-38.762 -269.49)" fill="#003b75"/>
    <path id="パス_678" data-name="パス 678" d="M38.137,302.349l-.236-.292-.082-.355.037-.2-.073-.318c-.082-.154-.162-.293-.232-.445-.031.123-.052.216-.066.29l.247,1.073.112.14c.092.406.235.829.358,1.256.006.021.03.036.046.053l.065-.011.082-.258C38.29,302.9,38.2,302.621,38.137,302.349Z" transform="translate(-36.703 -262.879)" fill="#003b75"/>
    <path id="パス_679" data-name="パス 679" d="M36.8,295.929c-.118-.651-.239-1.3-.311-1.958l-.11-.18c-.015-.116-.03-.236-.045-.355l.06-.2c-.062-.065-.1-.222-.186-.208.061.494.123.985.184,1.48s.167.985.253,1.486C36.71,296.07,36.772,296.087,36.8,295.929Z" transform="translate(-35.956 -258.365)" fill="#003b75"/>
    <path id="パス_680" data-name="パス 680" d="M169.377,338.689c-.088.126-.237.2-.272.358l.129.133c-.237.2-.311.087-.484.1l-.084.263.128.137.27-.079.629-.6a.2.2,0,0,0,.025-.065c0-.017,0-.04-.005-.047a.542.542,0,0,0-.093-.047c-.11.086-.188.217-.258.142.109-.116.209-.239.372-.436Z" transform="translate(-113.548 -285.03)" fill="#003b75"/>
    <path id="パス_681" data-name="パス 681" d="M158.032,342.507l.077-.136c.154-.076.244-.019.388-.1.048-.1.1-.191.135-.277l.364-.064a2.153,2.153,0,0,0,.115-.265c.017-.061.124-.158.021-.191l-.589.463-.613.438c-.015.011-.02.037-.029.057C157.9,342.5,157.924,342.544,158.032,342.507Z" transform="translate(-107.242 -286.744)" fill="#003b75"/>
    <path id="パス_682" data-name="パス 682" d="M40.151,309.44c-.1-.308-.18-.533-.229-.678-.123-.192-.2-.32-.282-.461l-.088.087a.468.468,0,0,0,.188.366c-.006.068-.012.137-.019.208l.1.283.3.466Z" transform="translate(-37.913 -267.311)" fill="#003b75"/>
    <path id="パス_683" data-name="パス 683" d="M166.106,339.21a3.938,3.938,0,0,0,.652-.556l.1-.273-.062-.064a3.18,3.18,0,0,0-.731.686.509.509,0,0,0,.116-.042c.06-.037.12-.084.194-.137a1.2,1.2,0,0,1-.07.14A2.671,2.671,0,0,1,166.106,339.21Z" transform="translate(-112.027 -284.894)" fill="#003b75"/>
    <path id="パス_684" data-name="パス 684" d="M162.515,341.828l.128.065.248-.195c.216-.094.378-.178.512-.241l.143-.261c-.147.032-.236.155-.382.262l-.315.043C162.727,341.624,162.582,341.679,162.515,341.828Z" transform="translate(-109.945 -286.581)" fill="#003b75"/>
    <path id="パス_685" data-name="パス 685" d="M121,358.38c.07.063.071.149.1.222l.2-.015c.1-.277.094-.379-.044-.438-.111.037-.259-.008-.366.057C120.8,358.3,120.938,358.325,121,358.38Z" transform="translate(-85.546 -296.511)" fill="#003b75"/>
    <path id="パス_686" data-name="パス 686" d="M168.7,336.3a.306.306,0,0,0,.051-.106l-.309,0-.222.233c-.046.13-.082.208-.117.3a3.516,3.516,0,0,1,.311-.178A.884.884,0,0,0,168.7,336.3Z" transform="translate(-113.22 -283.648)" fill="#003b75"/>
    <path id="パス_687" data-name="パス 687" d="M169.677,336.157a.122.122,0,0,0-.005.013h.018Z" transform="translate(-114.138 -283.629)" fill="#003b75"/>
    <path id="パス_688" data-name="パス 688" d="M181.444,338.174c-.407.535-.812.98-1.2,1.438-.058.067-.109.14-.162.211.461-.456.783-.8,1-1.057A2.079,2.079,0,0,0,181.444,338.174Z" transform="translate(-120.234 -284.811)" fill="#003b75"/>
    <path id="パス_689" data-name="パス 689" d="M65.164,224.33l.071.083c.779-.616.879-.663,1.11-.984-.281.217-.485.372-.683.54l-.2.056C65.372,224.123,65.23,224.191,65.164,224.33Z" transform="translate(-52.917 -217.593)" fill="#003b75"/>
    <path id="パス_690" data-name="パス 690" d="M186.529,332.037l-.244.207c-.023.064-.051.137-.078.212l-.063.151-.082.184.045.019c.127-.179.258-.355.379-.537a2.175,2.175,0,0,0,.357-.627l-.283.2Z" transform="translate(-123.738 -280.987)" fill="#003b75"/>
    <path id="パス_691" data-name="パス 691" d="M45.338,248.684l.1.048c.032-.027.056-.039.067-.058l.342-.666-.1-.116a3.9,3.9,0,0,0-.356.635A.762.762,0,0,0,45.338,248.684Z" transform="translate(-41.303 -231.924)" fill="#003b75"/>
    <path id="パス_692" data-name="パス 692" d="M35.781,278.007l-.1-.518a2.872,2.872,0,0,0-.085.642l.072.2a2.1,2.1,0,0,0,0,.647.513.513,0,0,0,.047-.111C35.738,278.566,35.761,278.269,35.781,278.007Z" transform="translate(-35.597 -249.262)" fill="#003b75"/>
    <path id="パス_693" data-name="パス 693" d="M192.527,308.035a1.193,1.193,0,0,0,.014-.158c-.025.02-.068.039-.073.061a.66.66,0,0,1-.149.279,1.332,1.332,0,0,0-.118.216c-.091.089-.129-.049-.193.14.013.09.026.181.04.28l.134-.035.121-.359.149-.163C192.479,308.211,192.506,308.123,192.527,308.035Z" transform="translate(-127.222 -267.063)" fill="#003b75"/>
    <path id="パス_694" data-name="パス 694" d="M53.944,237.92l.053-.257c-.267.267-.275.264-.66,1.039.02-.01.046-.016.058-.033C53.579,238.423,53.745,238.163,53.944,237.92Z" transform="translate(-45.989 -225.932)" fill="#003b75"/>
    <path id="パス_695" data-name="パス 695" d="M132.314,357.438c-.02,0-.036.027-.106.08,1.067-.188,1.3-.251,1.477-.386a.177.177,0,0,0-.066-.01C133.189,357.247,132.749,357.33,132.314,357.438Z" transform="translate(-92.191 -295.91)" fill="#003b75"/>
    <path id="パス_696" data-name="パス 696" d="M191.4,314.653a1.5,1.5,0,0,0-.132.422c.031.013.067.064.1.035a.637.637,0,0,0,.275-.369c-.009-.072-.019-.16-.033-.276Z" transform="translate(-126.788 -270.921)" fill="#003b75"/>
    <path id="パス_697" data-name="パス 697" d="M194.109,313.222c-.026.172-.048.325-.075.511l.15-.023.15-.384c-.02-.09,0-.243-.057-.285Z" transform="translate(-128.409 -270.088)" fill="#003b75"/>
    <path id="パス_698" data-name="パス 698" d="M120.234,357.336c-.209.057-.405.019-.59.085l.007.165a3.518,3.518,0,0,0,.645-.1Z" transform="translate(-84.832 -296.036)" fill="#003b75"/>
    <path id="パス_699" data-name="パス 699" d="M155.36,349.944a1.545,1.545,0,0,1,.631-.152c.068-.087.141-.174.135-.251l-.266.033C155.7,349.7,155.495,349.761,155.36,349.944Z" transform="translate(-105.754 -291.469)" fill="#003b75"/>
    <path id="パス_700" data-name="パス 700" d="M35.949,287.784a2.048,2.048,0,0,0-.072-.657c-.015.133-.027.186-.026.239.007.267,0,.534.032.8,0,.021.022.041.062.112l.085-.319Z" transform="translate(-35.746 -254.907)" fill="#003b75"/>
    <path id="パス_701" data-name="パス 701" d="M169.077,336.909l-.246.085c-.078.1-.207.176-.269.327l.123.064C169.1,336.974,169.091,336.965,169.077,336.909Z" transform="translate(-113.488 -284.07)" fill="#003b75"/>
    <path id="パス_702" data-name="パス 702" d="M90.567,354.694a.608.608,0,0,0-.137,0c.864.364.875.356,1.129.366-.015-.016-.028-.04-.047-.046Z" transform="translate(-67.718 -294.486)" fill="#003b75"/>
    <path id="パス_703" data-name="パス 703" d="M36,283.114a2.533,2.533,0,0,0-.162-.591c-.006.262-.012.521-.018.78a.094.094,0,0,0,.019.046Z" transform="translate(-35.728 -252.21)" fill="#003b75"/>
    <path id="パス_704" data-name="パス 704" d="M70.167,221.321a1.69,1.69,0,0,0-.527.376h.4Z" transform="translate(-55.539 -216.358)" fill="#003b75"/>
    <path id="パス_705" data-name="パス 705" d="M43.522,256.194a1.308,1.308,0,0,0-.123.389c.075,0,.15-.115.224-.172a1.3,1.3,0,0,0,.122-.387C43.671,256.022,43.6,256.136,43.522,256.194Z" transform="translate(-40.167 -236.687)" fill="#003b75"/>
    <path id="パス_706" data-name="パス 706" d="M70.5,222.153l-.136-.088c-.159.1-.321.166-.391.319l.108.068Z" transform="translate(-55.733 -216.794)" fill="#003b75"/>
    <path id="パス_707" data-name="パス 707" d="M56.71,233.369l.413-.525c.151-.2.319-.386.483-.577l.437-.505c.161-.192.334-.374.508-.554l.461-.484a7.137,7.137,0,0,1,.533-.53A3.454,3.454,0,0,1,60,229.78l.155-.051.069-.177c.111-.157.22-.111.33-.183a3.276,3.276,0,0,0,.523-.5l-.285.07c-.265.216-.528.459-.768.674l-.169.049c-.371.355-.751.7-1.1,1.086s-.716.746-1.048,1.144a.927.927,0,0,0-.079.128l-.031.131c-.279.311-.541.638-.8.97s-.522.655-.758,1l-.193.274a.563.563,0,0,0-.026.125,3.086,3.086,0,0,0,.432-.552C56.4,233.763,56.557,233.568,56.71,233.369Z" transform="translate(-47.444 -220.778)" fill="#003b75"/>
    <path id="パス_708" data-name="パス 708" d="M43.975,267.441l.2-.846.132-.161c.007-.068.016-.143.029-.216l-.2-.052c-.026.033-.047.048-.053.069l-.244,1.053a1.121,1.121,0,0,0-.005.179Z" transform="translate(-40.419 -242.628)" fill="#003b75"/>
    <path id="パス_709" data-name="パス 709" d="M48.9,253.611c-.011.026.008.063.014.105a1.415,1.415,0,0,0,.194-.356l.148-.121c.115-.246.218-.5.346-.741a.266.266,0,0,0,.005-.083l-.125-.062C49.243,252.8,49.08,253.212,48.9,253.611Z" transform="translate(-43.386 -234.537)" fill="#003b75"/>
    <path id="パス_710" data-name="パス 710" d="M43.969,274.189l-.065.533c0,.028.026.057.04.085l.149-.213c.02-.159.04-.317.061-.481l.113-.168-.119-.13Z" transform="translate(-40.463 -247.109)" fill="#003b75"/>
    <path id="パス_711" data-name="パス 711" d="M54.749,242.954a.573.573,0,0,0,.027-.13c-.612.778-.659.913-.72,1.13.019-.012.045-.018.056-.035C54.325,243.6,54.52,243.264,54.749,242.954Z" transform="translate(-46.41 -228.955)" fill="#003b75"/>
    <path id="パス_712" data-name="パス 712" d="M51.2,249.274l-.008.152c-.06.217-.2.365-.231.581a.549.549,0,0,0,.193-.28,4.986,4.986,0,0,0,.3-.6l-.15-.029Z" transform="translate(-44.597 -232.63)" fill="#003b75"/>
    <path id="パス_713" data-name="パス 713" d="M44.575,272.4a.139.139,0,0,0,.23.034.731.731,0,0,0,.047-.434l-.088-.016Z" transform="translate(-40.856 -246.036)" fill="#003b75"/>
    <path id="パス_714" data-name="パス 714" d="M48.915,250.045l.093-.182,0-.272-.106.077-.143.119-.086.222C48.771,250.016,48.8,250.122,48.915,250.045Z" transform="translate(-43.257 -232.919)" fill="#003b75"/>
    <path id="パス_715" data-name="パス 715" d="M52.327,247.134a3.315,3.315,0,0,0,.509-.864A2.558,2.558,0,0,0,52.327,247.134Z" transform="translate(-45.397 -230.974)" fill="#003b75"/>
    <path id="パス_716" data-name="パス 716" d="M50.1,246.832l-.075-.222.132-.229c.075.043.178-.094.284-.134a2.641,2.641,0,0,0,.281-.606c.029-.1.067-.189.1-.286-.068.042-.094.05-.106.067-.186.3-.356.606-.532.91-.179.071-.245.249-.32.415,0,.08,0,.165,0,.249C49.944,246.938,50.016,246.886,50.1,246.832Z" transform="translate(-43.954 -230.437)" fill="#003b75"/>
  </g>
  <path id="パス_7355" data-name="パス 7355" d="M8.891-11.781a8.525,8.525,0,0,0-2.383-6.344A8.758,8.758,0,0,0,.063-20.484a8.638,8.638,0,0,0-6.5,2.531,9.2,9.2,0,0,0-2.453,6.688A9.218,9.218,0,0,0-6.5-4.68,8.152,8.152,0,0,0-.281-2.141,8.725,8.725,0,0,0,6.328-4.828,9.662,9.662,0,0,0,8.891-11.781ZM3.453-.422A37.811,37.811,0,0,0,7.125.523a14.651,14.651,0,0,0,2.766.3q.547,0,1.063-.039T11.969.672A6.631,6.631,0,0,1,12.313,1.7a3.923,3.923,0,0,1,.109.891,1.447,1.447,0,0,1-.469,1.156,1.966,1.966,0,0,1-1.328.406,8.574,8.574,0,0,1-1.68-.187,14.985,14.985,0,0,1-1.961-.547Q6.328,3.2,5.063,2.766-1.172.609-3.7.609a6.405,6.405,0,0,0-1.8.258,8.6,8.6,0,0,0-1.82.789A3.37,3.37,0,0,1-7.812.969,1.3,1.3,0,0,1-7.969.391a1.029,1.029,0,0,1,.508-.937A2.92,2.92,0,0,1-5.953-.859H-5.8a9.162,9.162,0,0,1-4.68-3.812,11.781,11.781,0,0,1-1.68-6.375A11.267,11.267,0,0,1-8.6-19.609,12.7,12.7,0,0,1,.484-22.969a11.881,11.881,0,0,1,8.477,3A10.415,10.415,0,0,1,12.156-12,11.558,11.558,0,0,1,9.945-4.844,13.292,13.292,0,0,1,3.453-.422Z" transform="translate(32.763 40.633)" fill="#fff"/>
</svg>
