<svg xmlns="http://www.w3.org/2000/svg" width="170" height="40" viewBox="0 0 170 40">
  <path id="パス_224" data-name="パス 224" d="M1924.916,711.42c.067.142-.255.325.1.482a4.841,4.841,0,0,0,2.465.619,1.411,1.411,0,0,1,1.121.456c.141.128.339.21.241.489a.323.323,0,0,1-.381.2,2.689,2.689,0,0,1-.519-.126c-.172-.055-.366-.235-.5-.18a3.144,3.144,0,0,1-2.176-.169,22.985,22.985,0,0,1-3.565,1.086c.506.291.981.566,1.536.153a1.351,1.351,0,0,1,.775-.168c.34-.008.647-.009.782-.5a.306.306,0,0,1,.359-.241,1.544,1.544,0,0,1,1.117.53c-.366.485-.926.34-1.4.934.545-.208.973-.2,1.322-.372.92-.463,1.736.011,2.582.273.246.076.383.306.518.559.163.3.368.657.684.618.372-.045.121.856.62.542a5.589,5.589,0,0,1,.919-.394c.079-.032.167-.111.271.1-.343.742-1.137.868-1.6,1.564.445.538,1.114.451,1.63,1.045a2.893,2.893,0,0,1-1.758-.249l-.495.963a1.676,1.676,0,0,0,1.625.329,1.1,1.1,0,0,1,1.508.677,1.181,1.181,0,0,0,.811.566,19.521,19.521,0,0,1-2.037,1.563c-.239-.178.043-.536-.207-.673-.159-.088-.363.026-.51-.2a1.165,1.165,0,0,1,.207-.164c.194-.09.452-.148.358-.492-.073-.268-.225-.524-.505-.543a1.228,1.228,0,0,0-.683.207c-.393.224-.729.554-1.237.385-.336-.111-.478.385-.279.827a5.434,5.434,0,0,1,.282.8.571.571,0,0,1-.221.649c-.105.078-.222.112-.323,0-.074-.083-.033-.185-.015-.3.153-.932-.032-1.145-.764-1.046-1.177.159-2.284.683-3.438.956a.728.728,0,0,0-.606.391c-.115.26-.256.541.086.718.108.056.262.09.236.264-.037.261-.081.473.225.3a.381.381,0,0,0,.2-.515,1.258,1.258,0,0,0-.24-.317.428.428,0,0,1-.021-.575.261.261,0,0,1,.465,0c.327.883.775.466,1.266.3a.921.921,0,0,1,1.146.339c.406.614,1.014.17,1.482.472.113.073.144-.188.225-.274.522-.569,1.036-.968,1.829-.682a2.66,2.66,0,0,0,1.972-.272,7.44,7.44,0,0,1,3-.872,11.465,11.465,0,0,1-1.261,1.96c-.115.156-.317.282-.216.539.185.469-.117.708-.24,1.064-.3.857-.927.82-1.463.914a23.521,23.521,0,0,0-2.512.989,4.27,4.27,0,0,1-1.018.3c.075.384.287.357.487.388.5.078,1.037-.051,1.451.511.219.3.489-.077.741-.1.154-.014.3,0,.382.182a.445.445,0,0,1-.107.489c-.156.167-.328.309-.5.459a3.106,3.106,0,0,0-.706.65c-.392.669-.808.962-1.5.686-.412-.164-.71.421-1.09.6a4.755,4.755,0,0,0-.948.782c-.089.078-.226.16-.165.333.073.2.214.193.374.141a2.6,2.6,0,0,1,.607-.12.315.315,0,0,1,.36.239.533.533,0,0,1-.139.583,1.03,1.03,0,0,1-.57.28,5.609,5.609,0,0,0-1.318.175.487.487,0,0,1-.424-.108c-.269-.179-.3-.545-.346-.841-.025-.172.217-.32.4-.35a.51.51,0,0,0,.442-.281c-.223-.329-.527.148-.774-.183.342-.715,1.226-.009,1.534-.834-.223-.282-.472-.182-.681-.138-3.462.715-6.947,1.231-10.44,1.6-2.233.237-4.479.368-6.725.39-1.15.012-2.3.156-3.443.265-1.676.159-3.357.232-5.037.3-1.442.058-2.886.056-4.328.09-.162,0-.356-.082-.48.15.049.24.226.21.353.232a12.945,12.945,0,0,0,5.611.007,2.6,2.6,0,0,1,2.162.25.485.485,0,0,0,.669-.007,1.454,1.454,0,0,1,1.175-.342c1.151-.054,2.3-.126,3.453-.19a2,2,0,0,1,1.009.105c-.037.549-.5.2-.6.586a37.969,37.969,0,0,0,4.846-.307c1.567-.106,3.08-.6,4.63-.8a12.447,12.447,0,0,1,2.26-.265,2.781,2.781,0,0,0,1.828-.7,2.659,2.659,0,0,1,.9-.435.424.424,0,0,1,.507.587c-.376.706-.282,1.642-.81,2.27a1.216,1.216,0,0,1-.7.534,3.377,3.377,0,0,0-2,1.057,2.781,2.781,0,0,1-1.184.718c-.674.24-1.373.374-2.257.6a6.233,6.233,0,0,0,2-.277,6.644,6.644,0,0,1,1.4-.233,2.149,2.149,0,0,0,1.7-.807c.4-.582.822-.123,1.209-.277.046.187.174.4.29.22.284-.439.872.043,1.058-.588.077-.261.234-.355.411-.217.216.17.147.452.077.7-.095.327-.485.27-.572.7.374.264.888.211,1.034-.11.323-.716.88-.523,1.317-.757a2.559,2.559,0,0,1,1.466-.3c.158.014.363.185.392-.195.044-.557.388-.447.669-.454.415-.01.527.411.655.773a.8.8,0,0,1-.192.884,4.559,4.559,0,0,1-1.471.991c-.506.195-1.033.312-1.544.49-.367.128-.8.044-1.025.625-.1.267-.431.173-.663.191-1.3.1-2.591.185-3.887.285-2.828.218-5.647.6-8.483.667-3.307.083-6.619.12-9.918-.083-3.587-.222-7.18-.309-10.763-.74-2.106-.253-4.237-.345-6.359-.473a30,30,0,0,1-4.14-.434,15.4,15.4,0,0,0-2.032-.122c-1.382-.09-2.763-.251-4.146-.267-1.15-.013-2.3-.059-3.445-.071q-5.267-.056-10.534.039c-3.247.055-6.493.192-9.739.295-2.356.075-4.713.146-7.068.232-3.125.116-6.252.19-9.373.385-3.064.191-6.129.16-9.191.3-2.116.1-4.235.094-6.351.147-.892.022-1.832-.07-2.714-.008-1.382.1-2.763,0-4.139.128-1.852.167-3.712.135-5.565.262-2.061.141-4.125.2-6.188.308-1.885.1-3.764.317-5.651.4a34.579,34.579,0,0,0-5.977.542,21.9,21.9,0,0,1-3.882.264,3.336,3.336,0,0,1-.948-.246c-.408-.115-.739-.262-.531-.952.129-.427-.1-.58-.431-.57a4.612,4.612,0,0,1-1.424-.135c.488-.56,1.182-.289,1.7-.7-.034-.369-.273-.216-.41-.21a17.931,17.931,0,0,1-4.407-.319c-.289-.062-.621-.044-.7-.51s-.338-.448-.61-.377c-.375.1-.745.223-1.118.331a.212.212,0,0,1-.292-.151.3.3,0,0,1,.134-.354,2.827,2.827,0,0,1,1.739-.631,3.8,3.8,0,0,0,1.416-.458,4.018,4.018,0,0,0-2.133.071,15.964,15.964,0,0,0-2.624.421c-.363.125-.743-.149-1.078-.356-.235-.145-.225-.411.011-.6.32-.257.1-.432-.075-.548a1.992,1.992,0,0,0-.508-.164,2.911,2.911,0,0,1-.9-.422c-.947-.72-.968-1.293.041-2.145-.635-.065-.938-.672-1.409-.975a1.131,1.131,0,0,1-.6-1.174.32.32,0,0,0-.047-.188c-.56.022-.468-.7-.733-.97-.374-.375-.754-.659-.728-1.352.007-.171-.16-.163-.279-.169-.167-.009-.363.055-.448-.207a.319.319,0,0,1,.108-.288c.271-.271.734-.3.824-.769.07-.37-.41-.713-.133-1.193.024-.041-.14-.392-.356-.409a1.272,1.272,0,0,1-.765-.451c.511-.33.585-1.079,1.06-1.457-.2-.329-.508-.4-.735-.616-.2-.189-.537-.272-.232-.716a.377.377,0,0,0-.063-.29,1.8,1.8,0,0,1-.476-1.627c.048-.44-.263-.68-.555-.9s-.61-.339-.578-1.02a1.479,1.479,0,0,0-.927-1.162c-.221-.086-.471-.106-.613-.5.75-.528.652-1.488.691-2.367.011-.253.013-.407.208-.509s.132-.246.085-.444.318-.078.245-.291c-.035-.1-.274-.081-.406-.154a2.542,2.542,0,0,1-.8-1.143c-.177-.338.209-.642.474-.745.324-.126.641-.131.517-.747-.05-.252.172-.362.365-.331a5.057,5.057,0,0,1,.605.162.645.645,0,0,0,.8-.305,2.217,2.217,0,0,1,1.732-1.14c.741-.091.728-.186.52-1.107-.292-1.3-.016-2.005.955-2.154a2.762,2.762,0,0,0,.736-.352,2.508,2.508,0,0,1,1.954-.1,5.3,5.3,0,0,0,2.555.083c1.078-.212,2.163-.334,3.242-.539,3.378-.643,6.74-1.433,10.147-1.828,2.615-.3,5.236-.4,7.86-.476,3.358-.1,6.715-.061,10.067.07,2.12.083,4.243.21,6.365.3,3.5.149,7,.358,10.509.344a6.568,6.568,0,0,0,.968-.118,4.577,4.577,0,0,1,1.583.028,10.4,10.4,0,0,0,3.694.061,14.533,14.533,0,0,1,2.3-.09c1.883-.011,3.767.06,5.65-.1.7-.059,1.41.088,2.121.07,2.024-.053,4.05-.1,6.072-.037,1.794.058,3.583-.072,5.38.035,2.782.166,5.574.062,8.361.12,2.5.052,5,.16,7.5.26,4.532.182,9.065.33,13.6.324,1.388,0,2.775.051,4.163.083a1.158,1.158,0,0,0,.65-.076c-.051-.262-.391-.175-.392-.488.257-.194.511-.017.741.078a4.149,4.149,0,0,0,1.728.277,15.245,15.245,0,0,1,3.5.42,21.292,21.292,0,0,0,3.7.319c.884.027,1.755.192,2.636.247.665.041,1.338.287,1.968-.24.184-.154.389.043.57.208l-.473.244c1.455.116,2.8.34,4.14.465,1.489.138,2.964.387,4.444.6.235.034.536.243.575-.337.018-.292.248-.244.423-.222.878.112,1.759.2,2.631.352a5.177,5.177,0,0,0,1.146.078c1.343-.058,2.686-.136,4.028-.214.266-.016.548-.088.771.13a2.468,2.468,0,0,0,2.4.491c.6-.091,1.313-.391,1.941.13a1.186,1.186,0,0,0,.865.176c.882-.047,1.749.286,2.634.153.161-.024.408-.069.447.2.06.409-.244.3-.421.356a.608.608,0,0,0-.421.275c.714.585,1.483.33,2.226.372.04-.387-.125-.455-.3-.513-.111-.036-.244-.054-.2-.267.032-.14.062-.288.185-.353.053-.028.121-.074.167-.055.219.094.6.169.621.322.13.834,1.515.45,1.061,1.786a.885.885,0,0,0-1.269-.069.865.865,0,0,1-.847.159c-.331-.1-.624.043-.974.345l1.3.661c-.947,1.376-2.316,1.581-3.549,2.143-.042-.308.017-.677-.431-.582s-.941.208-1.185-.526c-.079-.236-.283-.134-.362,0-.3.482-.675.352-1.047.257a.964.964,0,0,0-.967.128c-.138-.22.405-.624-.175-.608-.141,0-.316-.151-.422,0-.333.456-.853.369-1.279.758.577-.4.621.558,1,.493a3.077,3.077,0,0,1,1.22-.083,2.91,2.91,0,0,1,.6.182A3.016,3.016,0,0,0,1924.916,711.42Zm.324,9.456c-.244.083-.541-.057-.817.259.493.025.493.025.807-.276.355.187.644.019.906-.275C1925.853,720.756,1925.524,720.7,1925.24,720.876Zm-66.68,15.634a4.985,4.985,0,0,0-2.311-.008l-3.369.1c.964.089,1.922.093,2.88.086.171,0,.358.011.48-.2a3.338,3.338,0,0,0,2.31.005c.254.021.516.3.828-.01C1859.049,736.292,1858.807,736.456,1858.559,736.509Zm-48.716-1.7a4.546,4.546,0,0,0,2.458-.125c-.2-.139-.283-.248-.345-.232a2.526,2.526,0,0,1-1.475.067.607.607,0,0,0-.63.309,2.046,2.046,0,0,0-.2-.194c-.11-.08-.237-.078-.26.1s.112.227.229.207A.756.756,0,0,0,1809.844,734.812ZM1849.554,737a1.757,1.757,0,0,0-1.432-.372c-.75.005-1.49.18-2.246.2-.7.016-1.489-.249-2.268.344.5-.133.839.179,1.224.191,1.5.049,2.993-.265,4.495-.206.07,0,.142-.113.213-.175l2.6-.084a3.983,3.983,0,0,0-2.4-.231C1849.617,736.689,1849.573,736.852,1849.554,737Zm28.19-3.445a.362.362,0,0,0-.38-.235c-3.476-.017-6.932-.6-10.41-.562-.674.007-1.359-.256-2.022-.182-1.352.152-2.7-.018-4.048.063a2.549,2.549,0,0,1-.88-.071,5.263,5.263,0,0,0-1.752-.092c-1.8.069-3.59.2-5.386.273-.437.018-.914-.236-1.31-.094a9.361,9.361,0,0,1-2.887.13,31.527,31.527,0,0,1-5.445.2c-.64-.079-1.2.32-1.817.318-2.74-.012-5.473.228-8.21.355-1.855.086-3.709.226-5.565.286a34.411,34.411,0,0,1-5.3.117,1.628,1.628,0,0,0-1.548.4c.068.183.13.258.227.253,1.023-.043,2.047-.164,3.068-.112a19.642,19.642,0,0,1,2.707-.114c.531.1,1.06.047,1.586.1.562.061,1.095-.183,1.661-.142,1.432.1,2.865,0,4.3-.031.338-.008.533-.321.894-.27a4.38,4.38,0,0,0,3.077-.174c.11-.066.294,0,.426.058a2.158,2.158,0,0,0,.964.12c1.149-.014,2.3-.023,3.447-.063,3.319-.115,6.638-.317,9.957-.344,2.374-.019,4.742-.239,7.118-.227.848,0,1.7-.05,2.556-.058,2.795-.027,5.591-.027,8.387-.018.705,0,1.412.135,2.115.1a25.927,25.927,0,0,1,3.156.009C1876.862,733.584,1877.3,733.557,1877.744,733.557Zm42.774-17.25c.229.379.589.234.718.416.35.491.707.3,1.085.168a.763.763,0,0,1,.839.13c.132.116.333.169.518-.2-.466.182-.4-.571-.853-.529C1922.1,716.357,1921.359,716.307,1920.518,716.307Zm-129.436,19.28a31.361,31.361,0,0,0,5.643-.3A28.23,28.23,0,0,0,1791.082,735.587Zm71.929-30.4a7.785,7.785,0,0,0,3.512.06A10.833,10.833,0,0,0,1863.011,705.19Zm-60.724,29.8a4.555,4.555,0,0,0,2.739-.044A6.028,6.028,0,0,0,1802.288,734.989Zm11.383-.348c2.024.286,2.966.217,3.6-.287A30.036,30.036,0,0,1,1813.671,734.641Zm87.806,3.522a1.814,1.814,0,0,0,1.548.158c.531-.137,1.05.176,1.581.009A9.768,9.768,0,0,0,1901.477,738.163Zm-83.54-3.535a4.542,4.542,0,0,0,2.092-.107C1819.312,733.933,1818.636,734.657,1817.937,734.629Zm90.1,3.675a2.546,2.546,0,0,0,2.36,0Zm-67.4-1.227a3.042,3.042,0,0,0-1.931.136C1839.471,737.991,1840.04,737.07,1840.643,737.076Zm84.272-11.419c.393.139.651-.109.941-.117.268-.007.231-.354.271-.591.02-.119-.008-.217-.1-.253-.159-.058-.278.056-.389.175C1925.414,725.106,1925.2,725.344,1924.915,725.657Zm-58.36,10.522a8.6,8.6,0,0,0,2.879,0Zm-59.134,1.738a7.435,7.435,0,0,0-2.158.079A7.114,7.114,0,0,0,1807.421,737.918Zm98.225.411a1.815,1.815,0,0,0,1.8.071C1906.893,738.1,1906.336,738.315,1905.646,738.328Zm7.955.612c.655.57,1.12-.224,1.639-.1A2.987,2.987,0,0,0,1913.6,738.941Zm-106.2-4.262c0,.089.005.178.008.266.365,0,.73.012,1.095-.006.129-.007.2-.152.163-.31-.026-.106-.141-.179-.211-.123C1808.129,734.769,1807.757,734.681,1807.4,734.678Zm122.188-13.906c.14-.047.258-.183.215-.209-.309-.192-.4-.7-.757-.8-.09-.025-.289.108-.212.23A2.031,2.031,0,0,0,1929.585,720.772Zm-18.139,17.664c.379-.1.815.159,1.3-.191A1.5,1.5,0,0,0,1911.445,738.437Zm-87.964-.949a4.57,4.57,0,0,0,1.763,0ZM1848.322,705a1.539,1.539,0,0,0-1.133-.06A1.08,1.08,0,0,0,1848.322,705Zm9.893.16a3.811,3.811,0,0,0-1.706-.06A3.108,3.108,0,0,0,1858.215,705.165ZM1884,736.876c0-.023.007-.047.009-.07l-1.2-.1c0,.057,0,.114,0,.171Zm-66.015.631h-1.287A1.851,1.851,0,0,0,1817.981,737.507Zm24.774-32.422c.007.057.015.114.023.171l1.264-.086c0-.028,0-.057,0-.085Zm19.526.047h-.857C1861.711,705.3,1861.992,705.482,1862.281,705.132Zm55.231.9c-.28-.179-.492-.064-.756.146C1917.087,706.405,1917.309,706.357,1917.512,706.034Zm-23.253,31.518a5.123,5.123,0,0,0-.621-.1c-.162-.006-.345-.078-.478.12C1893.5,737.738,1893.836,737.586,1894.259,737.552Zm-48.117-32.634c-.21.058-.454-.163-.7.169A.855.855,0,0,0,1846.142,704.919Zm43.895,32.352-.031.072h.881v-.072Zm23.035,1.011a1.071,1.071,0,0,0,.957-.068C1913.732,738.041,1913.5,738.135,1913.071,738.283Zm-113.82-3.188a1.048,1.048,0,0,0,.9-.009A1.225,1.225,0,0,0,1799.251,735.094Zm81.135,1.47a.938.938,0,0,0-.889.071A.819.819,0,0,0,1880.386,736.564Zm.546.116a1.03,1.03,0,0,0,.979-.022C1881.511,736.59,1881.27,736.439,1880.932,736.68Zm-15.066-.354a.4.4,0,0,0-.578-.061C1865.468,736.291,1865.61,736.595,1865.866,736.326Zm-81.892-30.282a1.52,1.52,0,0,0,.964-.276A.83.83,0,0,0,1783.974,706.044Zm115.811,32.194c.367-.022.635.142,1-.1A1.4,1.4,0,0,0,1899.785,738.238Zm-88.9-.511c-.267-.035-.425-.117-.567.047C1810.487,737.882,1810.643,737.836,1810.89,737.727Zm-4.648-2.811a.241.241,0,0,0,.3-.171c.043-.145-.088-.146-.16-.15-.118-.006-.247.007-.253.2C1806.13,734.839,1806.207,734.882,1806.242,734.916Zm120.93-6.1c.286-.057.521.07.713-.343C1927.617,728.483,1927.4,728.448,1927.172,728.815Zm-105.413,8.7c.047.043.094.122.134.117.121-.014.346.076.322-.125C1822.2,737.391,1821.918,737.3,1821.759,737.511Zm49.762-1.192c-.09-.11-.214-.187-.33-.071Zm-58.428,1.373c.021.052.026.095.044.106a.6.6,0,0,0,.507.035.08.08,0,0,0,.023-.15.879.879,0,0,0-.333-.077A.74.74,0,0,0,1813.093,737.692Zm42.849-32.6a.211.211,0,0,0-.245-.2c-.047,0-.128.046-.133.085-.028.182.082.224.195.238A.145.145,0,0,0,1855.942,705.1Zm22.419,31.346a.478.478,0,0,0,.444.005C1878.659,736.417,1878.514,736.329,1878.36,736.442Zm16.43-1.985a.753.753,0,0,0-.174-.024.372.372,0,0,0-.117.057.742.742,0,0,0,.156.018A.544.544,0,0,0,1894.791,734.457Zm-85.527,3.273a1.443,1.443,0,0,0-.253-.015c-.031,0-.058.058-.086.088a1.182,1.182,0,0,0,.23.04C1809.183,737.844,1809.212,737.785,1809.264,737.73Zm33.041-.653a.3.3,0,0,0,.432.13.088.088,0,0,0,.023-.154A.311.311,0,0,0,1842.3,737.077Zm82.507-7.812a.781.781,0,0,0,.182-.187c.038-.076-.014-.139-.083-.1a1.8,1.8,0,0,0-.218.161Zm-45.7,4.336c-.073-.046-.118-.1-.158-.094a1.065,1.065,0,0,0-.228.067c.041.03.083.084.125.084A1.269,1.269,0,0,0,1879.112,733.6Zm2.285.235.116-.059a.648.648,0,0,0-.162-.034c-.039,0-.078.035-.117.055C1881.288,733.812,1881.343,733.825,1881.4,733.837Zm33.972,4.211.162-.031a.375.375,0,0,0-.117-.06.642.642,0,0,0-.16.02Z" transform="translate(-1765.385 -701.885)" fill="#750000" fill-rule="evenodd"/>
</svg>
