<svg xmlns="http://www.w3.org/2000/svg" width="59.667" height="6" viewBox="0 0 59.667 6">
  <g id="グループ_1525" data-name="グループ 1525" transform="translate(-3327.101 -775.139)">
    <path id="パス_826" data-name="パス 826" d="M3384.88,775.218c-.151.415-.119.743.082.817a1.985,1.985,0,0,0,.635.107c.338.01.567.5.764,1.108a1.332,1.332,0,0,1,.008.695c-.066.225-.008.277.051.313s.139.1.218.062c.057-.03.129.049.131.236s-.071.122-.116.157c-.1.079-.225.044-.268.386-.011.085-.049.115-.081.12-.15.024-.283.235-.439.217-.112-.012-.216.052-.289.361a.512.512,0,0,1-.317.386,1.827,1.827,0,0,1-.846.177c-.209.009-.421.062-.631.067-.345.008-.684.157-1.031.144-.5-.021-1,.086-1.5.1-.363.012-.727-.073-1.09-.041a5.052,5.052,0,0,0-.814.026,2.8,2.8,0,0,1-.633-.007c-.368.008-.736-.009-1.1.026-.829.078-1.658.153-2.489.153-.369,0-.738-.057-1.107-.061-.443-.005-.885.044-1.327.047a18.093,18.093,0,0,1-1.937.036,8.743,8.743,0,0,0-1.076.043c-.2.005-.405-.017-.608-.025l-1.036-.041c-.364-.015-.728.017-1.092-.006-.2-.013-.405.033-.605.034-.3,0-.6.036-.9.011a5.289,5.289,0,0,0-.785.046c-.266.018-.532.024-.8.033-.1,0-.193,0-.289,0-.53,0-1.06-.005-1.59.019-.378.017-.756.1-1.134.117a12.1,12.1,0,0,1-1.649-.025,11.065,11.065,0,0,0-2.258.058c-.415.044-.832-.005-1.247.018-.655.036-1.308-.062-1.962-.073-.534-.009-1.068-.07-1.6-.1a9.356,9.356,0,0,1-.951-.057,8.481,8.481,0,0,0-1.31-.039c-.343,0-.683-.116-1.027-.089-.153.011-.317-.114-.477-.145a8.23,8.23,0,0,0-1.891-.253,4.23,4.23,0,0,1-1.268-.122,15.635,15.635,0,0,1-1.78-.329c-.227-.088-.452-.184-.678-.284s-.439-.147-.658-.233c-.269-.106-.54-.163-.809-.269-.441-.174-.889-.229-1.329-.428-.3-.133-.6-.206-.889-.363a8.587,8.587,0,0,0-1.053-.439c-.06-.023-.129,0-.153-.221-.015-.134-.077-.1-.122-.112-.08-.027-.165.054-.254-.041.057-.144.125-.089.183-.173-.194-.029-.388-.067-.583-.085-.42-.039-.839-.088-1.259-.1-.253,0-.506.083-.759.086a3.221,3.221,0,0,1-.729-.082,4.345,4.345,0,0,0-1.753-.036c-.178.034-.367.132-.531.08a2.924,2.924,0,0,1-.75-.3,6.914,6.914,0,0,0-.854-.4,7.269,7.269,0,0,0-2.12-.529.606.606,0,0,1-.271-.141,2.374,2.374,0,0,0-.87-.435c-.017,0-.033-.029-.065-.057.06-.1.115-.119.165-.106.31.084.621-.061.931.11a2.456,2.456,0,0,0,.939.137,3.648,3.648,0,0,1,.977.295,4.636,4.636,0,0,0,2.059.633c.309-.018.618-.07.927-.058s.618.1.927.123a13.3,13.3,0,0,0,1.676-.1c.277-.016.555.012.833.019.479.013.958.084,1.437.127.178.016.361-.107.545-.123a2.7,2.7,0,0,1,1.032.116,3.75,3.75,0,0,0,.8.05c.591.058,1.18.168,1.771.257a7.862,7.862,0,0,0,1.522.137c.418-.018.84,0,1.261.017.438.015.874-.069,1.313-.037a8.056,8.056,0,0,1,1.021.075,5.215,5.215,0,0,0,.755.142,6.691,6.691,0,0,0,.933-.016c.551-.051,1.1-.017,1.654-.089a6.964,6.964,0,0,0,.937-.12c.117-.031.234.049.355.033a6.554,6.554,0,0,1,1.408-.095,15.694,15.694,0,0,0,1.631-.02c.415-.009.83-.078,1.243-.094a2.044,2.044,0,0,1,.883.032.326.326,0,0,0,.219-.027c.341-.108.68.07,1.021.035.313-.033.625-.051.938-.076.444-.036.887-.013,1.331-.08a13.266,13.266,0,0,1,1.79-.1c.561-.008,1.121-.079,1.682-.1.5-.023,1-.027,1.5-.029.8,0,1.6-.028,2.4.016.668.036,1.337.045,2.005.039.824-.007,1.649-.068,2.473-.093.3-.009.607.029.911.025a2.786,2.786,0,0,1,.573-.056,10.3,10.3,0,0,0,1.347-.08,2.264,2.264,0,0,0,.63-.1,2.443,2.443,0,0,1,.844-.018c.182.023.367-.144.547.048.309-.287.635-.08.952-.2.256-.1.525.031.784-.039a4.206,4.206,0,0,0,.947-.189c.1-.053.216-.02.325-.047a7.275,7.275,0,0,1,1.249-.257c.446-.028.89-.138,1.335-.188.5-.055.994-.1,1.491-.141C3384.518,775.125,3384.687,775.338,3384.88,775.218Zm-45.708,2.4c.136.273.292.375.461.382a.587.587,0,0,1,.276.022,2.463,2.463,0,0,0,.739.247c.431.08.86.206,1.291.29a3.138,3.138,0,0,0,1.049.122c.107-.016.216-.075.335-.085a.964.964,0,0,0-.024-.111c-.055-.117-.116-.02-.174-.024a11.053,11.053,0,0,1-1.277-.351c-.529-.1-1.052-.328-1.583-.376A8.024,8.024,0,0,1,3339.172,777.623Zm4.913,1.156c.057.128.111.182.185.185.225.011.451-.237.675.011.008.008.018,0,.027,0,.323-.028.645-.189.97-.072.031.011.074.013.079-.089.006-.122-.041-.106-.07-.109a4.317,4.317,0,0,0-.564-.049,2.917,2.917,0,0,1-.636-.1A.632.632,0,0,0,3344.085,778.779Zm-5.968-1.292c.123.123.246.153.37.051C3338.366,777.38,3338.24,777.492,3338.117,777.487Z" fill="#750000" fill-rule="evenodd"/>
    <path id="パス_827" data-name="パス 827" d="M3557.45,793.769c2.339.208,4.67.215,7,.3,3.4.12,6.748.705,10.132.945,2.733.2,5.421.824,8.172.883.369.009.762-.234,1.114.059a1.441,1.441,0,0,1,.154.278c-.758.026-1.457.173-2.143.213a49.952,49.952,0,0,1-6.715-.307c-2.758-.213-5.5-.529-8.261-.731a34.948,34.948,0,0,1-4.73-.62,9.351,9.351,0,0,0-1.764-.055A4.721,4.721,0,0,1,3557.45,793.769Z" transform="translate(-223.152 -16.97)" fill="#750000" fill-rule="evenodd"/>
    <path id="パス_828" data-name="パス 828" d="M3651.2,801.227a8.449,8.449,0,0,1,4.271-.561c1.345.108,2.709.251,4.073.24,1.2-.009,2.408.069,3.61.122.187.008.484-.033.446.274-.032.258-.305.254-.507.225a35.47,35.47,0,0,0-6.211.181c-.059,0-.127.032-.175.012-1.435-.622-2.882,0-4.321-.027A1.685,1.685,0,0,1,3651.2,801.227Z" transform="translate(-310.198 -22.489)" fill="#750000" fill-rule="evenodd"/>
    <path id="パス_829" data-name="パス 829" d="M3537.314,792.579a4.969,4.969,0,0,1,2.366.127A3.4,3.4,0,0,1,3537.314,792.579Z" transform="translate(-152.913 -15.129)" fill="#750000" fill-rule="evenodd"/>
  </g>
</svg>
