<svg xmlns="http://www.w3.org/2000/svg" width="227.667" height="6" viewBox="0 0 227.667 6">
  <g id="グループ_1528" data-name="グループ 1528" transform="translate(-3327.101 -775.139)">
    <path id="パス_826" data-name="パス 826" d="M3547.566,775.218c-.578.415-.453.743.312.817.8.077,1.615.1,2.424.107a4.407,4.407,0,0,1,2.914,1.108.432.432,0,0,1,.031.695c-.251.225-.029.277.193.313a2.7,2.7,0,0,0,.83.062c.219-.03.492.049.5.236s-.272.122-.441.157c-.38.079-.858.044-1.024.386-.041.085-.187.115-.307.12-.571.024-1.082.235-1.678.217a1.342,1.342,0,0,0-1.1.361,2.155,2.155,0,0,1-1.208.386,24.743,24.743,0,0,1-3.229.177c-.8.009-1.605.062-2.408.067-1.314.008-2.611.157-3.936.144-1.909-.021-3.82.086-5.731.1-1.386.012-2.774-.073-4.157-.041-1.036.024-2.071-.042-3.106.026-.8.053-1.611-.012-2.417-.007-1.4.008-2.81-.009-4.211.026-3.165.078-6.329.153-9.5.153-1.41,0-2.816-.057-4.224-.061-1.689-.005-3.376.044-5.063.047-2.464.005-4.925.1-7.393.036-1.365-.035-2.734.034-4.1.043-.774.005-1.545-.017-2.318-.025l-3.953-.041c-1.389-.015-2.777.017-4.168-.006-.759-.013-1.546.033-2.31.034-1.147,0-2.3.036-3.449.011-.99-.021-2,.028-2.995.046-1.015.018-2.031.024-3.047.033-.367,0-.734,0-1.1,0-2.022,0-4.046-.005-6.068.019-1.442.017-2.884.1-4.327.117-2.1.021-4.192.029-6.292-.025-2.869-.074-5.744-.023-8.615.058-1.584.044-3.173-.005-4.759.018-2.5.036-4.99-.062-7.486-.073-2.037-.009-4.074-.07-6.113-.1-1.208-.021-2.42,0-3.627-.057-1.667-.073-3.334-.034-5-.039-1.307,0-2.606-.116-3.918-.089-.585.011-1.209-.114-1.818-.145-2.4-.123-4.805-.279-7.214-.253-1.621.017-3.24-.01-4.839-.122-2.259-.158-4.539-.1-6.79-.329-.864-.088-1.726-.184-2.586-.284-.831-.1-1.676-.147-2.51-.233-1.025-.106-2.059-.163-3.086-.269-1.684-.174-3.392-.229-5.072-.428-1.128-.133-2.273-.206-3.393-.363-1.331-.186-2.675-.306-4.019-.439-.229-.023-.491,0-.584-.221-.056-.134-.3-.1-.465-.112a4.7,4.7,0,0,1-.968-.041c.218-.144.479-.089.7-.173-.742-.029-1.483-.067-2.224-.085-1.6-.039-3.2-.088-4.8-.1-.966,0-1.932.083-2.9.086-.928,0-1.858-.029-2.783-.082a62.621,62.621,0,0,0-6.69-.036,16.328,16.328,0,0,1-2.028.08c-.95-.079-1.927-.138-2.863-.3-1.077-.181-2.174-.268-3.261-.4-2.675-.331-5.382-.423-8.089-.529a6.253,6.253,0,0,1-1.035-.141,25.187,25.187,0,0,0-3.318-.435,2.043,2.043,0,0,1-.248-.057,1.288,1.288,0,0,1,.63-.106c1.181.084,2.371-.061,3.554.11a34.426,34.426,0,0,0,3.584.137c1.253.047,2.493.149,3.727.295a58.847,58.847,0,0,0,7.856.633c1.18-.018,2.359-.07,3.536-.058s2.359.1,3.539.123c2.133.04,4.264-.07,6.395-.1,1.058-.016,2.116.012,3.176.019,1.829.013,3.656.084,5.483.127.679.016,1.376-.107,2.081-.123a38.252,38.252,0,0,1,3.939.116c1.022.084,2.045.024,3.069.05,2.253.058,4.5.168,6.755.257,1.932.077,3.863.16,5.809.137,1.6-.018,3.207,0,4.811.017,1.668.015,3.334-.069,5.009-.037,1.3.025,2.605.006,3.9.075.958.051,1.931.129,2.88.142,1.18.015,2.372.013,3.559-.016,2.1-.051,4.211-.017,6.312-.089,1.191-.041,2.385-.036,3.574-.12.446-.031.893.049,1.355.033,1.788-.062,3.574-.134,5.372-.095,2.073.046,4.15-.009,6.226-.02,1.583-.009,3.165-.078,4.745-.094a29.376,29.376,0,0,1,3.369.032,4.523,4.523,0,0,0,.835-.027c1.3-.108,2.6.07,3.9.035,1.192-.033,2.385-.051,3.579-.076,1.693-.036,3.385-.013,5.08-.08,2.272-.089,4.551-.092,6.829-.1,2.139-.008,4.278-.079,6.418-.1,1.914-.023,3.828-.027,5.741-.029,3.049,0,6.1-.028,9.147.016q3.826.054,7.652.039c3.146-.007,6.291-.068,9.438-.093,1.158-.009,2.317.029,3.477.025.729,0,1.463-.093,2.184-.056,1.722.089,3.425-.11,5.139-.08.806.014,1.6-.055,2.4-.1,1.068-.063,2.15-.052,3.222-.018a8.581,8.581,0,0,1,2.085.048,26.651,26.651,0,0,1,3.632-.2c.977-.1,2,.031,2.994-.039,1.2-.085,2.417-.029,3.613-.189.394-.053.825-.02,1.241-.047,1.586-.1,3.175-.231,4.766-.257,1.7-.028,3.394-.138,5.093-.188q2.845-.083,5.69-.141A13.471,13.471,0,0,0,3547.566,775.218Zm-174.4,2.4a3.83,3.83,0,0,0,1.761.382,8.348,8.348,0,0,1,1.052.022c.931.133,1.87.2,2.819.247,1.644.08,3.28.206,4.924.29,1.334.069,2.665.173,4,.122.408-.016.826-.075,1.277-.085-.06-.073-.068-.1-.093-.111-.209-.117-.443-.02-.664-.024-1.639-.023-3.242-.273-4.872-.351-2.017-.1-4.014-.328-6.039-.376C3375.945,777.708,3374.555,777.706,3373.161,777.623Zm18.747,1.156a1.314,1.314,0,0,0,.707.185,9.412,9.412,0,0,1,2.576.011.416.416,0,0,0,.1,0,31.673,31.673,0,0,1,3.7-.072c.12.011.282.013.3-.089.023-.122-.154-.106-.266-.109-.716-.021-1.434-.052-2.152-.049-.812,0-1.626-.052-2.428-.1A7.374,7.374,0,0,0,3391.908,778.779Zm-22.774-1.292a2.988,2.988,0,0,0,1.412.051A4.4,4.4,0,0,0,3369.134,777.487Z" fill="#750000" fill-rule="evenodd"/>
    <path id="パス_827" data-name="パス 827" d="M3557.45,793.769c5.274.208,10.529.215,15.771.3,7.662.12,15.213.705,22.842.945,6.163.2,12.223.824,18.424.883a7.45,7.45,0,0,1,2.512.059c.089.034.122.094.347.278-1.708.026-3.285.173-4.831.213-5.062.129-10.095-.134-15.14-.307-6.217-.213-12.408-.529-18.625-.731-3.588-.118-7.142-.287-10.664-.62-1.276-.12-2.65-.046-3.978-.055A20.788,20.788,0,0,1,3557.45,793.769Z" transform="translate(-214.123 -16.97)" fill="#750000" fill-rule="evenodd"/>
    <path id="パス_828" data-name="パス 828" d="M3651.2,801.227a41.524,41.524,0,0,1,9.63-.561c3.033.108,6.107.251,9.182.24,2.713-.009,5.429.069,8.139.122.421.008,1.092-.033,1,.274-.072.258-.687.254-1.142.225-4.692-.294-9.338.111-14,.181a2.376,2.376,0,0,1-.4.012c-3.235-.622-6.5,0-9.743-.027A7,7,0,0,1,3651.2,801.227Z" transform="translate(-265.348 -22.489)" fill="#750000" fill-rule="evenodd"/>
    <path id="パス_829" data-name="パス 829" d="M3537.314,792.579a24.88,24.88,0,0,1,5.335.127A16.812,16.812,0,0,1,3537.314,792.579Z" transform="translate(12.119 -15.129)" fill="#750000" fill-rule="evenodd"/>
  </g>
</svg>
