<svg xmlns="http://www.w3.org/2000/svg" width="140.867" height="6" viewBox="0 0 140.867 6">
  <g id="グループ_2331" data-name="グループ 2331" transform="translate(-3327.101 -775.139)">
    <path id="パス_826" data-name="パス 826" d="M3463.512,775.218c-.357.415-.28.743.192.817a10.645,10.645,0,0,0,1.5.107,2.294,2.294,0,0,1,1.8,1.108.609.609,0,0,1,.019.695c-.155.225-.019.277.119.313a1.058,1.058,0,0,0,.514.062.246.246,0,0,1,.308.236c.006.194-.167.122-.273.157-.234.079-.531.044-.633.386a.2.2,0,0,1-.19.12,8.594,8.594,0,0,1-1.038.217.667.667,0,0,0-.682.361,1.046,1.046,0,0,1-.748.386,9.555,9.555,0,0,1-2,.177c-.494.009-.993.062-1.49.067-.813.008-1.616.157-2.435.144-1.181-.021-2.364.086-3.546.1-.857.012-1.716-.073-2.572-.041-.641.024-1.281-.042-1.922.026-.495.053-1-.012-1.495-.007-.869.008-1.739-.009-2.606.026-1.958.078-3.915.153-5.875.153-.872,0-1.742-.057-2.614-.061-1.045-.005-2.089.044-3.132.047-1.525.005-3.048.1-4.574.036-.844-.035-1.692.034-2.54.043-.478.005-.956-.017-1.435-.025l-2.445-.041c-.86-.015-1.719.017-2.579-.006-.471-.013-.957.033-1.429.034-.71,0-1.422.036-2.134.011-.612-.021-1.235.028-1.853.046s-1.257.024-1.885.033c-.227,0-.455,0-.682,0-1.252,0-2.5-.005-3.755.019-.892.017-1.785.1-2.677.117-1.3.021-2.595.029-3.893-.025-1.775-.074-3.555-.023-5.332.058-.98.044-1.963-.005-2.944.018-1.545.036-3.088-.062-4.633-.073-1.26-.009-2.521-.07-3.781-.1-.749-.021-1.5,0-2.245-.057-1.031-.073-2.063-.034-3.093-.039-.809,0-1.612-.116-2.424-.089a10.652,10.652,0,0,1-1.125-.145c-1.485-.123-2.973-.279-4.463-.253a23.215,23.215,0,0,1-2.994-.122c-1.4-.158-2.808-.1-4.2-.329-.534-.088-1.067-.184-1.6-.284-.514-.1-1.036-.147-1.552-.233-.634-.106-1.274-.163-1.91-.269-1.042-.174-2.1-.229-3.138-.428-.7-.133-1.407-.206-2.1-.363-.824-.186-1.656-.306-2.487-.439-.142-.023-.3,0-.362-.221-.035-.134-.182-.1-.288-.112-.19-.027-.389.054-.6-.041.136-.144.3-.089.431-.173-.458-.029-.917-.067-1.375-.085-.991-.039-1.981-.088-2.973-.1-.6,0-1.2.083-1.792.086-.574,0-1.149-.029-1.723-.082a24,24,0,0,0-4.139-.036,6.282,6.282,0,0,1-1.255.08,13.642,13.642,0,0,1-1.772-.3c-.665-.181-1.345-.268-2.017-.4a37.47,37.47,0,0,0-5.006-.529,2.515,2.515,0,0,1-.64-.141,10.04,10.04,0,0,0-2.053-.435.862.862,0,0,1-.154-.057.536.536,0,0,1,.39-.106,18.56,18.56,0,0,1,2.2.11,13.232,13.232,0,0,0,2.217.137,18.206,18.206,0,0,1,2.306.295,22.92,22.92,0,0,0,4.861.633c.73-.018,1.459-.07,2.188-.058s1.459.1,2.189.123c1.32.04,2.637-.07,3.956-.1.655-.016,1.31.012,1.965.019,1.131.013,2.262.084,3.393.127.42.016.851-.107,1.288-.123a14.693,14.693,0,0,1,2.437.116c.633.084,1.266.024,1.9.05,1.4.058,2.787.168,4.18.257,1.2.077,2.39.16,3.595.137.988-.018,1.984,0,2.976.017,1.033.015,2.063-.069,3.1-.037.8.025,1.612.006,2.412.075.593.051,1.2.129,1.783.142.729.015,1.467.013,2.2-.016,1.3-.051,2.6-.017,3.9-.089.737-.041,1.476-.036,2.211-.12.276-.031.552.049.839.033,1.106-.062,2.211-.134,3.323-.095,1.283.046,2.568-.009,3.852-.02.979-.009,1.958-.078,2.936-.094a11.269,11.269,0,0,1,2.085.032,1.741,1.741,0,0,0,.517-.027c.805-.108,1.606.07,2.41.035.738-.033,1.476-.051,2.214-.076,1.048-.036,2.1-.013,3.143-.08,1.406-.089,2.817-.092,4.226-.1,1.324-.008,2.647-.079,3.971-.1,1.185-.023,2.369-.027,3.553-.029,1.887,0,3.773-.028,5.659.016,1.579.036,3.157.045,4.734.039,1.947-.007,3.893-.068,5.84-.093.717-.009,1.434.029,2.151.025.451,0,.905-.093,1.352-.056,1.065.089,2.119-.11,3.179-.08a12.178,12.178,0,0,0,1.488-.1,13.521,13.521,0,0,1,1.993-.018c.431.023.868-.144,1.291.048a10.292,10.292,0,0,1,2.247-.2c.6-.1,1.24.031,1.853-.039a22.293,22.293,0,0,0,2.235-.189,7.439,7.439,0,0,1,.768-.047c.982-.1,1.964-.231,2.949-.257,1.053-.028,2.1-.138,3.151-.188q1.76-.083,3.521-.141C3462.656,775.125,3463.056,775.338,3463.512,775.218Zm-107.912,2.4a1.661,1.661,0,0,0,1.089.382,3.206,3.206,0,0,1,.651.022,12.006,12.006,0,0,0,1.745.247c1.017.08,2.03.206,3.046.29a17.107,17.107,0,0,0,2.478.122c.252-.016.51-.075.79-.085a.556.556,0,0,0-.057-.111c-.13-.117-.275-.02-.411-.024-1.015-.023-2.006-.273-3.014-.351-1.248-.1-2.483-.328-3.736-.376C3357.323,777.708,3356.463,777.706,3355.6,777.623Zm11.6,1.156a.6.6,0,0,0,.438.185c.531.011,1.064-.237,1.594.011.018.008.042,0,.064,0a12.15,12.15,0,0,1,2.291-.072c.074.011.175.013.187-.089.015-.122-.1-.106-.165-.109-.443-.021-.887-.052-1.331-.049-.5,0-1.007-.052-1.5-.1A2.91,2.91,0,0,0,3367.2,778.779Zm-14.091-1.292a1.171,1.171,0,0,0,.873.051C3353.7,777.38,3353.4,777.492,3353.109,777.487Z" transform="translate(0)" fill="#750000" fill-rule="evenodd"/>
    <path id="パス_827" data-name="パス 827" d="M3557.45,793.769c3.295.208,6.579.215,9.854.3,4.787.12,9.505.705,14.272.945,3.85.2,7.637.824,11.511.883.52.009,1.073-.234,1.569.059.056.034.076.094.217.278-1.068.026-2.052.173-3.019.213-3.163.129-6.307-.134-9.46-.307-3.884-.213-7.752-.529-11.637-.731-2.241-.118-4.462-.287-6.663-.62a18.528,18.528,0,0,0-2.486-.055A8.6,8.6,0,0,1,3557.45,793.769Z" transform="translate(-220.21 -16.97)" fill="#750000" fill-rule="evenodd"/>
    <path id="パス_828" data-name="パス 828" d="M3651.2,801.227a16.424,16.424,0,0,1,6.017-.561c1.9.108,3.816.251,5.737.24,1.695-.009,3.392.069,5.085.122.263.008.682-.033.627.274-.045.258-.43.254-.713.225a70.278,70.278,0,0,0-8.75.181.926.926,0,0,1-.247.012c-2.021-.622-4.06,0-6.087-.027A2.967,2.967,0,0,1,3651.2,801.227Z" transform="translate(-287.799 -22.489)" fill="#750000" fill-rule="evenodd"/>
    <path id="パス_829" data-name="パス 829" d="M3537.314,792.579a9.767,9.767,0,0,1,3.333.127A6.636,6.636,0,0,1,3537.314,792.579Z" transform="translate(-72.679 -15.129)" fill="#750000" fill-rule="evenodd"/>
  </g>
</svg>
