<svg xmlns="http://www.w3.org/2000/svg" width="100" height="6" viewBox="0 0 100 6">
  <g id="グループ_1691" data-name="グループ 1691" transform="translate(-3327.101 -775.139)">
    <path id="パス_826" data-name="パス 826" d="M3423.938,775.218c-.254.415-.2.743.137.817a5.408,5.408,0,0,0,1.065.107c.567.01.951.5,1.28,1.108a.819.819,0,0,1,.014.695c-.11.225-.013.277.085.313a.551.551,0,0,0,.364.062c.1-.03.216.049.219.236s-.12.122-.194.157c-.167.079-.377.044-.45.386a.146.146,0,0,1-.135.12c-.251.024-.475.235-.737.217-.187-.012-.361.052-.484.361a.708.708,0,0,1-.531.386,4.883,4.883,0,0,1-1.418.177c-.351.009-.705.062-1.058.067-.577.008-1.146.157-1.729.144-.838-.021-1.678.086-2.518.1-.608.012-1.218-.073-1.826-.041-.455.024-.909-.042-1.364.026a7.855,7.855,0,0,1-1.061-.007c-.617.008-1.234-.009-1.85.026-1.39.078-2.779.153-4.171.153-.619,0-1.237-.057-1.855-.061-.742-.005-1.483.044-2.224.047-1.082.005-2.163.1-3.247.036-.6-.035-1.2.034-1.8.043-.339.005-.679-.017-1.019-.025l-1.736-.041c-.611-.015-1.22.017-1.831-.006-.334-.013-.68.033-1.014.034-.5,0-1.01.036-1.516.011-.435-.021-.877.028-1.315.046s-.893.024-1.338.033c-.161,0-.323,0-.484,0-.888,0-1.777-.005-2.665.019-.633.017-1.267.1-1.9.117-.921.021-1.841.029-2.764-.025a31,31,0,0,0-3.784.058c-.7.044-1.394-.005-2.09.018-1.1.036-2.192-.062-3.288-.073-.9-.009-1.79-.07-2.686-.1-.531-.021-1.063,0-1.593-.057-.732-.073-1.465-.034-2.2-.039-.574,0-1.145-.116-1.721-.089a5.511,5.511,0,0,1-.8-.145,22.672,22.672,0,0,0-3.168-.253,11.73,11.73,0,0,1-2.125-.122c-.993-.158-1.994-.1-2.983-.329-.379-.088-.758-.184-1.136-.284s-.736-.147-1.1-.233c-.45-.106-.9-.163-1.355-.269-.74-.174-1.49-.229-2.228-.428-.5-.133-1-.206-1.49-.363-.585-.186-1.175-.306-1.765-.439-.1-.023-.216,0-.257-.221-.025-.134-.13-.1-.2-.112-.134-.027-.276.054-.425-.041.1-.144.21-.089.306-.173-.325-.029-.651-.067-.977-.085-.7-.039-1.407-.088-2.11-.1-.425,0-.849.083-1.272.086a8.919,8.919,0,0,1-1.223-.082,12.12,12.12,0,0,0-2.938-.036,3.192,3.192,0,0,1-.891.08,7.166,7.166,0,0,1-1.258-.3c-.472-.181-.955-.268-1.432-.4a19.21,19.21,0,0,0-3.554-.529,1.356,1.356,0,0,1-.454-.141,5.4,5.4,0,0,0-1.458-.435.526.526,0,0,1-.108-.057.3.3,0,0,1,.276-.106,9.39,9.39,0,0,1,1.561.11,6.72,6.72,0,0,0,1.574.137,9.413,9.413,0,0,1,1.638.295,11.862,11.862,0,0,0,3.45.633c.518-.018,1.036-.07,1.553-.058s1.036.1,1.554.123c.937.04,1.873-.07,2.809-.1.465-.016.93.012,1.4.019.8.013,1.605.084,2.408.127.3.016.6-.107.914-.123a7.441,7.441,0,0,1,1.73.116,10.473,10.473,0,0,0,1.348.05c.991.058,1.979.168,2.968.257a21.871,21.871,0,0,0,2.552.137c.7-.018,1.408,0,2.112.017.733.015,1.465-.069,2.2-.037.57.025,1.144.006,1.712.075.421.051.848.129,1.265.142.518.015,1.042.013,1.563-.016.923-.051,1.85-.017,2.772-.089.523-.041,1.048-.036,1.57-.12.2-.031.392.049.6.033a18.291,18.291,0,0,1,2.359-.095c.911.046,1.823-.009,2.734-.02.7-.009,1.391-.078,2.084-.094a5.692,5.692,0,0,1,1.48.032.885.885,0,0,0,.367-.027,13.363,13.363,0,0,1,1.711.035c.524-.033,1.048-.051,1.572-.076.743-.036,1.487-.013,2.231-.08,1-.089,2-.092,3-.1.939-.008,1.879-.079,2.819-.1.84-.023,1.681-.027,2.521-.029,1.339,0,2.679-.028,4.018.016,1.121.036,2.241.045,3.361.039,1.382-.007,2.764-.068,4.146-.093.509-.009,1.018.029,1.527.025a7.742,7.742,0,0,1,.959-.056c.756.089,1.5-.11,2.257-.08a6.187,6.187,0,0,0,1.057-.1,6.824,6.824,0,0,1,1.415-.018c.306.023.616-.144.917.048.518-.287,1.063-.08,1.6-.2.429-.1.88.031,1.314-.039a11.354,11.354,0,0,0,1.587-.189,3.774,3.774,0,0,1,.545-.047,19.6,19.6,0,0,1,2.093-.257c.748-.028,1.491-.138,2.237-.188q1.25-.083,2.5-.141C3423.331,775.125,3423.615,775.338,3423.938,775.218Zm-76.605,2.4a.992.992,0,0,0,.773.382,1.623,1.623,0,0,1,.462.022,6.232,6.232,0,0,0,1.238.247c.722.08,1.441.206,2.163.29a8.661,8.661,0,0,0,1.759.122c.179-.016.362-.075.561-.085a.661.661,0,0,0-.041-.111c-.092-.117-.2-.02-.292-.024-.72-.023-1.424-.273-2.14-.351-.886-.1-1.763-.328-2.652-.376C3348.556,777.708,3347.946,777.706,3347.333,777.623Zm8.234,1.156a.377.377,0,0,0,.311.185c.377.011.756-.237,1.131.011.013.008.03,0,.046,0a6.146,6.146,0,0,1,1.626-.072c.053.011.124.013.132-.089.01-.122-.068-.106-.117-.109-.314-.021-.63-.052-.945-.049a8.014,8.014,0,0,1-1.066-.1A1.535,1.535,0,0,0,3355.567,778.779Zm-10-1.292a.614.614,0,0,0,.62.051C3345.982,777.38,3345.771,777.492,3345.564,777.487Z" transform="translate(-0.001)" fill="#750000" fill-rule="evenodd"/>
    <path id="パス_827" data-name="パス 827" d="M3557.45,793.769c2.339.208,4.67.215,7,.3,3.4.12,6.748.705,10.132.945,2.733.2,5.421.824,8.172.883.369.009.762-.234,1.114.059a1.441,1.441,0,0,1,.154.278c-.758.026-1.457.173-2.143.213a49.952,49.952,0,0,1-6.715-.307c-2.758-.213-5.5-.529-8.261-.731a34.948,34.948,0,0,1-4.73-.62,9.351,9.351,0,0,0-1.764-.055A4.721,4.721,0,0,1,3557.45,793.769Z" transform="translate(-223.152 -16.97)" fill="#750000" fill-rule="evenodd"/>
    <path id="パス_828" data-name="パス 828" d="M3651.2,801.227a8.449,8.449,0,0,1,4.271-.561c1.345.108,2.709.251,4.073.24,1.2-.009,2.408.069,3.61.122.187.008.484-.033.446.274-.032.258-.305.254-.507.225a35.47,35.47,0,0,0-6.211.181c-.059,0-.127.032-.175.012-1.435-.622-2.882,0-4.321-.027A1.685,1.685,0,0,1,3651.2,801.227Z" transform="translate(-298.331 -22.489)" fill="#750000" fill-rule="evenodd"/>
    <path id="パス_829" data-name="パス 829" d="M3537.314,792.579a4.969,4.969,0,0,1,2.366.127A3.4,3.4,0,0,1,3537.314,792.579Z" transform="translate(-112.579 -15.129)" fill="#750000" fill-rule="evenodd"/>
  </g>
</svg>
