<svg xmlns="http://www.w3.org/2000/svg" width="143" height="6" viewBox="0 0 143 6">
  <g id="グループ_1526" data-name="グループ 1526" transform="translate(-3327.101 -775.139)">
    <path id="パス_826" data-name="パス 826" d="M3465.578,775.218c-.363.415-.284.743.2.817a10.947,10.947,0,0,0,1.522.107,2.335,2.335,0,0,1,1.83,1.108.6.6,0,0,1,.02.695c-.158.225-.019.277.121.313a1.089,1.089,0,0,0,.521.062.249.249,0,0,1,.313.236c.005.194-.171.122-.277.157-.238.079-.539.044-.643.386a.2.2,0,0,1-.193.12,8.848,8.848,0,0,1-1.054.217.68.68,0,0,0-.692.361c-.149.262-.479.323-.758.386a9.846,9.846,0,0,1-2.028.177c-.5.009-1.008.062-1.512.067-.825.008-1.64.157-2.472.144-1.2-.021-2.4.086-3.6.1-.87.012-1.742-.073-2.611-.041-.65.024-1.3-.042-1.951.026-.5.053-1.012-.012-1.518-.007-.881.008-1.764-.009-2.645.026-1.988.078-3.975.153-5.965.153-.886,0-1.769-.057-2.653-.061-1.061-.005-2.121.044-3.18.047-1.547.005-3.094.1-4.643.036-.857-.035-1.718.034-2.578.043-.486.005-.971-.017-1.456-.025l-2.483-.041c-.873-.015-1.745.017-2.618-.006-.477-.013-.971.033-1.451.034-.72,0-1.443.036-2.166.011-.622-.021-1.254.028-1.881.046s-1.276.024-1.914.033c-.23,0-.461,0-.692,0-1.27,0-2.541-.005-3.811.019-.906.017-1.812.1-2.718.117-1.316.021-2.633.029-3.952-.025-1.8-.074-3.608-.023-5.412.058-1,.044-1.993-.005-2.989.018-1.568.036-3.134-.062-4.7-.073-1.279-.009-2.559-.07-3.84-.1-.759-.021-1.521,0-2.278-.057-1.047-.073-2.095-.034-3.14-.039-.821,0-1.637-.116-2.461-.089a10.945,10.945,0,0,1-1.142-.145c-1.509-.123-3.018-.279-4.531-.253a23.923,23.923,0,0,1-3.04-.122c-1.419-.158-2.851-.1-4.265-.329-.542-.088-1.084-.184-1.624-.284-.522-.1-1.052-.147-1.577-.233-.644-.106-1.293-.163-1.939-.269-1.057-.174-2.13-.229-3.186-.428-.708-.133-1.428-.206-2.131-.363-.836-.186-1.68-.306-2.524-.439-.144-.023-.309,0-.367-.221-.036-.134-.186-.1-.292-.112-.193-.027-.4.054-.608-.041.137-.144.3-.089.438-.173-.466-.029-.932-.067-1.4-.085-1.006-.039-2.012-.088-3.018-.1-.607,0-1.213.083-1.82.086-.583,0-1.167-.029-1.748-.082a24.735,24.735,0,0,0-4.2-.036,6.472,6.472,0,0,1-1.273.08,14.031,14.031,0,0,1-1.8-.3c-.676-.181-1.366-.268-2.048-.4a38.582,38.582,0,0,0-5.081-.529,2.578,2.578,0,0,1-.65-.141,10.34,10.34,0,0,0-2.084-.435.9.9,0,0,1-.156-.057.549.549,0,0,1,.4-.106,19.1,19.1,0,0,1,2.232.11,13.648,13.648,0,0,0,2.251.137,18.756,18.756,0,0,1,2.341.295,23.6,23.6,0,0,0,4.934.633c.741-.018,1.482-.07,2.221-.058s1.482.1,2.222.123c1.34.04,2.678-.07,4.017-.1.664-.016,1.329.012,1.995.019,1.148.013,2.3.084,3.444.127.427.016.864-.107,1.307-.123a15.137,15.137,0,0,1,2.474.116c.643.084,1.285.024,1.928.05,1.416.058,2.829.168,4.243.257,1.213.077,2.426.16,3.648.137,1-.018,2.015,0,3.022.017,1.048.015,2.094-.069,3.146-.037.815.025,1.637.006,2.449.075.6.051,1.213.129,1.809.142.741.015,1.49.013,2.236-.016,1.32-.051,2.645-.017,3.964-.089.749-.041,1.5-.036,2.245-.12.28-.031.561.049.852.033,1.123-.062,2.245-.134,3.374-.095,1.3.046,2.607-.009,3.911-.02.994-.009,1.988-.078,2.98-.094a11.6,11.6,0,0,1,2.116.032,1.8,1.8,0,0,0,.525-.027c.817-.108,1.63.07,2.446.035.749-.033,1.5-.051,2.248-.076,1.063-.036,2.126-.013,3.19-.08,1.427-.089,2.858-.092,4.289-.1,1.344-.008,2.688-.079,4.031-.1,1.2-.023,2.4-.027,3.606-.029,1.915,0,3.831-.028,5.745.016,1.6.036,3.2.045,4.807.039,1.975-.007,3.951-.068,5.928-.093.728-.009,1.456.029,2.184.025.458,0,.919-.093,1.372-.056,1.081.089,2.151-.11,3.228-.08a12.531,12.531,0,0,0,1.51-.1,13.947,13.947,0,0,1,2.024-.018c.437.023.879-.144,1.31.048a10.609,10.609,0,0,1,2.281-.2c.613-.1,1.258.031,1.88-.039.754-.085,1.519-.029,2.27-.189a7.661,7.661,0,0,1,.779-.047c1-.1,1.994-.231,2.993-.257,1.069-.028,2.132-.138,3.2-.188q1.787-.083,3.574-.141C3464.709,775.125,3465.115,775.338,3465.578,775.218Zm-109.545,2.4a1.7,1.7,0,0,0,1.105.382,3.3,3.3,0,0,1,.661.022,12.374,12.374,0,0,0,1.771.247c1.032.08,2.061.206,3.093.29a17.621,17.621,0,0,0,2.515.122c.256-.016.519-.075.8-.085a.532.532,0,0,0-.058-.111c-.131-.117-.279-.02-.417-.024-1.029-.023-2.036-.273-3.06-.351-1.267-.1-2.521-.328-3.793-.376C3357.781,777.708,3356.907,777.706,3356.032,777.623Zm11.775,1.156a.611.611,0,0,0,.444.185c.539.011,1.081-.237,1.618.011.018.008.042,0,.065,0a12.526,12.526,0,0,1,2.326-.072c.075.011.177.013.189-.089.014-.122-.1-.106-.167-.109-.45-.021-.9-.052-1.352-.049-.51,0-1.021-.052-1.525-.1A2.994,2.994,0,0,0,3367.807,778.779Zm-14.3-1.292a1.208,1.208,0,0,0,.887.051C3354.1,777.38,3353.8,777.492,3353.5,777.487Z" fill="#750000" fill-rule="evenodd"/>
    <path id="パス_827" data-name="パス 827" d="M3557.45,793.769c3.313.208,6.613.215,9.906.3,4.812.12,9.556.705,14.347.945,3.871.2,7.678.824,11.572.883.522.009,1.079-.234,1.578.059.057.034.077.094.218.278-1.073.026-2.063.173-3.034.213-3.18.129-6.341-.134-9.51-.307-3.905-.213-7.793-.529-11.7-.731-2.253-.118-4.486-.287-6.7-.62a18.718,18.718,0,0,0-2.5-.055A8.679,8.679,0,0,1,3557.45,793.769Z" transform="translate(-220.157 -16.97)" fill="#750000" fill-rule="evenodd"/>
    <path id="パス_828" data-name="パス 828" d="M3651.2,801.227a16.592,16.592,0,0,1,6.048-.561c1.905.108,3.836.251,5.767.24,1.7-.009,3.41.069,5.112.122.264.008.686-.033.631.274-.045.258-.432.254-.717.225a71.015,71.015,0,0,0-8.8.181.942.942,0,0,1-.249.012c-2.032-.622-4.081,0-6.119-.027A2.993,2.993,0,0,1,3651.2,801.227Z" transform="translate(-287.199 -22.489)" fill="#750000" fill-rule="evenodd"/>
    <path id="パス_829" data-name="パス 829" d="M3537.314,792.579a9.872,9.872,0,0,1,3.351.127A6.707,6.707,0,0,1,3537.314,792.579Z" transform="translate(-70.564 -15.129)" fill="#750000" fill-rule="evenodd"/>
  </g>
</svg>
