<svg xmlns="http://www.w3.org/2000/svg" width="75" height="72.233" viewBox="0 0 75 72.233">
  <g id="グループ_2350" data-name="グループ 2350" transform="translate(-227 -2742)">
    <g id="グループ_1441" data-name="グループ 1441" transform="translate(227 2742)">
      <path id="パス_666" data-name="パス 666" d="M159.8,226.317h0C159.789,226.313,159.79,226.313,159.8,226.317Z" transform="translate(-103.178 -218.576)" fill="#750000"/>
      <path id="パス_667" data-name="パス 667" d="M107.581,239.516l.35.517.094-.3-.107-.181c-.014-.111-.03-.235-.045-.351a.842.842,0,0,0-.339-.372l-.025-.15c-.105-.163-.213-.307-.272-.392-.125-.085-.19.052-.284-.092l.052-.208a3.1,3.1,0,0,1-.072-.651c.067,0,.162-.062.213.008.094.132.189.077.279.2s.183.069.258-.015c0-.062-.007-.12-.012-.2-.121-.167-.231-.411-.389-.437-.095-.015-.114-.133-.145-.282a3.8,3.8,0,0,0,.125-.481,4.74,4.74,0,0,0,.024-.523c-.052-.21-.083-.392-.147-.6l-.329.054c-.234-.325-.516-.306-.754-.727l-.135-.475c-.045-.047-.078-.083-.141-.143-.2-.57-.385-1.18-.6-1.741l-.139-.121a34.975,34.975,0,0,0-2.623-5.352c-.507-.814-.974-1.559-1.388-2.127-.394-.582-.713-1-.863-1.2l-.027-.144a34.178,34.178,0,0,0-5-5.141c-.03-.071-.061-.137-.095-.205l-.864-.68-.08-.173c-.735-.545-1.5-1.1-2.282-1.584l-.112-.192c-.2-.125-.423-.279-.631-.392l-.106-.165c-.9-.532-1.828-1.023-2.8-1.488H87.96l-.36-.15-.192.011a33.858,33.858,0,0,0-5.78-1.966l-.209.046-.534-.123-.158-.116c-.124.011-.224.015-.326.029l-.252-.167-1.079-.192-.178-.135-.746-.1-.139-.1c-.5-.066-.991-.129-1.481-.157l-.2-.114-.733-.055-.167-.1-1.124-.029-.362-.2a.8.8,0,0,0-.086-.011c-.659,0-1.318.026-1.977.039a.254.254,0,0,1-.075-.018l-.145-.061c-.681.062-1.374.081-2.06.182a.2.2,0,0,1-.073-.02l-.145-.049-.938.119-.932.163c-.31.058-.621.106-.929.172l-.919.212-.232-.047c-.183.044-.367.08-.541.13l-.176-.035-.786.2c-.186-.106-.557.144-.758.026l-.747.252-.191-.026c-.239.083-.483.16-.72.249l-.234-.014-.7.277-.243-.01-.334.132c-.1,0-.172,0-.256,0l-1.036.468-.187-.005c-.188.076-.384.17-.555.254l-.2,0-.939.481c-.314.165-.618.349-.929.524a.25.25,0,0,1-.077.016l-.158.011c-.625.342-1.213.753-1.818,1.134-.02.013-.028.042-.072.111.222-.089.469-.222.6-.129-.318.2-.607.39-.887.594-.017.012-.045.006-.066.009l.091-.188a.864.864,0,0,0-.161.066,1,1,0,0,0-.133.127c.038.119.071.244.247.258.525-.389,1.075-.721,1.572-1.044.245-.073.449-.139.693-.2l.949-.545.425-.021.678-.348h.188l.367-.175h.195c.631-.294,1.261-.589,1.9-.851.02-.008.054.023.08.035-.024.022-.04.047-.062.056-.926.395-1.844.81-2.722,1.276l-.2,0c-.216.108-.459.236-.6.321l-.77.2c-.288.165-.615.35-.915.55l-.387.034c-.434.276-.866.551-1.271.85s-.821.567-1.19.87c-.15.066-.252.116-.351.154a1.4,1.4,0,0,1-.3.093.731.731,0,0,1-.234-.042c-.211.164-.431.339-.546.444l-.391.193-.118.249-.57.5c-.021.018-.013.064-.018.1.216-.045.371-.407.6-.382a.261.261,0,0,1-.041.067c-.441.37-.849.777-1.255,1.161l-.065.18c-.38.348-.732.752-1.064,1.09l-.32.187c-.038.1-.067.171-.1.272l-.544.625a1.245,1.245,0,0,1-.13.114l-.143.06c-.255.284-.492.588-.73.893-.017.072-.035.146-.052.216-.385.474-.74.968-1.089,1.465s-.68,1-1.006,1.511l-.182.123c-.015.086-.028.161-.039.228-.151.206-.223.461-.436.588-.071.043-.158.242-.215.334-.006.1-.009.15-.012.208l-.181.134c-.128.214-.244.442-.363.676,0,.212-.006.428-.009.643l-.153.113c-.2.375-.372.765-.547,1.151s-.359.765-.5,1.155l.016.19c-.214.551-.449,1.108-.633,1.683a1.112,1.112,0,0,1-.079.151l-.108.107c-.145.423-.29.846-.4,1.275l-.152.176-.1.365c-.157.1-.168.408-.264.529a4.848,4.848,0,0,0-.428.944l-.183-.728c.006-.11.011-.2.017-.294l-.152.016-.109.47.145.172-.075.273-.285.031c-.038.166-.067.293-.1.428l.046.222c-.047.256-.094.513-.14.765.02.08.038.155.058.235-.034.191-.068.383-.1.567l.056.192a36.61,36.61,0,0,0-.29,8.584l.117.2c.027.508.12,1.046.177,1.551l.106.16c.007.03.016.058.02.088.046.436.14.865.213,1.3s.149.864.256,1.29a.27.27,0,0,0,.04.07l.1.125c.129.561.254,1.129.425,1.686.007.023.031.041.048.061l.1.114a34.653,34.653,0,0,0,3.1,7.5c.008.082.016.158.022.219.237.405.452.8.667,1.141l.263.218c.038.135.063.228.088.312a1.129,1.129,0,0,1,.364.415c.011.071.023.148.036.233.245.367.514.732.776,1.1.014.019.043.027.08.048l.1-.069-.232-.553-.232-.189-.059-.238c-.308-.447-.591-.911-.886-1.365s-.545-.933-.816-1.4c0-.108,0-.2-.005-.285.037.026.067.035.078.054.371.634.718,1.282,1.127,1.893.2.308.393.621.6.925l.639.9.041.22c.075.134.214.244.241.4-.13-.057-.257-.119-.382-.183.027.179.063.352.1.526l.44.561c.206.421.06.62.156.953l.206.1.242.279c.218.1.217.1.237.176,0,.124-.2.06-.1.264l.258.3a2.056,2.056,0,0,1,.414.2c-.013.069-.025.137-.037.2l.449.5-.036.208.268.343a2.774,2.774,0,0,0-.536-.335l-.539-.566-.081-.213c-.124-.2-.246-.16-.257-.171L46,267.648l-.189-.374-.25-.123c-.082-.091-.163-.2-.247-.3l-.059-.229c-.363-.471-.749-.928-1.082-1.415l-.053-.25-.17-.177c-.1,0-.1.079-.089.184a.578.578,0,0,1-.046.219l.447.624.468.6c.31.392.6.781.913,1.124l.348.248c.034.107.058.183.083.264.214.247.431.5.671.745v.552l.349.14c-.006-.093-.013-.19-.02-.3l.225.178c.029.119.108.281.074.339-.059.1.041.263.1.413l.209.146c.064-.041.065-.04.206,0a.567.567,0,0,0,.075.438c.18.109.322.064.543.257l.15.286,1.043.909c.069.159.132.308.327.347l.126-.055.516.247.71.559a.249.249,0,0,1,.043.069c.041.109.173.248.078.3-.217-.011-.214-.015-.263.111.18.136.368.266.558.4.315.039.69.17.913.074.49.356,1.012.663,1.46.958.218.072.377.133.544.179.037-.066.135-.1.06-.255-.2-.071-.369-.3-.623-.334l-.057.089-.288-.117-.15-.338a8.9,8.9,0,0,1-.794-.556l.192-.277.323.15.153-.079.683.441.46.053c.587.394,1.247.735,1.868,1.1.184-.036.356.088.532.174l.146.181c.4.2.8.424,1.217.606l.158.18.521.236.159.175c.454.217.919.382,1.377.564a.6.6,0,0,0,.153.019l.107-.11c.582.243,1.171.414,1.735.613l.131.129.235-.015c.118.053.289.052.411.144l.066.191.969.274.222-.034c.213.014.253.127.359.176l.569.132.227-.033.139.111c.34.084.686.149,1.009.2l.179-.05.189.127c.514.1,1.03.183,1.551.241s1.038.145,1.561.174l.2.108.976.073.216-.072.163.086.823.021.17-.078.677.016.7-.017.207.083.387-.01.2-.1.22.091c.589-.032,1.177-.084,1.75-.127l.225.073a1.478,1.478,0,0,0,.637-.184l.724-.093.155-.1c.443-.054.89-.15,1.363-.23l.219.051c.182-.035.377-.062.571-.108.1-.048.12-.138.3-.164l.575.008-.173.151.314-.014.472-.461a2.51,2.51,0,0,0,.956.084l.7-.2.207.035a4.046,4.046,0,0,0,.6-.23l.112-.109a2.756,2.756,0,0,1,.634-.186c.137.037,0,.207.218.189s.238-.141.365-.213l.177.014.764-.3.205-.186a38.045,38.045,0,0,0,5.132-2.59c.052-.115.015-.156-.095-.142-.159.039-.313.253-.464.19.016-.024.026-.053.046-.065.346-.193.673-.415,1.015-.63l.3-.032-.078.219c.356-.233.662-.417.852-.557a3.874,3.874,0,0,1,.768-.768l.229-.047c.215-.148.422-.315.59-.445l.628-.264c.28-.221.542-.422.786-.643.018-.016.022-.047.033-.071-.042-.1-.184-.13-.15-.327.195-.1.322-.361.564-.412l.067.075-.233.321.312-.081.157-.137.026-.284c.007-.091.015-.181.021-.255l.692-.659.331-.135-.061.2.342-.1-.129-.291c.211-.194.4-.411.578-.591l.067-.208c.368-.381.746-.781,1.1-1.2l.186-.08.584-.68.339-.262c.079-.171.046-.288.2-.428l.211-.112c.375-.459.711-.953,1.056-1.435l.275-.153c.063-.006.074.114.2-.04l-.065-.243.156-.023a.34.34,0,0,0,.111-.028c.065-.033.133-.079.186-.113l.2-.634.336-.21c.159-.24.3-.493.438-.726l.017-.211a4.845,4.845,0,0,1,.351-.545l.2-.023c.077-.138.149-.252.207-.371l.009-.141c.075-.31.264-.491.28-.712l-.083-.1.127-.5.126-.1c.128-.26.242-.527.36-.783l-.112-.2c.158-.178.19.022.3-.035.106-.132.2-.32.32-.395a4.358,4.358,0,0,0,.194-.464,1.632,1.632,0,0,0,.175-.543c-.1-.052-.178-.139-.311-.087-.174.256-.207.62-.421.859l-.093-.088c.036-.26.249-.494.212-.726a1.1,1.1,0,0,0-.171.16c-.145.2-.286.414-.443.615-.074-.039-.222.055-.191-.175.107-.109.226-.144.316-.314-.01-.132-.02-.26-.03-.393l.391-.992c.126-.332.232-.673.349-1.008l-.017-.166c.028-.28.181-.48.164-.7-.157.067-.126.408-.268.493-.006-.017-.011-.036-.019-.051-.067-.134.036-.38,0-.535,0,0-.031.035-.063.067-.2.587-.394,1.2-.618,1.794a.273.273,0,0,1-.05.062l-.115.1-.351.89.011.223c-.094.241-.208.47-.309.7a.614.614,0,0,0-.269.465c.007.031.037.159.06.257-.109.247-.191.414-.237.5-.055.155.013.2-.077.286l-.128.095c-.057.139-.173.267-.18.414.036.135.142.025.238-.024.068-.035.134-.011.1.1-.123.173-.242.161-.354.349l.191.2c-.044.094-.071.151-.1.213l-.187.136c-.061.135-.187.259-.2.409l.084.179-.171.3c-.078.267-.13.479-.2.681-.163.067-.336.233-.5.245a1.819,1.819,0,0,0-.478.245c-.069.372.241-.028.325.145-.013.107-.037.3-.062.5l-.2.128-1.011,1.421-.223.125-.34.433-.166.1-.164.372-.382.135c-.555.633-1.046,1.238-1.589,1.786l-.074.209-.4.418-.217.094-1.172,1.119c-.4.359-.809.7-1.213,1.055a.467.467,0,0,1-.131.06l-.129-.068c-.162.143-.028.143-.047.21a2.218,2.218,0,0,1-.129.279l-.532.416a1.01,1.01,0,0,1-.15.08l-.147.035c-.106.08-.2.165-.3.232l-.117.2a1.289,1.289,0,0,1-.537.275l-.635.451-.595.384-.258.29-.268.046c-.291.168-.582.371-.864.5l-.191.013-.132.181-.427.245-.344-.058c-.024.128-.036.2-.046.251a.488.488,0,0,1-.408.129l-.509.261-.237.01-.224.114c-.055.094-.132.208-.188.294l-.914.413-.226.011c-.094.111-.161.223-.359.228l-.171-.107-.2.073-.158.165-.717.282-.221-.013c-.682.237-1.351.475-2.016.674l-.165.135c-.289.162-.487.054-.743.119l-.178.138c-.264.08-.54.141-.79.2l-.178-.041c-.274.061-.551.117-.781.182l-.146.126c-.133.033-.261.052-.382.075l-.218-.055c-.218,0-.258.117-.356.152l-.958.168-.272-.068-.376.158-.3.038-.2.12c-.5.073-1.021.107-1.534.146l-.2.111c-.264.017-.522.047-.782.05-.023,0-.047-.02-.081-.036-.024-.049.01-.121-.233-.16-.109-.016-.164.1-.309.12-.213-.014-.451.061-.623-.022l-.061-.142c-.179,0-.331.013-.5.006l-.092.288-.241-.11-.468.2-.31-.252-.465.111c-.1,0-.2-.007-.307-.016l-.205-.11c-.511-.041-1.028-.073-1.546-.124l-.255.08-.747-.3c-.352.005-.573-.25-.948-.212l-.153.045-.571-.1-.245-.146c-.459.037-.461.04-.743-.145-.61-.149-1.244-.266-1.853-.45a.8.8,0,0,0-.542-.232l-.2.016-.164-.149c-.364-.095-.748-.24-1.106-.357l-.13-.133a35.3,35.3,0,0,1-3.748-1.525c-.021-.01-.032-.038-.047-.056-.051-.127.092-.117.228-.118-.086-.111-.17-.225-.238-.324,0-.063,0-.111,0-.155-.351-.2-.4-.234-.415-.286l.29,0,.32.164c.08.09.153.158.228.234a2.023,2.023,0,0,1,.339.031c.135.036.274.154.414.132l.079-.176.3-.011.38.148.176-.015c.591.229.591.229.779.235-.017-.018-.031-.044-.052-.053l-.773-.306-.752-.338-.14-.164-.33-.15-.212,0c-.195-.089-.353-.178-.49-.245l-.17-.2-.558-.286c-.142-.13-.221-.2-.29-.266l-.256-.02L57,273.167l-.122-.177-.457-.263-.285.091-.03-.267-.815-.562c-.012-.009-.01-.032-.015-.049l.295.027c.432.282.871.56,1.326.809a.844.844,0,0,0,.152.051l.186-.095.068.282c.146.064.266.191.406.18l-.121-.211c.119.057.212.1.3.138.01.092.018.158.027.241l.851.436.107.15c.324.174.666.309,1,.464l.137.165.308.139.322.024.234.2c.468.181.924.374,1.387.537l1.379.466.391-.078c.693.2,1.4.4,2.113.554a.352.352,0,0,0,.1-.016c.006-.05.2,0,.183-.085l-.249-.163c.416,0,.612.267.943.358l.14-.043a3.609,3.609,0,0,0,.605.077l.133-.144c.38.071.737.133,1.1.171.07-.026.142-.049.2-.078.027-.013.031-.039.054-.071l-.565-.072c-.142.027-.241.038-.338.051l-.232-.155c-.529-.1-1.093-.177-1.644-.317a1.122,1.122,0,0,0-.162-.013l-.143.038-.878-.2-.159-.142-.34-.1-.205.036-.341-.1-.157-.132c-.26-.069-.484-.145-.689-.216-.159,0-.248.076-.428.031l-.052-.2-.527-.178c-.052-.054-.1-.1-.153-.157a1.985,1.985,0,0,0-.592-.187.8.8,0,0,1-.07.167c-.011.017-.075.009-.115.012l-.107-.125c-.227-.091-.473-.183-.7-.281l-.206.014-.183-.236c.156-.036.335.009.4-.076a1.855,1.855,0,0,0-.637-.264c.059.108.247.25.016.262l-.357-.284,0-.162c-.069-.054-.2-.1-.26-.175a32.706,32.706,0,0,0,27.347.421l-.066.068c-.24.126-.47.192-.69.322l-.175.356-.325.129-.143.153c-.184.068-.346.147-.661.248.055-.026-.009-.141-.114-.007l.1.271-.212.223c-.561.2-1.139.387-1.727.545-.031.009-.05.052-.073.078.061.079.307-.117.33.014-.02.017-.036.041-.059.047-.353.1-.706.206-1.048.295l-.169.133c-.62.134-1.212.3-1.809.395l-.151-.047-1.047.164-.758.1a2.544,2.544,0,0,0-.686.143l.289.107a34.55,34.55,0,0,0,4.534-.844.224.224,0,0,1,.075.005l.143.029.147-.126c.285,0,.436.138.769.077l.187-.157.213.033,1.056-.353.154-.148.208.019c.666-.239,1.3-.5,1.92-.751l.125-.155,1.189-.537.117-.159.223-.013.809-.416c.021-.011.033-.037.049-.057l.019-.188c.143-.093.31-.129.391-.259l-.116-.21c-.3.179-.6.314-.871.459-.171-.014-.316-.021-.429.144l.02.228-.372-.09-1.323.6c-.428.193-.86.346-1.285.516-.024.01-.062-.017-.112-.033l.454-.221c.021-.084-.05-.136.077-.216.132-.036.264-.142.409-.114l-.145.184a1.2,1.2,0,0,0,.485-.189l.229-.291.324-.146.139-.165.2,0c.405-.173.774-.379,1.143-.564l.109-.156a34.325,34.325,0,0,0,3.144-1.86l-.032-.025c.155-.138.3-.29.5-.486-.2.1-.279.023-.451.147-.062.084-.142.178-.219.269l-.551.175.117-.175a32.813,32.813,0,0,0,6.427-5.466c.305-.2.572-.385.854-.573l.178.024.188-.218a1.147,1.147,0,0,0-.1-.1c.077-.157.14-.325.226-.527l.249-.156.373-.449.138.071-.124.216-.208.1-.33.42-.044.21c-.053.071-.112.139-.175.211.054.034.11.062.175.1.166-.287.388-.35.554-.535l.051-.233.33-.42.045-.2.845-1.186a2.581,2.581,0,0,0,.636-.5c0-.049.009-.1.013-.148l.1-.152.189-.117.289-.457.248-.157c-.014.138.052.251-.1.449l-.181.12c-.189.257-.344.555-.523.786l-.161.092a5.421,5.421,0,0,1-.31.451,2.228,2.228,0,0,1-.414.511c.017-.121.025-.228.049-.341.016-.074.011-.095-.072-.032l-.333.468c-.012.1-.022.193-.033.281.123-.043.256-.165.359-.143a1.947,1.947,0,0,1-.351.514c-.126.073-.245.08-.348.177l-.188.447c.236-.141.327-.08.318.138l-.174.179-.224-.11c-.109.084-.215.058-.322.217l-.137.315c-.146.133-.267.1-.387.3l-.094.313.184.011.133-.154a.762.762,0,0,1,.137-.053c.048-.007.148-.112.139-.005l-.311.436c.052-.02.082-.021.1-.037l.528-.608c.09-.365.08-.371.16-.413l.167.136c-.057.112-.108.21-.161.3l.059.08a.628.628,0,0,0,.427-.276c-.041-.065.1-.253.017-.34s.191-.346.14-.473c.395-.481.74-1,1.1-1.5l.039-.221c.084-.177.2-.179.281-.257l.2-.308.041-.247c.232-.364.471-.723.676-1.094l-.082-.2.209-.363.175-.113c.119-.206.255-.439.358-.652l.152-.109.422-.827a.238.238,0,0,0,0-.085c-.124.094-.228.28-.361.358l-.378.738c-.241.263-.451.462-.647.662l-.088-.072.1-.257c.006-.112.015-.256.023-.4.062-.1.111-.213.156-.3,0-.189,0-.361.006-.5l-.1-.126.2-.393.219-.028.1-.231-.11-.178.082-.181.161-.132.448-.991a.769.769,0,0,1,.132-.547c.115-.131.266-.139.362-.439-.1-.171.018-.5,0-.758l.132-.139c.159-.481.322-.93.452-1.361l-.026-.225a.516.516,0,0,0,.365-.245l.094-.337c.006-.022-.006-.048-.016-.108l-.176.185c-.086.1-.165.168-.223,0,.076-.273.16-.545.228-.822l.193-.835c.14-.554.235-1.116.332-1.67l-.026-.081c.042-.251.086-.5.122-.753l.068-.124-.03-.18a32.924,32.924,0,0,0,.308-4.439c0-.179-.01-.355-.014-.533h.094l.166.3.154-.189c.017-.225-.038-.392.052-.491l.094.008c.037.124.07.253.112.372.051.144.047.352.145.441l.112.1.161-.253a1.687,1.687,0,0,1,.083-.77l.148.486a2.062,2.062,0,0,0,.038-.68c-.12-.129-.1-.438-.209-.58,0-.3-.191-.335-.238-.593l-.015-.322.175-.142c-.014-.1-.026-.181-.035-.244-.138-.16-.163.1-.241.149-.1-.03-.209.12-.319-.087l.17-.137c0-.137,0-.282-.016-.426a1.527,1.527,0,0,0,.435-.666ZM55.625,213.357c-.222.125-.439.258-.649.4l-.119.187-.2.13-.122-.107a1.659,1.659,0,0,1,.16-.141c.294-.191.587-.384.9-.552.02-.011.05,0,.112-.009C55.657,213.318,55.646,213.345,55.625,213.357ZM96.15,272.19c.221-.078.383-.331.607-.4.017.065.017.064-.74.662l-.059-.219Zm-12.636,6.2.783-.224.78-.26c.011.111-.129.188-.2.268-.367.131-.742.239-1.089.335h-.619C83.344,278.45,83.427,278.416,83.514,278.391Zm-25.683-4.635-.058.11c-.095,0-.1.011-.464-.188l-.093-.243A3.145,3.145,0,0,1,57.831,273.756Zm37.6-55.117.093.2c.217.19.45.381.664.594l.078.21.784.748.041.14a.225.225,0,0,0,.028.068l.861.9.05.184.882,1.018c.294.34.557.7.827,1.036l.078.336a.268.268,0,0,1-.077-.036,1.21,1.21,0,0,1-.114-.126c-.418-.537-.839-1.072-1.266-1.547l-.044-.192c-.192-.221-.382-.449-.589-.656l-.047-.144c-.006-.023-.005-.053-.02-.068-.373-.391-.737-.79-1.137-1.156l-.055-.169-.393-.375-.066-.2c-.2-.19-.428-.376-.629-.554a1.867,1.867,0,0,0-.522-.61C95.132,218.32,95.258,218.517,95.429,218.639ZM51.189,268.1c.093.087.176.173.275.258l.252.67-.119.137a.976.976,0,0,0-.206-.037c-.053,0-.084.04-.126.063l-.309-.268a.889.889,0,0,1-.073-.186c-.012-.059.011-.1,0-.161a1.405,1.405,0,0,0-.061-.193l-.3-.121c-.583-.535-1.127-1.115-1.668-1.686l-.217-.087c-.333-.422-.008-.484-.165-.816l.528.355c.033.04.112.13.2.221l.062.2.249.262.377.127c.161.165.336.362.507.517l.194.056.085.194.251.24v.279Zm.541,2.505.454.357c.026.084.028.086-.49-.023-.253-.191-.487-.405-.728-.611-.028-.132-.234-.358.012-.356l.468.382.2.066Zm-3.355-4.956-.042.036-.339-.067-.139-.249.043-.036.34.067ZM47.152,262.9c-.02-.008-.043-.013-.054-.028-.313-.435-.626-.87-.909-1.329s-.586-.909-.851-1.391l-.005-.067A32.647,32.647,0,0,0,47.152,262.9Zm38.721-49.4.069-.008c.318.1.66.272.995.415l.052.069Q86.436,213.731,85.873,213.5Zm-2.59-1.664.187-.038c.052.046.1.087.16.141l.338.114.211-.026.127.133.543.2.118.124c.059,0,.124-.01.237-.009l.832.328.192-.02.492.2h.235l.653.294.228,0,.078.108a3.48,3.48,0,0,0,.551.292h.146a.231.231,0,0,1,.062.017c.033.039.059.079.1.135l.359.184H89.3c.42.2.82.449,1.226.679l.606.351.586.375.1.174c.3.194.632.4.918.61l.086.167.584.415c.044.134.19.243.286.37-.008.008-.016.026-.025.022-.087-.043-.178-.08-.2-.089a1.842,1.842,0,0,1-.233-.072c-.051-.031-.1-.069-.148-.1l-.809-.575-.824-.533-.091-.159c-.207-.129-.423-.28-.653-.405l-.166-.007-.816-.469-.09-.14c-.552-.294-1.111-.58-1.667-.854l-.184.109c-.139-.091-.047-.132-.067-.194-.015-.019-.025-.047-.045-.056l-.993-.45-1.019-.406-.21.017c-.389-.163-.794-.287-1.19-.424L84.1,212.2c-.343-.12-.688-.232-1.034-.323l-.108-.1c-.177-.129-.472-.094-.634-.249A1.692,1.692,0,0,1,83.283,211.838Zm-7.408-.755a1.462,1.462,0,0,0,.194.108.937.937,0,0,0,.191.022c.005.01.01.022.015.033q-.952-.076-1.918-.1l.144-.129C75.045,211.032,75.464,211.043,75.876,211.083Zm-1.764.038.045.025c-.166,0-.331-.013-.5-.013-.057,0-.112,0-.168,0A1.562,1.562,0,0,1,74.112,211.121Zm-5.8.417c.394-.081.795-.117,1.192-.171s.793-.111,1.191-.132l.036.035q-1.314.116-2.6.336l.022-.017A1.125,1.125,0,0,1,68.316,211.538Zm-12.957,2.877.23-.035c.251-.165.529-.31.8-.47l.23-.019a2.181,2.181,0,0,1,.711-.312c-.362.227-.6.361-.839.491l-.178.009c-.246.143-.516.291-.736.439l-.569.177C55.066,214.563,55.237,214.512,55.359,214.415ZM51.6,217.245c.433-.358.88-.7,1.322-1.047a.2.2,0,0,1,.072-.021c-.1.188-.42.432-1.443,1.192C51.584,217.29,51.585,217.259,51.6,217.245ZM38.521,244.011c-.019-.037-.055-.075-.056-.113,0-.576.023-1.151.036-1.724s.081-1.141.12-1.7l-.073-.184c.021-.234.058-.485.091-.759l.2-.471.1.289a36.247,36.247,0,0,0-.291,4.393C38.6,243.829,38.566,243.919,38.521,244.011Zm5.115,17.019-.263-.458.1-.12c-.031-.1-.073-.228-.106-.366.346.275.224.591.418.859Zm-.746-3.094-.149-.118c0-.06-.006-.124-.01-.2a.755.755,0,0,0-.3-.48c-.254-.623-.51-1.252-.733-1.872-.082-.131-.2-.159-.226-.356l.026-.218-.117-.346-.161-.169c-.106-.29-.178-.591-.264-.88l-.1-.108-.071-.6c-.083-.091-.164-.173-.28-.309.046.264.085.433.121.615-.041-.027-.092-.057-.092-.061-.008-.254-.26-.262-.237-.556l.136-.159-.077-.386c.028-.136.062-.3.1-.473l-.219-.395c.015-.095.028-.191.054-.314l-.083-.211-.31-.862c-.079-.4-.126-.8-.177-1.2l-.15-.317.065-.323c-.016-.139-.045-.322-.057-.524l-.106-.186c-.014-.18-.028-.367-.042-.552l-.114-.2c-.044-.468-.057-.937-.066-1.405s-.035-.936-.013-1.4l-.085-.2c-.034-.214.08-.266.108-.444a1.9,1.9,0,0,0-.049-.207c-.08-.225-.258-.2-.319-.489l.1-1.331-.055-.123a1.117,1.117,0,0,1-.016-.181c.02-.284.067-.567.1-.85,0-.023.026-.042.041-.063.142.112.056.487.173.651-.039.33-.055.668-.083.991.081.094.091-.021.1-.1l.056-.707q.043-.353.087-.709l-.068-.215c.041-.307.075-.621.124-.938l-.119-.373c.029-.192.061-.4.107-.714l-.133-.243c.04-.356.129-.3.205-.316a2.306,2.306,0,0,0,.183-.626l-.175-.263.3-.264-.05-.311c.054-.09.1-.182.187-.314l.388-1.368c.126-.21.255-.386.4-.594l.226-.667.151-.159-.025-.18c.1-.3.235-.61.36-.936l.2-.054c.1-.238-.127-.074-.063-.306l.252-.129c.111-.294.2-.461.273-.633a5.088,5.088,0,0,1-.019-.527,4.631,4.631,0,0,1,.083-.5l.143-.129c.045-.1.106-.215.165-.333l.007-.219a34,34,0,0,1,5.1-7.555l.179-.073c.248-.262.519-.565.807-.845l.176-.062c.275-.3.568-.589.871-.87s.593-.577.9-.843l.182-.046c.248-.146.437-.423.712-.535-.089.206-.3.31-.451.454-.135.129-.283.248-.425.372l-.483.457c.13.131.387-.414.411-.126.316-.3.609-.536.888-.784l.152-.037c.114-.044.066-.11.183-.239.08-.072.239-.207.427-.351l.141.074.24-.12c.036-.123.073-.25.1-.345a2.186,2.186,0,0,1,.448-.316l-.073.21c.208-.066.367-.265.56-.359l.192-.028.484-.344a2.7,2.7,0,0,1,.6-.368c-.145.13-.218.214-.313.307.013.037.027.08.041.12.16-.059.3-.117.512-.18.408-.258.866-.564,1.334-.846l.228-.018.95-.546c.318-.179.647-.336.968-.5l.215-.008.092-.129a1.241,1.241,0,0,1,.438-.026l.859-.388.14.119c.3-.074.583-.268.94-.351l.136.1a.831.831,0,0,0,.156-.029l.879-.343.891-.3.172.028c.206-.028.418-.147.65-.194.157,0,.322,0,.475,0a32.736,32.736,0,0,0-22.04,21.414.235.235,0,0,0-.064.078c-.066.166-.093.352-.16.511a1.62,1.62,0,0,0-.1.517q-.231.82-.42,1.659a3.179,3.179,0,0,0-.311.354l.041.2a.639.639,0,0,0-.155.6l.1.019c.045-.1.087-.2.137-.29a32.649,32.649,0,0,0-.58,4.842,1.817,1.817,0,0,0-.17-.5,2.7,2.7,0,0,0-.3-.9c-.19.249.072.4-.007.636l-.1.182c-.021.232-.034.473-.035.657l.353,1.442c.012.476.026,1.01.039,1.533.031.052.051.093.1.163l.068.9.152.227c.064.741.147,1.477.259,2.2a.115.115,0,0,0-.024.067c.122.643.205,1.294.363,1.916l.053.06a32.445,32.445,0,0,0,3.453,8.981l-.074-.051c-.182-.3-.351-.62-.518-.957l-.2-.02c-.134-.113-.166-.4-.355-.449-.222-.411-.4-.856-.6-1.288l-.187-.175c-.09-.189-.179-.409-.291-.7l.076-.307-.346-.887-.282-.833-.36-.509c.005-.07.016-.143.031-.247l-.195-.3c-.047-.165-.112-.394-.172-.606a.8.8,0,0,1-.243-.542c-.005-.119.074-.207-.015-.408l-.174-.061c-.089-.111-.076-.279-.126-.4l-.131-.167c-.084-.193.014-.268,0-.46l-.129-.247c.01-.1.024-.22.036-.332l-.151-.21q-.047-.261-.1-.539l-.08-.1c-.112-.2-.071-.424-.141-.636l-.089-.128.052-.208c-.029-.231-.063-.5-.094-.746l-.112-.165c-.018-.234-.038-.5-.056-.733l-.1-.161c-.022-.36-.067-.725-.067-1.092-.036-.068-.069-.134-.1-.2q-.014-.639-.029-1.291l-.08-.153c.006-.242.013-.511.016-.655a5.525,5.525,0,0,0-.141-.573,1.505,1.505,0,0,1-.041-.335,1.615,1.615,0,0,0-.188-.791c-.08.13-.041.3-.069.44l.083.212c-.024.31-.021.621-.032.926l.179.372a3.133,3.133,0,0,0-.007.509,4.39,4.39,0,0,0,.193.652c.008.312.017.681.027,1.05.036.067.067.133.106.2.014.181.027.366.041.546l-.077.2c.01.134.02.256.028.363l.108.2c.025.475.108.931.162,1.418l.126.226c.074.637.224,1.32.333,1.976.051.067.084.1.139.17.053.229.113.49.165.716l.122.143c.124.592.3,1.176.466,1.758l.121.14c-.005-.005.021.008.027.028.079.294.186.579.281.868l.106.1c.016.019.04.035.047.057.144.432.29.862.464,1.281s.319.847.51,1.254l.144.113.434.96c.06.058.115.107.194.174.324.608.622,1.239.989,1.837l.534.908.577.885c.01.015.036.018.055.026,0-.224-.31-.419-.3-.647.025.015.054.021.066.039l.587.9c.048.068.089.141.14.225l-.222-.029.259.393-.071.187c.121.141.237.139.351.215.154.218.305.434.466.63l-.067.2.244.31c.052.31-.294,0-.364.113l-.449-.363c-.02-.068-.041-.138-.061-.225-.1-.167-.2-.356-.384-.406l-.043-.215-.315-.443-.192-.107c-.332-.516-.671-1.03-.99-1.555l-.124-.08c-.02-.016-.046-.028-.057-.049A32.7,32.7,0,0,1,42.89,257.937Zm-1.885-12.808.012-.026c.009.226.019.452.032.677l-.038-.061A1.851,1.851,0,0,1,41.005,245.129Zm6.614,22.083-.253-.151-.393-.778-.239-.108-.036-.144a.231.231,0,0,0-.023-.073l-.694-.884-.056-.226-.183-.235-.312-.251-.072-.289-.545-.767-.539-.837.094-.118c.383.488.867,1.239,1.843,2.582l.031.158.574.73c.02.079.042.15.065.224.191.138.136-.108.409.013.017.01-.068.088-.007.171l.169.235-.213-.072c0,.016,0,.041.007.054l.636.78.282.011.883.925c.029.177.282.373.291.547,0,.128.007.247.011.391l-.5-.475-.051-.16C48.425,268.066,48.025,267.663,47.619,267.211Zm4.53,6.184-.055.076a.922.922,0,0,1-.456-.294v-.205l-.174-.15-.266.03-.165-.123-.209-.4-.315-.248c-.135-.029-.258-.064-.4-.1l-.48-.415a.49.49,0,0,1-.037-.083,1.6,1.6,0,0,1,.564.236l-.119-.295-.382-.1a1.207,1.207,0,0,1-.492-.542l-.379-.2-.411-.687c.119-.095.276.221.417.19.095-.021.284.081.442.131.1.1.211.207.345.32l-.053.155.2.244a.983.983,0,0,1,.4.085,1.436,1.436,0,0,0,.364.176c.155.131.3.264.444.377l.105.2c.149.166.264.117.392.191l.431.339a3.657,3.657,0,0,1,.212.441c.051.143.279.251.316.387.04.151.222.3.348.453C52.587,273.621,52.343,273.441,52.149,273.4Zm7.42.075c0,.011,0,.033-.008.032a7.056,7.056,0,0,1-1.017-.466l-.138-.186c-.09-.089-.332-.088-.347-.243.031,0,.058-.009.077,0l1.1.561A1.1,1.1,0,0,0,59.569,273.47Zm31.47-1.9-.16.269c-.148.1-.33.2-.511.3a1.238,1.238,0,0,1-.151.061l-.153.005c-.332.185-.661.393-1.008.566a.876.876,0,0,0-.125.1l-.129.178-.347-.08a1.176,1.176,0,0,1-.392.164,32.659,32.659,0,0,0,2.929-1.637Z" transform="translate(-36.846 -209.34)" fill="#750000"/>
      <path id="パス_668" data-name="パス 668" d="M187.342,294.376l-.065-.316c.008-.137.088-.294.034-.445h-.129c-.028.1-.052.18-.1.365l-.219.2-.208,1.146-.207.235-.1-.1.033-.289-.2.124c.109-.538.191-1.044.279-1.528l-.054-.209.067-.505.149-.316-.078-.279c.041-.32.093-.68.109-1.042a.323.323,0,0,0-.043-.118l-.154.245c-.031.075.021.25-.085.238l-.036-.315-.1-.032-.179.219c.041.123.056.183.072.241l-.093.134c-.092.681-.155,1.36-.288,2.011l.119.357c-.064.361-.122.718-.227,1.139l-.248.21c.03.14.051.236.073.339.082-.116.158-.217.233-.125.005.154.011.31.019.517l-.068.292.04.217c-.116.41-.233.82-.367,1.293.035.095.071.219.1.321-.135.4-.253.746-.365,1.079l.028.192c-.131.375-.3.768-.449,1.167a.43.43,0,0,0,0,.145c.057.058.171,0,.18.15-.117.315-.26.615-.386.9l-.135.108c0,.11-.023.242.054.315l.193-.4.184-.163c.128-.271.242-.558.355-.846.009-.021.036-.033.045-.041h.15a1.378,1.378,0,0,1,.163-.607l.146-.162-.018-.184.156-.161.119-.348.219-.215c.012.068.025.136.038.214a.469.469,0,0,0,.1-.481c.248-.682.417-1.394.625-2.1.168-.712.351-1.424.481-2.143l-.152-.156.028-.2Z" transform="translate(-116.505 -253.935)" fill="#750000"/>
      <path id="パス_669" data-name="パス 669" d="M194.053,297.925l.181-.242-.045-.207c.111-.449.206-.938.269-1.317-.019-.216-.028-.328-.038-.437l.15-.242c-.016-.068-.032-.142-.05-.222.036-.19.065-.39.088-.589-.044-.1-.05-.268-.132-.29a4.289,4.289,0,0,0-.121.773s.123.045,0,.186l-.189-.031-.084-.3c.031-.222.048-.446.071-.655l-.162-.154.036-.277-.152-.335c.02-.152.037-.252.042-.348a.96.96,0,0,0-.022-.178l-.14.026q-.1.75-.181,1.434l.059.253-.3.047-.106.6c.021.224.042.444.067.7-.031.151-.054.346-.127.659l.081.165c.037.384-.127.61-.063.818l.093.022c.085.277-.124.36-.178.552,0,.195-.02.392-.031.628l.286.078c-.016.357-.031.672-.046,1.032-.032.109-.075.272-.15.487.02.163.035.294.051.425l-.32.377c-.09.256-.026.272.034.294l.221-.175a1.631,1.631,0,0,0,.058.194,2.094,2.094,0,0,0,.107.191l-.067.369c.109-.152.213-.173.293-.392.008-.117.016-.258.027-.418l.195-.265c-.106-.195.19-.587.078-.786l.157-.635c-.006-.339-.209-.358-.189-.718.064-.115.053-.31.155-.42.062-.038.118.056.182-.121-.036-.137-.135-.08-.2-.124l-.158.186a2.486,2.486,0,0,0,.021-.361.661.661,0,0,1,.009-.352C193.934,297.722,193.951,297.728,194.053,297.925Z" transform="translate(-121.166 -254.895)" fill="#750000"/>
      <path id="パス_670" data-name="パス 670" d="M128.665,356.622l-.335.279c.6-.1,1.139-.236,1.686-.359l.028-.342.265.176c.6-.141,1.177-.324,1.759-.486a.929.929,0,0,0,.15-.074l.058-.187c.681-.24,1.352-.434,1.974-.692l.239-.216.324-.02.14-.135c.209-.085.384-.146.52-.212l.24-.012.451-.2.4-.346a.354.354,0,0,0-.084,0,.464.464,0,0,0-.085.035l-.086.039a34.209,34.209,0,0,1-4.411,1.679c-.061.017-.121.037-.182.051a.3.3,0,0,1-.078,0l-.147-.028a2.44,2.44,0,0,0-.619.209l-.086.087c-.617.173-1.235.294-1.845.441-.061.048-.12.1-.183.139l-.733.131-.206.14c-.426.082-.862.151-1.3.2-.022,0-.042.026-.074.048l.048.116a.917.917,0,0,0,.532-.093,1,1,0,0,1,.5-.115,1.334,1.334,0,0,0,.418.091l.088-.2.208-.037.175-.124c.327-.053.635-.121.942-.193.022-.005.048.01.087.02l.006.136-.428.1C128.9,356.654,128.792,356.639,128.665,356.622Z" transform="translate(-85.029 -287.942)" fill="#750000"/>
      <path id="パス_671" data-name="パス 671" d="M197.775,305.9c-.209.8-.428,1.581-.661,2.321l-.154.169c-.067.278-.212.562-.276.89l.139.429-.272.138.135.227c-.1.243-.2.5-.3.764a3.405,3.405,0,0,0-.275.811l.29-.33.383-.971.221-.076c.078-.17.147-.327.215-.5a1.13,1.13,0,0,1,.15.282,3.679,3.679,0,0,1,.026.409c0,.042.047.041.082.067l.174-.241c-.017-.216-.026-.447-.055-.649l-.141.154-.067-.577.143-.423a1.721,1.721,0,0,1-.015-.173c0-.205.2-.481.108-.659l.228-.914c-.068-.154.041-.376.068-.567a3.437,3.437,0,0,0,.006-.632Z" transform="translate(-122.942 -261.853)" fill="#750000"/>
      <path id="パス_672" data-name="パス 672" d="M155.658,344.326l.64-.455.206-.265c.166-.094.276-.041.373-.151l.251-.41-.334.211c-.155.028-.219-.119-.447.012-.044.093-.091.177-.13.25,0,.065.132.074-.034.187l-.189-.067c-.816.6-1.657,1.135-2.35,1.573a4.8,4.8,0,0,0-.367.313c-.079.088-.13.181-.262.368.4-.233.69-.386.965-.567.052-.033.1-.069.155-.1a.2.2,0,0,1,.072-.01l.176.078.48-.308.261-.035C155.3,344.772,155.462,344.565,155.658,344.326Z" transform="translate(-99.49 -282.096)" fill="#750000"/>
      <path id="パス_673" data-name="パス 673" d="M174.427,329.955l.028-.175c.048-.146.263-.273.223-.429-.2.116-.274.41-.463.536l-.134.069-.818,1.04c-.015.019-.043.025-.066.037l-.2-.018c-.087.149-.239.238-.272.381l.054.179-.733.846c-.244.274-.5.532-.748.8a1.073,1.073,0,0,0-.1.164c.04.039.1.067.123.129a.95.95,0,0,1-.027.275c.282-.311.529-.547.752-.809a.183.183,0,0,0,.022-.069c-.009-.061-.12-.055-.01-.192.134-.067.245-.058.383-.19.047-.22-.164-.051-.245-.075.064-.242.222-.234.351-.31.245-.289.5-.568.789-.927l.363-.1c-.031-.114-.048-.181-.068-.258l.611-.779Z" transform="translate(-109.386 -274.644)" fill="#750000"/>
      <path id="パス_674" data-name="パス 674" d="M48.083,326.615l-.657-1.016c-.223-.339-.436-.684-.632-1.038l-.026-.25-.155-.2-.212.075-.226-.156.372.708a1.431,1.431,0,0,0,.351.723l.143.09.457.712.013.1c.175.146.342.294.492.405Z" transform="translate(-41.353 -271.748)" fill="#750000"/>
      <path id="パス_675" data-name="パス 675" d="M49.1,329.146h0C49.106,329.156,49.106,329.154,49.1,329.146Z" transform="translate(-42.947 -274.533)" fill="#750000"/>
      <path id="パス_676" data-name="パス 676" d="M137.491,365.361l-.656.054-.532.153-.188-.136-.276.1-.049.2c-.927.28-1.824.456-2.713.663-.024,0-.044.03-.077.053.191.02.377.022.531.031a38.271,38.271,0,0,0,3.9-1.056C137.454,365.408,137.471,365.38,137.491,365.361Z" transform="translate(-88.6 -294.239)" fill="#750000"/>
      <path id="パス_677" data-name="パス 677" d="M42.31,315.284c0,.078,0,.157,0,.238l.269.532c.115.067.251.252.339.166-.032-.233-.048-.268-.151-.347l-.152.009a1.583,1.583,0,0,1-.052-.516c-.261-.587-.56-1.2-.8-1.81l.014-.2-.32-.31,0-.2-.215-.277V312.4c-.083-.129-.157-.254-.227-.382-.009.082-.021.111-.014.134.2.529.409,1.053.616,1.579S42.079,314.767,42.31,315.284Z" transform="translate(-38.537 -265.214)" fill="#750000"/>
      <path id="パス_678" data-name="パス 678" d="M38.2,302.511l-.259-.322-.09-.391.041-.223-.081-.351c-.09-.169-.178-.323-.255-.49-.035.136-.057.238-.073.319l.272,1.181.123.154c.1.447.259.912.394,1.383.007.023.033.039.05.059l.072-.012.09-.284C38.371,303.121,38.275,302.81,38.2,302.511Z" transform="translate(-36.624 -259.073)" fill="#750000"/>
      <path id="パス_679" data-name="パス 679" d="M36.86,296.221c-.13-.716-.263-1.429-.342-2.155l-.121-.2c-.016-.128-.033-.259-.049-.39l.067-.219c-.068-.071-.112-.244-.205-.228.067.543.135,1.084.2,1.629s.184,1.085.278,1.636C36.76,296.376,36.829,296.395,36.86,296.221Z" transform="translate(-35.93 -254.879)" fill="#750000"/>
      <path id="パス_680" data-name="パス 680" d="M169.448,338.7c-.1.139-.261.217-.3.394l.142.146c-.26.222-.342.1-.533.115l-.092.289.14.15.3-.087.692-.665a.225.225,0,0,0,.028-.071c0-.018,0-.044-.006-.052a.592.592,0,0,0-.1-.052c-.121.094-.207.238-.284.156.12-.128.23-.263.409-.48Z" transform="translate(-108.007 -279.649)" fill="#750000"/>
      <path id="パス_681" data-name="パス 681" d="M158.045,342.611l.085-.149c.17-.084.268-.021.427-.11.053-.109.108-.21.148-.3l.4-.071a2.373,2.373,0,0,0,.126-.291c.018-.067.137-.174.023-.21l-.648.51-.675.482c-.017.012-.022.041-.032.062C157.9,342.6,157.926,342.651,158.045,342.611Z" transform="translate(-102.148 -281.241)" fill="#750000"/>
      <path id="パス_682" data-name="パス 682" d="M40.211,309.555c-.115-.339-.2-.586-.253-.747-.135-.211-.225-.352-.311-.507l-.1.1a.515.515,0,0,0,.207.4c-.007.075-.014.151-.021.229l.1.311.33.513Z" transform="translate(-37.749 -263.19)" fill="#750000"/>
      <path id="パス_683" data-name="パス 683" d="M166.11,339.3a4.332,4.332,0,0,0,.717-.612l.113-.3-.068-.07a3.5,3.5,0,0,0-.8.755.559.559,0,0,0,.128-.047c.066-.041.132-.092.213-.151a1.32,1.32,0,0,1-.077.154A2.934,2.934,0,0,1,166.11,339.3Z" transform="translate(-106.593 -279.523)" fill="#750000"/>
      <path id="パス_684" data-name="パス 684" d="M162.515,341.892l.14.072.273-.214c.238-.1.416-.2.563-.265l.157-.287c-.162.036-.259.171-.421.288l-.347.047C162.748,341.666,162.589,341.727,162.515,341.892Z" transform="translate(-104.66 -281.09)" fill="#750000"/>
      <path id="パス_685" data-name="パス 685" d="M121.013,358.4c.077.069.078.164.111.244l.223-.017c.113-.3.1-.418-.048-.482-.122.041-.285-.009-.4.062C120.8,358.311,120.946,358.343,121.013,358.4Z" transform="translate(-81.995 -290.314)" fill="#750000"/>
      <path id="パス_686" data-name="パス 686" d="M168.764,336.306a.337.337,0,0,0,.056-.117l-.34,0-.244.256c-.051.144-.091.229-.129.327a3.883,3.883,0,0,1,.343-.2A.972.972,0,0,0,168.764,336.306Z" transform="translate(-107.702 -278.365)" fill="#750000"/>
      <path id="パス_687" data-name="パス 687" d="M169.677,336.157a.14.14,0,0,0-.005.015h.02Z" transform="translate(-108.554 -278.348)" fill="#750000"/>
      <path id="パス_688" data-name="パス 688" d="M181.581,338.174c-.448.589-.894,1.079-1.325,1.582-.064.074-.119.155-.179.232.507-.5.862-.878,1.1-1.163A2.286,2.286,0,0,0,181.581,338.174Z" transform="translate(-114.217 -279.445)" fill="#750000"/>
      <path id="パス_689" data-name="パス 689" d="M65.164,224.421l.078.091c.857-.678.967-.729,1.222-1.083-.309.239-.533.409-.752.594l-.217.062C65.393,224.193,65.236,224.268,65.164,224.421Z" transform="translate(-51.686 -217.007)" fill="#750000"/>
      <path id="パス_690" data-name="パス 690" d="M186.577,332.076l-.269.228c-.026.07-.056.15-.086.233l-.07.166-.091.2.05.021c.139-.2.284-.391.417-.591a2.393,2.393,0,0,0,.393-.69l-.311.22C186.6,331.958,186.587,332.012,186.577,332.076Z" transform="translate(-117.472 -275.893)" fill="#750000"/>
      <path id="パス_691" data-name="パス 691" d="M45.338,248.764l.106.052c.035-.03.062-.043.073-.064l.377-.733-.114-.127a4.288,4.288,0,0,0-.392.7A.838.838,0,0,0,45.338,248.764Z" transform="translate(-40.898 -230.318)" fill="#750000"/>
      <path id="パス_692" data-name="パス 692" d="M35.8,278.059l-.109-.57a3.16,3.16,0,0,0-.093.707l.079.217a2.31,2.31,0,0,0,0,.712.564.564,0,0,0,.052-.123C35.752,278.674,35.778,278.347,35.8,278.059Z" transform="translate(-35.597 -246.423)" fill="#750000"/>
      <path id="パス_693" data-name="パス 693" d="M192.579,308.051a1.309,1.309,0,0,0,.016-.174c-.028.022-.075.043-.08.067a.726.726,0,0,1-.164.307,1.465,1.465,0,0,0-.13.238c-.1.1-.142-.054-.212.154.014.1.029.2.044.308l.148-.038.133-.4.164-.18C192.526,308.244,192.556,308.148,192.579,308.051Z" transform="translate(-120.708 -262.959)" fill="#750000"/>
      <path id="パス_694" data-name="パス 694" d="M54.005,237.946l.058-.283c-.294.294-.3.291-.727,1.144.022-.011.051-.018.064-.036C53.6,238.5,53.786,238.214,54.005,237.946Z" transform="translate(-45.25 -224.752)" fill="#750000"/>
      <path id="パス_695" data-name="パス 695" d="M132.325,357.47c-.022.005-.039.029-.117.088,1.175-.207,1.432-.276,1.626-.424a.2.2,0,0,0-.072-.011C133.288,357.259,132.8,357.351,132.325,357.47Z" transform="translate(-88.168 -289.755)" fill="#750000"/>
      <path id="パス_696" data-name="パス 696" d="M191.412,314.672a1.649,1.649,0,0,0-.145.464c.034.014.074.071.111.038a.7.7,0,0,0,.3-.407c-.01-.08-.021-.176-.036-.3Z" transform="translate(-120.305 -266.543)" fill="#750000"/>
      <path id="パス_697" data-name="パス 697" d="M194.117,313.241c-.028.19-.053.358-.083.562l.165-.026.165-.422c-.022-.1,0-.268-.063-.314Z" transform="translate(-121.811 -265.769)" fill="#750000"/>
      <path id="パス_698" data-name="パス 698" d="M120.293,357.336c-.23.063-.446.021-.649.094l.008.182a3.871,3.871,0,0,0,.709-.113Z" transform="translate(-81.331 -289.872)" fill="#750000"/>
      <path id="パス_699" data-name="パス 699" d="M155.36,349.984a1.7,1.7,0,0,1,.695-.168c.075-.1.155-.191.148-.276l-.293.036C155.734,349.714,155.508,349.783,155.36,349.984Z" transform="translate(-100.766 -285.63)" fill="#750000"/>
      <path id="パス_700" data-name="パス 700" d="M35.959,287.85a2.254,2.254,0,0,0-.079-.723c-.016.146-.03.2-.029.263.008.294.005.588.036.88,0,.023.024.045.068.123l.094-.351Z" transform="translate(-35.735 -251.668)" fill="#750000"/>
      <path id="パス_701" data-name="パス 701" d="M169.129,336.909l-.271.093c-.085.115-.227.194-.3.36l.135.07C169.154,336.98,169.145,336.971,169.129,336.909Z" transform="translate(-107.95 -278.757)" fill="#750000"/>
      <path id="パス_702" data-name="パス 702" d="M90.58,354.695a.671.671,0,0,0-.15,0c.951.4.963.392,1.243.4-.017-.018-.031-.044-.052-.051Z" transform="translate(-65.434 -288.433)" fill="#750000"/>
      <path id="パス_703" data-name="パス 703" d="M36.018,283.174a2.789,2.789,0,0,0-.178-.651c-.006.288-.013.573-.02.858a.1.1,0,0,0,.021.051Z" transform="translate(-35.719 -249.163)" fill="#750000"/>
      <path id="パス_704" data-name="パス 704" d="M70.22,221.321a1.86,1.86,0,0,0-.58.413h.442Z" transform="translate(-54.122 -215.859)" fill="#750000"/>
      <path id="パス_705" data-name="パス 705" d="M43.534,256.211a1.44,1.44,0,0,0-.135.428c.083,0,.165-.126.247-.19a1.429,1.429,0,0,0,.134-.426C43.7,256.022,43.617,256.147,43.534,256.211Z" transform="translate(-39.843 -234.743)" fill="#750000"/>
      <path id="パス_706" data-name="パス 706" d="M70.551,222.162l-.15-.1c-.175.108-.353.182-.431.351l.119.074Z" transform="translate(-54.302 -216.264)" fill="#750000"/>
      <path id="パス_707" data-name="パス 707" d="M56.8,233.822l.455-.578c.166-.221.351-.425.531-.635l.481-.556c.177-.212.368-.411.559-.61l.508-.532a7.862,7.862,0,0,1,.587-.583,3.8,3.8,0,0,1,.5-.456l.17-.056.076-.195c.122-.173.242-.122.363-.2a3.606,3.606,0,0,0,.575-.554l-.313.077c-.291.238-.581.505-.845.742l-.186.054c-.408.391-.826.776-1.211,1.2s-.788.821-1.153,1.26a1.02,1.02,0,0,0-.087.14l-.035.144c-.307.343-.6.7-.877,1.067s-.575.721-.835,1.1l-.213.3a.619.619,0,0,0-.028.138,3.394,3.394,0,0,0,.476-.608C56.457,234.255,56.631,234.041,56.8,233.822Z" transform="translate(-46.601 -219.965)" fill="#750000"/>
      <path id="パス_708" data-name="パス 708" d="M43.99,267.569l.215-.931.145-.177c.007-.075.017-.157.031-.237l-.221-.057c-.028.036-.052.053-.058.076l-.269,1.159a1.234,1.234,0,0,0-.006.2Z" transform="translate(-40.076 -240.262)" fill="#750000"/>
      <path id="パス_709" data-name="パス 709" d="M48.9,253.737c-.012.028.009.07.016.116a1.558,1.558,0,0,0,.213-.392l.163-.134c.126-.271.24-.55.381-.816a.293.293,0,0,0,.006-.091l-.138-.068C49.278,252.848,49.1,253.3,48.9,253.737Z" transform="translate(-42.832 -232.746)" fill="#750000"/>
      <path id="パス_710" data-name="パス 710" d="M43.976,274.227l-.072.587c0,.031.029.063.044.093l.164-.234c.022-.175.044-.349.067-.53l.124-.185-.131-.143Z" transform="translate(-40.117 -244.424)" fill="#750000"/>
      <path id="パス_711" data-name="パス 711" d="M54.819,242.967a.63.63,0,0,0,.029-.143c-.673.857-.725,1.005-.792,1.244.021-.013.05-.02.062-.039C54.352,243.676,54.567,243.309,54.819,242.967Z" transform="translate(-45.641 -227.56)" fill="#750000"/>
      <path id="パス_712" data-name="パス 712" d="M51.223,249.292l-.009.167c-.066.239-.225.4-.254.64a.6.6,0,0,0,.213-.308,5.487,5.487,0,0,0,.327-.661l-.165-.032Z" transform="translate(-43.957 -230.974)" fill="#750000"/>
      <path id="パス_713" data-name="パス 713" d="M44.575,272.44a.153.153,0,0,0,.253.038A.805.805,0,0,0,44.88,272l-.1-.018Z" transform="translate(-40.482 -243.427)" fill="#750000"/>
      <path id="パス_714" data-name="パス 714" d="M48.939,250.09l.1-.2,0-.3-.117.085-.158.131-.095.245C48.781,250.059,48.811,250.175,48.939,250.09Z" transform="translate(-42.713 -231.243)" fill="#750000"/>
      <path id="パス_715" data-name="パス 715" d="M52.327,247.221a3.648,3.648,0,0,0,.56-.951A2.816,2.816,0,0,0,52.327,247.221Z" transform="translate(-44.701 -229.436)" fill="#750000"/>
      <path id="パス_716" data-name="パス 716" d="M50.125,246.981l-.083-.244.145-.253c.082.047.2-.1.313-.148a2.907,2.907,0,0,0,.31-.666c.032-.107.073-.208.11-.315-.075.047-.1.055-.116.074-.205.327-.392.666-.586,1-.2.078-.27.274-.352.456,0,.088,0,.182,0,.274C49.952,247.1,50.031,247.04,50.125,246.981Z" transform="translate(-43.36 -228.938)" fill="#750000"/>
    </g>
    <path id="パス_7350" data-name="パス 7350" d="M12.129-23.5v19.1a4.209,4.209,0,0,0,.684,2.8,3.561,3.561,0,0,0,2.617.732h.332a1.387,1.387,0,0,1,.508.078.366.366,0,0,1,.254.371q0,.391-.781.391l-1-.039L10.43-.1Q8.555-.1,7.6-.02,6.621.059,6.035.059q-.547,0-.547-.332,0-.43.605-.488L7.188-.84q2.07-.137,2.07-2.441V-21.523a2.82,2.82,0,0,0-.352-1.67,1.662,1.662,0,0,0-1.348-.439,3.579,3.579,0,0,0-1.758.41,1.389,1.389,0,0,1-.527.2q-.332,0-.312-.293Q5-24.082,7.148-24.727a12.223,12.223,0,0,0,4.375-2.383,1.319,1.319,0,0,1,.547-.332q.371,0,.371.43a3.994,3.994,0,0,1-.137.84A13.9,13.9,0,0,0,12.129-23.5Z" transform="translate(253 2791)" fill="#fff"/>
  </g>
</svg>
