<svg xmlns="http://www.w3.org/2000/svg" xmlns:xlink="http://www.w3.org/1999/xlink" width="301.449" height="500" viewBox="0 0 301.449 500">
  <defs>
    <clipPath id="clip-path">
      <rect id="長方形_336" data-name="長方形 336" width="301.449" height="500" fill="none"/>
    </clipPath>
    <clipPath id="clip-path-2">
      <rect id="長方形_335" data-name="長方形 335" width="301.448" height="499.999" fill="none"/>
    </clipPath>
    <clipPath id="clip-path-3">
      <rect id="長方形_331" data-name="長方形 331" width="88.279" height="143.916" fill="none"/>
    </clipPath>
    <clipPath id="clip-path-4">
      <rect id="長方形_332" data-name="長方形 332" width="25.854" height="148.065" fill="none"/>
    </clipPath>
    <clipPath id="clip-path-5">
      <rect id="長方形_333" data-name="長方形 333" width="31.548" height="125.725" fill="none"/>
    </clipPath>
    <clipPath id="clip-path-6">
      <rect id="長方形_334" data-name="長方形 334" width="96.489" height="138.478" fill="none"/>
    </clipPath>
  </defs>
  <g id="グループ_1829" data-name="グループ 1829" opacity="0.13">
    <g id="グループ_1827" data-name="グループ 1827" clip-path="url(#clip-path)">
      <g id="グループ_1826" data-name="グループ 1826" transform="translate(0 0.001)">
        <g id="グループ_1825" data-name="グループ 1825" clip-path="url(#clip-path-2)">
          <path id="パス_6097" data-name="パス 6097" d="M306.47,587.016l5.251-2.828,99.745,171.1,4.128,12.115s-11.943-14.263-12.927-15.617-96.2-164.773-96.2-164.773" transform="translate(-221.484 -422.189)" fill="#bee4f6" fill-rule="evenodd"/>
          <g id="グループ_1815" data-name="グループ 1815" transform="translate(0.705 16.721)" opacity="0.66">
            <g id="グループ_1814" data-name="グループ 1814">
              <g id="グループ_1813" data-name="グループ 1813" clip-path="url(#clip-path-3)">
                <path id="パス_6098" data-name="パス 6098" d="M5.767,61.18s-6.136,7.16-1.484,11.692,8.394,8.3,8.394,8.3l44.864,76.889,26.23,44.419,7.048,1.733-.607-6.674L21.338,75.931s1.633-8.905-3.69-13.214S5.767,61.18,5.767,61.18" transform="translate(-2.541 -60.301)" fill="#d2d37d" fill-rule="evenodd"/>
              </g>
            </g>
          </g>
          <path id="パス_6099" data-name="パス 6099" d="M191.148,368.016c-.391-.635-.783-1.27-1.2-1.886-1.426-2.094-2.964-4.118-4.277-6.28-3.1-5.1-6.063-10.283-9.137-15.4-1.9-3.163-3.974-6.222-5.846-9.4-3.027-5.14-10.853-18.114-11.336-19.089-1.7-3.433-9.49-16.441-10.585-18.416-1.527-2.755-6.049-10.529-6.391-11.238-.5-1.042-3.428-5.655-4.3-6.958-.6-.893-3.744-6.624-4.747-8.572-.985-1.913-5.712-10.56-7.417-12.681a23.056,23.056,0,0,1-2.319-4.125c-.946-1.82-16.313-28.647-17.985-31.3-1.6-2.537-7.718-12.551-8.507-14.143-.911-1.838-1.782-3.7-2.745-5.508-1.236-2.324-2.555-4.6-3.809-6.919a1.1,1.1,0,0,1-.011-.807,7.854,7.854,0,0,0-.249-5.153,53.43,53.43,0,0,0-2.352-6.49c-.29-.46-3.555-7.155-5.24-9.875-1.837-2.965-10.924-19.233-12.329-21.891-1.309-2.476-8.06-13.9-10.082-17.158-1.119-1.806-2.127-3.68-3.2-5.515-1.1-1.888-2.288-3.734-3.325-5.657-1.07-1.986-1.795-4.155-3.512-5.767a6.952,6.952,0,0,1-1.124-1.942c-.469-.912-3.28-6.031-4.107-7.674-1.423-2.827-7.225-12.937-8.388-14.781-2.014-3.194-3.8-6.507-5.665-9.784-1.72-3.027-7.389-13.149-7.805-13.939a12.85,12.85,0,0,1-1.829-6.17c-.021-3.229-1.692-6.153-3.237-8.971a5.76,5.76,0,0,0-1.946-1.781c-1.2-.791-2.472-1.484-3.746-2.154a6.083,6.083,0,0,0-4.746-.721,9.138,9.138,0,0,0-5.305,4,24.7,24.7,0,0,0-1.877,3.2c-.937,2.174-.189,7.544-.126,7.95a9.245,9.245,0,0,0,3.61,6.021c.683.533,1.17,1.376,2.208,1.34,2.412-.083,3.572,1.583,4.389,3.428,2.572,5.808,6.4,10.883,9.418,16.43,1.376,2.531,2.854,5.008,4.28,7.513.745,1.31,1.45,2.643,2.221,3.938.694,1.167,1.482,2.276,2.175,3.443,3.4,5.726,10.709,19.617,11.986,21.8,2.593,4.436,6.1,10.823,8.66,15.28,1.4,2.442,2.227,3.367,3.634,5.807,1.92,3.332,3.5,6.136,5.439,9.456,1.384,2.368,1.919,3.622,3.31,5.986,2.087,3.548,3.695,6.35,5.708,9.941.8,1.422,3.177,5.467,4.008,6.868.588.99,1.7,3.029,2.236,4.045,1.584,3.027,3.141,6.4,4.775,9.4.608,1.114,3.424,1.575,4.075,2.673,1.186,2,2.139,4.135,3.294,6.154,3.75,6.558,7.546,13.09,11.329,19.63,2.472,4.273,4.914,8.563,7.434,12.807,3.747,6.312,7.582,12.572,11.317,18.891,2.023,3.424,3.871,6.951,5.881,10.383,2.7,4.617,12.859,21.668,14.247,24.02,1.459,2.474,3.034,4.882,4.463,7.373,2.494,4.35,4.914,8.742,7.369,13.114.7,1.252,6.053,9.78,6.218,10.076,1.159,2.086,4.007,7.216,4.281,7.692,1.5,2.612,2.966,5.247,4.522,7.827,1.869,3.1,3.956,6.072,5.683,9.244,1.213,2.228,5.137,9.121,5.634,10.153.619,1.284,1.444,2.47,2.181,3.7,2.082,3.464,6.971,14.615,18.017,23.307.6.476,1.562.22,2.349.313.122-.163-2.221-5.522-2.551-7.381a55.332,55.332,0,0,0-3-7.672M82.661,182.912a32.986,32.986,0,0,1-3.291.794c-1.43.2-3.135-1.516-3.084-2.974a1.194,1.194,0,0,1,1.086-1.282c.462-.066.937-.041,1.663-.066A2.926,2.926,0,0,0,76.5,177.8a4.089,4.089,0,0,1-3.826-3.077c-.372-1.331.072-1.9,1.474-1.923,1.158-.017,2.316-.054,3.808-.089,2.559,2.659,3.232,6.5,4.709,10.205M68.828,164.991c1.178-.537,2.41-.957,3.872-1.527l4.843,7.922c-.754-.057-1.182-.114-1.611-.116a6.128,6.128,0,0,0-1.791.081,3.383,3.383,0,0,1-4.333-1.575c-.517-.876-1.044-1.748-1.558-2.627-.613-1.048-.485-1.674.578-2.158m-4.179-4.531a1.026,1.026,0,0,1,.687-1.6c1.3-.41,2.617-.744,4.049-1.144l2.515,4.55-5.748.875c-.471-.833-1.016-1.739-1.5-2.676M7.369,56.676,5.3,55.939A1.96,1.96,0,0,1,7.29,53.887a12.277,12.277,0,0,1,7.853,2.461c.084.061.084.239.147.437l-3.056.266c0,1.3.347,2.143,1.451,2.6a9.4,9.4,0,0,0,1.863.846c1.5.241,1.836,1.21,1.847,2.484a7.94,7.94,0,0,1-2.285,5.643c-.263-.859-.389-1.269-.524-1.708l-2.811-.943c.775-.6,1.209-1.216,1.693-1.256C14.744,64.608,15.1,63.58,15.7,62.8a1.147,1.147,0,0,0,.118-1.066,1.327,1.327,0,0,0-1.081-.286A7.476,7.476,0,0,0,13.422,62a11.838,11.838,0,0,1-1.187.336c-2.071.534-2.749.046-2.782-2.067-.011-.667-.057-1.337-.809-1.444a2.587,2.587,0,0,0-1.441.39c-.248.132-.349.539-.53.848-1.039-1.407,1.042-2.113.7-3.386M6.244,65.688c-.639-1.1-.158-2.21.106-3.424.525,2.556,2.977,2.749,4.746,3.744l-.149.471c-.4.12-1.014.464-1.161.322-1.02-.985-2.731.277-3.541-1.113M18.811,83.613c-.265-.478-.558-.928-.773-1.413a2.305,2.305,0,0,1,1.146-3.426c.421-.225.929-.3,1.324-.562a5.375,5.375,0,0,0,.883-.939c-1.948-1.576-3.653-.6-5.3.088-1.428-1.741-1.273-2.486.591-3.242.57-.232,1.144-.452,1.707-.7.109-.048.171-.2.311-.383-.809-1.07-2.126-.7-3.408-1.124,2.126-1.8,3.752-1.622,5.064.346.456.683,1.042,1.284,1.458,1.987.616,1.043,1.118,2.153,1.7,3.217.323.59.757,1.122,1.056,1.722.388.78.691,1.6,1.116,2.61l-6.874,1.82M37.48,114.44c.073-1.062.984-1.208,1.8-1.326.469-.068.978.09,1.433-.011a5.528,5.528,0,0,0,1.252-.664A2.934,2.934,0,0,0,39.491,111c-.891-.032-1.784-.13-2.672-.091-1.781.079-1.926-.03-2.055-2.012,1.283-1.039,3.1-1.335,4.253-2.776a2.394,2.394,0,0,0-2.127-.687c-.477.026-.947.214-1.422.221-3.53.055-3.249.264-4.413-2.422-.027-.063-.046-.13-.077-.191-1.237-2.436-1.09-2.769,1.6-3.595a2.214,2.214,0,0,0,.593-.163c.413-.283,1.1-.588,1.128-.929.067-.839-.722-1.176-1.4-1.152a19.544,19.544,0,0,0-3.67.449A1.832,1.832,0,0,1,26.9,96.506c-.367-.734-.821-1.423-1.208-2.147-.624-1.17-.466-1.67.779-2.258.616-.291,1.311-.415,1.924-.712a7.488,7.488,0,0,0,1.19-.894,2.182,2.182,0,0,0-2.789-.756c-2.94,1.169-4.395-.539-5.752-2.619a3.6,3.6,0,0,1-.246-.666,10.983,10.983,0,0,1,4.577-2.108,2.848,2.848,0,0,1,3.075,1.927c2.353,5.358,5.858,10.06,8.61,15.2,2.647,4.941,5.626,9.7,8.449,14.55a2.876,2.876,0,0,1,.142.761c-.422.006-.789.033-1.154.014-1.492-.076-2.984-.156-4.475-.256a3.906,3.906,0,0,1-1.208-.212,1.876,1.876,0,0,1-1.336-1.885m8.088,14.18c-.637-1.091-.226-1.792,1.09-1.971.668-.091,1.339-.163,2-.273.1-.016.173-.195.258-.3-.549-1.414-1.109-1.819-2.518-1.731a11.223,11.223,0,0,1-1.621.231,2.166,2.166,0,0,1-1.423-.571c-.967-1.292-2.17-2.486-2.323-4.343,1.625-1.294,4.066.5,5.559-1.346,3.13,4.023,8.409,13.359,9.014,15.963-1.635-.039-3.263-.16-4.883-.089a2.918,2.918,0,0,1-2.678-1.572c-.874-1.3-1.689-2.644-2.48-4m14.323,24.289c-1.21-2.069-2.416-4.141-3.589-6.231a20.817,20.817,0,0,1-.86-2.044l3.98-1.107c0-.148-.009-.3-.014-.445a3.839,3.839,0,0,0-.974-.471c-1.058-.178-2.129-.281-3.195-.416-2.738-.346-3.065-2.68-4.111-4.6,2.016-1.124,4.047-.979,5.974-1.468l7.308,13.217c-.936-.141-1.515-.244-2.1-.311a3.229,3.229,0,0,0-1.416-.063,2.409,2.409,0,0,0-1.274,1.066c-.1.228.449.99.854,1.163,1.583.676,3.223,1.271,4.983.232a13.521,13.521,0,0,1,2.8,4.792c-.666.03-1.164.081-1.66.069a35.559,35.559,0,0,1-3.639-.169,2.566,2.566,0,0,1-1.513-.786,16.537,16.537,0,0,1-1.554-2.422m20.2,34.663c-.155-1.365.245-1.951,1.631-2.353a9.026,9.026,0,0,1,1.2-.26,2.121,2.121,0,0,1,.525,0c.969,1.577,1.762,2.8,2.476,4.063a5.871,5.871,0,0,1,.49,1.547c.388,1.654-.293,2.342-1.907,1.954a5.208,5.208,0,0,1-4.413-4.949M191.869,377.91c-.565-1.37-3.206-3.264-3.6-4.878-.2-.8-1.774-2.324-2.016-2.893-.462-1.085-2.455-3.967-2.755-4.5-2.483-4.411-4.916-8.85-7.467-13.221-1.091-1.87-2.446-3.585-3.638-5.4-.411-.626-.654-1.36-1.039-2.005-2.038-3.413-4.146-6.787-6.133-10.228-1.369-2.372-9.152-15.348-10.349-17.4-1.1-1.884-8.745-14.3-8.982-14.714-.345-.6-14.962-27.166-17.611-31.788-3.169-5.529-13.354-22.832-15.313-25.936-.109-.173-6.927-12.232-8-14.192-1.643-3-3.451-5.906-5.169-8.864-.617-1.062-8.034-15.889-9.537-16.976-.2-.148-.2-.587-.027-1.106a3.91,3.91,0,0,1,.931.8c1.233,2.052,2.394,4.146,3.622,6.2,1.789,2.995,3.642,5.952,5.414,8.957,1.534,2.6,2.989,5.249,4.488,7.871.475.831,1.949,3.142,2.141,3.505,1.663,3.136,3.267,6.3,4.984,9.41,1.361,2.46,2.882,4.831,4.285,7.268,2.912,5.054,5.764,10.141,8.694,15.184,2.618,4.506,22.607,37.84,23.047,38.609.2.35,6.6,11.635,9.812,17.01,1.09,1.823,9.552,15.95,12.437,20.761,2.537,4.231,4.926,8.552,7.465,12.782,2.256,3.759,14.856,21.82,14.322,25.74" transform="translate(0 -35.886)" fill="#0d101d" fill-rule="evenodd"/>
          <path id="パス_6100" data-name="パス 6100" d="M116.541,236.157c-1.249,1.51-2.63.862-4.042.349.934-1.683,2.378-1.8,4.042-.349" transform="translate(-81.302 -169.941)" fill="#0d101d" fill-rule="evenodd"/>
          <path id="パス_6101" data-name="パス 6101" d="M32.816,75.34c.581-1.007,1.24-.611,2.132-.312-1.164.672-1.164.672-2.132.312" transform="translate(-23.716 -53.981)" fill="#0d101d" fill-rule="evenodd"/>
          <path id="パス_6102" data-name="パス 6102" d="M219.426,946.844l4.115,1.381,34.289,227.607-1.973,5.879-2.657-4.947s-32.839-227.251-33.775-229.919" transform="translate(-158.578 -684.279)" fill="#bee4f6" fill-rule="evenodd"/>
          <path id="パス_6103" data-name="パス 6103" d="M135.781,472.621s-5.835,2.315-6.611,11.386,2.9,41.785,2.9,41.785,7.555,52.331,9.636,57.825,15.052,16.737,15.052,16.737l8.824-19.538-8.726-68.6s-2.726-35.275-9.152-38.477-11.056-1.617-11.92-1.122" transform="translate(-93.272 -340.961)" fill="#d36829" fill-rule="evenodd"/>
          <path id="パス_6104" data-name="パス 6104" d="M146.284,484.989c-.07-.466-1.133-6.925-2.612-9.415a16.6,16.6,0,0,0-3.426-4.649,13.883,13.883,0,0,0-2.255-1.772c-.943-.489-3.41-1.244-8.732-.32a11.218,11.218,0,0,0-8.446,5.987c-.968,1.721-3.815,8.058-3.688,9.518.29,3.352.576,6.723,1.189,10.026,1.39,7.487,1.851,15.111,3.506,22.561.74,3.333.987,6.773,1.5,10.157.7,4.606,1.479,9.2,2.179,13.81,1.041,6.852,2.034,13.712,3.067,20.565.348,2.31.74,4.614,1.138,6.916.55,3.174,1.169,6.338,1.667,9.52a63.156,63.156,0,0,0,3.117,9.17c1.232,1.366,8.343,8.816,8.621,9.106.963,1,.619,2.292.793,3.474.458,3.118.989,6.225,1.413,9.347.3,2.212.416,4.45.72,6.661.495,3.6,1.07,7.182,1.623,10.77.909,5.9,1.812,11.8,2.748,17.694.764,4.809,1.614,9.6,2.353,14.417.947,6.166,1.815,12.345,2.733,18.516.232,1.56.536,3.108.788,4.665.679,4.2,1.372,8.394,2.012,12.6.548,3.6.988,7.206,1.552,10.8.765,4.869,1.639,9.721,2.4,14.59,1.364,8.745,2.678,17.5,4.01,26.249.836,5.494,1.714,10.982,2.485,16.486.753,5.374,1.392,10.765,2.088,16.148.351,2.719.729,5.434,1.079,8.152.385,2.991.675,6,1.145,8.973.889,5.625,1.984,11.22,2.794,16.855.838,5.825,1.121,11.731,2.586,17.465.064.252,1.66,6.586,4.378,8.375.928.611,1.631-1.66,1.666-2.2.091-1.429.376-2.846.6-4.266.083-.534-.237-6.591-.547-9.084-.169-1.36-.425-2.709-.638-4.063-.5-3.153-1-6.3-1.479-9.459a70.873,70.873,0,0,1-1-7.058,69.3,69.3,0,0,0-1.069-7.857c-.476-2.866-1.173-5.694-1.73-8.546-.261-1.338-.469-2.691-.614-4.046-.4-3.716-5.1-38.346-5.522-40.675-.2-1.124-3.606-23.961-3.767-25.164-.3-2.265-.535-4.54-.853-6.8-.254-1.81-.651-3.6-.879-5.414-.405-3.231-.7-6.475-1.1-9.708-.316-2.579-.789-5.141-1.051-7.726-.256-2.528-1.743-10.947-2.039-12.682-.234-1.371-1.733-10.789-1.988-12.583-.379-2.677-5.559-37.15-5.572-37.595a26.9,26.9,0,0,0-.388-3.269c-1.031-6.642-2.084-13.281-3.1-19.925a6.744,6.744,0,0,1-.119-2.639,55.7,55.7,0,0,1,2.4-7.577c1.333-3.108,4.1-9.436,4.111-9.5.274-2.287.692-4.542.207-6.885-.458-2.212-.62-4.485-.914-6.731-.2-1.56-.386-3.124-.618-4.681-.351-2.361-.791-4.71-1.093-7.077-.294-2.3-.441-4.621-.691-6.928-.384-3.541-1.506-6.975-1.477-10.586a22.844,22.844,0,0,0-.659-2.97c-.526-3.942-.984-7.893-1.486-11.838-.128-1-.336-2-.486-3A60.757,60.757,0,0,0,149.674,512a34.435,34.435,0,0,1-1.228-5.571c-.224-1.933-1.972-20.179-2.162-21.44m-16.054,65.7c.268-.088.944-5.925,1.808-8.807.433.239,1.792-4.526,2.95-6.266,2.008-3.015,4.01-6.037,6.1-8.995,1.97-2.788,2.971-5.989,4.152-9.122.474-1.257,1-2.5,1.5-3.742l.371.128,1.306,9.273c-1.421-.2-2.129.473-2.372,1.912-.26,1.537-.519,3.1-.84,4.6a49.254,49.254,0,0,1-2.7,7.539,38.7,38.7,0,0,1-4.545,7.541c-2.532,3.686-4.6,7.634-4.618,12.333a.885.885,0,0,0-.161.235c-.73,1.575-.692,3.711-1.1,5.564-.167-1.172-.438-2.332-.592-3.506-.31-2.37-.551-4.749-.849-7.121a12.952,12.952,0,0,0-.411-1.561m15.689-39.655c-.62,1.395-1.706,2.516-2.086,4.036a26.8,26.8,0,0,1-1.476,4.25c-.848,1.932-1.918,3.768-2.751,5.706-1.084,2.522-3.091,4.425-4.39,6.8-.324.592-1.095.93-1.62,1.427a3.4,3.4,0,0,0-.622.881,30.312,30.312,0,0,0-2.6,8.392c-.1.519-.291,1.022-.536,1.864-1.249-1.242-.886-2.551-1.047-3.724a8.5,8.5,0,0,0-.252-2.41,6.952,6.952,0,0,1-.144-4.937,1.777,1.777,0,0,1,.565-1.056c1.2-.72,1.28-1.944,1.653-3.1.565-1.746,6.924-11.078,9.173-13.69,1.894-2.2,3.2-4.908,4.759-7.394a8.155,8.155,0,0,1,1.276-1.7,5.39,5.39,0,0,1,.1,4.651m-1.527-7.873c-1.656,3.073-3.338,6.144-5.222,9.08-1.873,2.92-4.015,5.668-6.009,8.512-.626.893-.954,2.116-1.766,2.733-2.051,1.559-4.367,6.838-4.45,6.082-.037-.341-.054-.685-.1-1.025a86.055,86.055,0,0,1-.589-11.12c.086-.608.346-1.192.424-1.8.081-.634,4.436-7.265,6.087-9.649a15.231,15.231,0,0,1,1.657-2.038,34.815,34.815,0,0,0,5.39-7.183c1.049-1.822,2.345-3.5,3.531-5.244l.448-.074c.51,2.869,1.139,5.724,1.464,8.614a5.8,5.8,0,0,1-.862,3.112m-2.171-21.37c.188.237.5.452.483.635-.177,1.818.584,3.679-.333,5.467a107.638,107.638,0,0,1-10.109,15.7c-1.109,1.468-2.554,2.678-3.707,4.116a12.392,12.392,0,0,0-1.54,2.829c-.464,1.066-.735,2.218-1.219,3.272-.136.3-.725.386-1.107.57a5.13,5.13,0,0,1-.353-1c-.2-1.469-.369-2.942-.526-4.416a8.876,8.876,0,0,1-.16-2.614c.258-1.257.876-2.436,1.229-3.68.639-2.248,2.273-3.7,3.962-5.1a33.237,33.237,0,0,1,3.443-2.6,23.843,23.843,0,0,0,7.763-8.61c.511-.884,1.189-1.675,1.659-2.576a9.222,9.222,0,0,0,.513-1.983M122.828,480.5a19.681,19.681,0,0,1,.5-1.943c.242-.675,2.352-6.1,3.732-6.311.38-.06.827.3,1.441.554l1.152-2.515c.331.518.692.823.7,1.139a9.364,9.364,0,0,1-1.1,5.307,14.524,14.524,0,0,1-5.289,5.3,4.425,4.425,0,0,1-.733.34,3.732,3.732,0,0,1-.841-.048c.169-.711.3-1.269.434-1.825m-.351,4.674c.283-.412.782-1.042,1.105-1,2.1.28,3.276-1.188,4.581-2.319a11.7,11.7,0,0,0,3.534-4.684,7.337,7.337,0,0,0-.015-5.544c1.5-1.488,2.98-.768,4.7.095.238,4.076-1.394,7.667-3.181,11.308-1.878,3.827-5.6,5.416-8.526,7.912-2.223-1.207-3.2-4.308-2.2-5.769m-.435,12.175a3.136,3.136,0,0,1,1.512-2.979c2.288-1.462,4.649-2.807,6.942-4.262a16.466,16.466,0,0,0,4.15-4.168,23.116,23.116,0,0,0,4.322-10.086,6.739,6.739,0,0,1,.413-1.068c1.182,1.153,1.78,2.231,1.153,3.725-1.053,2.507-1.946,5.091-3.15,7.522a13.818,13.818,0,0,1-4.479,5.215,35.957,35.957,0,0,0-6.119,5.409c-1.486,1.68-3.423,3.216-3.9,5.792-.291-1.7-.677-3.39-.842-5.1m60.909,332.378a8.627,8.627,0,0,1-1.064,1.568c-.477-.342-1.306-.628-1.37-1.036a42.522,42.522,0,0,1-.466-5.495c-.013-.466-5.5-32.387-5.817-34.554-.284-1.963-.523-3.933-.787-5.9q-.968-7.208-1.94-14.416a1.464,1.464,0,0,0-.017-.205c-1.262-4.375-.843-8.967-1.718-13.388a93.122,93.122,0,0,1-1.7-11.735c-.088-1.285-.552-2.54-.739-3.824-.3-2.024-2.607-15.891-3.2-18.974-.346-1.805-1.114-8.252-1.3-9.662-.271-2.019-.476-4.048-.667-6.077-.168-1.766-.588-5.972-.7-6.294-.778-2.234-6.06-38.676-6.207-39.581-.473-2.906-.827-5.831-1.248-8.746-.4-2.756-.811-5.5-.965-8.3-.14-2.538-.987-5.034-1.463-7.559-.215-1.141-.275-2.311-.418-3.467-.2-1.606-2.857-16.539-3.1-17.669-.07-.325.241-.731.376-1.1l.673.13s2.3,12.816,2.388,13.394c.819,5.282,5.3,30.647,5.567,32.954.1.871,1.123,9.126,1.984,12.258.553,2.015,5.026,29.637,5.548,33,.364,2.342,1.835,15.209,2.277,17.987.376,2.366,3.154,19.019,3.686,21.842.314,1.67.481,3.368.724,5.051.59,4.073,1.225,8.14,1.77,12.219.791,5.924,1.52,11.855,2.272,17.784.718,5.654,7.143,47.327,7.443,48.594.095.4.314.88.181,1.2M154.618,580.979c-1.291,3.2-2.74,6.343-4.193,9.66-1.4-1.09-1.785-1.949-1.263-3.467.55-1.6,1.265-3.144,1.915-4.709a8.915,8.915,0,0,0,.787-1.885c.3-1.9,1.611-2.707,3.352-3.337a6.519,6.519,0,0,1-.6,3.739m.57-4.546-1.175-1.154c-1.993.194-3.482,3.283-3.482,3.283-.728,1.436-1.481,3.031-2.331,4.571a8.492,8.492,0,0,0-.808,6.713c.364,1.288.821,2.645.107,3.992-1.75.194-3.946-1.334-3.892-2.961.081-2.5-.4-5.028.567-7.5.722-1.852,1.083-3.842,1.72-5.732a5.624,5.624,0,0,1,1.187-1.639c1.677-1.972,3.433-3.88,5.036-5.909a28.554,28.554,0,0,0,2.034-3.51s1.147,9.792,1.038,9.844m-1.53-13.093c0,.545-.8,1.052-.95,1.648-.568,2.188-2.557,3.475-3.376,5.524a60.941,60.941,0,0,1-5.491,8.539c-1.288,1.347-1.288,3.268-1.919,4.91-.355.924-.572,1.9-.872,2.928a7.38,7.38,0,0,1-2.32-6.2c.176-2.441,1.14-4.827,1.784-7.231.086-.32.355-.59.453-.909.507-1.655,1.126-3.205,2.774-4.109.366-.2,2.482-3.464,2.772-3.116a24.632,24.632,0,0,0,6.274-7.521,12.582,12.582,0,0,1,.872,5.538m-4.6-36.783c.165,2.049.261,4.1.427,6.153a45.728,45.728,0,0,1,.494,5.933,18.531,18.531,0,0,1-1.2,4.969,83.345,83.345,0,0,1-6.064,12.817,28.8,28.8,0,0,1-2.986,3.653,5.107,5.107,0,0,0-.888,1.553,7.742,7.742,0,0,1-1.917,3.128,14.445,14.445,0,0,0-2.187,3.995c-.121.257.177.71.389,1.442a10.589,10.589,0,0,0,1.165-1.718c1-2.565,2.888-4.461,4.618-6.506,1.418-1.677,2.543-3.6,3.866-5.359,2.438-3.246,3.846-7.019,5.565-10.634a4.95,4.95,0,0,1,.8-.888,6.335,6.335,0,0,1,.444,1.259c.175,1.81.32,3.622.448,5.436.148,2.11-1.021,3.809-1.839,5.6a17.149,17.149,0,0,1-5.175,6.485,16.2,16.2,0,0,0-4.326,4.632c-1.54,2.814-3.472,5.6-3.121,9.151a13.463,13.463,0,0,1-.524,3.325l-1.627.438a18.437,18.437,0,0,0-1.132-1.94c-.4-2.215-.766-4.436-1.07-6.665a22.674,22.674,0,0,0-.6-3.813,5.284,5.284,0,0,1-.242-1.575c-.024-.368-.041-.737-.055-1.106,1-1.281,1.634-4.285,1.711-4.16.417-1.314.346-3.486.7-4.26a.707.707,0,0,0,.01-.639c.351-1.322.755-2.631,1.187-3.929a25.18,25.18,0,0,1,1.489-4.01,58.3,58.3,0,0,1,4.086-6.78,32.745,32.745,0,0,0,5.689-11.9c.211-.926.157-1.909.3-2.853.175-1.135.433-2.259.723-3.733a3.516,3.516,0,0,1,.838,2.5" transform="translate(-84.643 -338.507)" fill="#0d101d" fill-rule="evenodd"/>
          <path id="パス_6105" data-name="パス 6105" d="M394.269,544.305l5.546,1.664-.832,273.147-1.664,5.546-3.05-9.844Z" transform="translate(-284.936 -393.367)" fill="#bee4f6" fill-rule="evenodd"/>
          <g id="グループ_1818" data-name="グループ 1818" transform="translate(102.201 2.135)" opacity="0.74">
            <g id="グループ_1817" data-name="グループ 1817">
              <g id="グループ_1816" data-name="グループ 1816" clip-path="url(#clip-path-4)">
                <path id="パス_6106" data-name="パス 6106" d="M374.849,8.24s-6.655.74-6.286,6.286a57.919,57.919,0,0,0,1.294,9.243l1.109,58.049-.185,56.94s4.992,17.008,6.286,17.008a12.8,12.8,0,0,0,3.328-.739l7.58-16.454,1.479-116.838s6.84-7.21,4.437-9.613S379.656,6.391,374.849,8.24" transform="translate(-368.549 -7.702)" fill="#742d82" fill-rule="evenodd"/>
              </g>
            </g>
          </g>
          <path id="パス_6107" data-name="パス 6107" d="M386.537,5.476a6.844,6.844,0,0,0-3.866-3.7C379.518.62,365.9-.031,365.841,0c-1.922,1.152-3.852,2.291-5.754,3.474a2.823,2.823,0,0,0-.8.914c-1.967,3.125-1.784,9.036.369,12.007a2,2,0,0,0,.735.7,1.881,1.881,0,0,1,1.108,2.019c-.03,2.941-.09,5.882-.152,8.823a17,17,0,0,0-.112,1.833c.381,4.241-.1,22.409.1,27.044.018.412.065.824.047,1.234q-.228,5.139-.475,10.277a31.547,31.547,0,0,0-.158,4.069c.408,4.841.217,9.687.192,14.53-.024,4.59-.21,9.179-.268,13.77-.033,2.6.043,5.2.08,7.793.042,2.874.125,5.747.134,8.621s.164,10.352.3,11.227c.233,1.475.5,2.946.713,4.424a64.9,64.9,0,0,0,1.129,7.5,84.93,84.93,0,0,0,3.174,8.821,6.145,6.145,0,0,1,.387,3.2c-.185,1.417.249,12.373-.05,15.3-.236,2.305-.042,4.652-.076,6.981-.035,2.4.046,13.5.073,16.649.021,2.395.855,23.134.847,28.132,0,2.949.112,5.9.1,8.847-.005,1.984-.186,3.967-.191,5.95-.006,2.4.136,4.8.13,7.2-.006,2.111-.194,4.222-.187,6.332.019,5.609.128,11.218.149,16.827.025,6.5,0,13-.014,19.5,0,2.326-.011,4.651-.043,6.976-.03,2.191-.173,4.383-.128,6.572.071,3.491.217,6.97.068,10.472-.2,4.8-.045,9.606-.081,14.41-.011,1.506-.212,3.011-.217,4.517-.021,5.679.023,11.359,0,17.038-.016,4.7-.1,9.4-.125,14.1-.014,2.6.013,5.21.044,7.814.034,2.877.093,5.754.143,8.63.024,1.37.085,2.739.071,4.109-.042,3.968-.124,7.936-.171,11.905q-.053,4.513-.058,9.027c-.009,3-.119,6.009.035,9,.208,4.037.256,14.989.614,15.979.884,2.441,2.71,7.392,3.7,9.8.53,1.292,2.593-8.8,2.618-9.748.026-1-.253-18.078-.258-19.1-.009-1.638.024-3.275.01-4.911-.007-.877-.117-1.754-.109-2.631.01-1.1.14-2.191.135-3.286-.018-4.036-.119-8.073-.1-12.109.023-4.252.16-8.5.227-12.755.015-.961-.047-1.924-.083-2.885-.1-2.709-.266-5.416-.3-8.125-.029-2.319.1-7.507.021-7.757-.042-.918-.279-6.109-.206-7.3.046-.752.158-21.486.284-25.478.074-2.359.036-14.18-.021-16.292-.051-1.91-.071-3.822-.116-5.732.08-.089.19-18.918.207-20.1,0-.221-.036-11.708.185-15.388.11-1.833,0-3.679.021-5.518.019-1.97.3-7.9.258-8.885-.092-2.3-.379-11.224-.172-13.4.271-2.849.257-18.106-.076-19.641-.314-1.444-.187-31.886-.187-33.981,0-1.637.465-12.721.355-16.629a73.379,73.379,0,0,1,.347-7.777,6.91,6.91,0,0,1,.777-2.733c.438-.795,1.255-3.735,1.731-4.806,1.232-2.772,2.106-5.7,3.31-8.487.39-.9,2.694-17.643,2.556-20.588-.136-2.894-.06-19.5.1-24.9.087-2.867-.024-5.739.026-8.607.026-1.494,0-11.806-.054-15.472-.013-.919.335-13.687.374-15.946.08-4.7-.1-24.511-.075-29.712.007-1.565-.045-3.132.009-4.7a4.706,4.706,0,0,1,1.226-2.962,43.751,43.751,0,0,0,2.853-3.942,2.818,2.818,0,0,0,.3-1.176,9.622,9.622,0,0,0-.871-5.418m-17.189.461a6.9,6.9,0,0,1,9.235,2.237l-2.7.335c.486,1.55,1.964,2.139,1.964,3.748,0,1.436-1.011,2.295-1.2,3.488-4.012.372-7.456-1.064-10.718-2.972-.721-.422-1.1-1.43-1.552-2.055a12.4,12.4,0,0,1,4.973-4.781M372.2,320.474c-.056,1.213-.328,2.42-.333,3.63-.01,2.172.181,4.344.157,6.515q-.059,5.428-.3,10.852c-.09,2.03-.043,8.688-.008,9.324-.1.82-.2,1.6-.23,2.387-.078,2.124-.07,4.252-.123,6.377-.083,3.354-.2,6.707-.278,10.061-.053,2.323-.066,4.647-.088,6.971-.008.825.006,1.65.016,2.474.052,4.185.154,8.37.145,12.555-.008,3.422-.187,6.844-.219,10.267-.022,2.4.2,15.413.665,19.5.074.649-.08,4.161-.745,4.641a40.713,40.713,0,0,1-.721-4.664c-.282-2.261-.617-4.528-.688-6.8-.064-2.042.428-17.568.4-19.884-.05-3.968-.17-7.936-.2-11.9-.046-5.273-.032-10.547-.06-15.821-.005-.953-.141-1.907-.133-2.86.037-4.221.125-8.441.155-12.662.028-3.971.019-7.943,0-11.914-.007-2.173-.051-4.346-.091-6.52-.021-1.151-.156-2.307-.09-3.452.127-2.239.564-4.478.5-6.707-.1-3.541.015-14.508-.06-15.938-.1-1.941.083-15.475.04-18.345-.031-2.041-.195-4.08-.216-6.121a38.761,38.761,0,0,1,.1-4.863,32,32,0,0,0,.121-7.462,20.667,20.667,0,0,1,.044-5.091,9.227,9.227,0,0,0,.081-1.028c.033-4.1.072-8.19.082-12.285.006-2.5-.044-4.995-.054-7.492-.01-2.459-.045-4.919.019-7.376.032-1.226.364-2.446.379-3.672.029-2.375-.105-4.751-.1-7.127s-.713-53.67-.782-56.247c-.095-3.515.037-7.037.133-10.555.045-1.641.23-3.278.359-4.917.051-.654.414-.794,1.113-.533,1.334.664.446.5.687,3.16.07.77,0,2.333,0,3.143,0,2.729-.472,5.257-.434,7.985.029,2.178.462,4.336.12,6.539a25.484,25.484,0,0,0-.116,3.9c0,2.2.181,11.487.312,13.73.092,1.568.217,3.134.259,4.7.016.606-.141,18.985.044,20.2.154,1.01-.335,9.294-.067,10.45a16.286,16.286,0,0,1,.263,2.437c.141,1.866-.01,15.971-.178,19.356-.057,1.154-.292,10.771-.265,11.522.118,3.322.28,6.644.374,9.967.032,1.148-.109,2.3-.134,3.451-.009.414.147,17.133.158,17.2.062.762.021,10.545-.066,11.821a9.652,9.652,0,0,0-.128,1.394c.1,1.22.185,10.095.187,11.858,0,1.291.058,2.585,0,3.873m4.651-181.968a19.709,19.709,0,0,0-2.533,6.246c-.294,1.56-1.519,2.209-2.576,3.019a.88.88,0,0,1-1.461-.523c-.315-.961-.556-1.946-.9-3.167l2.079,1.534.533-2.2,1.295.38c1.061-1.188-.223-2.35.013-3.522s.268-2.378.419-3.859c.956-1.143,2.466-.779,4.215-.525a20.5,20.5,0,0,1-1.085,2.613m4-120.345c-.116,4.66-.351,9.317-.49,13.977-.043,1.438.12,2.882.1,4.322-.014,1.014-.172,2.027-.281,3.038-.021.2-.2.409-.158.58.889,3.743.279,7.49.074,11.238-.045.816.158,1.644.142,2.464-.078,3.9-.227,7.794-.283,11.692-.051,3.624.02,7.25-.031,10.875-.034,2.395-.24,4.787-.278,7.182-.048,3.019,0,6.041,0,9.062-.011,5.412-.055,10.825-.045,16.238.008,3.983.095,7.965.115,11.948.006,1.089-.1,2.178-.157,3.267-.042.8-.106,1.6-.127,2.4-.044,1.633-.543,2.22-2.612,2.844l1.738,1.179-.609,3.988c-4.174.024-7.633-1.586-11.325-3.147l-1.365.681c.189,2.223,2.547,2.246,3.565,3.414l-.724,5.476a22.105,22.105,0,0,0-2.1-3.216,5.708,5.708,0,0,1-1.452-5.57,9.2,9.2,0,0,0-.1-2.241c.838.1,1.417.153,1.991.243,1.185.186,2.344.887,3.57,0,.236-.17.778.106,1.182.145.633.062,1.268.1,1.9.143l.088-.517c-2.026-.683-4.036-1.425-6.084-2.033-1.947-.579-2.043-.592-2.228-2.615-.079-.862-.09-1.731-.142-2.825a26.151,26.151,0,0,0,8.519-.415c-2.726-1.822-5.88-1.233-8.483-2.794v-6.483a11.323,11.323,0,0,0,8.541,1.689,28.022,28.022,0,0,0,3.576-.357c-.725-.148-1.463-.248-2.171-.453-2.22-.643-4.445-1.275-6.633-2.017a13.429,13.429,0,0,1-2.738-1.395c-.832-.521-.911-3.413-.118-3.976a1.471,1.471,0,0,1,1.148-.191,16.8,16.8,0,0,0,5.7.61,5.8,5.8,0,0,1,1.579.465l.372-.892a19.24,19.24,0,0,0-5.027-2.165c-.795-.218-1.6-.423-2.372-.7-1.98-.708-2.41-1.42-2.16-3.558a12.387,12.387,0,0,1,.349-1.492l9.765,1.721a1.3,1.3,0,0,0-.971-1.861c-1.316-.343-2.652-.628-3.994-.841-1.486-.236-2.989-.362-4.585-.548a10.7,10.7,0,0,1-.2-7.282,2.754,2.754,0,0,0,.093-1.505c-.6-2.031-.089-4.037-.206-6.156,3.147-.383,6.121.191,9.059.009q.03-.293.059-.586l-7.7-2.175.359,1.465c-.805.311-1.186-.057-1.3-.668-.357-1.981-.973-3.914-.339-6.006a10.642,10.642,0,0,0,.108-3.452c-.049-1.095-.2-2.144.674-3.06.24-.251.149-.819.221-1.318,1.247.086,2.363,1.07,3.675.221a2.571,2.571,0,0,0-2.465-.778,2.142,2.142,0,0,1-2.151-.981c0-2.4-.005-4.48,0-6.564.006-1.834-.024-3.67.068-5.5a5.729,5.729,0,0,1,.628-1.65c-.187-.251-.673-.6-.671-.952.008-1.622.1-3.249.263-4.862.129-1.241,1.3-1.449,2.19-2.017l-1.933.214a5.861,5.861,0,0,1-.721-4.7l-1.071-.511a1.247,1.247,0,0,1-.087-.431c.38-1.8.833-3.582,1.142-5.391.179-1.05.622-1.37,1.671-1.233,3.093.405,6.2.73,9.239,1.079-1.051-2.126-4.711-2.964-7.442-1.525-.981-1.123-3.742-.655-3.027-3.531l7.027-.8c-.007-.12-.014-.241-.021-.361l-6.715-1.2a3.724,3.724,0,0,1,.181-4.286c.527,1.664,1.677,1.331,2.85,1.348,2.253.032,4.5.331,6.755.474a22.828,22.828,0,0,0,2.313-.091c-.4-2.016-2.357-.936-3.218-2.209h5q0-.265,0-.529c-1.049-.019-2.1,0-3.148-.068-1.162-.072-2.317-.278-3.479-.311-1.011-.028-2.027.1-3.04.167l-.025-.416a12.156,12.156,0,0,1,1.531-.154,3.609,3.609,0,0,0,2.627-.92,4.062,4.062,0,0,1,2.061-.712,20.581,20.581,0,0,1,2.688-.027l1.751-3.335.283.072c.1,1.542.307,3.086.269,4.624m2.383-7.89L380,5.631c3.223,1.689,4.1,3.078,3.241,4.64" transform="translate(-258.664 -0.003)" fill="#0d101d" fill-rule="evenodd"/>
          <path id="パス_6108" data-name="パス 6108" d="M386.779,319.857a9.8,9.8,0,0,1,1.836-.212c2.222.269,4.457.5,6.648.937a16.228,16.228,0,0,1,3.168,1.437c-.616.342-.912.63-1.057.568-1.9-.822-3.917-.081-5.828-.493a31.18,31.18,0,0,1-3.691-1.086c-.314-.109-.517-.534-1.077-1.152" transform="translate(-279.523 -230.998)" fill="#0d101d" fill-rule="evenodd"/>
          <path id="パス_6109" data-name="パス 6109" d="M385.7,129.262c1.293-.111,2.4-.28,3.516-.273.615,0,1.3.022,1.5,1.01.108.559.781.557,1.344.13a1.163,1.163,0,0,1,1.128.116c-1.879,1.511-4,.28-5.995.542-.59.077-1.332-.29-1.489-1.525" transform="translate(-278.741 -93.22)" fill="#0d101d" fill-rule="evenodd"/>
          <path id="パス_6110" data-name="パス 6110" d="M403.441,263.677c.339-.535.407-.749.553-.857,1.7-1.257,5.452-.831,7.1.864-.235.146-.519.443-.654.387-1.652-.7-3.317-.088-4.972-.116a18.464,18.464,0,0,1-2.024-.277" transform="translate(-291.564 -189.413)" fill="#0d101d" fill-rule="evenodd"/>
          <path id="パス_6111" data-name="パス 6111" d="M390.833,256.737a24.242,24.242,0,0,1-2.847.7,1.015,1.015,0,0,1-.763-1.825,2.254,2.254,0,0,1,1.436-.13c.326,1.2,1.364.811,2.174,1.258" transform="translate(-279.57 -184.587)" fill="#0d101d" fill-rule="evenodd"/>
          <path id="パス_6112" data-name="パス 6112" d="M403.984,185.682c-1,1.8-2.574.539-3.912,1,.778-1.453.778-1.453,3.912-1" transform="translate(-289.129 -134)" fill="#0d101d" fill-rule="evenodd"/>
          <path id="パス_6113" data-name="パス 6113" d="M408.3,210.809l-5.1.645c1.591-1.149,3.38-.595,5.1-.645" transform="translate(-291.389 -152.286)" fill="#0d101d" fill-rule="evenodd"/>
          <path id="パス_6114" data-name="パス 6114" d="M405.813,238.034h-3.184c1.19-1.047,1.935-1.057,3.184,0" transform="translate(-290.977 -171.456)" fill="#0d101d" fill-rule="evenodd"/>
          <path id="パス_6115" data-name="パス 6115" d="M390.235,211.453h1.61c-.139.217-.239.485-.317.479-.44-.037-.875-.139-1.312-.22.006-.087.012-.173.019-.259" transform="translate(-282.007 -152.816)" fill="#0d101d" fill-rule="evenodd"/>
          <path id="パス_6116" data-name="パス 6116" d="M418.359,437.367l-2.808.243a2.743,2.743,0,0,1,2.808-.243" transform="translate(-300.316 -315.884)" fill="#0d101d" fill-rule="evenodd"/>
          <path id="パス_6117" data-name="パス 6117" d="M402.173,156.049l1.422-.142.039.307-1.415.2-.046-.364" transform="translate(-290.648 -112.674)" fill="#0d101d" fill-rule="evenodd"/>
          <path id="パス_6118" data-name="パス 6118" d="M397.629,37.226c-2.632-.974-3.715-2.25-3.64-4.233a2.3,2.3,0,0,1,.271-1.171c.338-.492.787-1.031,1.52-.648a.953.953,0,0,1,.463,1.377,2.028,2.028,0,0,0,.89,2.657,1.343,1.343,0,0,1,.5,2.017" transform="translate(-284.73 -22.436)" fill="#0d101d" fill-rule="evenodd"/>
          <path id="パス_6119" data-name="パス 6119" d="M403.707,25.436a7.115,7.115,0,0,1,5.983-.217c-1.2.723-3.006.235-2.992,2.308-1.209-.544-2.824-.008-2.991-2.09" transform="translate(-291.757 -17.819)" fill="#0d101d" fill-rule="evenodd"/>
          <path id="パス_6120" data-name="パス 6120" d="M522.2,666.247l4.535-1.142S505.622,921.4,505.331,925.27s-1.409,5.178-1.409,5.178l-3.852-5.48,3.627-45.8Z" transform="translate(-361.397 -480.668)" fill="#bee4f6" fill-rule="evenodd"/>
          <g id="グループ_1821" data-name="グループ 1821" transform="translate(152.723 59.002)" opacity="0.48">
            <g id="グループ_1820" data-name="グループ 1820">
              <g id="グループ_1819" data-name="グループ 1819" clip-path="url(#clip-path-5)">
                <path id="パス_6121" data-name="パス 6121" d="M582.285,244.151s.023-27.436-3.738-29.2-12.1-4.247-15.546.871a21.373,21.373,0,0,0-4.624,10.962c-.888,6.885-6.242,78.137-6.242,78.137s-2.395,17.062-.916,19.583,8.589,13.994,8.589,13.994l3.544-.29s7.689-6.1,9.98-9.447,3-17.757,3-17.757Zm-6.74-12.741c-1.638,2.523-4.527,5.151-7.734,5.088-4.174-.083-5.545-4.527-4.38-7.975a7.866,7.866,0,0,1,3.687-4.585,9.232,9.232,0,0,1,5.978-.5,1.606,1.606,0,0,0,1.967.853c2.8,1.448,1.857,5,.481,7.119" transform="translate(-550.737 -212.77)" fill="#ea818e" fill-rule="evenodd"/>
              </g>
            </g>
          </g>
          <path id="パス_6122" data-name="パス 6122" d="M541.556,313.742c.044-1.872-.156-3.752-.057-5.619.179-3.391.481-6.775.772-10.159.163-1.89.463-3.768.6-5.658.18-2.455.222-4.92.395-7.375.148-2.107.428-4.206.6-6.312q.383-4.812.685-9.629c.116-1.832.082-3.677.268-5.5.174-1.7.649-3.378.811-5.083.224-2.367.246-4.753.418-7.127.109-1.5.286-3,.514-4.485a37.4,37.4,0,0,0,.28-10.022c-.331-2.865-1.178-12.663-1.339-14.095-.5-4.475,1.172-8.087-5.155-11.805a5.176,5.176,0,0,0-2.253-1.087,17.01,17.01,0,0,0-11.734,1.688,12.723,12.723,0,0,0-5.5,6.614,34.531,34.531,0,0,0-1.289,7.054c-.357,2.916-.5,5.858-.755,8.787-.221,2.529-.49,5.053-.7,7.581q-.635,7.46-1.233,14.922c-.311,3.835-.583,7.672-.923,11.5-.254,2.867-.679,5.721-.866,8.591-.311,4.786-.5,9.58-.727,14.371-.091,1.916-.1,3.838-.233,5.75-.206,2.868-.426,5.737-.767,8.591-.4,3.321-.267,6.729-1.761,9.883a4.1,4.1,0,0,0,.259,3.961,2.879,2.879,0,0,1,.3,2.317c-.262,1.388-.592,2.9,1.143,3.762a1.132,1.132,0,0,1,.479.856c.013,2.272,1.853,3.058,3.339,4.061,1.143.772,2.378,1.362,2.837,2.812.4,1.249-.365,14.588-.392,14.792-.318,2.381-2.389,23.909-2.444,24.793-.2,3.282-1.1,15.177-1.333,17.842-.206,2.313-2.861,38.852-3.064,41.981q-.4,6.156-.89,12.3c-.116,1.423-2.169,23.673-2.567,29.668-.118,1.772-.423,3.748-.554,5.52-.166,2.254-.482,4.859-.673,7.11-.348,4.087-2.737,30.871-2.949,33.921-.131,1.88-2.332,26.5-2.55,28.177-.272,2.1-.306,4.223-.431,6.338-.1,1.619-.914,11.993-1.006,13.632-.128,2.282-1.028,12.939-1.05,13.23-.341,4.375-.593,9.967-.9,14.344-.082,1.164,2.057,4.7,2.608,7.241.321-1.606,2.914-4.652,3.1-6.139.645-5.041,1.282-10.084,1.81-15.138.628-6.009,1.145-12.031,1.7-18.048.169-1.83,1.694-23.759,1.889-25.651.224-2.17.371-4.348.564-6.521.181-2.043.356-4.087.581-6.125.111-1.005,1.428-13.754,1.57-16.033.19-3.036.974-17.022,1.619-19.883.551-2.448,1.393-17.215,1.655-20.061.182-1.973.25-10.534.8-12.849.265-1.118,1.18-13.309,1.44-14.71.472-2.552.87-11.956.939-14.076.058-1.772.8-8.8.948-10.556.451-5.46.76-10.931,1.224-16.389.394-4.636.966-9.257,1.383-13.891.19-2.105,1.042-13.825,1.362-17.572.391-4.567.714-9.139,1.081-13.708.507-6.331,1.323-12.638,1.413-19a3.891,3.891,0,0,1,.262-.957,5.922,5.922,0,0,0,1.986-.67c2.071-1.783,6.474-6.242,6.7-6.589a42.858,42.858,0,0,1,3.16-4.793,4.438,4.438,0,0,0,.975-4.379,2.537,2.537,0,0,1,.443-2.69,4.838,4.838,0,0,0,1.191-3.614m-20.777-70.709c.036-.936.007-1.877.082-2.81.129-1.615.333-3.225.473-4.839.129-1.489.177-2.985.336-4.47a98.724,98.724,0,0,1,3.287-12.989,9.618,9.618,0,0,1,8.217-6.294,7.282,7.282,0,0,1,3.873.268c.723.3,3.382.324,4.327,2.55,1.642,3.868,1.22,7.539,1.343,11.773.044,1.506.165,3.012.162,4.517a3.8,3.8,0,0,1-.4,1.774,17.386,17.386,0,0,1-3.967,5.146,61.864,61.864,0,0,1-9.892,6.6c-2.038,1.109-3.9,2.539-5.876,3.764a13.95,13.95,0,0,1-2.124.871,4.285,4.285,0,0,1-.02-3.712,5.391,5.391,0,0,0,.176-2.151M507.06,566.178q-.7,5.733-1.4,11.465c-.482,3.96-.949,7.922-1.44,11.882-.371,3-.525,3.222-.928,6.217-.032.243-1.043,3.84-1.247,4.263a8.383,8.383,0,0,1-.5-1.984,32.646,32.646,0,0,1-.583-5.015,44.319,44.319,0,0,1,.191-5.74c.1-1.839.252-3.674.365-5.513.015-.24.754-9.689.872-11.81.106-1.906,1.579-20.932,1.8-23.161.108-1.068.452-7.19.694-8.562.092-.519.5-8.671.622-9.407.1-.6.637-4.917.808-6.476.141-1.279.448-2.541.558-3.821.178-2.089.243-4.186.38-6.279.082-1.26,3.427-30.586,3.4-32.593-.035-2.936.417-5.823.572-8.737.139-2.615.685-5.205.922-7.819.214-2.364.8-13.392.808-13.52.026-1.118,1.838-23.552,2.035-24.459.829-3.82.551-7.735,1.152-11.594.741-4.76.75-9.632,1.126-14.451q.5-6.433,1.116-12.857c.338-3.548.809-7.084,1.115-10.634.275-3.2.359-6.413.618-9.613.169-2.1.522-4.182.753-6.277.3-2.719.565-5.442.841-8.163a7.657,7.657,0,0,0,.062-1.02,36.77,36.77,0,0,1,2.161-13.394,3.6,3.6,0,0,1,.073,1.412q-.617,6.543-1.237,13.086c-.084.888-.113,1.781-.209,2.668-.244,2.242-.555,4.478-.762,6.723-.4,4.3-.686,8.607-1.115,12.9-.387,3.881-1.645,27.3-1.78,28.989-.38,4.775-.875,9.541-1.287,14.314-.082.951.087,1.924,0,2.874-.271,3.068-1.4,12.318-1.486,13.889-.2,3.619-.285,7.246-.445,10.868-.1,2.243-1.425,18.562-1.807,24.493-.3,4.719-1.423,17.438-1.457,17.911-.123,1.708-.788,13.887-1.358,18.221-.847,6.445-1.021,12.939-1.722,19.393-.539,4.959-.689,9.96-1.05,14.94-.261,3.615-1.145,25.656-1.235,26.389m27.611-241.064a40.37,40.37,0,0,1-6.525,7.567c-.332.322-.849.736-1.222.684-1.6-.222-2.513.662-3.294,2.1-.019-1.484.318-2.847-.146-3.832-.481-1.022-1.743-1.672-2.652-2.5a4.992,4.992,0,0,1-1.142-1.16,4.428,4.428,0,0,0-1.868-1.8,3.327,3.327,0,0,1-1.46-4.712,2.26,2.26,0,0,1,1.116-.7c1-.342,2.037-.572,3.039-.91.832-.281,1.644-.627,2.447-.986,3.048-1.359,6.12-2.671,9.116-4.136a10.877,10.877,0,0,1,3.514-1.046c.044.85.07,1.39.1,1.93a1.684,1.684,0,0,1-1.526,2.047,6.586,6.586,0,0,0-2.871,1.448,12.521,12.521,0,0,1-3.089,1.239c-.86.32-1.727.624-2.748.991l2.268,2.274c1.6-.238,3.365-.413,5.081-.8.622-.141,1.13-.788,2-1.433l1.485.111a8.894,8.894,0,0,1-1.622,3.617m-.13-14.1c-2,.8-3.888,1.867-5.818,2.832q-1.627.814-3.223,1.685c-.879.481-1.7,1.081-2.609,1.493-1.4.634-2.839,1.179-4.282,1.707-.826.3-1.691.5-2.763.8.09-1.2.087-2.1.238-2.962.29-1.659,1.743-2.185,3.019-2.731,2.36-1.008,4.807-1.811,7.181-2.79,1.89-.779,3.749-1.644,5.573-2.566,1.14-.576,2.174-1.359,3.287-1.992.628-.357,1.323-.6,2.02-.907.768,3.241-.292,4.489-2.623,5.429m7.879-54.548c.03,2.126-1.324,3.51-2.5,4.923a19.771,19.771,0,0,1-3.053,2.3c-1.229.984-2.364,2.086-3.607,3.049-.863.669-1.908,1.106-2.753,1.794-1.64,1.334-3.2,2.763-4.784,4.168-.962.855-1.9,1.737-2.957,2.705-.282.735-.65,1.678-1.006,2.625-.3.8-.293.8.725,1.509.179-.179.46-.334.54-.561.617-1.756,2.073-2.711,3.394-3.864a23.136,23.136,0,0,1,3.714-3.166,30.308,30.308,0,0,0,2.551-1.657c2.623-1.836,5.231-3.693,7.85-5.535a7.663,7.663,0,0,1,.846-.428c-.13,1.734-.175,3.3-.384,4.836s-1.406,2.519-2.423,3.49a127.825,127.825,0,0,1-13,10.738,55.841,55.841,0,0,0-4.308,3.739,2.6,2.6,0,0,0-.431.818c.46.8,1.057.658,1.409.212,1.74-2.207,4.523-2.731,6.719-4.21,2.827-1.9,5.822-3.527,8.13-6.122a3.532,3.532,0,0,1,3.046-1.329c-.155,2.064-.3,4.1-.473,6.126a1.292,1.292,0,0,1-.341.737,48.049,48.049,0,0,1-3.791,3.718c-2.182,1.771-4.486,3.391-6.754,5.053-1.6,1.169-3.3,2.2-4.805,3.475a10.822,10.822,0,0,0-3.559,4.934l2.891-1.113c.371-1.44,1.755-2.188,3.119-2.819a7,7,0,0,0,2.587-1.588,2.521,2.521,0,0,1,1.2-.731,7.581,7.581,0,0,0,2.741-1.692c1.915-1.5,4-2.77,6.119-4.2.551,2.328-.37,3.875-2.082,5.148-1.8,1.337-3.522,2.776-5.327,4.1-1.427,1.05-2.983,1.929-4.385,3.009-2.331,1.8-4.6,3.673-6.857,5.566a7.257,7.257,0,0,0-1.059,1.475l.268.338a3.081,3.081,0,0,0,1.129-.209c1.7-1.113,3.349-2.3,5.038-3.427.561-.375,1.217-.609,1.776-.987,1.407-.953,2.659-2.283,4.2-2.856,2.434-.9,4-2.986,6.47-4.122a6.939,6.939,0,0,1-.189,5.165c-.568,1.112-2.193,1.749-3.435,2.438-1.841,1.022-3.764,1.894-5.644,2.848-2.122,1.077-4.2,2.252-6.363,3.237-1.865.849-3.893,1.352-5.429,2.836-.167.162-.493.158-.993.3a22.405,22.405,0,0,1-.1-2.3c.223-3.552.426-7.108.748-10.652.358-3.942.839-7.873,1.263-11.809.029-.273.034-.548.049-.823.151-2.868.276-5.737.458-8.6q.311-4.892.706-9.778c.26-3.263.622-6.518.822-9.784a24.856,24.856,0,0,0-.212-4.273,4.91,4.91,0,0,1,2.375-4.719c4.161-2.376,8.321-4.757,12.427-7.226,2.1-1.261,4.077-2.716,6.1-4.08,1.084.451,1.078,1.2.533,1.984a9.13,9.13,0,0,1-1.485,1.684,64.535,64.535,0,0,1-10.018,6.793,14.063,14.063,0,0,0-1.647,1.222c-.373.3-.666.839-1.074.935-2.55.6-3.406,3.084-5.156,4.561-.316.266-.405.8-.364,1.545a10.727,10.727,0,0,0,1.49-.735c1.281-.891,2.526-1.834,3.783-2.76.935-.688,1.833-1.431,2.807-2.057.909-.584,1.9-1.034,2.847-1.564a47.886,47.886,0,0,1,6.241-3.124,55.77,55.77,0,0,1-4.18,3.806c-1.965,1.473-4.32,2.486-6.091,4.141-1.975,1.846-4.818,2.63-6.343,5.451a8.774,8.774,0,0,0,2.013-.533c3.8-2.166,7.691-4.2,11.3-6.651a89.025,89.025,0,0,0,7.646-6.513,28.394,28.394,0,0,1-.288,3.48,26.272,26.272,0,0,0-.425,5.584" transform="translate(-360.731 -151.335)" fill="#0d101d" fill-rule="evenodd"/>
          <path id="パス_6123" data-name="パス 6123" d="M597.4,362.233a2.079,2.079,0,0,1,.307,2.127c-.972,2.385-2.9,3.737-4.922,5.012-2.7,1.706-5.458,3.313-8.182,4.977-2.36,1.441-4.707,2.9-7.411,4.573,1.477-2.412,2.479-4.655,4.956-5.8a23.881,23.881,0,0,0,6.372-4.079,26.858,26.858,0,0,1,3.7-2.524,13.558,13.558,0,0,0,4.237-3.834c.146-.226.562-.278.941-.451" transform="translate(-417.135 -261.784)" fill="#0d101d" fill-rule="evenodd"/>
          <path id="パス_6124" data-name="パス 6124" d="M582.489,267.346a1.1,1.1,0,0,1-.045-1.62c.97-1.113,1.771-2.357,3.339-2.892a10.207,10.207,0,0,0,2.49-1.875c-.843-1.68-1.579-3.281-2.435-4.814a6.713,6.713,0,0,1-.533-5.762,23.825,23.825,0,0,1,2.6-5.1,7.7,7.7,0,0,1,8.435-2.747,6.433,6.433,0,0,1,3.8,6.848,19.525,19.525,0,0,1-1.386,5.122,24.992,24.992,0,0,1-2.028,3.606,8.152,8.152,0,0,1-4.893,3.413c-1.859.5-3.874,1-4.748,3.126a1.6,1.6,0,0,1-.709.7c-1.232.664-2.489,1.286-3.887,2m5.878-15.468c0-.132.005,0,0,.139-.04,3.237.758,4,3.88,3.7a5.89,5.89,0,0,0,5.035-7.734,3.412,3.412,0,0,0-3.762-2.428c-1.243.291-2.825.705-3.467,1.619-.867,1.235-2.061,2.618-1.689,4.7" transform="translate(-420.686 -175.006)" fill="#0d101d" fill-rule="evenodd"/>
          <path id="パス_6125" data-name="パス 6125" d="M580.075,615.225c.451,1.624.451,1.624-2.311,1.692l2.311-1.692" transform="translate(-417.546 -444.62)" fill="#0d101d" fill-rule="evenodd"/>
          <path id="パス_6126" data-name="パス 6126" d="M352.014,825.6l4.874,3.373L214.439,1059.335l-4.956,3.919,1.76-6.5Z" transform="translate(-151.392 -596.653)" fill="#bee4f6" fill-rule="evenodd"/>
          <g id="グループ_1824" data-name="グループ 1824" transform="translate(203.934 91.996)" opacity="0.73">
            <g id="グループ_1823" data-name="グループ 1823">
              <g id="グループ_1822" data-name="グループ 1822" clip-path="url(#clip-path-6)">
                <path id="パス_6127" data-name="パス 6127" d="M821.813,337.9s-6.812-5.082-12.422-5.714a92.147,92.147,0,0,0-11.912-.386s-3.78,9.217-1.9,17.639-.18,5.4-1.514,6.536-4.124,4.151-4.153,6.077-6.264,13.871-6.264,13.871L770.33,396.383s-5.139,1.271-5.524,2.982a50.211,50.211,0,0,0-.3,6.943l-16.878,26.9s-5.149,5.314-5.968,9.354-5.4,10.021-6.035,17.248.355,10.416.355,10.416l16.5-8.829,17.187-26.875s4.361-4.008,4.6-4.673,1.494-7.843,1.494-7.843L795.9,391.571l3.6-3.011,3.326-8.2,9.408-15.861s8.633-.621,10.752-1.448,8.932-5.946,8.911-7.254-2.876-9.994-2.876-9.994Z" transform="translate(-735.409 -331.749)" fill="#29547b" fill-rule="evenodd"/>
              </g>
            </g>
          </g>
          <path id="パス_6128" data-name="パス 6128" d="M835.133,631.175a9.765,9.765,0,0,1,1.676.779c1.754,1.391,3.54,2.754,5.178,4.273a16.168,16.168,0,0,1,1.95,2.881c-.7-.03-1.107.06-1.2-.068-1.188-1.692-3.3-2.116-4.712-3.466a31.169,31.169,0,0,1-2.579-2.855c-.21-.257-.162-.726-.317-1.545" transform="translate(-603.545 -456.147)" fill="#0d101d" fill-rule="evenodd"/>
          <path id="パス_6129" data-name="パス 6129" d="M923.371,521.048c-.988.754-2.748.575-3.922.66a13.016,13.016,0,0,1-4.846-.45.833.833,0,0,0-.456,1.6c.2.06.4.111.595.159.885.614,1.607,1.545,2.982.774l-.493-.409a20.059,20.059,0,0,0,2.56-.036c1.63-.118,4.424-2.94,3.581-2.3" transform="translate(-660.229 -376.49)" fill="#0d101d" fill-rule="evenodd"/>
          <path id="パス_6130" data-name="パス 6130" d="M909.768,550.554l-4.684-2.115c1.957-.148,3.192,1.26,4.684,2.115" transform="translate(-654.098 -396.347)" fill="#0d101d" fill-rule="evenodd"/>
          <path id="パス_6131" data-name="パス 6131" d="M800.247,748.521l-2.521-1.26a2.743,2.743,0,0,1,2.521,1.26" transform="translate(-576.511 -540.041)" fill="#0d101d" fill-rule="evenodd"/>
          <path id="パス_6132" data-name="パス 6132" d="M447.281,347.916a16.437,16.437,0,0,0-2.656-6.562c-.758-1.184-4.833-6.633-6.418-7.787-1.514-1.1-2.953-2.286-4.456-3.4a15.758,15.758,0,0,0-4.955-2.093,16.715,16.715,0,0,0-6.291-.679,22.373,22.373,0,0,0-7.387-1.348c-3-.069-4.319,1.656-4.712,4.391-2.268,3.856-.831,17.4.044,19.184l-.333.526q-.43.209-.852.427c-2.543.044-4.676,2.529-5.2,5.03a12.211,12.211,0,0,0-.042,4.205c-1.819,2.983-4.088,5.7-5.326,9.023a1.536,1.536,0,0,1-.249.327,104.9,104.9,0,0,0-7.367,11.784c-.2.36-.375.737-.6,1.077q-1.59,2.353-3.187,4.7a7.3,7.3,0,0,0-.673.817,18.156,18.156,0,0,1-4.066,3.626,9.042,9.042,0,0,0-1.094,1.005,6.845,6.845,0,0,0-2.609,5.16,20.31,20.31,0,0,0-.523,3.789c-1.1,1.769-2.218,3.522-3.314,5.29-2.419,3.9-4.977,7.716-7.424,11.6-1.385,2.2-2.678,4.452-4,6.686q-.7,1.17-1.381,2.345a9.766,9.766,0,0,0-4.987,4.394,13.967,13.967,0,0,0-1.418,6.1q-.582.933-1.152,1.873a17.885,17.885,0,0,0-1.062,2.433c-.572,1.379-1.117,2.771-1.7,4.144a64.967,64.967,0,0,0-2.958,6.986,84.924,84.924,0,0,0-1.9,9.18c-.2,1.134-2.988,5.281-3.74,6.5-.394.639-23.33,40.023-24.075,41.273-2.556,4.294-5.277,8.49-7.9,12.747-1.545,2.511-2.986,5.087-4.534,7.6-1.041,1.689-2.231,3.285-3.272,4.974-1.259,2.043-6.023,9.7-7.121,11.506-2.915,4.792-5.753,9.63-8.666,14.424-3.376,5.555-6.8,11.082-10.2,16.619-1.219,1.981-2.44,3.96-3.682,5.925-1.171,1.852-2.438,3.647-3.544,5.537-1.764,3.013-3.457,6.056-5.415,8.963-2.68,3.982-9.353,14.7-10.145,15.981-2.986,4.831-5.916,9.7-8.9,14.529-2.469,4-4.995,7.96-7.473,11.952-1.373,2.213-2.711,4.449-4.046,6.686-1.474,2.471-2.927,4.954-4.388,7.433-.695,1.18-1.358,2.38-2.086,3.54-2.11,3.361-4.253,6.7-6.367,10.061q-2.4,3.821-4.766,7.666c-1.575,2.555-3.241,5.061-4.675,7.694-1.933,3.551-7.527,12.623-7.405,13.669.414,3.56-2.2,7.661-1.6,8.021.178.108,5.088-4.541,6.47-5.489.824-.565,9.3-14.459,9.83-15.334.848-1.4,1.732-2.779,2.575-4.182.452-.752.817-1.557,1.282-2.3.581-.929,5.949-9.676,8.077-13.106,2.242-3.613,10.9-18.017,12.287-20.344,1.187-1.992,25.7-41.262,25.75-41.312l.01.005a.017.017,0,0,0-.011-.013l-.028-.032.032-.043,0,.059c.032-.056,19.341-31.594,19.928-32.717,1.715-3.282,15.776-25.573,16.876-27.6,1.036-1.909,30.3-49.474,31.395-51.26.856-1.4,7.045-10.6,8.992-13.992a73.352,73.352,0,0,1,4.359-6.449,6.922,6.922,0,0,1,2.091-1.924c.789-.449,3.022-2.528,3.988-3.193,2.5-1.72,4.775-3.76,7.257-5.506a4.832,4.832,0,0,1,2.965-.828,2.534,2.534,0,0,0,2.662-1.47,39.9,39.9,0,0,0,3.233-6.079,67.775,67.775,0,0,1,4.078-7.84,59.977,59.977,0,0,1,4.355-7.513,79.643,79.643,0,0,0,4.512-6.79,13.639,13.639,0,0,0,2.528-1.236c2.524-1.624,3.034-4.414,2.7-7.2,1.189-1.912,2.316-3.864,3.526-5.763.8-1.26,1.836-2.379,2.591-3.663,1.859-3.16,3.577-6.4,5.448-9.557.468-.79.953-1.587,1.458-2.35,1.189-1.794,2.736-3.368,3.8-5.224,1.12-1.949,2.179-3.921,3.391-5.826.242-.38.479-.762.717-1.144a5.93,5.93,0,0,0,1.53-.885c2.82-2.318,4.534-6.57,5.048-10.145,2.688-4.42,5.445-8.8,8.168-13.2.563-.908,1.1-1.83,1.663-2.74,5.282-.054,10.836-1.213,14.961-4.527,1.925-1.547,6.429-4.081,3.764-8.83m-4.535,2.225c-.192.836-7.2,9.2-10.036,5.349.016-.031,6.771-2.489,6.782-2.522a.834.834,0,0,0-.354-1.232,10.083,10.083,0,0,0,.26-1.4c.014-.126.02-.251.028-.377a8.511,8.511,0,0,0,3.415-.052.842.842,0,0,0-.094.234m-3.088-11.922a10.1,10.1,0,0,1,.915.724c.044.2,3.076,3.813,3.712,5.129a.87.87,0,0,0-.056.281c-.033,1.366.005,2.771-.984,3.551-.732-.313-1.453-.656-2.172-1a22.931,22.931,0,0,0-2.525-.978,6.638,6.638,0,0,0-.515-.766,25.148,25.148,0,0,0-3.25-3.274l.164.043a4.353,4.353,0,0,1,1.955,1.535c.179.371,3.259-1.809,2.835-3.036-.185-.535-.771-.712-1.184-1.036a8.671,8.671,0,0,0-3.765-1.377,17.461,17.461,0,0,1-3.306-.986q-.212-.135-.419-.277c-.265-.182-.522-.379-.774-.584-.1-.279-.214-.548-.315-.787a6.507,6.507,0,0,0-3.016-3.086q-.307-.5-.579-1.005c.677.458,1.348.92,2.03,1.342,3.594,2.228,7.765,3.159,11.25,5.585M422.509,348.8a41.909,41.909,0,0,0,5.141,3.644,12.78,12.78,0,0,0-2.054,1.48c-3.614-1.779-5.8-4.8-7.585-8.135-.361-.674-2.968-5.272-2.987-6.017.424.427,3.6,4.509,4.031,4.926a9.256,9.256,0,0,0,1.183,1.82c-.162,1.171.332,2.424,1.522,3.936a1.274,1.274,0,0,0,.749-1.655m6.263.932c-.581-.337-1.16-.713-1.728-1.12a25.5,25.5,0,0,1-3.7-4.283c-.226-.377-4.787-8.3-5.142-8.95.73-.128,10.971,4.122,5.347,6.365,1.738.879,3.47,1.609,4.915,2.226.451.193.907.377,1.365.557a7.247,7.247,0,0,1,1.374,3.954l-2.479-1.127a6.428,6.428,0,0,0,.046,2.377m-.432-20.061a18.659,18.659,0,0,1,3.753,1.4c1.455.782,1.459,2.372-.126,1.634a48.534,48.534,0,0,1-5.743-3.442c-.051-.033-.1-.063-.156-.1a20.39,20.39,0,0,1,2.272.507m-16.452,1.49a6.56,6.56,0,0,1,3.22-2.758,9.612,9.612,0,0,0-2.7,3.754,11.245,11.245,0,0,0-.637,1.933c.014-.919.014-1.941.121-2.93m1.541,6.92a8.22,8.22,0,0,1,.294-4.734c.072-.228.153-.448.239-.663.329.079,1.36,1.95,1.969,2.954a10.854,10.854,0,0,0-2.5,2.443m6.711-3.268c-.75,0-1.5-.006-2.251,0a1.726,1.726,0,0,0-.44.072,5.443,5.443,0,0,1-.945-3.952.87.87,0,0,0-.046-.456,20.127,20.127,0,0,1,4.058-1.122,13.338,13.338,0,0,1,1.863-.322c.272.107.542.222.807.347.085.04.168.085.252.127a4.065,4.065,0,0,0-3.3,5.308m2.243-2.506a2.107,2.107,0,0,1,.854-.821,4.639,4.639,0,0,0,.029,3.357l-1.088-.012a3.944,3.944,0,0,1,.2-2.524M299.608,550.741a17.718,17.718,0,0,0-1.787,2.93c-.779,1.787-7.693,12.566-9.35,15.448-.573,1-14.285,23.835-14.795,24.529-.756,1.03-8.165,12.958-9.085,14.462-.674,1.1-3.57,5.194-4.207,6.223-1.143,1.846-7.171,11.734-9.2,14.733-1.138,1.684-5.889,9.206-6.323,9.86-1.176,1.771-2.282,3.588-3.437,5.373-1.824,2.816-14.734,23.664-16.93,27.227-1.8,2.914-7.592,12.956-8.724,15.065a90.375,90.375,0,0,1-6.648,10.482c-6.233,8.6-1.254-.251-1.042-.72.941-2.075,5.332-9.507,6.417-11.245.8-1.276,3.152-5.074,3.612-5.754,1.3-1.918,7.672-12.757,9.716-16.159,2.716-4.52,14.115-23.16,16.347-26.743,2.1-3.371,4.167-6.762,6.23-10.156,1.129-1.857,2.228-3.732,3.329-5.606.584-.992,4.549-6.514,5.659-8.448,1.764-3.073,13-21.21,13.417-21.887,1.506-2.444,3.019-4.884,4.482-7.353,1.04-1.756,1.966-3.58,3.015-5.331.831-1.388,5.607-8.145,6.632-10.391.728-1.6,7.645-12.1,9.794-15.582,1.31-2.127,2.573-4.282,3.87-6.416,1.277-2.1,2.532-4.217,3.871-6.279.668-1.029,11.538-18.276,12.516-19.844.832-1.332,20.8-35.351,22.088-37.584,1.756-3.046,3.708-5.981,5.628-8.93.9-1.376,1.91-2.675,2.876-4,.385-.531.768-.461,1.227.127-1.06.787-2.486,4.683-2.908,5.374-1.423,2.328-2.949,4.594-4.343,6.939-1.113,1.872-1.872,3.938-3.314,5.638-.836.984-7.987,13.154-9.047,15.136-.741,1.384-13.428,23.4-14.068,24.143-1.017,1.19-4.881,7.605-5.254,8.333-.855,1.664-8.355,13.612-10.266,16.409M361.624,458.7a19.7,19.7,0,0,0-5.424,4c-1.066,1.177-2.449,1.09-3.774,1.228-.732.076-1.154-.445-.972-1.209.233-.984.542-1.95.888-3.169l.971,2.394,1.6-1.594.906,1c1.525-.459,1.037-2.121,1.851-3s1.471-1.887,2.374-3.071c1.412-.475,2.51.624,3.868,1.755a20.6,20.6,0,0,1-2.29,1.66m9.864-10.918c-.454.662-.927,1.311-1.365,1.983-.891,1.369-1.623,1.609-3.713,1.06.272.6.49,1.085.866,1.913-.687.813,2.558,4.807-2.6,3.081-3.571-2.161-5.679-5.341-8.012-8.6l-1.52-.132c-1,1.994,1,3.246,1.255,4.773l-3.478,4.29a22.083,22.083,0,0,0-.112-3.841,5.711,5.711,0,0,1,1.672-5.508,9.182,9.182,0,0,0,1.085-1.964c.657.52,1.123.866,1.562,1.24.526,1.87,1.245,4.026,2.994,5.052.384.225,1.562-1.232,1.522-1.847a.886.886,0,0,0-.048-.232c.353.255.708.507,1.062.762l.345-.4c-.908-1.087-1.8-2.191-2.71-3.274a.752.752,0,0,0,.2-1.263,6.254,6.254,0,0,1-1.868-4.307c.317-.6.673-1.208,1.078-1.946,1.309.9,2.559,1.788,3.9,2.546-.037.63-.055,1.258-.054,1.874,0,1.41.15,3.8,2.009,3.9,1.073.057-.363-3.972-.323-4.951a16.1,16.1,0,0,0,1.945.725,8.8,8.8,0,0,0-1.82-2.514c.084-.832-.909-3.956-1.18-2.918-.129.495-.233,1-.318,1.515-.942-.859-4.59-1.967-3.942-5.147l5.205-4.778a10.024,10.024,0,0,0,6.07,7.4,28.1,28.1,0,0,0,3.235,1.564c-.54-.5-1.117-.976-1.614-1.521-1.557-1.708-3.124-3.41-4.6-5.186a13.428,13.428,0,0,1-1.606-2.62c-.437-.879,1.007-3.386,1.977-3.452a1.469,1.469,0,0,1,1.078.438,16.793,16.793,0,0,0,4.543,3.5,5.8,5.8,0,0,1,1.1,1.222l.784-.567a19.261,19.261,0,0,0-3.155-4.473c-.563-.6-1.141-1.195-1.656-1.836-1.318-1.638-1.313-2.47.017-4.162a12.421,12.421,0,0,1,1.076-1.09l7.427,6.57a1.279,1.279,0,0,0,.418-1.732,8.379,8.379,0,0,0,7.235-1.052c-1.3,2.107,2.852,4.376-3.9,6.317-1.408.245-2.788.363-3.629.529-2.049.4-3.748,1.615-5.884,1.661a.824.824,0,0,0-1.4-.558,2.1,2.1,0,0,0-.3.389c-1.286-.212-4.1-2.7-4.34-1.651-.49,2.161,2.257,2.925,3.857,3.254.314.064.636.118.962.159a4.276,4.276,0,0,0,2.056.821,16.3,16.3,0,0,0,6.534-1.137q-.971,1.578-1.937,3.158c-2.074,3.4-4.081,6.841-6.146,10.247-.564.931-1.223,1.8-1.841,2.7M359.5,447.9a2.306,2.306,0,0,0,.677.047c.221-.016.459.281.7.532a.781.781,0,0,0-.822.377,5.249,5.249,0,0,1-.558-.956m68.425-89.722c-.218.337-.441.672-.661,1.008a.763.763,0,0,0-.959-.126,3.364,3.364,0,0,0-.968.723.841.841,0,0,0,.576,1.425h.023c-1.906,2.879-3.842,5.74-5.734,8.628-.788,1.2-1.4,2.52-2.174,3.737-.542.857-1.206,1.638-1.828,2.443-.122.158-.383.245-.438.412-1.124,3.428-.5,8.854-5.407,9.044-.046.013-.092.027-.137.039-2.4.662-4.464-.049-6.587-1.176a.8.8,0,0,0-1.09.257c-2.389-.63-7.778.939-7.828,1.009,0,0-.95.222-1.409.3-.789.128,5.7,1.652,8.576,1.778a.822.822,0,0,0,.626-1.361,3.9,3.9,0,0,1,.456.212.8.8,0,0,0,.565.09,7.885,7.885,0,0,0,4.462,2.17c.132.018.267.031.4.042-1.98,3.076-4,6.123-5.96,9.215-1.937,3.063-3.772,6.192-5.709,9.256-1.281,2.024-2.706,3.956-3.99,5.978-1.593,2.508-3.1,5.068-4.66,7.6a.9.9,0,0,0-1.425-.458c-2.578,2.1-6.229,1.244-8.849-.31a.782.782,0,0,0-.55-.107c-.09-.078-.178-.159-.268-.236-1.144-.978-2.36-1.871-3.623-2.863A10.7,10.7,0,0,1,377,410.6a2.759,2.759,0,0,0,.865-1.235c.52-1.947,1.89-3.347,2.889-5.086.014.214.029.427.053.641.4,3.574,2.355,6.864,4.473,9.686.635.846-2.339-6.464-2.792-9.776,2.165,1.25,4.032,2.8,6.138,3.921l.356-.469-5.432-5.88c-.2.619-.329,1.028-.459,1.436a1.122,1.122,0,0,1-.712-.358c-.009-.33-.009-.66-.006-.989-3.22-3.391-1.172-8.65-.191-6.739,3.409,6.643,2.552-1.149,3.111-2.159.085-.154,1.954.506,2.037.354.035.616.084,1.251.164,1.89a1.356,1.356,0,0,0-.52.7,1.305,1.305,0,0,0,.629,1.08c.075.033.151.063.226.094a9.045,9.045,0,0,0,1.448,3.3.909.909,0,0,0,1.225.211,7.52,7.52,0,0,0,.892.7c1.4.888,3.133,1.241,4.178,2.7.085.119-2.73-4.614-4.84-4.433l-.007,0,0-.007a7.143,7.143,0,0,1-.971-1.862c.215.06.43.121.643.187a4.9,4.9,0,0,0-.878-.936,19.421,19.421,0,0,1-.551-4.183.813.813,0,0,0-.638-.777,2.427,2.427,0,0,1,.927-.463c.336-.089.555-.621.877-1.008.85.606,1.3,1.694,2.332,2.015.425,2.147,5.3,5.283,4.557,4.508a14.3,14.3,0,0,1-2.286-3.033l1.619.992c-.422-1.278-.931-1.762-1.969-1.743-.36-.9-1.57-4.215-1.86-3.183a4.913,4.913,0,0,0-.176,1.155,6.724,6.724,0,0,0-.895-.553,2.142,2.142,0,0,1-1.321-1.961c1.252-2.043,2.337-3.822,3.431-5.6.963-1.56,1.9-3.142,2.931-4.654a5.75,5.75,0,0,1,1.4-1.078c-.029-.312-.259-.866-.075-1.163.854-1.379,1.779-2.72,2.765-4.008.758-.991,1.863-.557,2.921-.575l-1.76-.827c-.105-1.872,1.394-5.078,1.2-5.382a1.252,1.252,0,0,1,.151-.413c.513-.542,1.035-1.076,1.556-1.611a10.614,10.614,0,0,0,1.417,3.518,6.331,6.331,0,0,1,1.27.8c.053.165.1.332.159.494.506,1.441,1.731,3.448,1.424,5.018-.2,1.047,1.348-2.485.8-3.87a3.336,3.336,0,0,0,1.743.232c-.226-.385-.581-.719-.9-.688-.7.07-1.278-.281-1.078-.813.353-.942-.225-1.318-.747-1.642l-.048-.028c-.535-1.945-2.385-7.744-2.646-9.69.42-.181,2.378,3.675,2.912,4.108,1.179.953,2.369,1.891,3.558,2.82.564,2.163,2.522,7.61,2.637,6.554a13.816,13.816,0,0,0-.548-4.926q.837.651,1.668,1.3a4.791,4.791,0,0,0-2.382-4.082c-.2-.873-2.142-3.731-2.08-2.66a13.831,13.831,0,0,0,.236,1.794,6.115,6.115,0,0,0-1.323-.243c-.249-1.47-4.434-5.37-2.321-7.45,1.552,4.366,5.865,4.855,7.994,5.849.057-.107.114-.213.171-.319l-5.1-4.533a3.723,3.723,0,0,1,2.395-3.56c-.421,1.694.734,2.011,1.725,2.638,1.905,1.2,3.666,2.634,5.512,3.934a22.833,22.833,0,0,0,2.019,1.131c.712-1.928-1.52-2.029-1.589-3.565l4.26,2.611.281-.448c-.884-.565-1.79-1.1-2.649-1.7-.953-.668-1.83-1.448-2.8-2.083-.847-.552-1.782-.97-2.679-1.446l.2-.368a12.13,12.13,0,0,1,1.386.669,3.61,3.61,0,0,0,2.721.588,4.063,4.063,0,0,1,2.129.47,20.526,20.526,0,0,1,2.306,1.381l1.926-1.147a4.4,4.4,0,0,0,.769.892,27.322,27.322,0,0,1-1.442,2.619m5.868-10.268c.207.147.423.284.646.414.727,1.479.915,2.546.611,3.322q-.52-.049-1.039-.1-.109-1.818-.218-3.632m-4.109,11.672a4.365,4.365,0,0,1,.783-.72c2.7.619,5.326-.515,7.975-.956a26.426,26.426,0,0,1-8.758,1.677M444,353.866c0-.012,0-.024,0-.037a11.269,11.269,0,0,1,.666-1.92c.236-.479-.288-1.585-.316-1.7a8.951,8.951,0,0,0,1.144.324,8.019,8.019,0,0,1-1.5,3.337" transform="translate(-146.655 -235.628)" fill="#0d101d" fill-rule="evenodd"/>
        </g>
      </g>
    </g>
  </g>
</svg>
